<svg id="Calque_1" data-name="Calque 1" xmlns="http://www.w3.org/2000/svg" viewBox="0 0 9.11 11.94"><defs><style>.cls-1{fill:#01b1ee;}</style></defs><title>20160808_Collecteat</title><path class="cls-1" d="M4.53,11.94h0A0.59,0.59,0,0,1,4,11.64L1,7.5A5.5,5.5,0,0,1,.11,5.59a5,5,0,0,1-.11-1,4.56,4.56,0,1,1,9.11,0,4.91,4.91,0,0,1-.11,1A6.13,6.13,0,0,1,8.13,7.5L5.05,11.64A0.6,0.6,0,0,1,4.53,11.94Zm0-11.12A3.74,3.74,0,0,0,.83,4.57a4.09,4.09,0,0,0,.09.85A4.71,4.71,0,0,0,1.64,7L4.53,11,7.47,7a5.36,5.36,0,0,0,.72-1.59,4.09,4.09,0,0,0,.09-0.85A3.74,3.74,0,0,0,4.56.83Zm0,6.86a3.07,3.07,0,0,1-3-3.11,3,3,0,0,1,3-3,3.08,3.08,0,0,1,3,3.12A3,3,0,0,1,4.56,7.69Zm0-5.31a2.18,2.18,0,0,0-2.2,2.2,2.25,2.25,0,0,0,2.2,2.29,2.17,2.17,0,0,0,2.2-2.2A2.25,2.25,0,0,0,4.56,2.37Z"/></svg>