<svg id="Calque_1" data-name="Calque 1" xmlns="http://www.w3.org/2000/svg" viewBox="0 0 24.98 22.94"><defs><style>.cls-1{fill:#5d5d5d;stroke:#fff;stroke-miterlimit:10;stroke-width:0.25px;}</style></defs><title>20160808_Collecteat</title><path class="cls-1" d="M24.86,10.91a0.88,0.88,0,0,1-.89.89H23.81L20.29,22.23a0.88,0.88,0,0,1-.82.59H5.68a0.88,0.88,0,0,1-.82-0.59L1.21,11.8H1A0.89,0.89,0,0,1,1,10H8.18L9.79,5.65A1.22,1.22,0,0,1,9.56,4.5l1.32-3.59A1.16,1.16,0,0,1,12,.13h1A1.16,1.16,0,0,1,14.1.91L15.42,4.5a1.22,1.22,0,0,1-.23,1.15L16.8,10H24A0.88,0.88,0,0,1,24.86,10.91ZM3.12,11.8l0.79,2.27H7.26L6.87,11.8H3.12Zm2,5.76H7.85l-0.39-2.3H4.3ZM6.34,21H8.48l-0.39-2.3H5.52ZM8.05,11.8l0.39,2.27H11.9V11.8H8.05Zm1,5.76H11.9v-2.3H8.68Zm0.2,1.18L9.7,21h2.2v-2.3H9.27ZM9.43,10h6.12L14.1,6a1.14,1.14,0,0,1-.92-0.76L12.49,3.38,11.8,5.29a1.14,1.14,0,0,1-.92.76Zm7.1,4,0.39-2.27H13.08v2.27h3.45Zm-0.23,1.18H13.08v2.3h2.83ZM13.08,21h2.2l0.43-2.3H13.08V21Zm6.51-2.3H16.9L16.5,21h2.3Zm1.15-3.49H17.52l-0.43,2.3H20Zm1.18-3.45H18.12l-0.39,2.27h3.45Z"/></svg>