<svg id="Calque_1" data-name="Calque 1" xmlns="http://www.w3.org/2000/svg" viewBox="0 0 112.34 82.85"><defs><style>.cls-1{fill:#ccc;}.cls-2{fill:#01b1ee;}.cls-3{fill:#999;}.cls-4{fill:#58585a;}</style></defs><title>20160808_Collecteat</title><path class="cls-1" d="M5.86,76l0,1.33,1.86-.5C7,76,6.86,75.26,6.18,74.44a1,1,0,0,0-1.67.44C4,76.55,4.7,78.4,5.37,80A1,1,0,0,0,7.1,80c0.72-1.18.26-2.56,0.1-3.85l-1.86.5a21.67,21.67,0,0,0,2.21,3.12,1,1,0,0,0,1.57-.2c1.07-1.69.42-3.49,0.07-5.34L7.35,75C7.91,76.24,9.2,79.22,11,78.63s1.09-3.8.65-5.15l-1.83.77c0.95,1.93,2.53,4.67,4.78,5.21A1,1,0,0,0,15.77,79a5.42,5.42,0,0,0-1.57-6.1c-0.68-.53-2.07-0.08-1.67,1,0.83,2.18,2.17,4.67,4.27,5.83A1,1,0,0,0,18,79.55c1.44-1.11.38-3.46-.53-4.61a1,1,0,0,0-1.57,1.21A8.67,8.67,0,0,0,20,79.93a1,1,0,0,0,1.13-.46c1-1.76.24-3.25-.42-5l-1.67,1c1.51,1.58,2.71,3.18,4.76,3.95a1,1,0,0,0,1.23-.7c0.4-1.88,0-2.33-.93-4.18l-1.57,1.21c1.32,1.41,2.49,2.87,4.26,3.69a1,1,0,0,0,1.5-.86A5.66,5.66,0,0,0,26.19,74a1,1,0,0,0-1.57,1.21c0.86,1.72,2.79,4.56,5,4.17a1,1,0,0,0,.73-1c0.19-1.47-.65-2.52-1.34-3.82l-1.57,1.21a13.26,13.26,0,0,0,3.74,3.6,1,1,0,0,0,1.5-.86c0-1.5-.26-1-0.71-2.62l-1.67,1a8,8,0,0,0,4.3,3.22,1,1,0,0,0,1.13-.46c0.83-1.65,0-3.33-1-4.72A1,1,0,0,0,33,76c0.85,1.45,2.75,3.36,4.46,3.67a1,1,0,0,0,1.13-.46c0.87-1.35.2-2.56-.07-4.05L37,76.24a3,3,0,0,1,1.38,1.39l1.23-1.23c-2.42-.36-4.57-2.76-7.16-2.3-1.37.24-1.24,1-2.42,1.37-3.17.86-4.36-.12-6.67-0.91a1,1,0,0,0-1.23.7l-0.83,1.79,1.37-.36c-1.26-.74-1.31-2.45-2.7-3.08-2.06-.93-5,0.19-7.24-0.24-4-.77-5.29,0-4.86,4.2l1.86-.5L9.22,75.74l-1.67,1c2.69,2.52,6.06,4.44,9.44,2.16a18.24,18.24,0,0,1,2-2c1.73-.46,2,0.65,3.25,1.28A3.56,3.56,0,0,0,26.39,78c1.07-.7.07-2.44-1-1.73-2.25,1.48-4.37-2.64-6.87-1.75a2.12,2.12,0,0,0-.6.46Q16,78.39,11.56,77.25A12,12,0,0,1,9,75.3a1,1,0,0,0-1.67,1A4,4,0,0,0,8,78.08c0.48,0.78,2,.54,1.86-0.5-0.36-3.45,4.53-1.88,6.63-1.7A6.15,6.15,0,0,1,20.19,77a14.7,14.7,0,0,0,1.49,1.39,1,1,0,0,0,1.37-.36,16.39,16.39,0,0,0,1-2.26l-1.23.7c2.36,0.8,3.73,3.17,6.51,2,2.1-.85,1.33-1.67,4.24-1.6C35.83,77,37,78,39.1,78.33a1,1,0,0,0,1.23-1.23A4.78,4.78,0,0,0,38,74.52a1,1,0,0,0-1.47,1.13c0.38,2.16-1.32.25-1.87-.7L33,76c1.84,2.57-.27.84-1.28-0.46-0.64-.82-1.93.08-1.67,1,0.11,0.38.64,1.84,0.64,2.09l1.5-.86a13.15,13.15,0,0,1-3.34-3.28c-0.75-.91-2.08.25-1.57,1.21,0.32,0.6,1.83,2.55.93,1.06-0.52-.87-1.38-1.53-1.84-2.46l-1.57,1.21,1.52,3.1,1.5-.86a13.3,13.3,0,0,1-3.85-3.38,1,1,0,0,0-1.57,1.21,4,4,0,0,1,.73,2.64l1.23-.7c-1.53-.57-2.8-2.31-3.88-3.44a1,1,0,0,0-1.67,1c0.81,2.14,1,3.38-1.15.15l-1.57,1.21c1.58,2-1.5-2.73-1.61-3l-1.67,1A12.07,12.07,0,0,1,14.3,77c0-.31-3.12-4.63-2.71-3.78A1,1,0,0,0,9.76,74c0.88,2.65.3,2.17-.68-0.07-0.48-1.1-2-.27-1.83.77s0.82,2.71.13,3.8L9,78.32A14.16,14.16,0,0,1,7.06,75.6c-0.47-.79-2-0.53-1.86.5C5.3,77,5.84,78.19,5.37,79H7.1a7.23,7.23,0,0,1-.66-3.54l-1.67.44c0.32,0.39.83,1.52,1.19,2a1,1,0,0,0,1.86-.5l0-1.33a1,1,0,0,0-2,0h0Z"/><path class="cls-1" d="M38.64,77.39V78.7a1,1,0,0,0,2,0A4.62,4.62,0,0,0,40.32,76a1,1,0,0,0-1.83-.24c-0.59,1.31-1,3-.15,4.27a1,1,0,0,0,1.83-.77c-0.51-1.73-.27-2-1-3.3a1,1,0,0,0-1.73,0c-0.76,1.74-.81,4,1,5.15a1,1,0,0,0,1,0c1.93-1.42,1.38-4.08,1.54-6.21l-1.86.5c1.32,2,1.47,3.6,3.76,4.63a1,1,0,0,0,1.37-.36,7.91,7.91,0,0,0,.08-5.7c-0.34-1-2.1-.92-2,0.27,0.26,2.27.52,5.18,2.79,6.27a1,1,0,0,0,1.21-.16,5,5,0,0,0,.22-5.72,1,1,0,0,0-1.83.24C44.34,77,44.61,79.55,47,80.2a1,1,0,0,0,1-.26c1.2-1.28.89-2.75,0.64-4.37a1,1,0,0,0-1.83-.24c-1.33,2.37,1.46,7.13,3.92,4.39a1,1,0,0,0,.26-1c-1.08-3-7-3.44-9.78-3.76-1-.12-1.3,1.39-0.5,1.86,1.81,1.07,4.28.77,6.27,0.62,1.27-.09,1.29-2.07,0-2-2.17.13-5-.14-6.4,1.72a1,1,0,0,0,0,1c1.33,3.08,7.09,3.18,9.85,3.13a1,1,0,0,0,.5-1.86,13.55,13.55,0,0,0-5.13-1.22c-1-.12-1.29,1.39-0.5,1.86a13,13,0,0,0,8.16,1.49,1.06,1.06,0,0,0,1-.73c1-2.69-2.15-5.05-4.33-6a1,1,0,0,0-1.13,1.47c1.08,2,4.42,5.1,7,4.14a1,1,0,0,0,.73-1c0-2.84-3.24-4.6-5.77-4.84a1,1,0,0,0-1,1c0.26,3.64,7.82,6.38,10.2,3.56a1.05,1.05,0,0,0,.16-1.21c-0.92-1.87-3-2.46-5-2.45a1,1,0,0,0-.86.5L54,76.83a1,1,0,0,0,0,1c1.17,1.59,6,4.88,7.85,2.51,2.1-2.75-3-4.13-4.52-4.38a1,1,0,0,0-1.13.46c-2.43,3.82,3.05,6.38,4.2,2.32,0.41-1.46,0-2.75-1.56-3.18-2-.57-3.92,1.88-4.71,3.36a1,1,0,0,0,1.37,1.37,6.56,6.56,0,0,0,3.15-5.15,1,1,0,0,0-1.27-1,4.91,4.91,0,0,0-4.32,4.11,1,1,0,0,0,.7,1.23c2.86,1.13,4.81-4.57,4.72-6.58a1,1,0,0,0-2-.27c-0.49,2.13-1,7.8,2.3,8.43,2.92,0.56,3-3.76,3.19-5.51l-2,.27c0.46,1.39.7,4.62,3,4.13,1.66-.36,1.78-2.75,2-4.12a1,1,0,0,0-2-.27c-1.5,8,5.69,3.55,2.89-.09a1,1,0,0,0-1.57-.2c-1.4,1.47-1,4.23,1.15,4.78,2.63,0.68,4.47-2.59,3.15-4.61A1,1,0,0,0,67.49,75l-0.69.22a1,1,0,0,0-.73,1c-0.33,3,3.68,4.89,5.51,2.13,3.14-4.74-4.53-3.07-5.74-3.86-0.93-.61-2.11.86-1.21,1.57,2.25,1.77,4.76,3.77,7.61,4.4a1,1,0,0,0,1.23-.7c0.67-2.32-3-3.87-4.58-4.74a1,1,0,0,0-1,1.73c1.18,0.87,5.94,5,7.55,2.82,1.27-1.73-1.78-4.13-2.68-5.19L71.32,75.8c1.6,1.32,4.22,4.95,6.65,4.22a1,1,0,0,0,.73-1,5,5,0,0,0-2.48-4,1,1,0,0,0-1.37,1.37,7.77,7.77,0,0,0,5.42,3.76,1,1,0,0,0,1-1,6.58,6.58,0,0,0-1-3.34L78.73,77c1,1.14,2.84,3.85,4.68,2.88s0.57-3.55,0-4.84l-1.83.77c2,4.44,7.86,5,5.7-1l-1.83.77c1.67,2.63,3.45,4.14,6.59,4,1.48-.06,2.31-0.64,3.75,0,0.63,0.28.48,0.91,1.43,1.16a1,1,0,0,0,1-.26,4.47,4.47,0,0,0,1.1-2.82h-2c0,1.55,0,2.83,1.57,3.38a1,1,0,0,0,1.13-.46,5.64,5.64,0,0,0,.53-0.9l-1.37.36,0.58,0.31A1,1,0,0,0,101.14,79c-0.72-1.67-.29-3.63-1.87-4.62a1,1,0,0,0-1.21.16A6.07,6.07,0,0,0,97,77.07l1.93,0.53a4.94,4.94,0,0,0,.26-2.93,1,1,0,0,0-1-.73c-3,.35-3.58,3.88-4.8,6.06l1.86,0.5a15.73,15.73,0,0,0-.38-5,1,1,0,0,0-1-.73c-2.92.37-3.52,2.6-4.22,5.19l1.93,0.53C91.82,79,92.66,75,90.41,74.42s-3.1,3.31-3.08,4.89a1,1,0,0,0,2,.27c0.59-1.68,1.63-5.14-.86-5.88-2.79-.83-3.65,3.33-3.93,5.06l1.93,0.53c0.21-1.49,1-5-1.06-5.68-2.84-.88-3.21,4.56-3.6,6l2,0.27c0-1.78-.2-6.15-3.22-5.1-1.85.64-3,4.15-1.31,5.38a1,1,0,0,0,1.47-.6c0.44-1.8.91-5.26-1.67-5.61-1-.13-1.77.65-2.54,1.15-2.3,1.49-4.65,2.51-7.07,3.79A1,1,0,0,0,69,80.22c1,1.84,2.89,2.19,4.9,2.14,2.22-.06,4.35-0.84,6.56-1,2-.13,4,0.24,6,0.2,3.75-.08,8.47,0,5.88-5-0.51-1-2.27-.29-1.83.77a3.34,3.34,0,0,0,1.35,1.92,1,1,0,0,0,1.67-.44c-0.07.44,0.52-3.63-.24-2.82q4.74,0,.88-0.27a9.91,9.91,0,0,0-1.25.23c-4.19.4-8.06,2-12.18,2.68-4.72.8-9.21,0.28-13.93,0.08-0.14,0-3.75.34-3.71,0.36,0.35,0.25-1-4.68-.2-4.76l-0.27-2c-3,1.25-6.51-.07-9.17,2-1.36,1.07-2,2.68-3.48,3.63-1.28.81-2.69,0.83-4,1.47a1,1,0,0,0,.24,1.83,18.32,18.32,0,0,0,8.42.43,1,1,0,0,0,0-1.93c-5.31-1-10.65-.17-16-1.23-2.45-.49-4.37-0.33-6.67-1.52-2.56-1.32-2.43-2.88-4.45-4.38-1.63-1.2-4.88-1.74-6.51-.25-1.78,1.63-.26,3.74-0.33,5.4a1,1,0,0,0-2,0c-0.08,1.88,1.21,3,3.13,2.09C23.2,79.29,23,79,23.36,77.71a2,2,0,0,0-.12-0.64,1.45,1.45,0,0,1-.06-2.2q0.63-3.68,4.29.92c0.88,1.1.94,2.51,2.14,3.44,1.91,1.48,4,.78,6.22.92s4.43,1,6.71,1.23c3.89,0.37,7.69-.38,11.57.36V79.82a15.62,15.62,0,0,1-7.35-.43L47,81.22c1.31-.63,2.86-0.53,4.14-1.34a16.91,16.91,0,0,0,2.09-2.09A9.94,9.94,0,0,1,58.49,75c1.77-.34,3-0.05,4.7-0.75,0.93-.39,1-2.08-0.27-2-2.82.26-3.75,7.38-1.64,8.7,1.1,0.69,2.21,0,3.41-.2,2.44-.31,4.9.24,7.36,0.32a47.57,47.57,0,0,0,14.84-2,34.49,34.49,0,0,1,6.59-1.3c1.54-.12,4,0.62,5.34-0.39,1.15-.85,1.06-1.93.36-3.08-1.27-2.08-4.45-2.46-6.5-1.57-3.1,1.35-.6,2.8-1,5.44l1.67-.44-0.83-1-1.83.77c1.55,3-7.27,1.78-8.58,1.77-2.67,0-9.93,2.4-11.3-.14l-0.36,1.37c1.7-.9,3.56-1.51,5.22-2.47,1.39-.8,4.41-4.4,3.12.88l1.47-.6q0.58-2.47,1.53.07,0,0.69,0,1.38a1,1,0,0,0,2,.27c0.59-2.14,1.38-5.52.8-1.34-0.17,1.25,1.72,1.81,1.93.53,0.31-2,1.72-2.5.93-.24l2,0.27c0-3,.65-1.47.35,0.7a1,1,0,0,0,1.93.53,2.72,2.72,0,0,1,1.74-2.61,14.82,14.82,0,0,0-.11,2.58,1,1,0,0,0,1.86.5,26.87,26.87,0,0,0,1.36-3.12c0.13-.3.81-2.08,0.49-0.82a1,1,0,0,0,1.93.53c0.48-1.32-.51-1.14-0.45-0.51a9.83,9.83,0,0,0,1,2.95l1.37-1.37-0.58-.31a1,1,0,0,0-1.37.36q-0.77,1.48.5-1a1,1,0,0,0-2,0c-0.1,1.13-.19-0.58-1.26-0.76-3.2-.55-6,2.16-8.86-2.36-0.58-.91-2.23-0.34-1.83.77,1,2.93-1.31,1.09-2-.5-0.47-1-2.26-.28-1.83.77,1.15,2.77,0,1.57-1.37,0-0.81-.92-2,0.25-1.57,1.21q0,1,.71,1a9.84,9.84,0,0,1-2.7-2.4l-1.37,1.37c1.32,0.82,1.07.9,0-.2a32.07,32.07,0,0,0-2.46-2.18,1,1,0,0,0-1.41,1.41c3.08,3.64-.63.58-2.45-0.77l-1,1.73c0.69,0.38,3.83,1.89,3.66,2.48l1.23-.7C70.32,78,67.89,76.12,66,74.65l-1.21,1.57a15.77,15.77,0,0,0,2.59,1c1.9,0.86-1.09-1.14-1.67-.53l-1.57-.2c1.3,1.68.4,1.55,0.76-.39l-2-.27c-0.35,2.75-.69.34-1-0.54a1,1,0,0,0-2,.27q0.24,1.47-1,.58-2.26-.22-0.54-3l-2-.27c0,0.45-1.06,5.1-2.19,4.66L55,78.83q0.25-2.26,2.93-2.71l-1.27-1a5.25,5.25,0,0,1-2.16,3.42l1.37,1.37A3,3,0,0,1,58,78.09q1.79,0.28.22,0.29c-0.6-.78-4.41-1-4.23-1-2.06.05-.32-2.42-0.35,0.55q0.88,0.82-.38,0a7.46,7.46,0,0,1-2.6-2.56l-1.13,1.47c1.2,0.5,3.46,2.23,3,2.82-0.74.88-5.42-.8-6.21-1.27l-0.5,1.86a15.24,15.24,0,0,1,4.12.94l0.5-1.86c-1.72,0-5.17.3-6.58-1-1.18-1,3.34-.91,3.13-0.9v-2c-1.59.12-3.79,0.52-5.26-.35L41.14,77a35.67,35.67,0,0,1,4.48,1.06c2.57,0.65,1.46.79,2.86-1.71l-1.83-.24q0.44,3.8,0-.67l-1.83.24c0.91,1.43.18,4.51-.49-1.41l-2,.27a6.63,6.63,0,0,1,.12,4.16l1.37-.36c-1.08-.49-2.27-2.72-3-3.91a1,1,0,0,0-1.86.5c0-.06-0.33,3.32.22,2.07H37.4a24.18,24.18,0,0,1,.84,2.82L40.07,79a2.37,2.37,0,0,1,.15-2.25l-1.83-.24,0.25,2.14h2V77.39a1,1,0,0,0-2,0h0Z"/><path class="cls-2" d="M56.64,52c-1.13,1.2-2.6,2.31-3.28,3.84-0.51,1.17,1.21,2.19,1.73,1,0.6-1.37,2-2.37,3-3.44A1,1,0,0,0,56.64,52h0Z"/><path class="cls-2" d="M62.88,72.41a3.27,3.27,0,0,0,.54.56,1,1,0,0,0,1.41,0,2.54,2.54,0,0,0,.66-1.21q-0.66.14-.36,0.41l0.24,0.3a2.49,2.49,0,0,0,.76.61,1,1,0,0,0,1.37-.36,2.21,2.21,0,0,0,.24-0.84c0-.18.12-0.62,0-0.53L67,71.65a14.62,14.62,0,0,1,.9,1.15,2.24,2.24,0,0,0,1.11.69,1,1,0,0,0,.53-1.93c-0.47-.11-1-1.16-1.37-1.47a1.6,1.6,0,0,0-1.44-.41,1.37,1.37,0,0,0-.86.9,6.18,6.18,0,0,0-.13,1.13l1.37-.36c-0.87-.44-1.08-1.58-2.31-1.37a1.5,1.5,0,0,0-1,.66,4.47,4.47,0,0,1-.42.91h1.41A3.27,3.27,0,0,1,64.3,71c-0.84-1-2.25.44-1.41,1.41h0Z"/><path class="cls-2" d="M83.54,71.22a1.25,1.25,0,0,0,.15,2,3,3,0,0,0,1.52.26,1,1,0,0,0,0-2h-0.6a0.21,0.21,0,1,0,.06,0l-0.11,0q0.4,0.3.24,0.13L85.06,72a0.93,0.93,0,0,1-.1.6,1,1,0,0,0-1.41-1.41h0Z"/><path class="cls-2" d="M40.81,54.61a25.81,25.81,0,0,0-.34,5.61c0.15,1.74.65,3.44,0.78,5.17,0.1,1.27,2.1,1.29,2,0-0.14-1.74-.64-3.42-0.78-5.17a25.91,25.91,0,0,1,.34-5.61c0.17-1.27-1.83-1.26-2,0h0Z"/><path class="cls-2" d="M50.44,59.11a74.22,74.22,0,0,0,2.08,9.74,1,1,0,0,0,1.93-.53,74.22,74.22,0,0,1-2.08-9.74c-0.22-1.27-2.15-.73-1.93.53h0Z"/><path class="cls-2" d="M48.13,61.79q0.65,1.93,1.32,3.84a20.8,20.8,0,0,1,1.2,3.74c0.18,1.27,2.11.73,1.93-.53a20.93,20.93,0,0,0-1.2-3.74q-0.67-1.92-1.32-3.84c-0.41-1.21-2.34-.69-1.93.53h0Z"/><path class="cls-2" d="M42.85,60.75c0.93,3,2.15,6,3,9l1.47-1.13-0.06,0c-1.16-.54-2.18,1.19-1,1.73l0.06,0a1,1,0,0,0,1.47-1.13c-0.8-3-2-6-3-9a1,1,0,0,0-1.93.53h0Z"/><path class="cls-2" d="M45.13,68.35c1.32-1.73,2.64-3.47,3.92-5.24,1.06-1.47,2.41-2.82,3.34-4.36a1,1,0,0,0-1.13-1.47l-0.35.08a1,1,0,0,0,.53,1.93l0.35-.08-1.13-1.47c-0.92,1.53-2.3,2.9-3.34,4.36-1.27,1.77-2.59,3.5-3.92,5.24-0.78,1,1,2,1.73,1h0Z"/><path class="cls-2" d="M32.82,63.05c1.37-5.57,4.06-10.72,5.48-16.25a1,1,0,0,0-1.67-1L36.42,46a1,1,0,0,0,1.41,1.41L38,47.25l-1.67-1c-1.42,5.53-4.11,10.67-5.48,16.25a1,1,0,0,0,1.93.53h0Z"/><path class="cls-2" d="M32.15,55.55c0.6-1.65,1.22-3.29,1.89-4.91a26.53,26.53,0,0,0,1.53-3.86,1,1,0,0,0-1.93-.53,26.51,26.51,0,0,1-1.53,3.86c-0.67,1.62-1.29,3.26-1.89,4.91-0.44,1.21,1.49,1.73,1.93.53h0Z"/><path class="cls-2" d="M85.34,68c-2.76,2.05-6.12,2.21-9.42,2.86-0.81.16-1.68,0.32-2.58,0.46-0.45,0-.89,0-1.29.06a39.58,39.58,0,0,1-4.62.13,8.39,8.39,0,0,1-3.49-1.3,0.85,0.85,0,0,0-.78-0.13c-1.69-.87-3.29-2-4.9-2.94a14.63,14.63,0,0,0-3.35-4.33c-0.06-.19-0.12-0.37-0.17-0.56a3.45,3.45,0,0,0-.35-1.73c0-.17-0.06-0.33-0.08-0.5a1,1,0,0,0,.58-0.65c0.3-1.42.69-2.08,0.94-3.4a1,1,0,0,0,0-.33c0.23-.52.46-0.67,0.68-1.19v0.38h0s0.07-.54.1-0.62A1.06,1.06,0,0,0,56.28,53C60.7,51.52,66.78,52,71,52.4c2.34,0.25,4.68.14,7,.34,1.9,0.16,4.33,1.18,6.28,1a1,1,0,0,0,.86-1.52,11.16,11.16,0,0,0-.73-1A15.55,15.55,0,0,0,81,45.63a0.84,0.84,0,0,0-.27-0.89h0l-0.06,0a11.46,11.46,0,0,0-2.81-2.22,1,1,0,0,0-1.22.19C71.68,41.29,66.14,43,60.91,44l-0.06,0a1.13,1.13,0,0,0-1.31.42,21.27,21.27,0,0,1-3.14.48H56.34v-0.3a3.24,3.24,0,0,0-.46.16A1,1,0,0,0,55.45,44c-2.19-1.38-4.81-1.9-7.22-2.78-1.28-.47-4.47-2.67-5.93-2.56s-4.3,3-5.34,3.73A44.68,44.68,0,0,1,32.43,45a0.83,0.83,0,0,0-1,0c-1.18.8-2.31,1.65-3.5,2.43a0.9,0.9,0,0,0-1.15-.14A7.83,7.83,0,0,0,24,49.47a1.23,1.23,0,0,0-.65.45l-0.2.26a0.77,0.77,0,0,0-.13.64c-1.29.22-2.6,0.31-3.91,0.67a1,1,0,0,0-.7.7c-0.06.27-.13,0.56-0.21,0.84a1,1,0,0,0-.78.49,3.91,3.91,0,0,0-.5,1.4,1.29,1.29,0,0,0-.74-0.62,1,1,0,0,0-1.74.68,18.8,18.8,0,0,1-.14,2.36,0.94,0.94,0,0,0,1.09,1,2.69,2.69,0,0,0,.27.47c0.06,0.12.11,0.25,0.16,0.38s0,0.1,0,.14l-0.11-.21c-0.57-1.16-2.29-.14-1.73,1,0.88,1.79,1.85,3.54,2.82,5.28a0.87,0.87,0,0,0,.82.47,30.53,30.53,0,0,0,1.52,5.81,1,1,0,0,0,2-.24,1,1,0,0,0,.52.37c0.92,0.28,1.85.54,2.77,0.8a3.13,3.13,0,0,0,1,.3s0,0,0,0h0a1.84,1.84,0,0,0,.32,0,0.9,0.9,0,0,0,.94-0.66,4.71,4.71,0,0,0,1.19.14,1.06,1.06,0,0,0,.33.15c4.72,1.18,10.87,2,15.73,1.3a0.77,0.77,0,0,0,.59-0.47,42.44,42.44,0,0,0,10.62.08,7.79,7.79,0,0,0,4-.57,0.71,0.71,0,0,0,.13-0.11,75.43,75.43,0,0,0,7.54.67,21.16,21.16,0,0,0,5.66,0c0.79,0,1.58-.08,2.39-0.14,4.68-.35,9.66.83,11.91-3.9C87.09,68.6,86.23,67.38,85.34,68ZM67.79,44.46c0,0.1,0,.21.06,0.31l-1,.17-1,.06-0.14-.14C66.4,44.72,67.1,44.58,67.79,44.46ZM45.36,71.08s0,0,0-.07l0.13,0Zm2.81-20.89a1,1,0,0,0,1.71-.63c0-.11,0-0.24,0-0.36a8.84,8.84,0,0,0,.6,1l-0.28.12c-1.39.51-2.44,1.88-2.79-.17a2.2,2.2,0,0,1,.06-0.65A6,6,0,0,0,48.17,50.19ZM52,68.58l0.28,0.19a11,11,0,0,0-3.17-.41l1-.41a1,1,0,0,0,.35-1.31,14.86,14.86,0,0,0,1.95-1.09l0,0.06,0.2,0.15h0L52.89,66l1.5,1.14a14.07,14.07,0,0,0-1.62-.35A1,1,0,0,0,52,68.58Zm4,2.77H55.78a0.89,0.89,0,0,0,.13-0.22L56,71.19A1.22,1.22,0,0,0,56,71.35Zm-11.49-10c0.35-.45.69-0.9,1-1.36l0,0c0.26,1.07,1.2,2.82,1.73,4.32C46.29,63.36,45.38,62.36,44.47,61.36ZM43.75,50l0.14,0C44,50.34,44,50.7,44.06,51,44,50.67,43.86,50.32,43.75,50ZM35,60.35l-0.09,0h0.05Zm3.3,2.51,0.39,0.2a1.2,1.2,0,0,0,.29.08l0,0.16a0.85,0.85,0,0,0,.06.12,4,4,0,0,0-.82-0.49Zm-10-.13,0.11,0.2H28.24ZM32.41,68s0,0,0-.07A2.79,2.79,0,0,0,32.13,66a11.8,11.8,0,0,1,1.63,1.09,1.16,1.16,0,0,0,0,.19l0,0.55a0.75,0.75,0,0,0,0,.13C33.26,68,32.83,68,32.41,68Zm8-7.47a4.42,4.42,0,0,1,.9-0.21,8,8,0,0,1-.73.95C40.51,61,40.44,60.8,40.39,60.55ZM38.54,57.2l-0.1-.12,0,0Zm-0.47,2.26-0.08,0c-0.29-.26-0.58-0.51-0.87-0.74l0.1-.12A9,9,0,0,0,38.07,59.46ZM33.39,59c0,0.14,0,.27,0,0.41a1,1,0,0,0,1,1,0.89,0.89,0,0,0-.16.08,5.36,5.36,0,0,0-.83.73c0-.16,0-0.31,0-0.47a1,1,0,0,0-1.47-.85c0-.16,0-0.32.06-0.46a1,1,0,0,0-1.11-1c-0.1-.33-0.2-0.67-0.29-1,0.53,0.26,1.1.44,1.66,0.65Q32.83,58.54,33.39,59Zm3.55,7.08a3.49,3.49,0,0,1-.15-0.55A3.86,3.86,0,0,0,37,65.11q0.41,0.53.83,1a1,1,0,0,0,.24.73L38.23,67A11.82,11.82,0,0,1,36.93,66.1Zm8.48-9.7h0Zm-3.49-4.47c0.06,0.21.12,0.42,0.18,0.63l-0.38-.36Zm1,4.1,0.25,1.06c-0.26.43-.51,0.9-0.78,1.38-0.44,0-.86,0-1.27.09A20.64,20.64,0,0,0,39.92,55l0-.06,0.48-.75A16.09,16.09,0,0,0,42.92,56Zm-3.81-2.79-0.18-.4,0.26,0.27ZM37.7,55.37l-0.29.4c-0.36-.51-0.7-1-1-1.57q0.16-.44.34-0.87C37,54,37.37,54.69,37.7,55.37Zm-4.28-1.89L34,55.16c-0.12.41-.22,0.83-0.3,1.25l-0.21-.12A16.92,16.92,0,0,0,31.84,55,4.17,4.17,0,0,1,32.63,53,1,1,0,0,0,33.42,53.48ZM25.51,64.42c0,0.07,0,.15.06,0.21l-0.75-.57h0l0.25-.39C25.21,63.92,25.35,64.17,25.51,64.42Zm26.77-4.48c-1.88,2.59-2.81,2-4.89-.76l0.16-.08a2,2,0,0,0,.47.58,1.06,1.06,0,0,0,1.26.13v0a1,1,0,0,0,1.83.24c0.32-.41.6-0.84,0.87-1.28l0.14,0.09c0,0.2,0,.41,0,0.61a0.92,0.92,0,0,0,.13.4v0Zm0.39-10.76a6.07,6.07,0,0,0,.25-1.65l1.7,0.61C53.94,48.46,53.3,48.82,52.67,49.17ZM51,46.75s0,0,0,.07,0,0,0,.07l-0.07-.17Zm-0.26,5.9a4.18,4.18,0,0,0,.12.56,0.81,0.81,0,0,0-.58.47L50.11,54a1.52,1.52,0,0,0-.25-0.45,0.73,0.73,0,0,0-.15-0.13l0.11-.19a0.92,0.92,0,0,0,.06-0.17C50.16,53,50.44,52.8,50.73,52.65Zm-3.62,1.27a0.83,0.83,0,0,0-.5.29,5.29,5.29,0,0,0-.64,1,6.58,6.58,0,0,0,.26-1.29,5.89,5.89,0,0,0,.89,0v0Zm-1.39-5-0.07-.34,0.23-.26Zm-6.81.55a1,1,0,0,0,1.67.44,6.92,6.92,0,0,0,.53-0.67,4,4,0,0,1,.3.58c-0.19.27-.38,0.54-0.57,0.8L40.51,51a14.67,14.67,0,0,0-2-1.59l0.29-.58A2.72,2.72,0,0,0,38.92,49.42ZM22.09,64.51a0.83,0.83,0,0,0,.43-0.18s0,0.1,0,.15a1.09,1.09,0,0,0,.12.26Zm20.79-1.23,0.68,1.47c-0.35-.34-0.69-0.71-1-1.08ZM36,47.73a1,1,0,0,0,.89-0.25l0.2-.2h0c-0.36.55-.74,1.1-1.13,1.63a1.13,1.13,0,0,0-.31.4,10.46,10.46,0,0,1-1.11,1.2A14.4,14.4,0,0,1,36,47.73Zm-8.78,1.85h0ZM27,55s0,0.08,0,.13c-0.75,1.55-1.43,3.15-2.17,4.71,0.5-1.75,1.3-3.61,1.91-5.16A1.1,1.1,0,0,0,27,55ZM20.82,63.4c-0.17-.38-0.32-0.71-0.45-0.94S20,61.9,19.88,61.62a1,1,0,0,0,.81.24A5.52,5.52,0,0,0,20.82,63.4ZM43.1,67a5.61,5.61,0,0,0,1.63,1,1.1,1.1,0,0,0,.26.26,2.52,2.52,0,0,0,.24.13,4.61,4.61,0,0,0-.67,1.05,1.22,1.22,0,0,0-.12.49l-0.84-.29a0.74,0.74,0,0,0,.06-0.4A10.53,10.53,0,0,0,43.1,67Zm10,2.34,0.32,0.21-0.25,0A1,1,0,0,0,53.14,69.35ZM52.64,45.4l-0.2-.08,0.21,0v0Zm-12.75-.52-0.08,0C39.94,44.75,39.95,44.76,39.89,44.88Zm-6.53,4.41a1,1,0,0,0-1,.24,4.22,4.22,0,0,0-.54.64,1.23,1.23,0,0,0-1,.1,1.07,1.07,0,0,0-.12-0.52,13.89,13.89,0,0,0,3.83-2.56C34.17,47.82,33.74,48.54,33.36,49.29Zm-6.54,2.44,0,0.19a1.07,1.07,0,0,0-.24-0.05Zm-7.26,9.36-0.33-.55c0.13-.37.24-0.74,0.33-1.11a10.28,10.28,0,0,0,0,1.46A1,1,0,0,0,19.56,61.09Zm38.76,9.36-0.37-.3h0a1.08,1.08,0,0,0,.9-0.23l1.06,0.65Q59.13,70.49,58.32,70.45Zm3.61-20.69,0.22,0.1H61.87Zm12-.1a5.56,5.56,0,0,0,1.73.86l-2.36-.16A1.89,1.89,0,0,0,74,49.66Zm7,1.24,0.54,0.52-0.91-.2A1.07,1.07,0,0,0,81,50.9Zm-4.44-5.17a1,1,0,0,0-.67,0c-0.48-.51-0.94-1.06-1.38-1.58a11.29,11.29,0,0,1,1.89.45C76.42,45,76.49,45.36,76.54,45.73Zm-4.73-1.28a9.4,9.4,0,0,0-1.28,0c-0.09-.11-0.18-0.22-0.28-0.32,0.5,0,1-.08,1.49-0.1C71.76,44.16,71.78,44.31,71.81,44.44Zm-24.33.24,0.1,0.07c0,0.11,0,.21,0,0.32a1,1,0,0,0-.28,0,26.59,26.59,0,0,0-1.15-2.53c0.49,0.2,1,.38,1.51.55A1,1,0,0,0,47.48,44.69ZM43.94,41.8a2.36,2.36,0,0,0-.21.42A6.91,6.91,0,0,0,43,41.27a1,1,0,0,0-.22-0.18,5.93,5.93,0,0,1,1.34.47A1.17,1.17,0,0,0,43.94,41.8Zm-2-.74,0,0H42Zm-1.65,1.38-0.15,0a9.07,9.07,0,0,0-3,2l0,0c0.94-.75,2.1-1.72,3.07-2.42,0,0,0,0,0,0ZM25.62,52.18a1.1,1.1,0,0,0-.22.34c-0.14.34-.27,0.69-0.41,1a1,1,0,0,0-1.84-.33L23,53.44l0.06-.23a1,1,0,0,0,0-.39C23.94,52.62,24.79,52.44,25.62,52.18Zm-5.56,4.59a1.21,1.21,0,0,0-.1-0.29l0.22-.16Zm-0.11,9.67,0.44,0.84-0.16.08a1.11,1.11,0,0,0-.25.23c-0.1-.42-0.19-0.85-0.28-1.27Zm31.39,5,1,0h0.12a0.86,0.86,0,0,0-.18.17l-0.91.05A0.93,0.93,0,0,0,51.34,71.44ZM68.29,50c-0.9-.06-1.85-0.11-2.83-0.15h0a0.85,0.85,0,0,0,.3-0.31A2.82,2.82,0,0,0,66,48.86a0.39,0.39,0,0,0,.14-0.27l0,0c0.25,0.07.86,0.85,1.23,1a3.23,3.23,0,0,0,.91.2l0,0a1,1,0,0,0,1.37-.36c0-.07.06-0.15,0.1-0.22l0.35-.33a9.24,9.24,0,0,0,1.14,1.32Zm9.2,0.63a2.7,2.7,0,0,0,.76-0.25,4.45,4.45,0,0,0,.58.44A11.38,11.38,0,0,0,77.5,50.64ZM20.21,53.48l-0.33.41C19.59,53.76,19.83,53.6,20.21,53.48ZM39.78,72.14a1.16,1.16,0,0,0,.54-0.77,12.83,12.83,0,0,0,1.85.48L42.26,72C41.46,72.1,40.64,72.15,39.78,72.14Z"/><path class="cls-2" d="M95.92,62.56c1-.62,1.37-1.72.46-3.17-2-3.23-8.45-3.25-12.39-3.81a4.62,4.62,0,0,0-.69-1.46,1,1,0,0,0-1.55.16,2.36,2.36,0,0,0-.66-0.62,1,1,0,0,0-1,0c-0.49.32-.75,0.6-1,0.76L77.47,54a0.86,0.86,0,0,0-.28-0.07,29.87,29.87,0,0,0-10.5-1.19,14.76,14.76,0,0,0-4.14,1,1.07,1.07,0,0,0-.88-0.55,1.71,1.71,0,0,0-1.13.25,1.92,1.92,0,0,0-.93.63,1.09,1.09,0,0,0-1.62.52,4.79,4.79,0,0,0,0,2.86c0,0.1,0,.2-0.06.29a0.88,0.88,0,0,0-1.47.5,9.47,9.47,0,0,0,2.26,7.77,1,1,0,0,0,1.68-.77,18.17,18.17,0,0,0,3.76,2.86,12.17,12.17,0,0,0,5.21,1.76,1,1,0,0,0,.62.28c0.77,0.05,11.39-.62,13.15-2.37A69.46,69.46,0,0,0,96.07,64.5,1,1,0,0,0,95.92,62.56Zm-29.16.21c0-.24-0.08-0.48-0.12-0.73l0.4-.8,0.17,0.36c0,0.65,0,1.27-.05,1.84C67,63.24,66.89,63,66.76,62.78Zm22-2.19A7.94,7.94,0,0,0,87.57,59v0a2.2,2.2,0,0,1,1.2,1.57A0.21,0.21,0,0,1,88.73,60.59ZM65.92,58.18v0l-0.06.13Zm18.22,0.44a1.2,1.2,0,0,0,0,.27s0,0.09,0,.13c-0.11-.17-0.23-0.34-0.36-0.49A0.75,0.75,0,0,0,84.14,58.62ZM71.63,57.47c-0.22-.35-0.43-0.69-0.65-1,0-.09,0-0.19,0-0.29a4,4,0,0,0,.55.91l0.21,0.11Zm-0.74,9.91c0.18,0.17.36,0.34,0.54,0.53-0.29,0-.58,0-0.87,0C70.67,67.75,70.78,67.57,70.89,67.39Zm9.69-10.5,0.07,0.26a1.09,1.09,0,0,0-.33.7,6.55,6.55,0,0,0-.59-1l0.13-.12ZM66.4,66.16a4.42,4.42,0,0,0,2.1,1.49l0,0.07a11.25,11.25,0,0,1-2.83-1A1.47,1.47,0,0,0,66.4,66.16Zm18.4-.69A0.89,0.89,0,0,0,84.17,65l0.25-.2a2.38,2.38,0,0,0,.28-0.31,3.94,3.94,0,0,0,1.51.68Zm3.5-.83A2.74,2.74,0,0,0,89,63.87c0.63,0.09,1.26.16,1.9,0.22-0.93.25-1.85,0.48-2.79,0.69C88.15,64.73,88.22,64.7,88.3,64.64Zm5.27-4.78a3.79,3.79,0,0,1-.79,1,3.37,3.37,0,0,0-.92-2.11A3.18,3.18,0,0,1,93.57,59.86ZM69.15,54.58c0,0.08-.09.14-0.13,0.22a0.65,0.65,0,0,0-.14,0,3.37,3.37,0,0,0-.58.31,3,3,0,0,0-.32-0.4l-0.12-.12C68.29,54.59,68.72,54.58,69.15,54.58Z"/><path class="cls-2" d="M61.06,64.38c-0.11.4-.23,0.79-0.34,1.19s-0.12.76-.22,1.11a1,1,0,0,0,.58,1.18,1,1,0,0,0,1.25-.41,2.47,2.47,0,0,0,.28-1.33,3.56,3.56,0,0,0-.22-1.6,1,1,0,0,0-1.83.24,6.18,6.18,0,0,0,.1,2.18,1,1,0,0,0,1,1,1,1,0,0,0,1-1c0-.49-0.05-1-0.08-1.47-0.06-1.28-2.06-1.29-2,0,0,0.49.07,1,.08,1.47h2a6.14,6.14,0,0,1-.17-1.65l-1.83.24,0.05,0.12-0.14-.5c0,0.31,0,.63,0,0.94,0,0.12,0,.23,0,0.35a0.53,0.53,0,1,1,0,.05,0.37,0.37,0,1,0,0,0l1.83,0.77c0.1-.36.12-0.74,0.22-1.11s0.23-.79.34-1.19a1,1,0,0,0-1.93-.53h0Z"/><path class="cls-3" d="M45,38.42a4.86,4.86,0,0,0,1.49.8,1,1,0,0,0,1.47-1.13,2.72,2.72,0,0,0-.63-1.42L45.93,38A8.62,8.62,0,0,0,49.49,40a1,1,0,0,0,1.23-1.23,7.56,7.56,0,0,0-1.85-3.27c-0.89-1-2.19.43-1.41,1.41,1.1,1.4,5.25,5.54,7.16,4.1a1.05,1.05,0,0,0,.46-1.13c-0.37-1.68-3.25-6-5.34-5.17a1,1,0,0,0-.6,1.47c1.17,1.55,5.64,6.91,8,4.64a1,1,0,0,0,.26-1c-0.77-2.36-3.2-5.15-5.61-5.9a1,1,0,0,0-1.13,1.47c1.25,1.84,6.74,7.87,9.15,4.9,2.17-2.68-2.68-6.78-5.06-7a1,1,0,0,0-.86,1.5C55,37,62.07,44,64.84,41.1c2.94-3-4.3-7.2-6-8.2A1,1,0,0,0,57.36,34c0.93,2.74,6.86,7.82,9.78,6a1.05,1.05,0,0,0,.46-1.13c-0.43-3.07-4.78-6-7.62-6.61a1,1,0,0,0-1.13,1.47C60.64,36.88,72,43.57,70,35.44A1,1,0,0,0,68.31,35c-2.23,2-8.48,3.28-11.61,3.38-1.81.06-4-.58-5.45,0.68a1,1,0,0,0,0,1.41c3.73,3,9.58,2.23,14,1.78,6-.61,3.47-3.5,3.36-7.92l-1.86.5A33.31,33.31,0,0,0,69,38.75a1.05,1.05,0,0,0,1.13.46c2-.36,2.65-3.07,3.5-4.69a1,1,0,0,0-1.73-1,27.39,27.39,0,0,1-3,4.15,1,1,0,0,0,1.21,1.57c2.81-1.63,6.42-4.26,8.24-7a1,1,0,0,0-.6-1.47c-1.41-.47-1.79,0-1.33-2.24,0.16-.75-0.71-1.7-1.47-1.13-1.75,1.33-2.5,4.86-4.54,5.52l1.23,0.7c-0.45-1.7.55-3.56-.36-5.15a1,1,0,0,0-1.57-.2,12.33,12.33,0,0,0-2.32,2.95l-0.59,1q-1.82,2.83-.6.88c-0.82-1.18,0-2.64-1.88-3.15-1.06-.29-1.62.5-2.43,1-3.07,1.75-4,1.95-7.34,1.69l0.27,2c7.6-1.93,15.3-3.36,22.93-5.11a1,1,0,0,0,0-1.93l-0.3-.06a1,1,0,0,0-1.13.46,4.35,4.35,0,0,0-.25,3,1,1,0,0,0,2-.27A3.2,3.2,0,0,0,75,27.15c-1.62-.19-3.59.56-5.21,0.72-2,.18-4.12-0.06-6.06.3-5.4,1-1.34,8.23,2.14,9.1a1,1,0,0,0,1.27-1c0.18-1.57-.48-2.73-0.66-4.37l-1.5.86c2.38,1.18,2.92,4.12,5.4,5.15a1,1,0,0,0,1-.26c1.82-1.92-.54-4.67.5-6.62l-1.37.36c1.61,1.1,2.4,2.9,4.08,3.92a1,1,0,0,0,1,0c1.48-.88.88-2.18,1.18-3.85l-1.23.7c1.24,0.45,2.07,1.52,3.25.63a1.07,1.07,0,0,0,.46-1.13l-0.05-.39a1,1,0,0,0-1-.73l-0.49,0c-1.28-.11-1.28,1.9,0,2,2.41,0.2-2.06-2.4-1.68-2.26a1,1,0,0,0-1.23.7c-0.41,2.24.75,3.39-1.3,0.59a7,7,0,0,0-2-1.85,1,1,0,0,0-1.37.36c-0.63,1.18.58,4.39,0,4.95-0.15.14-3.14-3.44-4.15-3.94a1,1,0,0,0-1.5.86c0.15,1.4.81,3,.66,4.37l1.27-1a5.3,5.3,0,0,1-2.64-3.11c-0.15-2.16,1.91-2.11,3.91-2.22,1-.06,8.49-1.39,8.45.68l2-.27-0.78-1V27.53c-7.64,1.75-15.33,3.18-22.93,5.11a1,1,0,0,0,.27,2c2.43,0.19,4.42,1,6.55-.3,1.2-.75,1.58-2.21,2.68-1.33,0.6,0.48.89,2,1.44,2.71a1,1,0,0,0,1.21.16c2.18-1.26,2.76-4.46,4.67-6.14l-1.57-.2c0.71,1.23-.21,3.26.16,4.67a1,1,0,0,0,1.23.7c2.56-.83,3-4.23,5-5.72L74.52,28c-0.24,1.17-1.23,3.52-.11,4.63s1.83-.26,2.84.08l-0.6-1.47c-1.5,2.25-5.3,5-7.52,6.26l1.21,1.57a30,30,0,0,0,3.3-4.56l-1.73-1c-1.9,3.64-1.59,4-3.44.32a1,1,0,0,0-1.86.5c0,1,.91,2.88.76,3.59-0.59,2.77-4.7,2.61-6.71,2.69-1.76.07-3.35-.26-5.14-0.3-3.16-.07-3,0.14.13,0.06,2.93-.07,5.52-1,8.4-1.26,2.69-.26,3.68-0.9,5.67-2.7L68.05,36a3.43,3.43,0,0,1-4.16-.17,9.57,9.57,0,0,1-3.31-3.09l-1.13,1.47c1.84,0.41,5.55,2.57,6.36,4.16a17.18,17.18,0,0,1-4-2.1,6.33,6.33,0,0,1-2.55-2.75l-1.47,1.13c0.91,0.53,7.78,5.43,3.83,4.32a11.43,11.43,0,0,1-6.09-5.07l-0.86,1.5q2.28,0.33,2.39,2.29,0.81,1.67-.32.67c-1.23.2-4-3.22-4.43-3.92L51.2,35.88c1.1,0.34,2.77,2,3.52,2.87,1.12,1.28-3.6-3.23-3.87-3.58l-0.6,1.47q0.58,0.61,1.21,1.17,1.6,2.5,1,1c-0.51,0-2.89-2.42-3.61-3.34l-1.41,1.41,1.34,2.39L50,38.07a7.21,7.21,0,0,1-3.08-1.75,1,1,0,0,0-1.37,1.37L46,38.62l1.47-1.13a4.86,4.86,0,0,1-1.49-.8c-1.08-.71-2.08,1-1,1.73h0Z"/><path class="cls-3" d="M4.75,68.13a4.12,4.12,0,0,0,.82,2.57,1,1,0,0,0,1.73-1A7.19,7.19,0,0,0,6.08,68a1,1,0,0,0-1.67.44,2,2,0,0,0,1.9,2.61,1,1,0,0,0,.86-0.5C8.07,69.31,7,68,6.73,66.72L5.26,67.85c1,0.65,3.23,3.28,4.42,1.46,1-1.6-1.15-4.18-1.82-5.5A1,1,0,0,0,6,64.58c0.57,1.6,2.73,4.57,4.71,4.54a1,1,0,0,0,.86-0.5c1-1.93-1.56-5.73-2.64-7.2a1,1,0,0,0-1.73,1,25.17,25.17,0,0,0,4,5.09c0.65,0.65,1.51,1.6,2.54,1.25,2.95-1-1.18-6.94-1.89-8.12-0.56-.93-2.27-0.31-1.83.77A2,2,0,0,0,11.58,63a1,1,0,0,0,1.13-.46,6,6,0,0,0,.47-2.61c0.09-.79.55-1.78,0.33-2.58a1,1,0,0,0-1-.73c-1.36,0-2.11,1.93-2.81,2.81a24.45,24.45,0,0,0-2.16,3.24L9.39,63.4c0.93-2.62,4,1.8,4.34,2.38A16.84,16.84,0,0,0,15,68c0.77,1,2.5,0,1.73-1a23.65,23.65,0,0,1-2.09-3l-1.57,1.21c2.53,2.49-4.22,3.74-5.23,4.38a1,1,0,0,0,1,1.73c0.85-.42,1.68-0.66,2.52-1.05a1,1,0,0,0,.5-0.86c-0.23-2.21-3.42-3.57-4.77-5.18l-1,1.67c1.41,0.38,4,3.05,5.54,1.77s-0.41-4.08-.69-5.39L9.77,63.44c0.83,0.17,1.78,1.79,2.34,2.37a1,1,0,0,0,1.67-.44,5,5,0,0,0-.08-2.44c-0.13-1.27-2.14-1.28-2,0a5.37,5.37,0,0,1,.16,1.91l1.67-.44c-0.95-1-1.8-2.59-3.22-2.88a1,1,0,0,0-1.23,1.23c0.17,0.8.52,1.53,0.7,2.32s0.54,0.58-.12.32a28.55,28.55,0,0,0-3-1.49,1,1,0,0,0-1,1.67A27.69,27.69,0,0,0,8.82,68.5L9.43,69q0.38,0.45.38-.37a14.25,14.25,0,0,1-1.95.86l1,1.73c1.92-1.22,4.72-.95,6.2-3a3.53,3.53,0,0,0-.57-4.56,1,1,0,0,0-1.57,1.21A23.67,23.67,0,0,0,15,68l1.73-1c-1.51-2-2.23-4.73-4.65-5.9a3.27,3.27,0,0,0-4.63,1.79,1,1,0,0,0,1.83.77,13.62,13.62,0,0,1,1.43-2.31c0.41-.52.84-1,1.23-1.56q0.32-.43.61-0.87,0.84-1,0-.31l-1-.73c-0.13-.45-0.38,1.41-0.4,1.63a5.44,5.44,0,0,1-.19,2L12.11,61,12,60.88l-1.83.77c0.63,1,1.17,2.13,1.7,3.23l0.39,0.81a0.65,0.65,0,0,0,.68.69,9.7,9.7,0,0,0-1.55-1.64A22.14,22.14,0,0,1,9,61.41l-1.73,1c0.88,1.2,1.25,3.07,2.2,4.14q0.1,1.12,1.19.53a3.56,3.56,0,0,1-.55-0.42C9.47,65.75,8.36,65.16,8,64l-1.83.77a30.89,30.89,0,0,0,1.68,3.25c0.62,0.32.31-.51,0.3-0.53a8.66,8.66,0,0,0-1.84-1.41A1,1,0,0,0,4.8,67.25C4.88,67.62,6.15,69.88,6.33,69l-1.67.44a7.67,7.67,0,0,1,.91,1.25l1.73-1L6.75,68.13a1,1,0,0,0-2,0h0Z"/><path class="cls-3" d="M12.43,61.22q0.39,1,.69,2.08a1,1,0,0,0,1.93-.53q-0.31-1.06-.69-2.08a1,1,0,0,0-1.23-.7,1,1,0,0,0-.7,1.23h0Z"/><path class="cls-1" d="M20.34,14.15c0.21,1.13.53,3.95,2.33,3.44a1.6,1.6,0,0,0,.8-2.25,2.67,2.67,0,0,0-2.07-1.78c-1-.27-2.16-0.38-2.66.78A1.23,1.23,0,0,0,20.13,16c1.11-.17,1.68-1.31,2.13-2.21A5.38,5.38,0,0,0,22.68,10,1,1,0,0,0,21,9.58a3.75,3.75,0,0,0-.89,1.5,1,1,0,0,0,1,1.27,2.26,2.26,0,0,0,1-.23,3.56,3.56,0,0,0,.43-0.28,0.74,0.74,0,0,1,.25.34,3.66,3.66,0,0,1-1.68-.83c-1.19-.9-2.72-0.71-2.92,1s1.47,2.5,2.94,2.29c0.73-.11,1.26-0.63,1.95-0.72a5.45,5.45,0,0,1,.57,0q0.64,0.28.16-.54a1.17,1.17,0,0,1-.4.29q-0.45.06,0,.16c-1-.82-2.4.58-1.41,1.41,1.31,1.1,4.11-.1,3.76-2a2,2,0,0,0-2.09-1.36,3.84,3.84,0,0,0-1.57.11,3.25,3.25,0,0,0-.54.29,6.53,6.53,0,0,1-1.4.37c-0.62.22-.43,0.06,0,0.39a4.74,4.74,0,0,0,.62.44,4.51,4.51,0,0,0,1.52.45,2.06,2.06,0,0,0,2.47-1.16,2.65,2.65,0,0,0-1-2.62,1.85,1.85,0,0,0-1.29-.46c-0.51,0-.92.57-1.37,0.59l1,1.27A1.58,1.58,0,0,1,22.42,11l-1.67-.44a3.26,3.26,0,0,1-.11,2c-0.06.15-.78,1.45-0.71,1.47l0.7,0.7-0.05-.18-0.1.77c0-.07,1.35.34,1.14,0.9l0.46-.6q1,0.56.71,0.13a1.12,1.12,0,0,1-.12-0.31c0-.25-0.14-0.5-0.19-0.75s-0.14-.73-0.21-1.09c-0.24-1.26-2.17-.73-1.93.53h0Z"/><path class="cls-4" d="M43.2,52.69a1.52,1.52,0,0,0-1.1.69c-0.34.48-.74,1-1.15,1.55l-0.54.71-0.32,0,0.26,0.11c-0.34.45-.67,0.91-1,1.35a2.07,2.07,0,0,1-.26.29l-0.21.22-0.29.32a0.74,0.74,0,0,1-.19.12,1.16,1.16,0,0,0-.26.17,0.63,0.63,0,0,0-.13.22l-0.05.1a2.73,2.73,0,0,1-.38.39l-0.21.2c-0.18.19-.37,0.36-0.56,0.54l-0.28.26a2.17,2.17,0,0,0-.19.21,1.05,1.05,0,0,1-.22.22,0.21,0.21,0,0,1-.1,0l-0.19,0a1.87,1.87,0,0,0-.73.55l-0.21.21-0.47.44h2.26l0.07-.06L37,61.35c0.63-.53,1.29-1,1.93-1.46L39,59.79l0.11-.13c0.12-.12.27-0.25,0.44-0.38a5.12,5.12,0,0,0,.76-0.72l0.21-.25a4.13,4.13,0,0,0,1-1.46,1.93,1.93,0,0,0,.54-0.58,0.48,0.48,0,0,0,.14-0.11,0.41,0.41,0,0,0,.1-0.21,1.56,1.56,0,0,0,.39-0.42H43v-0.3l0.31-.54c0.09-.17.18-0.32,0.24-0.42a1,1,0,0,1,.11-0.13,0.78,0.78,0,0,0,.24-0.93A0.79,0.79,0,0,0,43.2,52.69Z"/><path class="cls-4" d="M112,63.88a0.72,0.72,0,0,1-.16-0.25,4.43,4.43,0,0,0-.94-1.32,7.09,7.09,0,0,0-.76-0.64l-0.41-.29a1.72,1.72,0,0,0-.52-0.29l-0.12,0,0,0a2,2,0,0,0,.15-0.38,0.62,0.62,0,0,1,.08-0.21,1.35,1.35,0,0,0,.18-0.37c0.06-.15.14-0.34,0.22-0.6a4.09,4.09,0,0,0,.19-1.06,2.91,2.91,0,0,0-.28-1.37,3.16,3.16,0,0,0-.87-1.11,4,4,0,0,0-1.09-.6,8.38,8.38,0,0,0-1.49-.5l-0.29-.06-0.26,0-0.27,0a3.38,3.38,0,0,0-.8.07l-0.1,0a7.56,7.56,0,0,0-1.15.32,4.3,4.3,0,0,0-.91.48,3.29,3.29,0,0,0-.52.46l-0.16.18a0.78,0.78,0,0,1-.22.2,2.19,2.19,0,0,0-.65,1.13c-0.09.27-.2,0.64-0.24,0.81a2.68,2.68,0,0,0,0,1v0.07c0,0.07,0,.18,0,0.27s0.05,0.23.09,0.38,0,0.19.06,0.26l-0.29.3a0.36,0.36,0,0,0-.23.06,0.8,0.8,0,0,0-.24,0l-0.33.09-0.14,0-0.15,0A3.18,3.18,0,0,1,99,61l-0.56.08h0a1.84,1.84,0,0,1-.06-0.27c0-.12,0-0.27-0.1-0.51a3.46,3.46,0,0,0-.3-0.73L97.58,59a4,4,0,0,0-.57-0.8l-0.23-.21L95.64,57a1.7,1.7,0,0,0-.31-0.22A1.48,1.48,0,0,0,95,56.65a7.2,7.2,0,0,1-1.16-.44,2.06,2.06,0,0,0-1.12-.45l-0.52-.1c-0.43-.09-0.84-0.17-0.92-0.2l-0.37-.19a3.85,3.85,0,0,0-1-.37c-0.31-.09-0.75-0.21-1-0.3a2.72,2.72,0,0,0-.71-0.2l-0.19,0L88,54.08a3.64,3.64,0,0,0-.33-0.94c0-.05-0.07-0.15-0.13-0.29a19.19,19.19,0,0,0-1.28-2.51l-1-1.59a4.34,4.34,0,0,1-.51-0.91A3.65,3.65,0,0,0,84,46.65a4.14,4.14,0,0,0-.91-0.95,1.88,1.88,0,0,1-.39-0.36l-0.2-.21C82.28,44.87,82,44.52,81.44,44l-0.15-.14a15.89,15.89,0,0,0-1.19-1.08l-0.7-.54a2.56,2.56,0,0,0-.77-0.43l-0.85-.31A4.74,4.74,0,0,0,77,41.29c-0.13,0-1-.16-2-0.26s-1.28-.09-1.59-0.1a3.84,3.84,0,0,1-.48,0,2.69,2.69,0,0,0-.73,0L71.63,41a24.21,24.21,0,0,0,2-1.86,13.82,13.82,0,0,1,1-1c0.19-.17.75-0.7,1.49-1.44l0.76-.76c0.56-.56,1.2-1.19,1.81-1.88,0.22-.25.45-0.53,0.65-0.79a5.42,5.42,0,0,0,.56-0.91C80,32.15,80,32,80.09,31.89l0.05-.08a4.54,4.54,0,0,0,.21-0.58,5.6,5.6,0,0,0,.12-0.58,9,9,0,0,0,0-1.89,4.7,4.7,0,0,0-.19-1.09,5.26,5.26,0,0,1-.2-0.9,6.81,6.81,0,0,0-.24-0.92l0-.07a9,9,0,0,0-1-1.88A13.27,13.27,0,0,0,78,22.72l-0.23-.27-0.28-.33a2.39,2.39,0,0,0-.61-0.59,12.11,12.11,0,0,1-1.28-1.11,3.18,3.18,0,0,0-1.16-1,19.07,19.07,0,0,1-1.59-1.07l-0.29-.29L72.44,18a5.09,5.09,0,0,0-1.08-.81c-0.48-.3-0.88-0.56-1.08-0.72a4.14,4.14,0,0,0-.83-0.51l-0.61-.34c-0.48-.27-1.19-0.68-2.11-1.17s-1.51-.76-1.9-0.93l-0.26-.12a2,2,0,0,1-.48-0.27,4,4,0,0,0-1.27-.59,4.22,4.22,0,0,0-1.27-.37A2,2,0,0,1,61,12l-0.34-.11c-0.33-.1-0.78-0.25-1.43-0.42-0.34-.09-0.72-0.17-1.09-0.24s-0.6-.09-0.75-0.1A6,6,0,0,1,56.6,11a4,4,0,0,0-.79-0.1A3.57,3.57,0,0,1,55,10.82c-0.26-.06-0.59-0.13-0.73-0.15s-1-.13-1.9-0.28A17,17,0,0,1,50.45,10l-0.08,0a2.91,2.91,0,0,0-.76-0.11H48.83l-1,.05a1.31,1.31,0,0,1-.57,0,2.14,2.14,0,0,0-1,0C46,10,42.43,10,42,9.91a6.41,6.41,0,0,0-1.33,0c-0.8.05-1.63,0-2.3,0-0.34,0-.66-0.05-0.91-0.05H37.35a6.38,6.38,0,0,0-2.59.69,6.59,6.59,0,0,1-1,.44l-0.5.2c-0.23.08-.52,0.19-0.87,0.29l-0.5.15a14.16,14.16,0,0,0-2.08.71c-0.92.4-2,.88-3.06,1.41a1.52,1.52,0,0,0-.24-0.19,0.85,0.85,0,0,1-.21-0.48V12.89a0.72,0.72,0,0,1,.2-0.19,0.49,0.49,0,0,0,.21-0.46,0.45,0.45,0,0,0-.15-0.38s0-.1,0-0.18V11.59a0.84,0.84,0,0,0-.16-0.46,0.34,0.34,0,0,0-.14-0.3,0.54,0.54,0,0,0-.07-0.25s-0.13-.17-0.26-0.34l-0.16-.17a0.36,0.36,0,0,0-.21-0.33L25.52,9.7l-0.13-.08a0.32,0.32,0,0,0-.09-0.17,0.35,0.35,0,0,0-.25-0.1A5.44,5.44,0,0,1,24.56,9a0.46,0.46,0,0,0-.41-0.23,0.74,0.74,0,0,1-.38-0.14A0.68,0.68,0,0,0,23,8.45a4.1,4.1,0,0,0-.82-0.13,5,5,0,0,0-.74,0H21.37a0.79,0.79,0,0,0-.4.1,1.34,1.34,0,0,1-.31.11,2.21,2.21,0,0,0-.46.2,1.07,1.07,0,0,1-.23.1l-0.28.06a0.49,0.49,0,0,0-.32.2l-0.08.15a2.53,2.53,0,0,0-.45.33,4.6,4.6,0,0,0-.39.37,5.33,5.33,0,0,0-.39.48,6.91,6.91,0,0,0-.62,1,3.81,3.81,0,0,0-.29.82L17,12.67a1.34,1.34,0,0,0,0,.53s0,0.06,0,.1a5.2,5.2,0,0,0,.06.55,3.9,3.9,0,0,0,.23.83,0.27,0.27,0,0,1,0,.09,1,1,0,0,0,.16.76,3.35,3.35,0,0,1,.15.33,1.21,1.21,0,0,0,.28.45c0.12,0.13.35,0.39,0.53,0.58a2.94,2.94,0,0,0,.53.45h0a0.5,0.5,0,0,0,.25.35l0.11,0.07-1.2.54a5,5,0,0,0-.92.53c-0.11.09-.39,0.33-0.6,0.53a4.41,4.41,0,0,1-.64.53l-0.58.46c-0.3.24-.75,0.56-1.46,1-0.32.22-.67,0.46-1,0.74a13,13,0,0,0-1.12,1,20.92,20.92,0,0,0-2.1,2.41c-0.29.38-.57,0.76-0.85,1.14s-0.72,1-1.09,1.43-0.66.85-1,1.3c-0.19.28-.35,0.54-0.5,0.79L6,30.67c-0.25.41-.5,0.81-0.71,1.2-0.11.2-.21,0.39-0.31,0.59L4,34.54,3.15,36.3a12.46,12.46,0,0,0-.78,1.88c-0.1.31-.55,1.82-0.88,3.45S0.93,44.82.83,45.53l0,0.18A6.37,6.37,0,0,1,.55,47,7.12,7.12,0,0,0,.32,48l-0.14.81-0.08.58c0,0.21,0,.44,0,0.69,0,0.48,0,1,0,1.49,0,0.27,0,.51,0,0.67,0,0.6,0,1.35,0,2.28,0,0.63.12,2.54,0.27,4a30.61,30.61,0,0,0,.5,3.29A5.27,5.27,0,0,1,1,62.92a5.64,5.64,0,0,0,.25,1.33c0.18,0.66.37,1.33,0.57,2S2.22,67.43,2.4,68s0.42,1.12.52,1.36,0.23,0.56.25,0.63a2.45,2.45,0,0,0,.68,1.14l0,0a1,1,0,0,0,.18.25,0.84,0.84,0,0,1,.13.18,1.09,1.09,0,0,0,.16.2,1.64,1.64,0,0,0-.25.16L4.06,72a1,1,0,0,0-.15.14,0.37,0.37,0,0,0-.09.28,0.5,0.5,0,0,0,0,.07,1.81,1.81,0,0,0-.21.9,4.41,4.41,0,0,1,0,.5,2.91,2.91,0,0,0,.06.88,14.79,14.79,0,0,1,.15,2.52,4.15,4.15,0,0,0,0,.93,4.08,4.08,0,0,1,.07.73c0,0.14,0,.29,0,0.44s0,0.12,0,.19,0,0.2,0,.32a1.42,1.42,0,0,0,.26.9,1.12,1.12,0,0,0,.43.34l0.18,0.07,0.1,0a2.41,2.41,0,0,0,.73,0l1.14-.06,0.79-.05A1.17,1.17,0,0,0,7.93,81a16.61,16.61,0,0,1,2.29-.23,14.62,14.62,0,0,1,1.68,0H12a4.12,4.12,0,0,1,.61.05,5.69,5.69,0,0,0,1.64.05,8.59,8.59,0,0,1,2,0c0.57,0.05,1.07.07,1.71,0.07,0.45,0,1.43,0,2.1.06,1,0.06,1.43.07,2.2,0.07a18.29,18.29,0,0,1,2.58.13c0.37,0,2,.19,5.36.37,4.15,0.24,4.83.29,5.16,0.35a6.73,6.73,0,0,0,1.71.07c0.27,0,4,.15,5,0.24a7.33,7.33,0,0,0,2.24.11,1.88,1.88,0,0,1,.63.07c0.13,0,1,.12,2.49.27,1.18,0.1,2.68.16,4.38,0.16h1.06l3.17,0a19.36,19.36,0,0,0,3.1-.19A6,6,0,0,1,61,82.52a11.28,11.28,0,0,0,2.26-.06,4,4,0,0,1,1.1,0,10.28,10.28,0,0,0,1.29,0l3-.14,0.27,0a13.61,13.61,0,0,0,2.27,0,4.23,4.23,0,0,1,1.17,0,3.61,3.61,0,0,0,1.32,0,4.27,4.27,0,0,1,1.51.06,4.43,4.43,0,0,0,1.39,0,1.11,1.11,0,0,1,.29,0H77l0-.25h0l0.06,0.26,0.09,0a1.44,1.44,0,0,0,.77.06,4.6,4.6,0,0,1,.47,0,2,2,0,0,0,.83,0,2.74,2.74,0,0,1,1.13,0,9.78,9.78,0,0,0,2.16.08,3.68,3.68,0,0,1,.83,0,1,1,0,0,0,.62,0c0.32-.11.32-0.12,0.45,0a1.1,1.1,0,0,0,.85.07,1.48,1.48,0,0,1,.74,0,3.63,3.63,0,0,0,1.53,0,0.6,0.6,0,0,1,.49,0,1.76,1.76,0,0,0,1,0,5.17,5.17,0,0,1,1.45.1,8.11,8.11,0,0,0,1.78.15h0.09a4.11,4.11,0,0,0,1.49-.13c0.06,0,.06-0.06.12,0a2.38,2.38,0,0,0,.43.09,3.69,3.69,0,0,0,1.42-.08,1.82,1.82,0,0,1,1,0,8.45,8.45,0,0,0,2.1,0,2,2,0,0,1,.51,0,4.43,4.43,0,0,0,.74,0c0.3,0,1.53,0,2,.06l0.3,0-0.1-1v-0.9a3.68,3.68,0,0,0-.11-1V79.23a2.17,2.17,0,0,0-.24-1.13l0-.53,0.12-.89v0c0-.15-0.22-0.91-0.29-1.08a1.54,1.54,0,0,1,.08-0.37,1.24,1.24,0,0,0,.07-0.33,2.92,2.92,0,0,0-.08-0.49c0-.12-0.05-0.24-0.06-0.29s-0.08-.4-0.25-1.16l0-.07h-0.2c-2.27,0-2.36-.11-2.57-0.17a3,3,0,0,0-1.24-.13,4.11,4.11,0,0,0-1.17.08,8.89,8.89,0,0,1-2,0c-0.72,0-1.36,0-1.62,0a4.81,4.81,0,0,1-.72,0,3.19,3.19,0,0,0-.72,0,2.92,2.92,0,0,1-.72,0c-0.25,0-.56,0-0.67,0l-1.73,0H87.6a3.85,3.85,0,0,0-.13-1,4.61,4.61,0,0,1,.25-1.28l0.13-.44A4.92,4.92,0,0,0,88,69.17a5.85,5.85,0,0,1,.21-0.9l0-.08,1.23-.34c0.44-.11.81-0.21,1-0.28l0.23-.08a2.32,2.32,0,0,1,.64-0.17,3.82,3.82,0,0,0,1-.28l3.29-1.21,0.49-.2a2.91,2.91,0,0,1,.44-0.17,2,2,0,0,0,.5-0.17,0.58,0.58,0,0,0,.26-0.2h0l0.29,0.1a2.54,2.54,0,0,0,.36.07,1,1,0,0,0,.51,0,0.24,0.24,0,0,1,.17,0,1.77,1.77,0,0,0,.33,0h0.68a2.53,2.53,0,0,1,.61,0,0.5,0.5,0,0,0,.42,0,1.31,1.31,0,0,1,.29.18,0.82,0.82,0,0,0,.59.37h0.07c0.13,0,.22-0.15.3-0.14a0.39,0.39,0,0,0,.07-0.06,0.11,0.11,0,0,1,0,0,0.91,0.91,0,0,0,.31.36,0.93,0.93,0,0,1,.2.23,0.68,0.68,0,0,0,.28.32l0.2,0.2L103.26,67l0.3,0.32a4.83,4.83,0,0,0,.65.65,0.23,0.23,0,0,1,.08.08,0.8,0.8,0,0,0,.53.43,0.76,0.76,0,0,0,.6.12l0.29,0.1,0.39,0.15a2.62,2.62,0,0,0,.73.15,0.85,0.85,0,0,1,.22,0,0.71,0.71,0,0,0,.42,0,0.33,0.33,0,0,1,.19,0,1.23,1.23,0,0,0,.34,0h0.07a6.6,6.6,0,0,0,.67-0.11l0.38-.09a0.93,0.93,0,0,1,.27-0.05,0.62,0.62,0,0,0,.41-0.09l0.13-.07,0.1-.05a2.72,2.72,0,0,0,.33-0.21l0,0a0.53,0.53,0,0,0,.53-0.28L111,68a5.2,5.2,0,0,0,.44-0.42,4.83,4.83,0,0,0,.45-0.58l0.09-.13a1,1,0,0,0,.23-0.61l0-.35c0-.12,0-0.24,0-0.36V65.35c0-.13,0-0.25,0-0.35A1.49,1.49,0,0,0,112,63.88Zm-2.72,3.23a0.44,0.44,0,0,0-.23,0,0.38,0.38,0,0,0-.13.07,0.5,0.5,0,0,0-.44.17,0.21,0.21,0,0,1-.07.05,0.66,0.66,0,0,0-.35-0.07,2.8,2.8,0,0,0-.48,0,0.17,0.17,0,0,1-.12,0,0.36,0.36,0,0,0-.37,0,0.34,0.34,0,0,0-.13-0.08,0.38,0.38,0,0,0-.29,0h0a0.72,0.72,0,0,0-.64-0.21,0.45,0.45,0,0,0-.49-0.22l-0.29-.27-0.09-.09L105,66.36a3.61,3.61,0,0,0-.43-0.43,1.09,1.09,0,0,0,0-.12,0.76,0.76,0,0,0-.55-0.49c-0.1,0-.1,0-0.15-0.17a1.55,1.55,0,0,0-.82-0.81,0.77,0.77,0,0,1-.16-0.08h0a1.07,1.07,0,0,0-.44-0.26,2.75,2.75,0,0,1-.47-0.2,1.31,1.31,0,0,0-.89-0.22,1.7,1.7,0,0,1-.64,0,0.51,0.51,0,0,0-.47.07,0.45,0.45,0,0,0-.53-0.06,0.41,0.41,0,0,0-.26,0l-0.33,0-0.44,0a0.82,0.82,0,0,1-.1-0.75l0.12,0h0.11a0.68,0.68,0,0,0,.41-0.12,0.74,0.74,0,0,1,.24-0.06l0.23,0,0.41,0a0.75,0.75,0,0,0,.48-0.16,0.7,0.7,0,0,1,.46-0.16,2.45,2.45,0,0,0,.45-0.1,2.08,2.08,0,0,0,.69-0.47,2,2,0,0,0,.34-0.35,0.59,0.59,0,0,0,.12-0.4,0.5,0.5,0,0,1,0-.07s0-.1,0-0.17a2.75,2.75,0,0,0-.08-1,3.36,3.36,0,0,1-.07-0.35,1.81,1.81,0,0,1,0-.21,0.54,0.54,0,0,1,0-.09,1.07,1.07,0,0,0,.14-0.69,0.65,0.65,0,0,1,.18-0.48l0.17-.26,0.08-.15,0.05-.08a1.16,1.16,0,0,1,.32-0.32l0.17-.11c0.14-.09.24-0.15,0.38-0.26a1.13,1.13,0,0,1,.66-0.24l0.24,0,0.33,0L105,56.66c0.13,0,.29.19,0.44,0.19h0a1,1,0,0,1,.54-0.12c0.63,0.2,1.11.31,1.28,0.39a0.67,0.67,0,0,0,.18.05,0.75,0.75,0,0,0,.43.32,0.36,0.36,0,0,1,.09.08l0.08,0.1,0.1,0.18a1.12,1.12,0,0,1,.06.59c0,0.1,0,.21-0.07.3a1,1,0,0,0-.05.48,0.61,0.61,0,0,0-.14.22c0,0.09-.1.2-0.17,0.32a0.71,0.71,0,0,1-.1.13l-0.13.11-0.17.12a4.39,4.39,0,0,0-.68.51l-0.11.1L107,62.1c0,0.11.05,0.29,1,.38a1.33,1.33,0,0,1,.43.11,1.51,1.51,0,0,1,.25.16,6.12,6.12,0,0,0,.52.39,1.75,1.75,0,0,0,.44.23,0.35,0.35,0,0,1,.26.26,1.69,1.69,0,0,0,.45.7,1.19,1.19,0,0,1,0,.15,1.43,1.43,0,0,0,.11.45,2.22,2.22,0,0,1,.12.38,1.35,1.35,0,0,1,0,.23,1.84,1.84,0,0,0-.23.71l-0.12.09a0.52,0.52,0,0,0-.29.34l-0.38.16-0.16.09A0.62,0.62,0,0,0,109.29,67.1ZM72.37,53.18a1,1,0,0,0,.55.05h0l0.38,0.06a1.57,1.57,0,0,0,.72,0,1.88,1.88,0,0,1,.92.07,7.39,7.39,0,0,0,1.87.27,2.69,2.69,0,0,1,.69.1,0.81,0.81,0,0,0,.56,0l0.25-.07,0.08,0.05a0.87,0.87,0,0,0,.75.18,1,1,0,0,1,.58.11,2.77,2.77,0,0,0,1.31.22,0.36,0.36,0,0,1,.35.09,1.43,1.43,0,0,0,.89.24,3.57,3.57,0,0,1,1.19.3,3.56,3.56,0,0,0,.51.17l1.34,0.3a6.82,6.82,0,0,0,1,.16l0.08,0.08h0.11a0.78,0.78,0,0,1,.21,0l0.34,0.11L87.77,56l0.12,0,0.15,0,0.3,0.1v0a3.37,3.37,0,0,0,.38.16,5.87,5.87,0,0,0,.78.3,6.51,6.51,0,0,0,.93.24,1.38,1.38,0,0,1,.41.11,3.41,3.41,0,0,0,.62.21l0.41,0.13,0.48,0.21a5.42,5.42,0,0,0,1.42.56,3.29,3.29,0,0,1,.54.17l0.24,0.12,0.26,0.19a1.58,1.58,0,0,0,.52.35,0.63,0.63,0,0,1,.34.31,0.66,0.66,0,0,0,.1.17,0.47,0.47,0,0,0,.21.16,0.37,0.37,0,0,1,0,.08,1.34,1.34,0,0,0,.19.35,7.2,7.2,0,0,1,.41.64l0.1,0.19,0.06,0.15a2,2,0,0,1,.06.26,0.78,0.78,0,0,1,0,.29,2.2,2.2,0,0,0-.08.65,9,9,0,0,1,.11,1.5,2.63,2.63,0,0,1-.92.15H95.86a2.32,2.32,0,0,0-.69.34l-0.27.13h0l-0.46.18c-0.35.13-.78,0.26-1.27,0.41L92.69,65a1.31,1.31,0,0,0-.3.13,4.34,4.34,0,0,1-1.3.51c-0.55.13-.68,0.15-0.72,0.15l-0.43.1-0.76.18-0.37.09-0.07,0a4.66,4.66,0,0,1-1.72.55l-0.19.09-0.78.25a16.78,16.78,0,0,1-2,.54,4.35,4.35,0,0,0-1.4.36,6.5,6.5,0,0,1-1.6.51l-0.65.13-0.74.17-0.46.11-1.29.28c-0.88.13-1.23,0.19-1.87,0.34a10.58,10.58,0,0,1-2.16.3l-1.38.09L72.2,70,71.07,70c-0.24,0-.51,0-0.75,0a4.39,4.39,0,0,1-.8-0.11c-0.33-.07-0.64-0.17-0.93-0.26l-1.15-.31c-0.53-.12-0.92-0.22-1.2-0.3a6.42,6.42,0,0,1-.89-0.36,2.71,2.71,0,0,0-.74-0.25,5.94,5.94,0,0,0-.87-0.08,4.23,4.23,0,0,1-1.46-.6c-0.38-.23-0.8-0.5-1.15-0.72s-0.59-.41-0.77-0.56c-0.34-.28-0.66-0.59-0.89-0.81a1.5,1.5,0,0,0-.48-0.4,1.42,1.42,0,0,1-.31-0.37,5.78,5.78,0,0,0-.42-0.53l-0.11-.13a12,12,0,0,1-.75-1,6.34,6.34,0,0,1-1-3.79,7.14,7.14,0,0,1,.24-1.43,6.8,6.8,0,0,1,.3-0.9c0.1-.22.2-0.43,0.3-0.62s0.2-.34.31-0.49l0.29-.41c0.11-.15.21-0.29,0.28-0.4a3.1,3.1,0,0,1,.2-0.27l0.24-.25a2.19,2.19,0,0,1,.56-0.36c0.43-.21,1.13-0.55,1.54-0.77a1.77,1.77,0,0,1,.77-0.22l0.3,0c0.28,0,.52-0.06.71-0.1a12.76,12.76,0,0,1,1.27-.16c0.55,0,1.11-.06,1.21-0.06l0.22,0a9.06,9.06,0,0,0,2,0,3.14,3.14,0,0,1,1,0,2.69,2.69,0,0,0,1.11,0h0.07l0.15,0h0.13c0.16,0,.39,0,0.86.12l0.11,0a3.39,3.39,0,0,0,1.23,0l0.09,0Zm28.52,23.57v0.5l-0.18.75,0.19,0.79,0.25,0.72L101,80,100.9,81c-0.47,0-1.29.12-1.47,0.12s-0.24,0-.49-0.07A5.18,5.18,0,0,0,97.76,81a10.56,10.56,0,0,1-1.13,0,3.39,3.39,0,0,0-.86,0c-0.22,0-1.24,0-2.71,0a11.57,11.57,0,0,1-2.55-.08,3.5,3.5,0,0,0-1.23-.08,3.81,3.81,0,0,0-1.16.08,8.87,8.87,0,0,1-2,0c-0.67,0-1.33,0-1.61,0a4.25,4.25,0,0,1-.72,0,3.18,3.18,0,0,0-.72,0,2.77,2.77,0,0,1-.71,0l-0.66-.05H79.95a11.15,11.15,0,0,1-1.77-.07,2.38,2.38,0,0,0-.65,0l-0.64,0L76,80.7a1.09,1.09,0,0,1-.49,0,1.7,1.7,0,0,0-.92,0c-0.22,0-3.35,0-3.82,0a4.93,4.93,0,0,0-1.19,0,17.45,17.45,0,0,1-2.78,0,9.15,9.15,0,0,0-2.31,0,4.47,4.47,0,0,1-.9.09c-0.32,0-2,.06-3.66.14s-3.32.14-3.63,0.14-0.8.36-1.22,0.4a7.56,7.56,0,0,1-1.69.39H51.29a10,10,0,0,1-1.62-.39c-0.16,0-.37-0.2-0.58-0.23s-0.47-.14-0.65-0.15L48,81c-0.15,0-.27-0.1-0.34-0.1h0l-0.67.06a2.89,2.89,0,0,1-.67,0l-2.31-.19c-1.27-.12-2.94-0.21-4.71-0.31l-2.17-.12c-3.23-.19-6.28-0.36-7.48-0.41l-1.72-.13c-0.68-.06-1.51-0.12-1.74-0.12l-1.83-.09-1.22-.07c-1.5-.09-3.14-0.13-3.64-0.13a5.56,5.56,0,0,1-1.17-.07,15.08,15.08,0,0,0-2.64-.12c-0.65,0-1.49.37-1.86,0.35s-1.13.37-2,.37H11.66a8.05,8.05,0,0,0-1.55-.33l-4.27.14c-0.09,0-.18-0.09-0.26-0.08v-0.5L5.43,75.56a12.93,12.93,0,0,1-.06-1.75,2.41,2.41,0,0,0,0-.37l0.32,0a3.14,3.14,0,0,0,.88,0,15.38,15.38,0,0,1,2.53.18H9.26a4.11,4.11,0,0,0,.83.05,7.71,7.71,0,0,1,1.69,0l0.88,0.11c0.17,0,.9,0,1.5,0a5,5,0,0,0,1.46-.06,19.39,19.39,0,0,1,2.05,0h0.28c0.66,0,1.15,0,1.51,0a0.85,0.85,0,0,0,.19,0l1.94,0.09,0,0,0.5,0a8.12,8.12,0,0,1,2,.06c0.57,0.07,1.09.11,1.7,0.14s1.47,0.35,2.11.41c1,0.1,1.45.36,2.2,0.36H30.1c1.26,0,1.95-.22,2.62-0.15,0.27,0,1.2,0,2.88,0l2.52,0c1.77,0.09,2.92.11,3.68,0.14,1,0,1.36,0,1.55.08a6.62,6.62,0,0,0,1.73,0l1.12,0,4-.1a7.72,7.72,0,0,0,2.24-.15,2,2,0,0,1,.65,0c0.13,0,1,0,2.89,0l5,0c1.34,0,2.77,0,3.17.06a19.88,19.88,0,0,0,3.13,0,7.84,7.84,0,0,1,.94-0.07,6.14,6.14,0,0,1,.92,0,12.07,12.07,0,0,0,2.29-.05,4.62,4.62,0,0,1,1.12,0,9.41,9.41,0,0,0,1.32,0l3.07-.2,0.28,0a13.61,13.61,0,0,0,2.29-.09,4.41,4.41,0,0,1,1.19,0A3.6,3.6,0,0,0,82,74.38a3.93,3.93,0,0,1,1.41,0h0.14a4.42,4.42,0,0,0,1.4-.11,1,1,0,0,1,.54,0,1.46,1.46,0,0,0,.77,0,3.94,3.94,0,0,1,.47,0,2.08,2.08,0,0,0,.83,0,2.76,2.76,0,0,1,1.13,0,10.12,10.12,0,0,0,2.18.06,3.78,3.78,0,0,1,.84,0,1,1,0,0,0,.63,0,0.45,0.45,0,0,1,.46-0.05,1.1,1.1,0,0,0,.86.06,1.53,1.53,0,0,1,.75,0,3.68,3.68,0,0,0,1.55,0,0.63,0.63,0,0,1,.5,0,1.81,1.81,0,0,0,1,0,4.94,4.94,0,0,1,1.46,0,10.91,10.91,0,0,0,1.59,0l0.1,0.46-0.16.61v0.89ZM1.76,51.6a6.93,6.93,0,0,1,.08-2.17c0.12-.58.24-1.17,0.33-1.84s0.25-1.64.39-2.35c0.2-1.09.28-1.55,0.4-2.45A13.89,13.89,0,0,1,3.58,40l0.1-.3c0.09-.29.23-0.74,0.46-1.34s0.43-1,.69-1.57,0.43-.88.67-1.38l0.39-.83,0.67-1.42c0.19-.39.4-0.74,0.57-1L8,30.68a6.51,6.51,0,0,1,.74-1A8,8,0,0,0,9.9,28.16c0.1-.16.75-1.11,1.49-2.05a14.4,14.4,0,0,1,2-2.19c0.39-.32.79-0.61,1.11-0.84L14.65,23a2.26,2.26,0,0,0,.67-0.55A2.87,2.87,0,0,1,16,22a7.47,7.47,0,0,0,.74-0.53L17,21.24c0.33-.26.74-0.58,1.21-0.89l0.48-.29,0.45-.24,1.41-.73c1.09-.57,2-1.09,2.93-1.59l2-1.12,0.15,0,0.16-.1,0.12-.09,0.71-.37L27,15.57c1.13-.54,2.1-1,2.61-1.33a7,7,0,0,1,.91-0.48,3.74,3.74,0,0,1,.9-0.28c0.37-.07.82-0.17,1.23-0.28a7.19,7.19,0,0,0,1.27-.46,5.06,5.06,0,0,1,1.17-.41c0.58-.15,1-0.26,1.33-0.37,0.1,0,.32-0.1.6-0.16s0.59,0,.94,0a11.68,11.68,0,0,1,1.47.08h0.12a0.84,0.84,0,0,1,.33-0.08,17.61,17.61,0,0,0,2.56-.08,5.35,5.35,0,0,1,1.35,0,4.39,4.39,0,0,0,1.47,0,4.93,4.93,0,0,1,1.59,0H47a5.2,5.2,0,0,0,1.57-.09,1.11,1.11,0,0,1,.6,0,1.7,1.7,0,0,0,.76.09,2.32,2.32,0,0,1,.44.09,2.65,2.65,0,0,0,.91.15,4.14,4.14,0,0,1,1.32.2,11,11,0,0,0,2.42.4,5,5,0,0,1,.94.15,1.27,1.27,0,0,0,.67.07,0.56,0.56,0,0,1,.54,0,1.35,1.35,0,0,0,.89.2,1.51,1.51,0,0,1,.78.17,4.89,4.89,0,0,0,1.58.41,0.71,0.71,0,0,1,.54.18,2.22,2.22,0,0,0,1,.4,5.41,5.41,0,0,1,1.5.61,8.07,8.07,0,0,0,.78.4l1,0.46L66,16a4.75,4.75,0,0,0,.75.35,0.18,0.18,0,0,1,.14.09,3,3,0,0,0,.36.33,4.85,4.85,0,0,0,1.38.73,2.29,2.29,0,0,1,1,.61,15.66,15.66,0,0,0,1.87,1.28,1.73,1.73,0,0,1,.43.32,5.13,5.13,0,0,0,.65.55,12.34,12.34,0,0,1,1,.83l0.91,0.83a4.83,4.83,0,0,0,.57.43,6.23,6.23,0,0,1,1.31,1.2,2.73,2.73,0,0,0,.56.58,1,1,0,0,1,.37.47,1.52,1.52,0,0,0,.43.68,0.35,0.35,0,0,1,.11.19c0,0.07.06,0.16,0.08,0.21a1.39,1.39,0,0,0,.11.21,2.91,2.91,0,0,1,.13.27h0a5.65,5.65,0,0,0-.64-0.29,5.08,5.08,0,0,0-1.72-.32,13.89,13.89,0,0,0-3.45.57,22.18,22.18,0,0,1-2.47.54l-0.23,0c-0.53.08-1.25,0.18-1.71,0.27l-0.8.17-0.52.15-1,.34a7.15,7.15,0,0,1-1.08.31l-2.1.55c-0.42.13-.89,0.28-1.4,0.47-1.54.57-3.46,1.33-5.49,2.14l-1.89.75L51,33l-1.4.59c-0.81.37-1.64,0.68-2.44,1-0.49.18-1,.36-1.45,0.55-1.11.46-2.06,1-2.89,1.39l-1.26.67-0.08,0-0.1.07a6.3,6.3,0,0,1-1,.51L39.84,38,39.76,38l-0.07.07-0.16.15c-0.45.25-1,.58-1.57,0.93-1,.65-2,1.32-2.26,1.5l-0.09.06c-1.36,1-2.66,1.82-3.88,2.54-1.71,1-3.61,2-4.52,2.5l-0.37.2a12.3,12.3,0,0,1-1.69.81,12.89,12.89,0,0,0-1.2.53,20.07,20.07,0,0,0-2.48,1.47l-0.21.14-1.14.75-0.7.45-0.4.26c-0.62.4-1.62,0.95-2.77,1.78a10.81,10.81,0,0,1-1.92,1.3v0l-0.76.77c-0.09.07-.07,0.14-0.15,0.21s-0.18.2-.31,0.29l-0.41.36-0.6.46a12,12,0,0,0-1.1,1c-0.22.23-.42,0.47-0.61,0.68l-0.27.31-0.34.36-0.31.27c-0.24.19-.46,0.37-0.59,0.5a3.93,3.93,0,0,0-.52.6l-0.24.34a2.48,2.48,0,0,1-.38.39,6.52,6.52,0,0,0-.51.5c-0.1.11-.21,0.23-0.33,0.4s-0.13.17-.21,0.29l-0.21.35c-0.2.36-.36,0.72-0.5,1l-0.13.3a4,4,0,0,1-.26.5c-0.1.17-.22,0.34-0.37,0.56S5,64.31,4.86,64.5a3.08,3.08,0,0,0-.4.87c0,0.15-.06.29-0.08,0.4l0,0.2a2.69,2.69,0,0,1-.12.32l0,0.08a5.61,5.61,0,0,0-.27.87c-0.15-.44-0.3-1-0.44-1.56a5.19,5.19,0,0,0-.29-1,6.12,6.12,0,0,1-.5-1.77c-0.05-.38-0.1-0.81-0.11-1s0-.36-0.12-0.84L2.27,59.91A3.94,3.94,0,0,0,2,58.79a11.49,11.49,0,0,1-.25-2.59,20.26,20.26,0,0,1,0-2.78A7.59,7.59,0,0,0,1.76,51.6ZM20,10.71l0.26-.13c0.21-.11.54-0.29,0.89-0.45l0.25-.08H21.5a0.77,0.77,0,0,0,.59-0.11,0.55,0.55,0,0,0,.51.14l0.05,0a0.44,0.44,0,0,0,.28.11l0.34,0a0.68,0.68,0,0,0,.49.23v0a0.35,0.35,0,0,0,.32.2v0a0.41,0.41,0,0,0,.26.23,0.28,0.28,0,0,0,.06.09l0,0a0.27,0.27,0,0,0,.19.18,0.52,0.52,0,0,0,.17.3,0.26,0.26,0,0,0,0,.18h0a0.26,0.26,0,0,0,.07.17,0.33,0.33,0,0,0,0,.17,0.29,0.29,0,0,0,0,.08,0.26,0.26,0,0,0,0,.07,0.3,0.3,0,0,0,.09.22,0.71,0.71,0,0,0-.06.41,1.83,1.83,0,0,0,0,.19h0a0.37,0.37,0,0,0-.11.28,0.42,0.42,0,0,0,.11.25,0.59,0.59,0,0,0-.07.53,0.74,0.74,0,0,0-.05.23,0.39,0.39,0,0,0-.14.38v0.06l0,0a0.43,0.43,0,0,0-.29.06H24.35a0.49,0.49,0,0,0-.32.2,0.61,0.61,0,0,0-.1.2l-0.74.42-2.12,1.17V16.85L21,16.76l-0.16-.09-0.07,0a0.62,0.62,0,0,1-.1-0.12,0.41,0.41,0,0,0-.39-0.21l0-.11A0.6,0.6,0,0,0,20,15.91h0a0.53,0.53,0,0,0-.37-0.2l-0.15-.17a2,2,0,0,1-.17-0.24A0.44,0.44,0,0,0,19,14.81a0.3,0.3,0,0,1,0-.11,0.88,0.88,0,0,0-.08-0.4A1,1,0,0,1,18.84,14a0.88,0.88,0,0,0-.13-0.43,0.22,0.22,0,0,0-.08-0.11,0.37,0.37,0,0,0,.06-0.18s0-.07,0-0.11,0-.06,0-0.09a3,3,0,0,1,.1-0.5A2.23,2.23,0,0,1,19,12.1l0-.06a0.46,0.46,0,0,0,.26-0.45,2.1,2.1,0,0,1,.15-0.26l0.14-.19,0.09-.1A1,1,0,0,0,20,10.71ZM71.67,51.85c-0.12,0-.24-0.19-0.34-0.19a0.44,0.44,0,0,1-.39-0.13,1.33,1.33,0,0,0-.83-0.12l-0.53,0H68.52c-0.84,0-1.53,0-1.69,0a3.9,3.9,0,0,0-1,0,20.47,20.47,0,0,1-2.43,0,5,5,0,0,0-2.1.27,6.93,6.93,0,0,1-.78.27,8.32,8.32,0,0,0-3,1.67,9.71,9.71,0,0,0-1.44,1.61,6,6,0,0,0-.56,1l0,0.08a5.3,5.3,0,0,0-.36,1.08l-0.08.36c-0.07.31-.15,0.7-0.23,1.16a7.19,7.19,0,0,0,0,2,13.74,13.74,0,0,0,.31,1.51,8,8,0,0,0,.38,1.14,3.26,3.26,0,0,0,.44.75c0.08,0.09.28,0.29,0.44,0.45a2.56,2.56,0,0,1,.42.46s0.5,0.6,1.35,1.51a10.62,10.62,0,0,0,1.62,1.41c0.67,0.46,1.29.88,2.05,1.32a6.17,6.17,0,0,0,1.29.54,6.51,6.51,0,0,0,.78.16l0.46,0.09a6.58,6.58,0,0,1,.74.24l0.32,0.12a11.15,11.15,0,0,0,1.17.33L66.86,71l0.71,0.17,0.54,0.15,0.32,0.09a8.45,8.45,0,0,0,1.46.31l0.19,0,0.42,0,1,0c0.67,0,1.33-.09,1.52-0.13l0.49-.06c0.51-.05,1.31-0.14,2.15-0.26,1.35-.19,2.71-0.45,3.14-0.56a3.73,3.73,0,0,1,1-.19,4.09,4.09,0,0,0,.76-0.1l0.66-.15L82.07,70l0.84-.27,0.66-.17c0.41-.09.94-0.24,1.68-0.48l1.26-.39a2.38,2.38,0,0,1-.18.41,2.29,2.29,0,0,0-.17.39c0,0.07-.05.17-0.09,0.3L86,70c-0.07.31-.11,0.5-0.15,0.7l0,0.11a4,4,0,0,0-.07.72,2.07,2.07,0,0,0,0,.41c0,0.1,0,.17.06,0.26s0.06,0.22.09,0.33H85.83l-0.67,0-0.86.07a1.15,1.15,0,0,1-.49,0,1.71,1.71,0,0,0-.93,0c-0.25.06-3.35,0.16-3.83,0.11a5.2,5.2,0,0,0-1.2,0,17.45,17.45,0,0,1-2.8.09,11.08,11.08,0,0,0-1.26,0,6.29,6.29,0,0,0-1.07.09,4.29,4.29,0,0,1-.89.08c-0.28,0-1.41,0-3.68.12-1.68,0-3.35,0-3.66,0s-0.88,0-1.23,0-1,0-1.71,0-1.61,0-2.16,0-1.31,0-1.65,0L56.51,73a6.56,6.56,0,0,0-.88,0L55,73a2.93,2.93,0,0,1-.69,0c-0.08,0-1.06,0-2.35,0-0.38,0-.8.33-1.24,0.35-1.15,0-2.45.39-3.81,0.39h0c-3,0-6.19-.42-8.1-0.51-0.52,0-.94-0.19-1.24-0.2L35.75,73c-0.65,0-1.33-.11-1.64-0.11l-0.12,0c-0.16,0-1.48,0-3.06-.1s-3.06-.17-3.61-0.2a5.58,5.58,0,0,1-1.19-.14,12.84,12.84,0,0,0-2.69-.22l-1.89-.07c-0.38,0-.86,0-1.49,0L20,72a3.12,3.12,0,0,1-.25-0.45,5,5,0,0,0-.46-0.79,5.51,5.51,0,0,1-.51-1.07l0.08,0-0.17-.51a5.6,5.6,0,0,1-.36-0.89l-0.1-.23h0a3.6,3.6,0,0,0-.36-0.85,8,8,0,0,1-.8-1.67c-0.13-.36-0.26-0.77-0.3-0.91s-0.09-.27-0.2-0.54-0.23-.61-0.35-1-0.24-.72-0.3-0.91a1.6,1.6,0,0,0-.22-0.53,1.53,1.53,0,0,1-.12-0.4l-0.47-2.09a13.22,13.22,0,0,1-.27-2,4.15,4.15,0,0,1,0-.67,7.46,7.46,0,0,0,0-1L15.49,55c1.06-.85,1.75-1.32,2.3-1.69s0.69-.46.84-0.53a14.11,14.11,0,0,0,2-1.37,19.4,19.4,0,0,1,2.59-1.71c0.51-.29,1-0.54,1.52-0.81l0.75-.39c0.67-.35,2-1,3-1.51a34.86,34.86,0,0,0,3.06-1.68l1.77-1.11c0.67-.42,1.2-0.76,1.74-1.08,0.25-.14.89-0.57,2.1-1.37l0.43-.28A44.78,44.78,0,0,1,41.69,39c1.25,0.35,2.44.75,3.54,1.18,0.63,0.24,1.32.53,1.94,0.8a8.82,8.82,0,0,1,1.15.54,8.33,8.33,0,0,0,1,.51l0.4,0.18,0.45,0.21a9.07,9.07,0,0,0,1.43.48,7.13,7.13,0,0,1,1,.29l1.09,0.41a8,8,0,0,0,1.31.33c0.48,0.08.88,0.14,1.23,0.17a8.59,8.59,0,0,1,1,.13L57.6,44.3a8.9,8.9,0,0,0,1.51.11l0.73,0c0.44,0,.84-0.08,1.2-0.14,0.63-.1,1.23-0.23,1.52-0.29l0.16,0,0.32,0a24.09,24.09,0,0,0,2.42-.49,2.79,2.79,0,0,1,.47-0.1,3.42,3.42,0,0,1,.5,0,13,13,0,0,0,1.39-.07c0.3,0,.6-0.05.91-0.06l0.15,0,0.26-.2c0.2,0,.45.06,0.78,0,0.5,0,1.14-.12,1.47-0.12h0A4.83,4.83,0,0,1,72,42.71a1.71,1.71,0,0,0,.82,0,2,2,0,0,1,.48,0,2.55,2.55,0,0,0,.85,0,2.67,2.67,0,0,1,1.19.08,5.35,5.35,0,0,0,1,.22c0.38,0.07.8,0.14,1.2,0.24a1.48,1.48,0,0,1,.64.29l0.14,0.11,0.11,0.08a0.81,0.81,0,0,0,.25.1C79,43.86,79,43.86,79,44a1.27,1.27,0,0,0,.62.64,2.1,2.1,0,0,1,.63.6,5.15,5.15,0,0,0,1.15,1.11,0.72,0.72,0,0,1,.37.42,2.16,2.16,0,0,0,.69.85,4.18,4.18,0,0,1,.89,1.24c0.14,0.29.29,0.55,0.81,1.4l0.58,1a6.18,6.18,0,0,0,.5.77,0.14,0.14,0,0,1,.06.13,3.29,3.29,0,0,0,.1.44A5.33,5.33,0,0,0,86,53.83l-0.12,0-0.66-.13-1.08-.26a1,1,0,0,1-.36-0.14,2.64,2.64,0,0,0-1-.33,2.78,2.78,0,0,0-1-.14,4.74,4.74,0,0,1-1-.19l-0.69-.15a11.1,11.1,0,0,0-1.4-.23A3.64,3.64,0,0,1,78,52.15a2.6,2.6,0,0,0-.64-0.07A2.2,2.2,0,0,1,76.81,52a5.23,5.23,0,0,0-.57-0.11l-1.76-.18a7.9,7.9,0,0,1-1.25-.16,1.73,1.73,0,0,0-.58-0.08,1.78,1.78,0,0,1-.33.2c-0.16,0-.3.19-0.48,0.19H71.67Zm-60.49,20a8.46,8.46,0,0,1,1.24-.29c0.46-.09,1-0.22,1.25-0.3l0.92-.3,2.56-.77,0.14,0.37a14.54,14.54,0,0,0,.61,1.34L18,72.13h0l-2,0c-1.21,0-2.5,0-2.89,0a3.18,3.18,0,0,1-1,0,5.69,5.69,0,0,0-1.15-.1l-0.54,0A7.4,7.4,0,0,0,11.19,71.84Zm-6-2.42a2.27,2.27,0,0,1,.11-0.65l0.1-.38c0-.13.06-0.27,0.08-0.42a4.6,4.6,0,0,1,.31-1.1A3.36,3.36,0,0,0,6,66.29l0-.2a2.38,2.38,0,0,1,.07-0.32A3.4,3.4,0,0,1,6.58,65l0.13-.18a4.28,4.28,0,0,0,.78-1.35,6.16,6.16,0,0,1,.41-1.07,2.85,2.85,0,0,1,.33-0.51,6.31,6.31,0,0,1,.47-0.51l0.09-.09C9,61.17,9.14,61,9.29,60.82l0.28-.33,0.1-.12,0.17-.2a2.33,2.33,0,0,1,.28-0.27l0.24-.19a6.57,6.57,0,0,0,.91-0.8c0.32-.34.54-0.6,0.71-0.8l0.34-.38a2.58,2.58,0,0,0,.35-0.42,1.92,1.92,0,0,1,.42-0.43c0,0.26,0,.52.08,0.8a18.07,18.07,0,0,0,.31,1.82c0.07,0.32.15,0.65,0.22,1s0.18,0.76.25,1.09A16.07,16.07,0,0,0,15,64.79a5.05,5.05,0,0,1,.43,1.09,6.09,6.09,0,0,0,.48,1.22L16.31,68c0.09,0.21.18,0.42,0.27,0.65a2.16,2.16,0,0,1-.37.07,2.79,2.79,0,0,0-1.08.32,1.32,1.32,0,0,1-.44.14,3.77,3.77,0,0,0-.61.17c-0.12.05-.73,0.27-1.37,0.46s-1.44.4-1.66,0.45a5,5,0,0,1-.83.12,7.14,7.14,0,0,0-1.15.17H9a9.62,9.62,0,0,1-1.57.21l-0.56,0a4.07,4.07,0,0,1-.56,0H6.13l-0.49-.22H5.54a3.2,3.2,0,0,0-.1-0.34A2.88,2.88,0,0,0,5.34,70a1.71,1.71,0,0,1-.12-0.59h0ZM71,39.06c-0.34.33-1,.94-1.61,1.51l-0.57.5-0.37.31-0.79.14a4.25,4.25,0,0,1-.65.08H66.68c-0.39,0-.79,0-1.11.07l-0.47.05-0.38,0a5.62,5.62,0,0,0-1.31.27,11.63,11.63,0,0,1-3,.52H59.53a15.08,15.08,0,0,0-1.56,0,3.6,3.6,0,0,1-1,0l-1.67-.29a10.53,10.53,0,0,1-2.18-.54l-0.56-.21c-0.68-.25-1.33-0.49-1.83-0.73l-0.88-.4-0.46-.22L49.2,40l-0.35-.18c-0.23-.11-0.47-0.2-0.67-0.27s-0.8-.31-1.37-0.56l-0.39-.17c-0.64-.28-1.66-0.66-2.27-0.85L43.8,37.9c0.75-.39,1.29-0.66,1.75-0.87,0.76-.35,1.39-0.58,1.89-0.76l1.15-.42,0.87-.31a17.19,17.19,0,0,0,2.4-1.05L53,34l2.12-.89c1.55-.63,3.31-1.34,4.06-1.61l0.9-.34a23.36,23.36,0,0,0,2.23-.9,3.32,3.32,0,0,1,1-.31c0.23,0,2.17-.53,3.76-0.94,0.86-.25,1.84-0.43,3-0.64l0.68-.13c0.62-.11,1.26-0.28,1.88-0.43a21.33,21.33,0,0,1,2.5-.53l0.35,0h0.32a3.81,3.81,0,0,1,.6,0,3,3,0,0,1,1,.35,6.43,6.43,0,0,1,.81.57,1.56,1.56,0,0,1,.32.34,0.7,0.7,0,0,1,.07.13l0.06,0.2a2.94,2.94,0,0,1,.07.51c0,0.19,0,.39,0,0.59s0,0.35,0,.51a4.45,4.45,0,0,1-.45,1.46,7,7,0,0,1-1.75,2c-0.38.32-.86,0.77-1.29,1.2s-0.91.92-1.18,1.23a8.74,8.74,0,0,1-1.29,1.17,19.11,19.11,0,0,0-1.53,1.32ZM25.65,16h0Z"/><path class="cls-4" d="M34.9,55a2.2,2.2,0,0,1,.21-0.26,3,3,0,0,0,.24-0.29,1.3,1.3,0,0,1,.15-0.15A1.11,1.11,0,0,0,35.72,54a0.58,0.58,0,0,0,.06-0.23s0-.08,0-0.1a1,1,0,0,1,.14-0.23l0.1-.14a0.36,0.36,0,0,0,.06-0.18l0.05,0L36.23,53A4.43,4.43,0,0,0,37,52l0.12-.24a3.57,3.57,0,0,0,.61-1.7,2.11,2.11,0,0,0,.3-0.63,0.46,0.46,0,0,0,.13-0.17,0.4,0.4,0,0,0,0-.19,0.64,0.64,0,0,0,.11-0.37V48.65l0.3-.07-0.06-.24a0.26,0.26,0,0,0,0-.07l0-.13a1,1,0,0,0,.14-0.25,3.25,3.25,0,0,0,.08-0.32c0-.08,0-0.16.06-0.24l0.05-.14a0.92,0.92,0,0,0,0-.77A0.9,0.9,0,0,0,38.21,46c-0.78-.19-1,0.54-1.19,1.08a1.37,1.37,0,0,0,0,.3,0.83,0.83,0,0,1,0,.17,1.5,1.5,0,0,1-.19.33,1.57,1.57,0,0,0-.24.43l0,0.06c-0.08.29-.17,0.59-0.26,0.88l-0.37.05,0.34,0a8.47,8.47,0,0,1-1.05,2.29,0.65,0.65,0,0,1-.13.12,0.91,0.91,0,0,0-.21.19,0.65,0.65,0,0,0-.1.25,0.49,0.49,0,0,1,0,.1,2.72,2.72,0,0,1-.27.41L34.24,53l-0.36.53-0.25.36a1.68,1.68,0,0,0-.14.25,0.86,0.86,0,0,1-.15.25l-0.06,0a0.66,0.66,0,0,0-.19.09,1.77,1.77,0,0,0-.49.57,1.94,1.94,0,0,1-.25.34l-0.06,0a0.66,0.66,0,0,0-.17.12,0.76,0.76,0,0,0-.12.16l0,0.06h0l-0.07-.11-0.21.23a0.3,0.3,0,0,0,0,.38,2.45,2.45,0,0,0,1.22.89h0.05a1.26,1.26,0,0,0,.47-0.36,0.43,0.43,0,0,0,.08-0.19,0.47,0.47,0,0,0,.29-0.18,0.72,0.72,0,0,0,.13-0.3A0.3,0.3,0,0,1,34,56l0.1-.06,0.1-.06,0.26-.2a1.45,1.45,0,0,0,.36-0.48Z"/><path class="cls-4" d="M95.06,23.88a1.58,1.58,0,0,0-.15.22,1.09,1.09,0,0,1-.13.18l-0.08.08a1.71,1.71,0,0,0-.25.3,1.06,1.06,0,0,0-.08.18,0.48,0.48,0,0,1,0,.1,0.6,0.6,0,0,1-.12.11,0.84,0.84,0,0,0-.28.29,1,1,0,0,0-.09.34,0.85,0.85,0,0,1,0,.15,2.82,2.82,0,0,1-.19.41c-0.05.1-.11,0.21-0.15,0.31-0.2.47-.4,0.93-0.59,1.4a2.6,2.6,0,0,1-.14.27,2.38,2.38,0,0,0-.2.42,0.63,0.63,0,0,0,0,.36,0.41,0.41,0,0,1,0,.11,4.87,4.87,0,0,1-.12.71,5.63,5.63,0,0,0-.13.77,6.8,6.8,0,0,0,.37,3.06,5.89,5.89,0,0,0,.35.66,5.64,5.64,0,0,1,.3.56L93.35,35a3.33,3.33,0,0,0,.53.92,4.71,4.71,0,0,0,1.2.94l0.3,0.2a2.79,2.79,0,0,0,.81.45,5.22,5.22,0,0,0,1.15.21l0.14,0a0.41,0.41,0,0,0,.31-0.21A1,1,0,0,0,97.88,37V36.9A0.78,0.78,0,0,0,97.24,36l-0.11,0-0.35-.09H96.51l-0.16,0h0l0.06-.06-0.09,0a0.11,0.11,0,0,0,0-.05,0.59,0.59,0,0,0-.17-0.19,1.87,1.87,0,0,0-.35-0.17,0.8,0.8,0,0,1-.44-0.28l-0.12-.17-0.14-.21a2.83,2.83,0,0,1-.33-0.52c-0.07-.15-0.16-0.29-0.24-0.43a3.15,3.15,0,0,1-.31-0.59A5.11,5.11,0,0,1,94,31.81a1.25,1.25,0,0,1,0-.18c0-.06,0-0.12,0-0.18a2.6,2.6,0,0,0,0-.5A4,4,0,0,1,94,29.69a6.5,6.5,0,0,1,.47-1.25l0.1-.22c0-.09.09-0.18,0.13-0.26A2.1,2.1,0,0,0,95,27.32a0.29,0.29,0,0,0,0-.2A0.45,0.45,0,0,1,95.07,27a1.1,1.1,0,0,0,.2-0.23,0.42,0.42,0,0,0,0-.23l0,0a0.76,0.76,0,0,0,.17-0.19,1.14,1.14,0,0,0,.1-0.25,0.45,0.45,0,0,1,.08-0.17,0.47,0.47,0,0,0,.16-0.14c0.12-.16.24-0.36,0.33-0.51L96.29,25a0.58,0.58,0,0,1,.13-0.19,0.61,0.61,0,0,0,.24-0.21,0.86,0.86,0,0,0,.09-0.25l0.08-.11A1.44,1.44,0,0,0,97,24a0.74,0.74,0,0,0,.07-0.22l0.1-.12a1.4,1.4,0,0,0,.2-0.28,2.1,2.1,0,0,0,.13-0.29l0.19,0,0-.22a1.17,1.17,0,0,0-.16-0.11l-0.16-.1V22.59c0-.06.25-0.12,0.24-0.16l0.15,0,0.21-.08V22.06s0.07-.1.1-0.14a2.11,2.11,0,0,0,.18-0.33,1.29,1.29,0,0,0,.09-0.37l0.05,0L98.6,21l-0.08-.1a0.39,0.39,0,0,0-.09-0.26,0.33,0.33,0,0,0,.06-0.1,4.74,4.74,0,0,0,.16-0.6,0.62,0.62,0,0,1,.09-0.19,1.07,1.07,0,0,0,.13-0.3,1.56,1.56,0,0,0,0-.36,1.34,1.34,0,0,1,0-.25,0.31,0.31,0,0,0,0-.22,0.46,0.46,0,0,0,.06-0.19,1.72,1.72,0,0,0,0-.38,1.6,1.6,0,0,1,0-.22s0-.1,0-0.16a1.05,1.05,0,0,0-.41-1.1,0.8,0.8,0,0,0-.68,0,1.09,1.09,0,0,0-.62.59,0.79,0.79,0,0,0,0,.43l0,0.09a0.63,0.63,0,0,1,0,.37c0,0.15,0,.31-0.06.46a4.51,4.51,0,0,1-.06.45,0.33,0.33,0,0,0-.16.25,0.58,0.58,0,0,0,.06.32l0,0.05a0.46,0.46,0,0,1-.09.22l-0.05.1a1.76,1.76,0,0,0-.17.66,1.32,1.32,0,0,1-.12.5l-0.06,0a0.43,0.43,0,0,0-.15.14,0.72,0.72,0,0,0-.08.44,0.42,0.42,0,0,1,0,.11,2.53,2.53,0,0,1-.35.68l-0.15.24-0.34.56-0.22.36a0.29,0.29,0,0,0-.16.12Z"/><path class="cls-4" d="M90.2,17.43a6.2,6.2,0,0,1,.24.85,3.61,3.61,0,0,0,.85,1.61l0.2,0.21a1.8,1.8,0,0,1,.4.51l0,0.57L92,21a2.73,2.73,0,0,0,1.32,1.26h0.12a0.58,0.58,0,0,0,.45-0.17,0.91,0.91,0,0,0,.09-0.8A1.76,1.76,0,0,0,93.89,21l0-.11V20.84a0.29,0.29,0,0,0-.07-0.34,0.43,0.43,0,0,1-.13-0.2,1.62,1.62,0,0,0-.12-0.23,0.74,0.74,0,0,0-.16-0.17,0.25,0.25,0,0,1-.08-0.09,0.91,0.91,0,0,1,0-.12,0.81,0.81,0,0,0-.18-0.38,0.82,0.82,0,0,0-.27-0.21L92.73,19a1.61,1.61,0,0,1-.34-0.58l-0.07-.16c-0.42-1-.95-2.16-0.47-3.17,0.13-.27.25-0.58,0.37-0.9s0.17-.44.25-0.65a11.09,11.09,0,0,1,.88-1.51l0.18-.27A2,2,0,0,0,93.91,11,0.49,0.49,0,0,1,94,10.73l0.09-.17a1.38,1.38,0,0,0,.12-0.39c0-.05,0-0.11,0-0.16l0.09-.3a8.06,8.06,0,0,0,.28-1.05l0-.11,0-.18a0.57,0.57,0,0,0,.07-0.18,0.29,0.29,0,0,0,0-.21l0-.05a1,1,0,0,0,.11-0.29,0.3,0.3,0,0,0,0-.18,0.33,0.33,0,0,0,.06-0.14l0-.08a1.08,1.08,0,0,0,0-.22,0.3,0.3,0,0,0-.05-0.17,0.81,0.81,0,0,0,0-.15l0-.1a1.3,1.3,0,0,0,0-.48A0.72,0.72,0,0,0,95,6l0.17-.11L95,5.68a0.4,0.4,0,0,0,.06-0.39l0-.06,0.11-.12L95,4.84l0-.05a1,1,0,0,0,.06-0.23,1.06,1.06,0,0,0,0-.34A0.72,0.72,0,0,1,95,4,0.51,0.51,0,0,0,95,4l0.11-.2,0-.06c0-.09,0,0.07-0.16,0s0,0.15,0,.15h0L94.34,3.5v0l0.38-.16,0.06-.12a3,3,0,0,0-.07-0.55,1.06,1.06,0,0,1,0-.24A1.19,1.19,0,0,0,94.64,2a1.54,1.54,0,0,0-.23-0.37,1.25,1.25,0,0,1-.13-0.19l-0.09-.17-0.08-.14A1.42,1.42,0,0,0,94,.89,0.91,0.91,0,0,1,93.86.72a0.4,0.4,0,0,1,0-.1A0.6,0.6,0,0,0,93.61.12a1,1,0,0,0-1.07.11,0.6,0.6,0,0,0-.25.93l0.07,0.17L92.44,1.5l0.1,0.23,0.06,0.16c0.07,0.18.15,0.38,0.21,0.52A0.82,0.82,0,0,0,93,2.6a0.42,0.42,0,0,0,.06.33,0.59,0.59,0,0,0,.17.18,0.37,0.37,0,0,0,0,.15,2.34,2.34,0,0,0,.11.67,1.48,1.48,0,0,1,.08.65,0.48,0.48,0,0,0-.12.36,0.64,0.64,0,0,0,.15.36,3.64,3.64,0,0,1-.06.76c0,0.1,0,.21,0,0.33a3.36,3.36,0,0,1,0,.39c0,0.06,0,.12,0,0.18s0,0.16-.06.25a2.2,2.2,0,0,0,0,.26,1.3,1.3,0,0,1,0,.18l0,0.21a3.82,3.82,0,0,1-.09.39,1.93,1.93,0,0,0-.06.31,1.13,1.13,0,0,1-.07.33,0.56,0.56,0,0,1-.07.1,0.75,0.75,0,0,0-.17.34,0.62,0.62,0,0,0,0,.27,0.47,0.47,0,0,1,0,.08,2.62,2.62,0,0,1-.26.72,9,9,0,0,1-.74,1.29,1.42,1.42,0,0,1-.15.17,1.34,1.34,0,0,0-.29.4,0.77,0.77,0,0,0,0,.24s0,0.08,0,.1a5.83,5.83,0,0,1-.49,1,6.75,6.75,0,0,0-.51,1.07A3.72,3.72,0,0,0,90,16.63,8,8,0,0,0,90.2,17.43Z"/></svg>