<?xml version="1.0" encoding="utf-8"?>
<!-- Generator: Adobe Illustrator 19.2.1, SVG Export Plug-In . SVG Version: 6.00 Build 0)  -->
<svg version="1.1" id="Calque_1" xmlns="http://www.w3.org/2000/svg" xmlns:xlink="http://www.w3.org/1999/xlink" x="0px" y="0px"
	 viewBox="0 0 20.2 27.1" style="enable-background:new 0 0 20.2 27.1;" xml:space="preserve">
<style type="text/css">
	.st0{fill:#FFFFFF;}
</style>
<title>20160808_Collecteat</title>
<path class="st0" d="M10.1,0C4.5,0,0,4.5,0,10.1c0,0.8,0.1,1.5,0.2,2.3c0.4,1.5,1,3,1.9,4.3l7.5,10.2c0.1,0.2,0.3,0.3,0.6,0.3
	c0.1,0,0.2-0.1,0.3-0.3L18,16.7c0.9-1.3,1.5-2.8,1.9-4.3c0.2-0.7,0.2-1.5,0.2-2.3C20.2,4.5,15.7,0,10.1,0z M10.1,18.5
	c-4.5-0.1-8.2-3.8-8.1-8.4C1.9,5.7,5.5,2.1,9.9,2C10,2,10,2,10.1,2c4.5,0.1,8.2,3.8,8.1,8.4c0.1,4.4-3.5,8-7.9,8.1
	C10.2,18.5,10.2,18.5,10.1,18.5z"/>
<path class="st0" d="M10.1,17.7c-4.2,0-7.5-3.4-7.5-7.5c0-4.2,3.4-7.5,7.5-7.5c4.2,0,7.5,3.4,7.5,7.5v0
	C17.6,14.4,14.3,17.7,10.1,17.7z M10.1,2.9c-4,0-7.3,3.3-7.3,7.3s3.3,7.3,7.3,7.3s7.3-3.3,7.3-7.3l0,0C17.4,6.2,14.1,2.9,10.1,2.9
	L10.1,2.9z"/>
<path class="st0" d="M13.9,13c-0.3-0.2-1.4-0.9-1.9-1.3c-0.3-0.3-1.1-1-1.6-1.5l0.5-0.5c0.1-0.2,0.3-0.3,0.6-0.3
	c0.3,0,0.6-0.1,0.9-0.3c0.6-0.6,1.2-1.3,1.7-1.9c0.7-0.8,0.5-0.7,0.4-0.6s-1.9,1.9-2,2c-0.1,0-0.1,0-0.2-0.1c0,0,0-0.1,0-0.1
	c0.1-0.1,0.1-0.1,0.5-0.6s1.4-1.7,1.4-1.7s-2,2-2.1,2.1s-0.1,0-0.1,0l0,0c0,0,0-0.1,0-0.1S14.1,6,14.1,6s-1.2,1.1-1.6,1.4l-0.6,0.5
	c-0.1,0-0.1,0-0.2-0.1c0,0,0-0.1,0-0.1c0.1-0.1,1.9-1.9,2-2s0.2-0.2-0.6,0.4c-0.7,0.5-1.3,1.1-1.9,1.7C11.1,8.2,11,8.5,11,8.8
	c0,0.2-0.2,0.4-0.3,0.6l-0.5,0.6L9.8,9.6c-0.4-0.4-1-0.8-0.9-1.2c0.2-0.7-0.1-1.5-0.8-1.9C7.6,6.1,7,5.8,6.3,5.9
	C6,5.9,5.8,6.1,5.8,6.4c0,0.7,0.2,1.3,0.6,1.9C6.8,8.9,7.5,9.2,8.3,9c0.5-0.1,0.8,0.5,1.2,0.9l0.3,0.3c-0.5,0.5-1.1,1.1-1.4,1.3
	C7.8,12,7,12.7,6.6,12.9c-0.4,0.2-0.8,0.6-1,1c0,0.2,0,0.5,0.2,0.6l0,0c0.2,0.1,0.4,0.2,0.6,0.2c0.4-0.2,0.8-0.6,1-1
	c0.3-0.4,0.9-1.2,1.4-1.8c0.3-0.3,0.8-0.9,1.3-1.4c0.5,0.6,1.2,1.3,1.5,1.6c0.4,0.5,1.1,1.6,1.3,1.9c0.2,0.4,0.7,0.5,1,0.4
	c0.1,0,0.1-0.1,0.2-0.1l0.1-0.1l0,0l0.1-0.1c0.3-0.3,0.2-0.8-0.1-1.1C14.1,13.1,14,13,13.9,13z"/>
</svg>
