<svg id="Calque_1" data-name="Calque 1" xmlns="http://www.w3.org/2000/svg" viewBox="0 0 8.95 14.55"><defs><style>.cls-1{fill:#01b1ee;}</style></defs><title>20160808_Collecteat</title><path class="cls-1" d="M5.42,12.17c-0.34.86-.6,2.06,0.39,2.33,1.52,0.4,1.73-1.88,1.73-1.88Z"/><path class="cls-1" d="M8.84,9.22C9.06,8,9.05,6,7.63,5.53,7.28,5.4,6,5.09,5.43,7.41a8.59,8.59,0,0,0,.22,3.72l2.14,0.46A11.7,11.7,0,0,0,8.84,9.22Z"/><path class="cls-1" d="M3.11,6.88C3.36,7.78,3.49,9,2.48,9.16,0.93,9.4,1,7.11,1,7.11Z"/><path class="cls-1" d="M0,3.59C-0.08,2.39.14,0.39,1.6,0,2,0,3.31-.22,3.6,2.15A8.57,8.57,0,0,1,3,5.82L0.81,6A11.66,11.66,0,0,1,0,3.59Z"/></svg>