<?xml version="1.0" encoding="utf-8"?>
<!-- Generator: Adobe Illustrator 19.2.1, SVG Export Plug-In . SVG Version: 6.00 Build 0)  -->
<svg version="1.1" id="Calque_1" xmlns="http://www.w3.org/2000/svg" xmlns:xlink="http://www.w3.org/1999/xlink" x="0px" y="0px"
	 viewBox="0 0 15.3 9.1" style="enable-background:new 0 0 15.3 9.1;" xml:space="preserve">
<style type="text/css">
	.st0{opacity:0.5;}
	.st1{fill:#5D5D5D;stroke:#FFFFFF;stroke-width:0.25;stroke-miterlimit:10;}
</style>
<title>20160808_Collecteat</title>
<g>
	<defs>
		<rect id="SVGID_1_" x="-369.1" y="-450.9" width="1519.5" height="170.6"/>
	</defs>
	<clipPath id="SVGID_2_">
		<use xlink:href="#SVGID_1_"  style="overflow:visible;"/>
	</clipPath>
</g>
<g class="st0">
	<path class="st1" d="M15.1,4.2c-0.1-0.2-2.8-4-7.4-4S0.3,4,0.2,4.2c-0.1,0.2-0.1,0.5,0,0.7C0.3,5.1,3,9,7.7,9s7.3-3.9,7.4-4.1
		C15.2,4.7,15.2,4.4,15.1,4.2z M7.7,7.7c-2.4-0.1-4.5-1.3-6-3.1c1.5-1.9,3.6-3,6-3.1c2.4,0.1,4.5,1.3,6,3.1C12.2,6.4,10,7.5,7.7,7.7
		z"/>
</g>
</svg>
