<?xml version="1.0" encoding="utf-8"?>
<!-- Generator: Adobe Illustrator 19.2.1, SVG Export Plug-In . SVG Version: 6.00 Build 0)  -->
<svg version="1.1" id="Calque_1" xmlns="http://www.w3.org/2000/svg" xmlns:xlink="http://www.w3.org/1999/xlink" x="0px" y="0px"
	 viewBox="0 0 12.9 17.4" style="enable-background:new 0 0 12.9 17.4;" xml:space="preserve">
<style type="text/css">
	.st0{fill:#01B1EE;}
</style>
<title>20160808_Collecteat</title>
<path class="st0" d="M6.5,0C2.9,0,0,2.9,0,6.5c0,0.5,0.1,1,0.2,1.5c0.2,1,0.7,1.9,1.2,2.7l4.8,6.5c0.1,0.1,0.2,0.2,0.4,0.2
	c0.1,0,0.1-0.1,0.2-0.2l4.8-6.5c0.6-0.8,1-1.8,1.2-2.8C12.9,7.5,13,7,13,6.5C13,2.9,10.1,0,6.5,0C6.5,0,6.5,0,6.5,0z"/>
</svg>
