<svg id="Calque_1" data-name="Calque 1" xmlns="http://www.w3.org/2000/svg" xmlns:xlink="http://www.w3.org/1999/xlink" viewBox="0 0 122.13 99.61"><defs><style>.cls-1{fill:none;}.cls-2{clip-path:url(#clip-path);}.cls-3{fill:#ccc;}.cls-4{fill:#01b1ee;}.cls-5{fill:#58585a;}</style><clipPath id="clip-path"><rect class="cls-1" x="-1911.83" y="545.35" width="1517.2" height="458.12"/></clipPath></defs><title>20160808_Collecteat</title><path class="cls-3" d="M64.06,19.58a2.37,2.37,0,0,0,2.06,1.17,1.88,1.88,0,0,0,1.34-2.13c-0.16-1.56-2.44-4-3.75-2-1.1,1.64.51,4.27,2.41,4.3A2.54,2.54,0,0,0,68,16.78a2.85,2.85,0,0,0-2.33-1.27,1.69,1.69,0,0,0-1.44,1.65,3.07,3.07,0,0,0,3.34,3.19c1.87-.05,3.58-1.41,2.72-3.41-0.76-1.77-3.08-3.22-5-2.62-2.62.82-2.43,3.44-1.38,5.49,0.74,1.44,3.58,3.5,4.76,1.33a1,1,0,0,0-.86-1.5c-1,.12-1.85.81-2.47-0.26a1,1,0,0,0-1.73,1,3,3,0,0,0,1.67,1.51c0.94,0.29,1.63-.15,2.53-0.26L67,20.11Q67.4,20,67,20a1.6,1.6,0,0,1-.36-0.12,2.12,2.12,0,0,1-.79-0.8A4,4,0,0,1,65.17,17c0.41-2.24,4,.47,3.24,1.21a1.69,1.69,0,0,1-2-.33c-0.06-.11-0.05-0.41-0.12-0.48q0.1-.43-0.39.14a2,2,0,0,1,.55.46c0.18,0.29.36,1-.32,0.95a1.23,1.23,0,0,1-.55-0.51,1,1,0,0,1-.17-0.66L65,18a1.84,1.84,0,0,1,.41.67c1,0.53.15-.4,0-0.54-0.86-1-2.27.46-1.41,1.41h0Z"/><path class="cls-3" d="M116.34,70.48c-0.6-.8-0.53-2.39-0.81-3.29a1,1,0,0,0-1.93.53,11.49,11.49,0,0,0,.91,3.25,1,1,0,0,0,1.83-.24A10.62,10.62,0,0,0,116,67l-1.83.77,0.29,0.63c0.45,1,1.82.4,1.86-.5a12.85,12.85,0,0,0-.28-3.19l-1.93.53q0.2,0.66.39,1.33a1,1,0,0,0,2-.27,13,13,0,0,0-.55-4.29,1,1,0,0,0-2,.27,3.94,3.94,0,0,0,.19,1.45,1,1,0,0,0,1.93,0,8.74,8.74,0,0,0,.14-1.56c0.28-1.68.54-3.45,0.83-5.18a19,19,0,0,0-.41-6.52,1,1,0,0,0-2,.27,11.4,11.4,0,0,1,.13,1.65c0,1.08,1.75,1.42,2,.27a4.48,4.48,0,0,0,.1-1.6,1,1,0,0,0-2-.27,39.92,39.92,0,0,0-.81,4.06l2,0.27c-0.52-4.06,1.33-8.25.62-12.19L115.2,44c2.2,1.15,2.79-.79,3.82-2.45a1,1,0,0,0-1.73-1q-0.53.87-1.09,1.73a1,1,0,0,0-1.47,1.13c0.65,3.63-1.17,7.88-.69,11.66a1,1,0,0,0,2,.27,39.57,39.57,0,0,1,.81-4.06l-2-.27,0,1.07,2,0.27a11.4,11.4,0,0,0-.13-1.65l-2,.27a16.37,16.37,0,0,1,.11,5.83l-0.67,1.61c-0.09,1.51.39,3.32,0,4.76h1.93l-0.12-.92-2,.27a12,12,0,0,1,.48,3.76l2-.27q-0.19-.67-0.39-1.33a1,1,0,0,0-1.93.53,6.56,6.56,0,0,1,.21,2.65l1.86-.5-0.29-.63c-0.52-1.11-2-.25-1.83.77a9.33,9.33,0,0,1,.36,2.69l1.83-.24a10,10,0,0,1-.71-2.78l-1.93.53c0.38,1.24.2,2.71,1,3.77s2.51,0,1.73-1h0Z"/><path class="cls-3" d="M119,40.62a1.8,1.8,0,0,0,.66,1,1,1,0,0,0,1.21.16c0.8-.49.67-1.36,0.79-2.18s0.3-1.91-.47-2.65a1,1,0,0,0-1.57.2,2.72,2.72,0,0,0-.35,1.75,1,1,0,0,0,2,0c0-.94.21-2.16-0.31-3a2.4,2.4,0,0,0-2-1c-1.28-.14-1.27,1.86,0,2,0.54,0.06.29,1.57,0.29,2h2a1.18,1.18,0,0,1,.08-0.74l-1.57.2a2.93,2.93,0,0,1-.13,1.22,1.7,1.7,0,0,0-.06.5c0.07,0.32-.23.28,0.28,0l1.21,0.16q-0.33-.19-0.14-0.16c-0.25-1.26-2.18-.73-1.93.53h0Z"/><path class="cls-3" d="M115.91,35l-0.41.58h1.73c-1.42-2.15-.72-3.9-1-6.13a1,1,0,0,0-.73-1c-0.85-.26,0,0-0.09-0.21s0.65-3.3.71-4.07c0-.53,0-1.14.08-1.62,0.15-1.77.56-3.94,0-5.65a1,1,0,0,0-1-.73c1.44-.14-0.18-6.77.18-8.16l-1.83.24a3.59,3.59,0,0,1,.77,3.05c-0.14,1.28,1.86,1.27,2,0a5.44,5.44,0,0,0-1-4.06,1,1,0,0,0-1.83.24c-0.83,3.2.59,6.58,0.27,9.74a1,1,0,0,0,1,1c-0.7.07-.93,10-1,11.14a1,1,0,0,0,1,1q-0.68-1.26-.63.24-0.12.54-.18,1.09a4.84,4.84,0,0,0,.11.92,9.64,9.64,0,0,0,1.41,3.94,1,1,0,0,0,1.73,0l0.41-.58c0.75-1.05-1-2.05-1.73-1h0Z"/><path class="cls-3" d="M121.57,17.94a11.61,11.61,0,0,0-.35-3.29v0c0-.66.1-1.31,0.12-1.81,0.06-1.55.16-3.09,0.18-4.64a0.72,0.72,0,0,0-1.05-.61,16.22,16.22,0,0,0-.64-4.47c-0.57-1.63-2-1.54-3.51-1.38a0.62,0.62,0,0,0-.41,0l-0.49,0c-1.4.12-2.83,0.09-4.25,0.15a1.57,1.57,0,0,0-.26-0.3,0.81,0.81,0,0,0-.53-0.2C109.62,0.79,108.2,1,107,1.26a0.74,0.74,0,0,0-.83.12L106,1.55l-0.45.15a6.29,6.29,0,0,1-1.2.26A0.88,0.88,0,0,0,104,2c-0.86.07-1.76,0.05-2.62,0.06-0.19-.32-0.54-0.37-1.11,0l0,0-0.63,0a0.7,0.7,0,0,0-1.13-.24l-0.25.28H97.63l0,0A0.71,0.71,0,0,0,96.52,2l-0.11.09a13,13,0,0,1-1.82-.34,0.35,0.35,0,0,0-.28.63l-0.1.08V2.37a0.7,0.7,0,0,0-1-.42L93,2.07,92.3,1.83c0-.07,0-0.14,0-0.21A0.71,0.71,0,0,0,91,1.45l0,0-0.2,0a24.42,24.42,0,0,0-9.43,0A23.45,23.45,0,0,1,76,2c-1.7-.1-3.41-0.35-5.11-0.32a0.66,0.66,0,0,0-.65.84l0,0a2.29,2.29,0,0,0-.31.5L69.84,2.9a1.9,1.9,0,0,0,0-.61,0.71,0.71,0,0,0-1.26-.19l-0.06,0c-1.87-.44-3.88.18-5.76-0.08A38.6,38.6,0,0,0,57,1.91H55.45c-0.65,0-1.3,0-1.95,0a1.72,1.72,0,0,0-.21-0.19,0.71,0.71,0,0,0-.85.11l-0.06.06-1.08,0,0-.07a0.71,0.71,0,0,0-1-.42,4,4,0,0,0-.59.44H48.8a0.77,0.77,0,0,0-1,0c-3.14,0-6.26.16-9.39,0.34a1.5,1.5,0,0,0-.25-0.7,0.71,0.71,0,0,0-1-.25A7.22,7.22,0,0,0,36,2.2l-0.28,0H35.42a3.31,3.31,0,0,0-.07-0.43,0.7,0.7,0,0,0-1.17-.31,9.85,9.85,0,0,0-.69.8c-0.9,0-1.8,0-2.7.06a1.41,1.41,0,0,0-.11-0.23A0.71,0.71,0,0,0,29.59,2c-0.16.15-.3,0.31-0.44,0.47l-1.49.13a1.56,1.56,0,0,0-.25-0.37,0.71,0.71,0,0,0-1,0c-0.18.16-.34,0.34-0.51,0.51L25,2.76a0.69,0.69,0,0,0-.88-0.18,1.67,1.67,0,0,0-.33.23c-0.57,0-1.15,0-1.73,0-3.84-.24-7.78-0.83-11.62-0.34a3.12,3.12,0,0,0-1,.29,1.14,1.14,0,0,0-.12-0.16c-0.63-.68-1.4-0.31-2.13.39,0-.08,0-0.16,0-0.23V2.6h0c0-.06,0-0.13,0-0.19A0.69,0.69,0,0,0,5.7,2.6c0,0.11,0,.22,0,0.33a0.74,0.74,0,0,0-.23.15l-0.12.12a0.63,0.63,0,0,0-.62-0.65,0.35,0.35,0,0,0-.5,0C4,2.76,3.7,3.08,3.41,3.38a0.36,0.36,0,0,0-.25-0.29,1.66,1.66,0,0,0-1.63.83,0.32,0.32,0,0,0-.3.24l-0.06.26a0.32,0.32,0,0,0,0,.19c-0.05.54-.1,1.21-0.11,1.92L1,6.68a4.26,4.26,0,0,0,.12,1.8,7.76,7.76,0,0,0,.29,1.4,3.61,3.61,0,0,0-.26.73,0.7,0.7,0,0,0,.78.86,0.37,0.37,0,0,0,.5.26v0.09l-0.16.33A1.38,1.38,0,0,0,2,11.85a0.35,0.35,0,0,0-.58.12,4.33,4.33,0,0,0,.15,2.51c-0.05,2.35.14,4.77,0.14,7.08,0,1,.42,2.62.63,4.14,0,0.13,0,.27,0,0.4l-0.22.59a0.56,0.56,0,0,0,.22.72q0,0.43,0,.86a2.75,2.75,0,0,1-.25.66,12.74,12.74,0,0,0-.41-2.19,0.35,0.35,0,0,0-.67,0,5.17,5.17,0,0,0,.57,3.19v0l0.21,0.42a0.31,0.31,0,0,0,.31.17,0.62,0.62,0,0,0,.13.35l0,0.06a0.38,0.38,0,0,0-.32,0l-0.06-.09a0.35,0.35,0,0,0-.48-0.12,2.13,2.13,0,0,0-.53.53c-0.27.36,0.34,0.71,0.6,0.36l0,0a4.63,4.63,0,0,1,.24.52c0.06,1.28.18,2.55,0.27,3.82a0.32,0.32,0,0,0-.2.3c0,0.72,0,1.57,0,2.41a0.32,0.32,0,0,0-.19.31c0,1,0,2,.12,3.06a0.32,0.32,0,0,0-.13.26,32.69,32.69,0,0,0,.32,4,2.76,2.76,0,0,0,.09,1.12l0.08,0.22C2.2,48,2.25,48.4,2.3,48.82c0.07,0.66.15,1.33,0.29,2l0,0.13-0.05.48a0.39,0.39,0,0,0-.24.09c-0.11-.38-0.21-0.76-0.3-1.15a5.59,5.59,0,0,0-.54-1.83c-0.17-.26-0.69-0.22-0.65.16,0.1,0.82.15,4.5,1.31,5a0.45,0.45,0,0,1,0,0c0,0.06,0-.08,0-0.08H2.22v0.26c0,0.44-.06,1-0.06,1.44a0.82,0.82,0,0,0,.5.74c0,0.26.07,0.55,0.11,0.8v0.09a2.37,2.37,0,0,0-1.44-.71,0.36,0.36,0,0,0-.34.45,2.8,2.8,0,0,0,1.28,1.83,0.34,0.34,0,0,0-.35.35A7.91,7.91,0,0,0,2.17,60a0.29,0.29,0,0,0-.18.21A7.41,7.41,0,0,0,2,62.1a0.37,0.37,0,0,0,.08.21,1.24,1.24,0,0,0-.36-0.23,0.35,0.35,0,0,0-.43.43c0.43,1.31.62,2.68,1,4v0a4.9,4.9,0,0,0-.37,1.53,0.37,0.37,0,0,0-.45.33,22.47,22.47,0,0,0,0,3,6.93,6.93,0,0,0,.15,2c0.26,1.26.48,2.5,0.64,3.77a1.65,1.65,0,0,0-.08.25,1.33,1.33,0,0,0,.21.93,2.74,2.74,0,0,0,.41,1.3,0.35,0.35,0,0,0,.64-0.08,1.65,1.65,0,0,0,0-.5,4.06,4.06,0,0,0,.69.41,0.71,0.71,0,0,0,1,.38,5.15,5.15,0,0,0,2.49.16,2.21,2.21,0,0,0,.4-0.17C8,80.21,8,80.21,7.84,80.67c-0.24.87,1.22,0.1,1.47-.76,0.19-.67.25-0.09,0.65-1a5.15,5.15,0,0,0,.11,1.51,0.7,0.7,0,0,0,.67.51,2,2,0,0,0,1.46-1.51,1.59,1.59,0,0,0,0,.89,0.71,0.71,0,0,0,1.17.31,5.35,5.35,0,0,0,.48-0.68,0.38,0.38,0,0,0,.36.29L16,80.26c0.27,0,.55,0,0.85,0H16.13v0s0.57-.08.6-0.14a12.61,12.61,0,0,0,2.06-.35,2.28,2.28,0,0,0,2,.52,3.58,3.58,0,0,0,.56,0,0.47,0.47,0,0,0,.33-0.18,4.62,4.62,0,0,0,1.08-.48c1.45,0.24,2.91.45,4.37,0.61,1.65,0.17,3.88.7,5.49,0.13a0.8,0.8,0,0,0,.5-0.78l1.26,0c3.45,0,6.86,0,10.3-.26a4.85,4.85,0,0,0,3-.11h0.2l0.51,0a2.13,2.13,0,0,0,.09.49,0.7,0.7,0,0,0,1.17.3l0.2-.21c0.79,0,1.57,0,2.36,0H51.13c1,0,.79-0.08.84-0.18H54a0.68,0.68,0,0,0,.4-0.13,65.64,65.64,0,0,0,7.56.6c2.38,0,4.8-.13,7.18-0.16a36.36,36.36,0,0,0,4.77-.74,8.55,8.55,0,0,1-2.88.45h0c-0.41,0-.26,1.1.19,1s0.82,0,1.22-.1a5.45,5.45,0,0,0,.95-0.1,6.47,6.47,0,0,0,.67-0.22l0.4-.09,1.05-.3a1.7,1.7,0,0,0,.29.1l0,0a0.35,0.35,0,0,0,.5,0,0.78,0.78,0,0,0,.33-0.15h0.5a0.67,0.67,0,0,0,.51.22c3.33,0.09,6.68.11,10,0,1.6,0,3.2-.16,4.79-0.34l0.72-.07a0.79,0.79,0,0,0,.35.26,3.07,3.07,0,0,0,2.43.32,0.83,0.83,0,0,0,1-.13l0.24,0a0.4,0.4,0,0,0,.31-0.21h0a6.18,6.18,0,0,0,1.14.19,3,3,0,0,0,1.61.1,2.34,2.34,0,0,0,2.57.19,1.24,1.24,0,0,0,.34-0.45,2.69,2.69,0,0,0,1.06,0,1.73,1.73,0,0,0,.38-0.12,2.51,2.51,0,0,0,1.36,0l0.14,0.07a3.71,3.71,0,0,0,2.33.11c1.07,0.41,2.37.47,2.74-.27,0.6,0.5,1.25.67,1.68,0.1a0.7,0.7,0,0,0,.91,0,4.11,4.11,0,0,0,1.2.21,2.75,2.75,0,0,0,1.77-.18,1.69,1.69,0,0,0,1.22-.05l0,0a2.18,2.18,0,0,0,.93.19,1.19,1.19,0,0,0,1.28-.94L120.3,79a0.82,0.82,0,0,0,.3-0.93h0l0.13-.06a0.7,0.7,0,0,0,.14-1.1l-0.27-.29a8.18,8.18,0,0,0,.22-1.1,0.62,0.62,0,0,0,.44-0.63,4.18,4.18,0,0,1,.08-1.11,0.76,0.76,0,0,0-.16-0.59l0-.49a0.7,0.7,0,0,0-.13-0.36c0-.24,0-0.49,0-0.73a6.66,6.66,0,0,0-.13-3.65,0.64,0.64,0,0,0-.57-0.49,15.64,15.64,0,0,0,.59-1.7,0.68,0.68,0,0,0-.55-0.85c0.11-.32.21-0.65,0.29-1a0.73,0.73,0,0,0-.24-0.7c0.06-.19.11-0.37,0.16-0.56A0.69,0.69,0,0,0,120,61.8c0.14-.36.27-0.71,0.38-1.08a0.59,0.59,0,0,0-.33-0.77,13.54,13.54,0,0,0,.81-2.15,0.63,0.63,0,0,0-.49-0.83c0.2-.47.39-1,0.55-1.44a0.71,0.71,0,0,0-.75-0.88c0.15-.32.29-0.65,0.42-1a0.65,0.65,0,0,0-.43-0.82,6.28,6.28,0,0,0,.56-2.54,0.76,0.76,0,0,0-.56-0.68,4.27,4.27,0,0,0,.22-0.77,0.78,0.78,0,0,0-.23-0.69,0.79,0.79,0,0,0,.83-0.49,10.64,10.64,0,0,0,.12-4.2,5.25,5.25,0,0,0-.61-2.88l0-.1a0.7,0.7,0,0,0-.57-0.88c0.08-.2.15-0.4,0.22-0.6a0.71,0.71,0,0,0-.42-0.83,12.71,12.71,0,0,0,.72-1.83,0.62,0.62,0,0,0-.07-0.54,38.36,38.36,0,0,0,.6-4.3,5.27,5.27,0,0,0,.29-1.83,0.73,0.73,0,0,0-.14-0.38c0-.82.07-1.64,0.1-2.46,0.09-2.87.2-5.69,0.13-8.55A0.55,0.55,0,0,0,121.57,17.94ZM87,78.47a0.56,0.56,0,0,0,.31.18H86.82q0-.14,0-0.29l0.11,0ZM2.65,67.83a8.29,8.29,0,0,0,.44,1.71q0.07,0.62.14,1.25A1.92,1.92,0,0,0,2.67,70L2.58,69.9A9.88,9.88,0,0,1,2.65,67.83ZM6.32,78.2l-0.13-.08c0.22-.34.46-0.68,0.71-1-0.15.42-.32,0.82-0.45,1.17a0.26,0.26,0,0,0-.12-0.09h0ZM70,8.86a0.71,0.71,0,0,0,.86.49,1.44,1.44,0,0,0,1-1,3.87,3.87,0,0,0,.13.61,0.7,0.7,0,0,0,1.17.27,3.92,3.92,0,0,0,.75-1A4.88,4.88,0,0,0,74,9.29a0.71,0.71,0,0,0,1.27.17l0-.07a2.75,2.75,0,0,0,1.78-.25l0.21,0A0.38,0.38,0,0,0,77.7,8.7l0.08-.08,0.16,0.1V8.81a0.71,0.71,0,0,0,1.21.26,3.79,3.79,0,0,0,.47,0,0.71,0.71,0,0,0,1.2,0L81,8.79l0.07,0a5,5,0,0,0,.85.09l0.28,0a0.72,0.72,0,0,0,1,0l0,0a2.44,2.44,0,0,0,.73-0.26,3.38,3.38,0,0,0,.64.6,0.68,0.68,0,0,0,.7,0l0.15-.11a3.05,3.05,0,0,0,.69.13l0,0a2.26,2.26,0,0,0,1.8.34,0.75,0.75,0,0,0,.65.27,1.86,1.86,0,0,0,1,.25,1.5,1.5,0,0,0,1.33-1,2.2,2.2,0,0,0,1.09,0,1.09,1.09,0,0,0,.52,0,2.15,2.15,0,0,0,1.57,0,1.86,1.86,0,0,0,1.45-.35h0.07l0.27,0a2.29,2.29,0,0,0,2.53.72,0.8,0.8,0,0,0,.32-0.34A1.84,1.84,0,0,0,99.73,9h1.68A23.9,23.9,0,0,0,105,8.53l0.57,0.12a0.73,0.73,0,0,0,.37.08,39.11,39.11,0,0,0,5.61.93c0.73,0,2.09.27,2.58-.52a1,1,0,0,0,.11-0.81l0-.08L114.36,8c0,0.14-.06.27-0.08,0.41a0.76,0.76,0,0,0,.82.87,1.7,1.7,0,0,0-.09,1.39l0.05,0.07a16.88,16.88,0,0,0-.9,2,0.68,0.68,0,0,0,.84.84,5,5,0,0,0-.91,3.05,0.71,0.71,0,0,0,1,.42,2.41,2.41,0,0,0,.35-0.23c0,0.1-.05.19-0.07,0.29a0.68,0.68,0,0,0,.24.71c0,0.54-.07,1.08-0.13,1.61a41.69,41.69,0,0,0-.08,9.1c0.07,0.75,0,2,.12,3.27q-0.24.56-.47,1.11a0.66,0.66,0,0,0,.58.86c-0.06.23-.12,0.46-0.17,0.69a0.77,0.77,0,0,0,0,.37,0.66,0.66,0,0,0-.89.64,47.56,47.56,0,0,0,.34,6.25l0,0a0.78,0.78,0,0,0,0,.53,1.88,1.88,0,0,0,0,.85,0.7,0.7,0,0,0,.54.49,9.22,9.22,0,0,0,.43,1l0,0.07-0.28.57a0.81,0.81,0,0,0,.19.91,6.3,6.3,0,0,0-.81,2.07,0.77,0.77,0,0,0,.56.87l-0.45.89c-0.32.66,0.57,1.45,1.1,0.79a0.74,0.74,0,0,0-.13-0.2h-0.95v0.11a1.18,1.18,0,0,0,1.11-.68,16.23,16.23,0,0,0-.77,2.23,0.64,0.64,0,0,0,.42.74,8.35,8.35,0,0,0-.58,1.81,0.68,0.68,0,0,0-1.07.72c0.25,1.65.23,4.33,1.26,5.81,0,0,0,.09,0,0.13a0.66,0.66,0,0,0,.58.85c-0.28.56-.54,1.13-0.78,1.7a0.65,0.65,0,0,0,.62.86,14.26,14.26,0,0,0-.55,1.38,0.72,0.72,0,0,0,.66.89c-0.16.42-.31,0.84-0.44,1.26a0.65,0.65,0,0,0-.07.28c0,1.76.12,3.35-1.39,4.33a0.31,0.31,0,0,0-.23-0.21,3.55,3.55,0,0,0-1.21-.23h-0.06c-0.47,0-.94,0-1.41,0a0.81,0.81,0,0,0-.57-0.05,0.33,0.33,0,0,0-.12.06h-0.83a0.87,0.87,0,0,1-.08-0.2,0.35,0.35,0,0,0-.39-0.16l-0.19.08a0.37,0.37,0,0,0-.25.29c-0.34,0-.66,0-1,0.08a1.39,1.39,0,0,0-.26-0.21,0.35,0.35,0,0,0-.48.13,1.43,1.43,0,0,0-.09.24l-0.3.08a0.45,0.45,0,0,0-.14-0.17,0.88,0.88,0,0,0-1.15-.15,0.35,0.35,0,0,0-.17.31,3.28,3.28,0,0,1-.47-0.25,0.34,0.34,0,0,0-.49.18A0.8,0.8,0,0,0,104,72.8l-1.18,0a0.79,0.79,0,0,0-.31-0.5c-0.9-.66-1.66-0.5-2.71-0.41-1.27.1-2.52,0.17-3.78,0.35-1.54.22-3.07,0.47-4.6,0.72a0.72,0.72,0,0,0-.92.06l-0.1.11-0.86.14c-0.84,0-1.68,0-2.51-.06-1.89-.11-3.89-0.79-5.76-0.6a0.79,0.79,0,0,0-.68.62,0.58,0.58,0,0,0-.16.14h-1a0.7,0.7,0,0,0-1.15,0H77.45a0.71,0.71,0,0,0-1.09-.13l-0.16.15H75.15A3.16,3.16,0,0,0,74.93,73a0.71,0.71,0,0,0-1.1.14,1.77,1.77,0,0,0-.11.18c-0.37,0-.74,0-1.1,0a0.7,0.7,0,0,0-1.18.14l-0.38.06h0a0.7,0.7,0,0,0-.32-0.18A18.85,18.85,0,0,0,65.41,73a0.7,0.7,0,0,0-1.22-.06L64.12,73c-0.87.06-1.73,0.14-2.56,0.23-1.22.13-2.44,0.28-3.65,0.47a6.53,6.53,0,0,0-5.09-.42,5.66,5.66,0,0,0-4.59.1,4.77,4.77,0,0,0-.11-0.51,0.71,0.71,0,0,0-.86-0.49,3.17,3.17,0,0,0-1.89,1.74,0.69,0.69,0,0,0-1-.47l-0.19.16-0.61-.09h0a0.35,0.35,0,0,0-.29-0.52H43.12a0.68,0.68,0,0,0-.44,0,5.72,5.72,0,0,0-2.59,0l-0.19,0a0.34,0.34,0,0,0-.14.65l0.08,0.06,0.25,0.12L40,74.19l-0.62.07c0-.29,0-0.58,0-0.87a0.71,0.71,0,0,0-.7-0.7,2.31,2.31,0,0,0-1.62,1.14A6.1,6.1,0,0,0,37,73.16a0.7,0.7,0,0,0-.86-0.49,2.37,2.37,0,0,0-1.1.92,11.6,11.6,0,0,0-2.9-.59,2.52,2.52,0,0,0-.14-0.4,0.7,0.7,0,0,0-1.1-.14,4.69,4.69,0,0,0-.37.44l-1.32,0a0.7,0.7,0,0,0-1.15,0c-0.94,0-1.89,0-2.82.05a20.79,20.79,0,0,1-4.09,0A5,5,0,0,0,19,72.73a0.67,0.67,0,0,0-.5.59,0.73,0.73,0,0,0-.53.06,2.67,2.67,0,0,0-.43.29l-0.21,0a17.36,17.36,0,0,0-4.94-.2H12.33c-0.7,0-1.39,0-2.09-.06a0.74,0.74,0,0,0-.82,0L9,73.3a0.71,0.71,0,0,0-.75,0l-0.64,0c0-.21.07-0.42,0.1-0.63A0.66,0.66,0,0,0,6.93,72a11.52,11.52,0,0,0,1.16-3.43A0.6,0.6,0,0,0,7.78,68a5.17,5.17,0,0,0,.41-2,0.71,0.71,0,0,0-1-.6L7,65.45,7,64.47a0.33,0.33,0,0,0,.52-0.35,11.1,11.1,0,0,1-1-3l-0.4-.06V60.61h0.8s-0.06.09-.11,0,0-.21,0-0.37c0.25-.77.52-1.47,0.82-2.21a0.6,0.6,0,0,0-.75-0.79l0.28-.68c0.2,0.21.61,0.19,0.59-.15s-0.06-.78-0.09-1.17A11.42,11.42,0,0,0,8,54a0.74,0.74,0,0,0-.55-0.87q0-.45-0.06-0.89A0.35,0.35,0,0,0,7.51,52a39.66,39.66,0,0,0,.12-4.07,3.3,3.3,0,0,0,0-.53A0.33,0.33,0,0,0,7.33,47V46.95a0.28,0.28,0,0,0-.2-0.24c0.16-.42.31-0.85,0.44-1.29A0.73,0.73,0,0,0,7,44.54a14.81,14.81,0,0,0,1.21-4,0.71,0.71,0,0,0-.8-0.7c0.37-.77.73-1.56,1-2.35,0.24-.63-0.52-1-1-0.79a5.81,5.81,0,0,0,.38-2.39,0.77,0.77,0,0,0-.67-0.71c0.33-.89.61-2,0.21-2.62a43.7,43.7,0,0,0,.46-6.73c0-1.39,0-2.78.06-4.18a12.62,12.62,0,0,0-.05-3.92,0.68,0.68,0,0,0-.44-0.46,7.24,7.24,0,0,0,.3-1,0.66,0.66,0,0,0-.44-0.82q0-1.84,0-3.7l0,0c0.2-.33.4-0.67,0.58-1A0.36,0.36,0,0,0,8.17,9,1.13,1.13,0,0,1,9.1,8.68l0,0a0.79,0.79,0,0,0,.18.18l-0.63.18a0.35,0.35,0,0,0,.19.67,10.05,10.05,0,0,1,4.3-.53A3,3,0,0,0,14.91,9a0.41,0.41,0,0,0,.22-0.48A3.47,3.47,0,0,0,16,7.81a7.1,7.1,0,0,0-.18.91,0.7,0.7,0,0,0,.51.67c0.69,0.19,1.26-.31,1.77-1a2.37,2.37,0,0,0-.09.9,0.71,0.71,0,0,0,1.19.49,5.84,5.84,0,0,0,.81-1c0,0.06,0,.12,0,0.18a0.7,0.7,0,0,0,1.3.35c0.33-.47.62-1,0.9-1.45a0.26,0.26,0,0,0,.16.2,0.3,0.3,0,0,0,.25.32,21,21,0,0,0,5.56.29,0.62,0.62,0,0,0,.79-0.05,6.81,6.81,0,0,0,3.35-.69,0.4,0.4,0,0,0,.15-0.22c1,0.1,2,.22,3,0.34a0.71,0.71,0,0,0,1.16.14,37.77,37.77,0,0,0,5,.31,0.35,0.35,0,0,0,.18-0.65,3.66,3.66,0,0,0-.42-0.18l0.35,0h0A5.66,5.66,0,0,0,45,8.43a0.35,0.35,0,0,0,.15-0.58l-0.12-.11a13.28,13.28,0,0,0,1.72,0h0.3c0.53,0,1.21-.15,1.82-0.15h0.18a1.37,1.37,0,0,0,1.14,0h1.82a0.68,0.68,0,0,0,1.1.18l0.1-.15h0.4L56,8a0.71,0.71,0,0,0,1.29.21v0c1,0.14,2,.26,2.94.34a0.63,0.63,0,0,0,.68-0.69,17.23,17.23,0,0,0,4.39.27c0.43,0,.94,0,1.44-0.06a0.71,0.71,0,0,0,1.3.24,5.63,5.63,0,0,0,.26-0.59l0.08,0a1.35,1.35,0,0,0,.51.38,0.72,0.72,0,0,0,.85-0.11l0,0A2.49,2.49,0,0,0,70,8.86ZM32.33,77.12l0.05-.1,0.1-.19h0.3c0,0.12,0,.23,0,0.35ZM2.69,74.44a0.38,0.38,0,0,0,.5-0.09c0,0.25,0,.51,0,0.78s0,0.31,0,.48A10.74,10.74,0,0,1,2.69,74.44ZM27.74,8L26.8,8l0.05,0a3.86,3.86,0,0,0,.39-0.18H27.16c0.35,0,.14,0,0.17,0a0.38,0.38,0,0,0,.19-0.15h0.25a0.39,0.39,0,0,0,.08.09l-0.06.18a0.57,0.57,0,0,0,0,.11h0Zm14-1.17,0,0,0.45-.08a0.83,0.83,0,0,0,0,.14H42ZM49,5.37l0.5,0.06-0.09.25-0.55-.09Zm2.38,0.28,0.91,0.07L52.18,6l-1-.11Zm4.89,0.67L56.42,6.4v0l-0.23,0Zm-20.71,0-0.68,0,0,0h0.66Zm-6,1.39c0.35,0,.7,0,1,0h0l0,0a9.14,9.14,0,0,1-1.22.13ZM38,7.48l0,0,0.07,0.1-0.64-.07ZM61.91,3.55h0.14l-0.11.23A2.18,2.18,0,0,0,61.91,3.55ZM32.3,74.42l-0.09.12s0-.09,0-0.13H32.3ZM109,73.32a1.71,1.71,0,0,0,.26.26,3.16,3.16,0,0,1-.85-0.23Zm1.51,0,0,0.05a2.29,2.29,0,0,1-.92.24,0.9,0.9,0,0,0,.11-0.28h0.78ZM3.2,73.94c0-.27-0.12-0.56-0.14-0.84l0.12,0.23L3.25,73.4C3.23,73.58,3.21,73.76,3.2,73.94Zm24.68,2.12,0,0.11h0ZM10.43,74.21l0.6,0a0.82,0.82,0,0,0,0,.3l-0.27,0-0.38,0Q10.42,74.37,10.43,74.21Zm13.08,2.31H23.42l0.05-.11,0.06,0v0.08ZM19.2,77.59l0.31-.53-0.16.55ZM3.84,38.67l-0.09.2,0-.66A0.59,0.59,0,0,0,4,38l0.14-.19Q4,38.24,3.84,38.67ZM3,61.78v0H3ZM17,77.23l0.2-.44-0.17.45h0Zm13.36-1-0.11,0,0.17-.39h0ZM42,77L42,76.85l0-.1L42,77Zm-4.25.67a5.48,5.48,0,0,1-.62-0.19s0,0,0-.06l0,0a1.19,1.19,0,0,0,.28-0.4l0.34-.06C37.75,77.18,37.74,77.42,37.73,77.67Zm-0.06-1.86a0.54,0.54,0,0,1-.06.31,0.28,0.28,0,0,1-.1.12V76.15Zm-4.82.32h0Zm76.93-2.22h-0.49a1.09,1.09,0,0,0,.19-0.16Zm-27.42.8h0.25v0.07H82.39ZM101,75.23c0,0.21,0,.43,0,0.64-0.07-.13-0.14-0.24-0.21-0.34l-0.21-.3H101ZM95.78,76l-0.17-.28,0,0h0l0.17,0C95.76,75.74,95.77,75.86,95.78,76Zm-1.84,0q0-.16,0-0.31L94.13,76H93.94Zm4.82-.74a2.7,2.7,0,0,0-.1,1l-0.38,0h0c-0.18-.32-0.37-0.63-0.56-0.93Zm3.76,1.2q-0.06-.36-0.09-0.73c0.16,0.23.32,0.49,0.47,0.75Zm6-.16h0v0.07Zm-2.65-.67-0.08-.11h0.07S105.85,75.57,105.85,75.6Zm-16.07-.2c0,0.2,0,.41,0,0.61l-0.19-.62h0.17Zm-13,1.2V76.53H77.1v0ZM87,75.46h0.08s0,0,0,0,0,0.11,0,.18Zm1.47,0.41,0.09,0.26H88.48Zm2.72-.4h0.15l0.16,0.46h-0.3Q91.18,75.7,91.18,75.47Zm22.6-.34h0.14c0,0.07,0,.15,0,0.22ZM113,73.56l-0.38.06,0.48-.1Zm-67.1,2.63a2.43,2.43,0,0,0,.25.37c-0.13,0-.32,0-0.48.1Zm23.27-1.26h0ZM57.38,77.31l0.33-.19a3.39,3.39,0,0,1-.33.49C57.38,77.52,57.37,77.42,57.38,77.31Zm58.15,0,0.32,0.46h-0.22Zm-9.92-3.49h0l-1-.16a0.73,0.73,0,0,0,0-.25A3.59,3.59,0,0,0,105.61,73.83Zm-21.1.75q-0.12-.2-0.26-0.39l1.08,0.18Q84.91,74.46,84.5,74.58Zm-4.28.36H80l-0.07-.24h0.29C80.23,74.79,80.22,74.86,80.22,74.94ZM71.1,75v0l0.08,0H71.1Zm-19.83-.6V74.37h0Zm-2.41.32-0.2,0A0.92,0.92,0,0,1,49,74.44Zm-1.94-.35c0,0.09,0,.18,0,0.27l-0.19,0Zm-7.62,1.16q0-.31.05-0.62l0.26,0Zm-9.78-.75q0-.25,0-0.49h0.2Zm-2.42-.38s0,0,0-.07h0ZM25,75.09A3.79,3.79,0,0,0,25,74.38h0.47A7.32,7.32,0,0,0,25,75.09ZM8,74.13a0.6,0.6,0,0,0-.22,0,1.56,1.56,0,0,0-.33.15l0.06-.2H8v0Zm-1.05-26v0h0v0c0,0.75,0,1.51,0,2.26a0.79,0.79,0,0,0-.23-0.16,3.1,3.1,0,0,0,.13-1.42,0.59,0.59,0,0,0-.42-0.46l0.35-.8A3.57,3.57,0,0,0,6.91,48.16ZM22.84,77.49l0.39,0.16a0.45,0.45,0,0,1,.1.25s0,0.06,0,.08L23.23,78a0.93,0.93,0,0,0-.19.2l-0.68-.11C22.53,77.92,22.69,77.71,22.84,77.49Zm4.46,0.38-0.36,0,0,0,0.67-.18c0,0.09,0,.19,0,0.28Zm7.4-.51s0,0.07,0,.1H34.64Zm75.47,1c0-.06,0-0.12,0-0.18h0l0.1,0.19h-0.1Zm8.62-1.41-0.09-.2a0.61,0.61,0,0,0,.14.14Zm-0.2-.44,0-.07,0,0v0Zm0.79-3.82h0l0,0h0Zm-2.63-51.85,0.13-.07-0.16.32Zm-0.12,5.91,0.14,0-0.12.26ZM116.81,24c-0.1.24-.2,0.49-0.29,0.73,0-.24,0-0.48,0-0.72A0.64,0.64,0,0,0,116.81,24Zm-0.6,11.33c-0.08.22-.15,0.45-0.21,0.67q0-.27,0-0.53a0.76,0.76,0,0,0,0-.17A0.69,0.69,0,0,0,116.21,35.33Zm3.19-20.49c0.12-.24.24-0.48,0.35-0.72l0.07,0.57A0.7,0.7,0,0,0,119.4,14.84ZM116,37.5a0.68,0.68,0,0,0,.3.12q-0.15.83-.23,1.67l0,0.06C116,38.73,116,38.11,116,37.5Zm0.52,19.88c-0.08-.25-0.16-0.51-0.25-0.76l0.09-.06,0.23-.2c0,0.32,0,.66-0.07,1h0Zm3.18-39a0.6,0.6,0,0,0-.29,0q0.26-.61.5-1.22A11.22,11.22,0,0,0,119.72,18.34Zm-1.36-8.25-0.15.21q0.45-.88.87-1.77,0.08,0.76.17,1.51A0.57,0.57,0,0,0,118.36,10.09Zm0.27-3.2a3.41,3.41,0,0,0,.22-0.54l0.05,0.58A0.53,0.53,0,0,0,118.64,6.89ZM79.46,8.4l0.06-.17,0.07,0V8.39H79.46Zm-6.31-2a21.88,21.88,0,0,0,.25-2.57l0.42,0C73.56,4.63,73.41,5.53,73.15,6.35ZM98.2,5.29l-0.1.46H97.88l0.18-.49Zm-16,0H82.09v0Zm18.54,2.65v0L100.83,8h-0.08ZM76.26,7.7h0a0.8,0.8,0,0,0-.12.5l-0.28,0c0.16-.43.29-0.87,0.43-1.31C76.26,7.15,76.26,7.43,76.26,7.7Zm5.36-.39L81.5,7.23l0.12-.42,0.36,0c0,0.16,0,.32-0.05.48Zm27.26-.05,0.5,0h0.08v0l0.2,0h0.15c-0.35,0-.2,0-0.26.06l-0.63.05S108.87,7.27,108.88,7.26Zm2.06,0.52h0v0h0ZM75.77,4.53a5,5,0,0,0,0-.71h0.4A5.41,5.41,0,0,0,75.77,4.53ZM89.72,8h0.07a1,1,0,0,0,.88,1.09,2.09,2.09,0,0,1-1.57.26A13.17,13.17,0,0,0,89.72,8Zm1.2,0.75a0.8,0.8,0,0,0,.21-0.26,1.14,1.14,0,0,0,.15.2L91,8.91,90.88,9A1.6,1.6,0,0,0,90.92,8.77ZM97.3,8.9l0,0,0,0H97.3Zm11.93-1L109.29,8,108.94,8ZM111.94,8a0.73,0.73,0,0,0,.4-0.12,1.05,1.05,0,0,1,.43.68A3.06,3.06,0,0,0,112,8.36,0.42,0.42,0,0,0,111.94,8Zm-5.73-4.35c-0.07.41-.18,0.87-0.29,1.31l-0.39-.06A9.34,9.34,0,0,1,106.21,3.68Zm-19.08.19L87,3.85l0.11-.21Zm-9.44.85a5.5,5.5,0,0,0-.13-0.85l0-.06H78C77.92,4.09,77.8,4.4,77.68,4.72Zm-13-.34c0,0.15,0,.33,0,0.51l-0.2-.11Zm-1.3-.81,0.19,0-0.1.18A1.58,1.58,0,0,0,63.36,3.57ZM2.4,8.32L2,8.86C2,8.58,1.95,8.31,1.92,8.06A0.77,0.77,0,0,0,2.4,8.32ZM2.58,41.65l-0.08.6q0-.55-0.08-1.1l0.11,0ZM2.39,72.49a1.92,1.92,0,0,0,0,.2q-0.05-.48-0.09-1a0.31,0.31,0,0,0,.41-0.29c0-.12,0-0.24,0-0.37a5.1,5.1,0,0,1,.21.57A1.31,1.31,0,0,0,2.39,72.49Zm11.89,6.66,0.2-.44c0,0.09,0,.18,0,0.27a0.6,0.6,0,0,0,0,.22ZM29.42,78l0.1,0h-0.1Zm34.44,0L64.27,78l0.09,0.15-0.61,0ZM118.79,5.53l-0.11-.1,0.09-.16Zm-4.22-2.08h0l-0.1-.12,0.21,0Zm-11.63-.38a1.94,1.94,0,0,0-.12-0.35h0.31A4,4,0,0,0,102.94,3.06Zm-7.19-.27v0s0-.05,0-0.08h0.09Zm-7.18-.25v0h0ZM84,3.18l-0.25,0q0-.32,0-0.64l0.59-.05C84.2,2.69,84.1,2.93,84,3.18Zm-12.36.31c-0.08.25-.15,0.5-0.22,0.76q0-.42,0-0.83Zm-5.82,1.8c0-.67.07-1.37,0.06-1.47s0-.24-0.05-0.35c0.31,0,.62-0.08.94-0.09C66.43,4,66.15,4.65,65.83,5.28Zm-49.12-1L16,4.63c0.15-.3.29-0.59,0.38-0.85a0.72,0.72,0,0,0,0-.12l0.79,0C17,3.9,16.86,4.09,16.71,4.3ZM2.4,5.23a0.63,0.63,0,0,0,.2.7c-0.25.45-.5,0.9-0.76,1.33,0-.28,0-0.57,0-0.85A3.54,3.54,0,0,1,2.4,5.23ZM3,34.47a0.67,0.67,0,0,0,.49,0l-0.17.68a0.8,0.8,0,0,0-.63-0.2l0-.48A0.33,0.33,0,0,0,3,34.47ZM3,57.88L3,58.21A3.6,3.6,0,0,1,1.9,57.14a9.08,9.08,0,0,0,1,.73H3ZM2.75,59.5v0l0-.15,0.09-.06ZM2.4,62.44c0.07,0.27.15,0.53,0.23,0.79a3.17,3.17,0,0,0-.52-0.87A0.35,0.35,0,0,0,2.4,62.44Zm0.26,2c0,0.19,0,.39,0,0.58v0c-0.07-.29-0.14-0.57-0.2-0.86A1.1,1.1,0,0,0,2.66,64.43ZM15.71,79.49H15.64a4.43,4.43,0,0,0,.73-0.95l0.3,0a3,3,0,0,0-.05.58,0.67,0.67,0,0,0,.08.3ZM119.5,48l0.11-.26a0.67,0.67,0,0,0,.14.25A0.58,0.58,0,0,0,119.5,48ZM117.14,3l-0.22.25c0-.08,0-0.17,0-0.25h0.22Zm-8.4-1.27a2.26,2.26,0,0,1,1,.21l-0.11.15q-0.61.07-1.22,0.2a0.6,0.6,0,0,0-.58.14l-0.08,0-0.12,0a1.89,1.89,0,0,0-.13-0.69,4.09,4.09,0,0,1,.71-0.07h0.58ZM105,2.88c0-.1,0-0.21-0.05-0.31l0.3-.06Zm-3.37-.17-0.09.11s0-.07,0-0.11h0.1ZM90,3.31a1.36,1.36,0,0,0-.2-0.65l0.46,0.08C90.14,2.93,90.05,3.12,90,3.31Zm-77.39.5c-0.42.5-.82,1-1.21,1.56l-0.05,0a11.83,11.83,0,0,0,.4-1.58C12.06,3.78,12.37,3.81,12.57,3.81ZM8,4.06c0.22-.24.34-0.9,0.13,0C8,4.66,7.85,5.28,7.66,5.89a4.91,4.91,0,0,1-.26-1A10,10,0,0,1,8,4.06Zm-6.16.53A3.74,3.74,0,0,1,2.47,4L2.4,4.12a3.65,3.65,0,0,0-.52.5v0ZM21.43,79.44l-0.08-.06h0.09l0.11,0Zm66.22-.79a0.73,0.73,0,0,0,.26-0.12l0.95,0.08Zm13.46,1.15a1,1,0,0,0,.27-0.28v0h0.44A0.49,0.49,0,0,1,101.11,79.79Z"/><path class="cls-4" d="M87.77,94.61a0.56,0.56,0,0,0-.53.09c-1.11-.28-2.43-1.11-3.5-0.88-2-.41-4.53.18-6.41,0.24H76.13V93.61h0.38a0.85,0.85,0,0,0-.62.62,1.8,1.8,0,0,0-.39-0.35,0.72,0.72,0,0,0-1,0c-0.15.14-.28,0.33-0.43,0.46L74,94.48l-1.64,0H72.3a2.47,2.47,0,0,0-.65-0.31,0.68,0.68,0,0,0-.68.18l-0.05.07-1,0a5.65,5.65,0,0,0-2.14.15H67.29a3.16,3.16,0,0,0-1.19-.32,1.57,1.57,0,0,0-1,.3c-0.63,0-1.27,0-1.9-.09h0a17.72,17.72,0,0,0-3.82-.74,1.19,1.19,0,0,0-1.53-.21,1.78,1.78,0,0,0-.46.41,1.77,1.77,0,0,0-.49-0.32,2.61,2.61,0,0,0-2.44.67,5.84,5.84,0,0,0-1.12,0,1.84,1.84,0,0,0-1.05-.32,0.84,0.84,0,0,0-.76.38,25.2,25.2,0,0,0-3.57-1.15,15.84,15.84,0,0,0-3.41.08c-2.25.13-4.65,0-6.83,0.72l-0.07,0a0.77,0.77,0,0,0-.88-0.17,3,3,0,0,0-.85.67,0.84,0.84,0,0,0-.56,0,0.71,0.71,0,0,0-.83.11,1.65,1.65,0,0,0-.41.63l-0.12.12a1.27,1.27,0,0,0,0,1.74A0.71,0.71,0,0,0,35,97a1.5,1.5,0,0,0,.3.31,0.47,0.47,0,0,0,.16.08,0.7,0.7,0,0,0,1,.49,1.33,1.33,0,0,0,.33-0.26,7.89,7.89,0,0,0,1.41.19,1.08,1.08,0,0,0,.33,0l0.17,0H40.3a1,1,0,0,0,.57.19,1.23,1.23,0,0,0,.55-0.11C42,98,42.51,98.06,43,98.13a0.79,0.79,0,0,0,.91.12l1.45,0.19a1.36,1.36,0,0,0,.57.24,1.05,1.05,0,0,0,.72-0.1,17.47,17.47,0,0,0,3.25,0,0.73,0.73,0,0,0,.66-0.67h0.19a1.54,1.54,0,0,0,1.15-.12,0.64,0.64,0,0,0,.33.66,4.91,4.91,0,0,0,2.69,0c1.29-.16,2.59-0.32,3.89-0.43a29.82,29.82,0,0,1,4-.1,9.53,9.53,0,0,1,1,.15,0.7,0.7,0,0,0,.52.08,2.26,2.26,0,0,0,.9-0.05,1.14,1.14,0,0,0,.77,0,1.67,1.67,0,0,0,.77-0.53c0.69,0.11,1.38.2,2.07,0.28a3.52,3.52,0,0,0,1,.54A0.75,0.75,0,0,0,70.67,98a24.79,24.79,0,0,0,2.87-.3c0.07,0,.14-0.11.21-0.11h0c0.73,0,1.45.1,2.18,0.08a4.85,4.85,0,0,0,1.47.18,1.23,1.23,0,0,0,.39-0.14,0.71,0.71,0,0,0,.85-0.11l0,0,0.25,0a25.91,25.91,0,0,0,3.41-.24,3.42,3.42,0,0,0,1.49,0c0.22-.07.41-0.3,0.62-0.36a6.35,6.35,0,0,1,2.07.32,2.42,2.42,0,0,0,1.58-.16A1.39,1.39,0,0,0,87.77,94.61ZM45.95,96.94l0.08,0C46,97.22,46,97.18,45.95,96.94Zm32.17-1.46H77.8l0,0h0.34v0Zm-6.84.82,0.27-.37H72l0.52,0.41Zm-25.55-.83h0l0.07,0ZM42,94.81l0-.13h0.12Zm-2.75.46-0.17,0A2.07,2.07,0,0,0,39,95l0.52-.1Zm8.12,1.51,0.32,0.46H47.32C47.34,97.09,47.36,96.94,47.37,96.79Zm10.28-.17,0.9,0.05-0.78.07A0.5,0.5,0,0,0,57.65,96.61Z"/><path class="cls-4" d="M68,27c-1.49-.16-2.76.73-4.24,0.74H62.89a2.31,2.31,0,0,1,0-1.94l0.1,0a11.2,11.2,0,0,1,1.31-.27,7.58,7.58,0,0,0,1,0,17.79,17.79,0,0,0,2-.46,0.7,0.7,0,0,0-.37-1.35c-1,.26-2.3.31-3.51,0.54a3.17,3.17,0,0,0-.95.18,2.34,2.34,0,0,0-.36.18l-0.1,0a0.91,0.91,0,0,0-.34,0,15.6,15.6,0,0,0-2.17.32l0.1-.25A0.69,0.69,0,0,0,59,23.76a6.46,6.46,0,0,0-.5-0.87,4.15,4.15,0,0,0-2.36-1.38c-1.27-.47-1.94-1.63-3.2-2.1a0.6,0.6,0,0,0-.46,0,0.76,0.76,0,0,0-.94-0.23,0.77,0.77,0,0,0-1.12.58,15.36,15.36,0,0,1-.27,1.55,8,8,0,0,1-1.32-.9,0.7,0.7,0,0,0-1.17.68,41.28,41.28,0,0,1,.57,4.75c0,0.49.11,1,.18,1.48,0.06,0.92-.3,1.84-0.2,2.76s0.94,0.92.94,0V29.61h0.81L50,29.83c0-.2,0-0.29,0-0.49a0.84,0.84,0,0,0,.53.22,0.9,0.9,0,0,0-.26.39c-0.2.51-.38,1-0.55,1.57a0.72,0.72,0,0,0-.49.46,25.63,25.63,0,0,0-1,2.86,0.79,0.79,0,0,0-.84.44,0.57,0.57,0,0,0-.57.5c-0.18,1.28-.41,2.55-0.53,3.83a0.7,0.7,0,0,0-.81.49l0,0.2,0-.08c0-.55,1-1.51,1-2.18a0.7,0.7,0,0,0-.88-0.67,20.11,20.11,0,0,1-3.2.84c-0.62,0-1.62-.28-2.12.17-0.66.59-.26,2-0.07,2.86a5.26,5.26,0,0,0-.15.83,0.58,0.58,0,0,0-.29.18c-1,1.1-.06,2.45.33,3.66,0.24,0.76.27,2.11,1.2,2.4a0.84,0.84,0,0,0,1-.31,0.72,0.72,0,0,0,.83.05h0a19.38,19.38,0,0,0,3.12,1.33,11.35,11.35,0,0,0,.65,1.16,0.76,0.76,0,0,0,0,.66,17.87,17.87,0,0,0,2.19,3.3c0.14,0.26.29,0.52,0.45,0.78l0.12,0.33a8.69,8.69,0,0,0,1.43,3,10.61,10.61,0,0,0,.17,2.3,0.91,0.91,0,0,0-.17.28c-0.49,1.24-.67,2.62.66,3.26a22.4,22.4,0,0,0,3.42,1.12,1.87,1.87,0,0,0,1.8,0,0.72,0.72,0,0,0,.32-0.79,2.25,2.25,0,0,0-.39-0.92,0.72,0.72,0,0,0,.1-0.23,3.81,3.81,0,0,0,1.29-2.26,0.69,0.69,0,0,0,0-.38,0.68,0.68,0,0,0,.26-0.25A5,5,0,0,0,59.2,59c0.8,0.16,1.6.34,2.42,0.43a5.72,5.72,0,0,0,1.78-.1h0a0.59,0.59,0,0,0,.66.53c0.38,0,.75-0.1,1.12-0.16,0.16,0-.22.06-0.05,0.09a0.27,0.27,0,0,1,0,.31h0.6c0.58,0.07,1.43.12,2,.17a1.14,1.14,0,0,0,.49-0.08,18,18,0,0,0,3.5-.2,0.74,0.74,0,0,0,.55-0.85l0.83,0c0.5,0.13,1,.07,1.52.22,0.7,0.21.65,0.36,0.61,0.93a3.1,3.1,0,0,0-.12.46l-0.27-.2a0.7,0.7,0,0,0-1,.25,1.94,1.94,0,0,0-.12.24l-0.13-.13a0.69,0.69,0,0,0-1.11.19,0.56,0.56,0,0,0-.24.72c0,0.1.08,0.2,0.12,0.29a4.3,4.3,0,0,0,.35,1,0.58,0.58,0,0,0,.58.34,3.1,3.1,0,0,0,.33.3l-0.07.1a0.7,0.7,0,0,0,.42,1c1.41,0.25,2.56-.24,3.95-0.37,0.85-.08,1.93.26,2.45-0.61a3.7,3.7,0,0,0,0-2.39,0.56,0.56,0,0,0,.21-0.53,9.71,9.71,0,0,0-.88-3.44,0.7,0.7,0,0,0-1-.25l-0.05,0A0.69,0.69,0,0,0,78.25,57c0-.08-0.05-0.16-0.08-0.24a0.67,0.67,0,0,0-.05-0.13c0.2-.23.52-0.46,0.7-0.63,1.13-1.09,2.62-1.92,3.67-3a7,7,0,0,0,1-2.59c0.12-.34.33-0.75,0.48-1.17a0.69,0.69,0,0,0,.47-0.33,5.87,5.87,0,0,0,.27-2.09,0.58,0.58,0,0,0-.32-0.59l0,0a6.07,6.07,0,0,0,.15-3.32,0.58,0.58,0,0,0,0-.25,22.06,22.06,0,0,0-4-11.31,16.39,16.39,0,0,0-3.59-3.94c-1.59-1.18-3.43-1.09-5.16-1.93h0a0.7,0.7,0,0,0-.7,1.2l0.11,0.08L71.57,27a0.73,0.73,0,0,0-.09.12,1.33,1.33,0,0,1-1.62.42l-0.42-.12A10,10,0,0,0,68,27Zm9.74,32.18v0.06l-0.06-.11Zm-1.43-2.3q-0.2-.27-0.41-0.52l0.05-.23a3.31,3.31,0,0,0,.21-0.4,9.18,9.18,0,0,1,.24.91A1.23,1.23,0,0,0,76.28,56.85ZM47.12,46c0-.28,0-0.68,0-1.11A3.81,3.81,0,0,0,47.6,46a0.73,0.73,0,0,0,1.26-.15A25.38,25.38,0,0,0,51.75,50L52,50.37c0,0.12,0,.24,0,0.36a38.41,38.41,0,0,0-2.85-4.1,0.7,0.7,0,0,0-1.28.24,5.25,5.25,0,0,0-.48-0.54,0.71,0.71,0,0,0-.2-0.13L47.12,46V46Zm3-21.41v0l0,0.11a0.85,0.85,0,0,0,0-.11v0ZM48.85,44.73c0-.23,0-0.47-0.05-0.72a1.87,1.87,0,0,1,.8.52H49.33A0.76,0.76,0,0,0,48.85,44.73Zm31.44,2.63c0-.4,0-0.82,0-1.23a7.8,7.8,0,0,0,.82,1.43l0,0.08A0.76,0.76,0,0,0,80.29,47.37ZM56.06,41.07l0,0.19-0.76.06,0,0-0.1-.07Zm0.31-3.3,0.05-.2s0,0.1,0,.15Zm22.3,7.34a0.56,0.56,0,0,0-.16-0.22c-0.24-.79-0.45-1.59-0.73-2.36l1,1.26a4.29,4.29,0,0,0,.43.55l0,0.07A1.58,1.58,0,0,0,78.67,45.12ZM67.6,54.3a20.52,20.52,0,0,1-1.55-1.49,13.62,13.62,0,0,1,2,1.49A2.71,2.71,0,0,0,67.6,54.3Zm-9.95-22-0.3-1L57.28,31l0.08,0C57.46,31.49,57.56,31.91,57.66,32.33Zm-1.53-.6a14,14,0,0,1-1-1.54v0a0.61,0.61,0,0,0,.37-0.31l0.16-.33A15.53,15.53,0,0,0,56.13,31.73ZM73.6,49a5.46,5.46,0,0,0-1-.81,0.72,0.72,0,0,0-1,.33l-0.15-.19a1.56,1.56,0,0,0,.73-0.89l0,0.12a0.71,0.71,0,0,0,1,.42,2.49,2.49,0,0,0,.35-0.19,4.53,4.53,0,0,0,.36,1.08A0.78,0.78,0,0,0,73.6,49ZM53.92,43.17L54.31,43a3.06,3.06,0,0,1,.08.38H54.14Zm11.62,1.49q0-.6-0.05-1.19l0.24,0.1h0C65.66,43.94,65.6,44.3,65.54,44.66Zm2,0.48c-0.09.36-.12,0.79-0.2,1.2a5.09,5.09,0,0,1-.05-0.76c0-.21.16-0.83,0.17-1.27l0.25,0.11Zm3.22-2.69a4.6,4.6,0,0,0,.78.74c0,0.2-.06.47-0.11,0.78l-0.57-.33C70.88,43.24,70.85,42.84,70.81,42.44Zm-0.2-4.25L70.48,38l0.08,0.07Zm-1.76,1.52a10.28,10.28,0,0,1,.24,1.13l-0.17-.25c-0.38-.54-0.7-1.1-1-1.64-0.06-.25-0.12-0.49-0.19-0.73Q68.28,39,68.85,39.71ZM66,36.9c0,0.1,0,.21,0,0.31l-0.17-.3H66Zm-5,8.17a2.1,2.1,0,0,0,.9.27,0.5,0.5,0,0,0,.32-0.07c0,0.32,0,.64,0,1a5,5,0,0,0-1.29-.89Zm-3.24,1L57.61,46l0.08-.17Zm1.29,0.23,0,0a2.57,2.57,0,0,0,.32.48l0.05,0-0.59-.26A0.55,0.55,0,0,0,59.05,46.31Zm1.23,0.48c0.12,0.16.24,0.34,0.37,0.52l-0.84-.37A0.73,0.73,0,0,0,60.29,46.79Zm3.44-4,0.18,0.06c-0.06.32-.15,0.73-0.24,1.17C63.69,43.61,63.71,43.2,63.73,42.79Zm0,5a1.19,1.19,0,0,0,.39-0.29c0,0.21,0,.41,0,0.62Zm5.66-.59a1.54,1.54,0,0,0,.38-0.1c0,0.34.09,0.67,0.16,1a6.54,6.54,0,0,0-1-.94A0.93,0.93,0,0,0,69.43,47.16Zm3.8-2.22s0,0,0-.07,0.09-.48.14-0.87l0.13,0c0,0.32-.1.65-0.17,1Zm-8.6-8.89,0,0-0.26-.28ZM65.19,39c0.07,0.17.12,0.34,0.16,0.49-0.31-.39-0.6-0.79-0.89-1.19v0ZM54.77,46.28l0,0.06-0.12.1c-0.43-.3-0.87-0.59-1.31-0.87l-0.07,0-0.12-.19A7.35,7.35,0,0,0,54.77,46.28Zm9.44,4.17c-0.56-.09-1.11-0.2-1.66-0.32l0-.07a10.71,10.71,0,0,0,1.6.26,0.6,0.6,0,0,0,.51-0.23,14,14,0,0,0,1.29.64h0C65.39,50.66,64.75,50.55,64.22,50.45ZM71.08,46l0-.21,0.07,0Zm3.34-4.35c-0.07-.31-0.15-0.62-0.24-0.92h0a3.7,3.7,0,0,1,.36.73,2.08,2.08,0,0,1,.07.25Zm-9.31-7.52L65,34.07l0.31,0.2ZM52.63,43.68a0.77,0.77,0,0,0-.26.53L52.16,44a0.54,0.54,0,0,0-.21-0.31,1.81,1.81,0,0,0,.2-0.8,1.52,1.52,0,0,0-.07-0.3h0.42A1.39,1.39,0,0,0,52.63,43.68ZM66.51,50.8A0.57,0.57,0,0,0,67,50.48a2.41,2.41,0,0,0,.24-0.8l0.94,1.16A9.22,9.22,0,0,1,66.51,50.8Zm8.58-6.31c0-.22,0-0.43,0-0.65a5.16,5.16,0,0,0,.37.57H75.36Zm-1.4-11.64V32.75l0,0v0.06Zm-1.26,2.93-0.11-.27a0.56,0.56,0,0,0,.12-0.14q0,0.22.07,0.44Zm-3.21-1.4a4.92,4.92,0,0,0,.52-0.58A3.77,3.77,0,0,0,70.1,35,3.56,3.56,0,0,1,69.22,34.38ZM67,33.5q0,0.1,0,.19l-0.58-.39Zm-4.35,5.71,0.85,1.11a6.71,6.71,0,0,0-1.93-.65c0-.46.09-0.92,0.16-1.37Zm-5.12,2v0l0,0h0ZM56.88,51.64q0.32,0.3.61,0.62a0.68,0.68,0,0,0-.07.2Zm2.27,0.44L59,51.95a0.63,0.63,0,0,0,.83-0.25L61,52.23a0.6,0.6,0,0,0,0,.07,2.35,2.35,0,0,0,.07.48A14.55,14.55,0,0,0,59.14,52.08Zm10,0,0,0,0,0h0Zm5.57,2.57,0.07,0,0,0.13Zm3.17-15.39a2.16,2.16,0,0,0-.54.52Q76.67,38.9,76,38.07l0.5,0.12,0.21,0.06a1.35,1.35,0,0,0,1.08.53c0,0.15.09,0.3,0.13,0.45h0ZM60.42,37.49c0-.2-0.06-0.4-0.1-0.59l0.18,0.19Q60.46,37.29,60.42,37.49ZM59,38V38c-0.24-.38-0.5-0.74-0.76-1.1,0-.05,0-0.1,0-0.15a2.69,2.69,0,0,0-.81-2A0.61,0.61,0,0,0,58,34.07a7.55,7.55,0,0,0-.12-0.81C58.27,34.82,58.65,36.38,59,38Zm-4.81-9.09a0.66,0.66,0,0,0,.11-0.12c0.07-.1.14-0.21,0.21-0.32L54.33,29Zm2.62,7.51a0.81,0.81,0,0,0-.17.27l0,0.14a2.35,2.35,0,0,0-.06-1A1.56,1.56,0,0,1,56.81,36.37ZM53.69,49.48L54.75,51c0.11,0.23.21,0.46,0.3,0.69h0a23.76,23.76,0,0,1-1.65-2c0-.22,0-0.45,0-0.67Zm4.35,4,0,0,0,0h0Zm7.35,1.58a0.7,0.7,0,0,0-.31-0.38,19.6,19.6,0,0,1-1.66-1.09l0.46,0.2a23.58,23.58,0,0,0,2.19,1.45Zm10.7-12.87a1,1,0,0,1,0-.13,9.46,9.46,0,0,1,.64,1.65A2.66,2.66,0,0,1,76.09,42.21ZM73.2,31.55l0.09,0.23a0.69,0.69,0,0,0-.38-0.07l0-.06ZM59.91,34.49q0-.38-0.06-0.75a3.66,3.66,0,0,1,.95,1.66Zm-3.28,4.69a9.48,9.48,0,0,0,.44,1.08,0.81,0.81,0,0,0-.4,0,0.77,0.77,0,0,0-.47-0.55,4.88,4.88,0,0,0-.49-0.14A5.68,5.68,0,0,0,56.63,39.18ZM54.46,59.91a0.71,0.71,0,0,0-.18-0.09l0-.1a0.61,0.61,0,0,0,.47,0c0.22,0.29.44,0.59,0.64,0.89C55.06,60.35,54.75,60.12,54.46,59.91Zm-1.63-3.29-0.18-.28,0-.31,0.07,0.11Zm9.26-.27a0.78,0.78,0,0,0-.26,0,0.71,0.71,0,0,0-.22-0.17L59.43,55a8.18,8.18,0,0,1,.83.22,8.52,8.52,0,0,0,3.29,1.34l0.19,0.08C63.18,56.58,62.64,56.47,62.1,56.35Zm7.69-1.89c0.12,0.18.25,0.36,0.37,0.53l-0.53-.25A0.71,0.71,0,0,0,69.79,54.46Zm1.72-1.31,0.09,0.19-0.19-.09Zm5.34-4.82c0-.58,0-1.15.08-1.72q0-.37.05-0.76v0L77.18,46c-0.14.75-.24,1.52-0.31,2.29ZM67.29,30.06l0,0,0.07,0ZM53,30a23.23,23.23,0,0,1,1.2,2l-0.26-.23c-0.36-.38-0.73-0.75-1.09-1.12l-0.07-.06Zm0.47,5a2.37,2.37,0,0,1,1.15.54c0.12,0.9,0,1.87.09,2.79l-1,.14a0.7,0.7,0,0,0-.52.84l0,0.09a0.76,0.76,0,0,0-.06.54,12,12,0,0,1-1.92,0,4.79,4.79,0,0,1-1-.26,3.49,3.49,0,0,1-.06-3.16A2.86,2.86,0,0,1,53.47,35.07Zm-4,16.14a1.75,1.75,0,0,0,.06-0.32l0.17,0.23a0.77,0.77,0,0,0-.22.11Zm25.65,6.55v0h0Zm1.69-5.93h0v0Zm0.43-19.4h0a2.71,2.71,0,0,0-1.59-1.54,3.78,3.78,0,0,1-.27-0.9c0.59,0.58,1.18,1.18,1.77,1.8a0.63,0.63,0,0,0,.27.16A0.67,0.67,0,0,0,77.21,32.42ZM68.46,29.1a0.67,0.67,0,0,0,0-.09h0.12ZM59.3,31.93a0.71,0.71,0,0,0-.3,0L58.78,31c0.28,0.35.53,0.69,0.64,0.8L59.62,32ZM54,62a2.45,2.45,0,0,1,1,.41,3.63,3.63,0,0,1-.74-0.26A0.66,0.66,0,0,0,54,62.07ZM67.4,57c0.51,0.1,1,.2,1.52.29a0.89,0.89,0,0,0,.24,0l0.35,0.11-0.7.11c-0.38.07-.76,0.15-1.14,0.23A0.69,0.69,0,0,0,67.4,57Zm5.32-.26a0.76,0.76,0,0,0-.16-0.17l-0.05,0a0.65,0.65,0,0,0,.23-0.39l0.4,0.46Zm8.61-12.93a18.85,18.85,0,0,0-.76-2.53,0.69,0.69,0,0,0,.45.14c0.2,0.37.4,0.73,0.61,1.08a0.64,0.64,0,0,0,.32.26,5,5,0,0,0-.3,1.73ZM59.15,28.22l0.07-.16a0.49,0.49,0,0,0,0,.08,12.29,12.29,0,0,0,1.25,2.44,0.54,0.54,0,0,0-.07.16A7.5,7.5,0,0,0,58.93,29l0-.07c0.07-.23.1-0.41,0.14-0.57Zm-5.94-4.62-0.07-.21a4.54,4.54,0,0,0,0-.75,1.22,1.22,0,0,0,.18-0.26,1.28,1.28,0,0,1,.29.54Q53.4,23.26,53.21,23.61ZM50,24.76a10.8,10.8,0,0,0-.33,1.35q0-.46,0-0.92A0.81,0.81,0,0,0,50,24.76Zm0.23,2.73c-0.13.31-.25,0.62-0.35,0.93,0-.39-0.09-0.78-0.14-1.17A0.75,0.75,0,0,0,50.28,27.49Zm2,4.59,0.07,0.06L53,32.85a5.16,5.16,0,0,0-1,.07C52.07,32.62,52.16,32.33,52.24,32.08ZM44.16,44.72h0s0,0,0,0V44.53l0.06,0.18c0,0.06,0,.13-0.05.21a2.47,2.47,0,0,0,0,.26l-0.1-.08A0.65,0.65,0,0,0,44.16,44.72Zm33.2,13.84,0,0.09,0-.09h0Zm-2.23,3.91a0.5,0.5,0,0,0,.07.17l-0.08,0c0-.06,0-0.13,0-0.22Zm1.52-8.71a0.65,0.65,0,0,0,.5-0.17c0,0.19,0,.39,0,0.58A1.13,1.13,0,0,0,76.65,53.76Zm6.42-6.21a0.79,0.79,0,0,0-.42-0.38A4.47,4.47,0,0,0,83,46l0.16,0.28a0.73,0.73,0,0,0,.22.22l0,0C83.29,46.87,83.18,47.21,83.06,47.55ZM71.28,29.37l0,0q-0.34.4-.66,0.82a1.84,1.84,0,0,0-.53-0.49l0-.09a0.74,0.74,0,0,0,0-.62ZM55.18,22.72l-0.05-.09,0.09,0Zm-5.86-.1,0,0,0-.25,0.22,0.12Zm2.43,6.73-0.19.54a0.69,0.69,0,0,0-.65-0.4L51,29.43A0.74,0.74,0,0,0,51.75,29.36Zm-8.59,10.2c0,0.07,0,.14-0.07.21A2.06,2.06,0,0,0,43,39.54l0.22,0Zm0.67,7.22a1.22,1.22,0,0,0,0-.15A1.1,1.1,0,0,0,45,47l0.14-.07c0.08,0.23.17,0.45,0.27,0.68a17,17,0,0,1-1.62-.75v0ZM57.74,59.15a0.59,0.59,0,0,0-.34.25A15.16,15.16,0,0,0,56.66,58h0l0.09,0a0.67,0.67,0,0,0,.48.6,3.66,3.66,0,0,0,.6.12C57.82,58.91,57.78,59,57.74,59.15Zm19.55,2.14a0.72,0.72,0,0,0,.16.18l-0.05,0a2.17,2.17,0,0,0-.89-0.14,4.18,4.18,0,0,0,.29-0.86Zm0.16-5.95a5.64,5.64,0,0,0-.1-0.61,0.71,0.71,0,0,0,.59.12Zm5.28-14.82c0.05,0.31.12,0.65,0.2,1a4.14,4.14,0,0,0,.17.84v0l-0.16-.11a0.63,0.63,0,0,0,0-.17,12.42,12.42,0,0,0-.43-2,0.65,0.65,0,0,0,.39-0.34l0,0.09A0.72,0.72,0,0,0,82.72,40.53ZM81.84,37c-0.29-.79-0.53-1.62-0.82-2.33-0.08-.2-0.16-0.42-0.24-0.64a22.41,22.41,0,0,1,1.34,3A0.72,0.72,0,0,0,81.84,37ZM53.71,63.59a0.63,0.63,0,0,0,.07-0.14,14.62,14.62,0,0,1,1.56.76C54.7,64,54,63.68,53.71,63.59ZM79,63a0.63,0.63,0,0,0-.34-0.37c0-.09,0-0.18.07-0.28A3.35,3.35,0,0,0,79.06,62h0c0,0.12,0,.24,0,0.37C79.17,62.9,79.26,62.89,79,63Zm-0.43-8.68q0.12-.31.25-0.61a0.59,0.59,0,0,0,.2.21Zm0.8-22.53A2.35,2.35,0,0,0,79,31.56a12.2,12.2,0,0,0-1.27-1.9A19.6,19.6,0,0,1,79.34,31.74Z"/><path class="cls-4" d="M35.12,95.05a0.86,0.86,0,0,0,.18-1A1.09,1.09,0,0,0,34.5,94c-0.3,0-.76.21-0.48,0.58a1.83,1.83,0,0,0,.76.45c0.31,0.06.62-.25,0.23-0.45a0.73,0.73,0,0,0-.88.45,2.21,2.21,0,0,0-.07,2.25c0,0.06.56,0.85,0.65,0.52-0.19-.23-0.52.06-0.57,0.25s0.15,0.3.51,0.29,0.23,0.13.31-.12A0.47,0.47,0,0,0,35,97.93a0.82,0.82,0,0,1-.19-0.29c0.35-.06.73,0.4,1.1,0.29a0.4,0.4,0,0,0,.24-0.48,0.82,0.82,0,0,0-.54-0.29c-0.17.67,3,.72,3.53,0.45a1.23,1.23,0,0,0-1.06,0,1,1,0,0,0,.6.11c0.42,0,.84,0,1.26,0s0.55-.07.83-0.07,0.6,0.06.9,0.08"/><path class="cls-4" d="M36,95.56c1.24-2.12-1.06-3.38-2.74-2a1,1,0,0,0-.26,1,1.73,1.73,0,0,0,3.06.77,1,1,0,0,0-.16-1.21c-1-1.26-2.54-.12-3,1.1a3.12,3.12,0,0,0,1.16,3.55,1,1,0,0,0,1.21-.16l0.1-.08A1,1,0,0,0,35,96.82a1.38,1.38,0,0,0-1.82,1.42,1,1,0,0,0,.5.86,3,3,0,0,0,1.25.25,1,1,0,0,0,1-.73,1.47,1.47,0,0,0-.17-1.47l-1.13,1.47c0.93,0.19,2,.68,2.49-0.48,0.44-1-.31-1.65-1.15-1.92a1,1,0,0,0-1.27,1c0.09,1.9,3.52,1.88,4.79,1.41a1,1,0,0,0,0-1.93,2.29,2.29,0,0,0-1.83.13,1,1,0,0,0,.24,1.83c1.2,0.41,2.61,0,3.85.14s1.27-1.86,0-2c-1-.11-2.33.28-3.32-0.06L38.6,98.5l0.29,0.08V96.65a3.5,3.5,0,0,1-1.28.11c-0.26,0-.55-0.07-0.81-0.05-0.73,0-.22-0.56-0.17.46l-1.27,1q0.94-1.08.2-1.33a1.26,1.26,0,0,0-.48-0.12A1,1,0,0,0,34,98.15a2.77,2.77,0,0,0,.34.49l-0.26-1a1.15,1.15,0,0,1-.11.42l1-.73s-0.33,0-.24,0l0.5,0.86-0.71.51L34,97.08l-0.1.08L35.11,97a4.41,4.41,0,0,1-.63-1.51l-0.16-1.21L34.92,94l-0.26,1q0.46,0-.4-0.41a1,1,0,0,0,1.73,1h0Z"/><path class="cls-4" d="M64.06,94.75l-0.16-.11a9.88,9.88,0,0,0,2-.09,1,1,0,0,0,.78-0.28A6.36,6.36,0,0,0,65,94.16a3.59,3.59,0,0,0-1.56.12,2.19,2.19,0,0,0,1,.07c0.5,0,1,0,1.51,0a6.11,6.11,0,0,0,1.57-.23,3.8,3.8,0,0,1,.48-0.28c0.4,0,.83,0,1.23-0.08s1.07-.11,1.61-0.12c0.71,0,1.43,0,2.13,0a17.52,17.52,0,0,0-2-.39,3.79,3.79,0,0,0,1.84.57,2.26,2.26,0,0,1,1.3.52"/><path class="cls-4" d="M64.57,93.89l-0.16-.11-0.5,1.86c1.11,0,2.59.14,3.46-.66a1,1,0,0,0-.44-1.67,8.9,8.9,0,0,0-3.78,0,1,1,0,0,0,0,1.93,11.11,11.11,0,0,0,4.72-.2,18.3,18.3,0,0,1,5.06-.38,1,1,0,0,0,.27-2c-0.66-.14-1.29-0.3-2-0.39a1,1,0,0,0-.77,1.83c1,0.62,2.21.44,3.15,1.08s2.06-1,1-1.73-2.17-.47-3.15-1.08L70.7,94.24c0.67,0.09,1.3.25,2,.39l0.27-2a28.7,28.7,0,0,0-5,.19c-1.43.21-2.76,0.76-4.28,0.46v1.93a7,7,0,0,1,2.71,0l-0.44-1.67a5.61,5.61,0,0,1-2,.08,1,1,0,0,0-.5,1.86l0.16,0.11a1,1,0,0,0,1-1.73h0Z"/><path class="cls-5" d="M122.07,67c0-1.39-.11-2.61-0.17-3.77,0-.67-0.11-2.18-0.13-4.08s-0.07-4.27,0-6.55c0-.57,0-1.14.06-1.69s0.07-1.12.07-1.68c0-1.1,0-2.13-.05-3-0.07-1.78,0-3.09,0-3.5l0.06-2.05L122,33.55l0.08-4.34V27.33c0-.59,0-1.09-0.08-1.51,0-.65-0.07-1.17-0.07-1.67,0-.25,0-0.49,0-0.73l0-.39a4.5,4.5,0,0,0,0-.46c0-.62-0.15-1.27-0.25-2,0-.19,0-0.38-0.05-0.58s0-.19,0-0.29V19.32c0-.47.08-1,0.13-1.62a69.13,69.13,0,0,0,0-7c0-.38,0-0.79,0-1.22s0-.59,0-0.93l0-1.06a14,14,0,0,0-.09-2.61,5.64,5.64,0,0,0-.47-1.56,4.82,4.82,0,0,0-.47-0.77l-0.3-.36-0.13-.15-0.11-.13c-0.17-.2-0.34-0.43-0.6-0.69A2.31,2.31,0,0,0,118.6.62l-0.31-.06H118c-0.14,0-.27-0.46-0.43-0.48a7.21,7.21,0,0,0-1-.45h0a4,4,0,0,1-.14.43c-0.22,0-.57.19-0.93,0.17a8.71,8.71,0,0,0-.9.11c-0.27,0-.51.07-0.81,0.06-0.59,0-1.21,0-1.81,0l-1.77.1c-0.58,0-1.14,0-1.71,0l-5.54,0c-1.54,0-3.36,0-5.55-.06H93.83c-1.3,0-2.71,0-4.22.07l-4.55.1c-1.76,0-3.79,0-5.9.07s-4.3.14-6.46,0.21l-0.8,0H71.13c-0.52,0-1,0-1.57-.07S68.51,0.79,68,.77s-1.07,0-1.55,0c-1.95.06-4,0-5.93,0-1,0-2,0-2.9.07s-1.83,0-2.69,0c-3.45,0-6.27,0-7.59,0C45.21,1,44,1.09,43,1.1s-1.75,0-2.82,0c-2,0-3.35,0-7.55.06-2,.05-3.93,0-5.9-0.07S22.76,1,20.83,1c-0.49,0-1,0-1.49.09L19,1.13l-0.31,0L18,1.19H16.64l-0.74,0H15.33c-0.39,0-.83-0.07-1.31-0.1a4.84,4.84,0,0,0-.77,0l-0.61.05c-0.4,0-.77,0-1.2,0a8.71,8.71,0,0,1-1.12,0c-0.19,0-.25-0.06-0.66-0.09a4.77,4.77,0,0,0-.69,0,1.33,1.33,0,0,1-.35,0S8.29,1.07,8.06,1a4.71,4.71,0,0,0-1.3,0,9,9,0,0,1-1,.08,8.68,8.68,0,0,0-2.11.23,4,4,0,0,0-1,.42,2.57,2.57,0,0,0-.25.17l-0.18.14-0.33.26A4.39,4.39,0,0,0,.74,3.65a3.93,3.93,0,0,0-.3.74L0.29,5l-0.11.55L0.12,6c0,0.27,0,.47-0.07.62A22.27,22.27,0,0,0,.11,10.2c0.1,1.17.19,2.13,0.24,2.45a6.73,6.73,0,0,1,.08,1c0,0.29.07,1,.13,1.69V15.4c0,0.38,0,.77,0,1.11,0,0.67,0,1.39,0,2.14v2.29c0,1.55,0,3.06.05,4.36,0,0.69,0,1.29,0,1.85,0,0.28,0,.54,0,0.83s0,0.58,0,.87l0,1.83L0.37,33l0,2.87c0,1.11,0,2.34,0,3.58s0.06,2.51.06,3.72,0,2.36,0,3.37,0.06,1.67.11,2.33a13.26,13.26,0,0,1,0,1.57l0,1.86A24.38,24.38,0,0,0,.59,55l0.09,0.83c0,0.26,0,.55,0,0.84,0,0.58,0,1.2,0,1.85s0,1.34,0,2.07c0,0.36.05,0.74,0.06,1.06s0,0.7,0,1.07c0,0.9-.07,1.73-0.07,2.5,0,0.2,0,.36,0,0.5s0,0.31,0,.46c0,0.31-.1.63-0.13,1,0,0.16,0,.33,0,0.49s0,0.26,0,.39l-0.05.77a5.87,5.87,0,0,0,0,.79c0,0.07,0,.13,0,0.2l0,0.16c0,0.06,0,.06,0,0.11v0.12c0,0.33,0,.72,0,1.15l0,0.28,0,0.21c0,0.15,0,.3,0,0.45,0,0.61-.05,1.29,0,2.07s0.13,1.31.15,2a10.1,10.1,0,0,0,0,1.52,5.71,5.71,0,0,0,.41,1.79,2.68,2.68,0,0,0,.51.8,2.1,2.1,0,0,0,.8.52s0,0-.12-0.09a0.45,0.45,0,0,1-.12-0.35,1.28,1.28,0,0,0,.44.15s0,0,.08,0A0.43,0.43,0,0,0,3,80.49a0.41,0.41,0,0,0,.17.28l0.05,0,0.24,0a0.32,0.32,0,0,1-.13.09H3.57L4,81,5,81.1c0.36,0,.73.08,1.14,0.1H7.4c0.2,0,.46,0,0.68,0l0.68-.07,0.66-.06,0.69,0c0.47,0,1,0,1.48,0h0.78l0.77,0,1.65,0.12c0.29,0,.59,0,0.89,0h0.88c1.18,0,2.41,0,3.68,0,0.63,0,1.27.07,2,.09s1.36,0,2,0l2.08-.07c0.7,0,1.45,0,2.17-.12s1.38,0,2.15,0a9.73,9.73,0,0,0,1.17-.07L32.93,81a18.76,18.76,0,0,1,2.24-.13l2.35,0,4.82,0.06c3.08,0,6.24.11,9.47,0.2,0,0.12-.05.26-0.07,0.42s-0.11.59-.19,0.93c0,0.17-.08.35-0.13,0.52l-0.16.58a6.68,6.68,0,0,1-.43,1.15l-0.09.15L50.64,85l-0.13.25a2.39,2.39,0,0,0-.17.43,1,1,0,0,1-.42.61,1.41,1.41,0,0,0-.33.34,1.49,1.49,0,0,0-.2.36,0.54,0.54,0,0,1-.27.3,1.56,1.56,0,0,0-.35.31c0,0.06-.22.26-0.4,0.45s-0.37.36-.41,0.39l-0.12,0a1.92,1.92,0,0,0-.68.54,0.73,0.73,0,0,1-.42.26,0.61,0.61,0,0,0-.36.23l-0.08,0-0.22.12-0.34.16c-0.23.09-.55,0.26-0.7,0.32a1.56,1.56,0,0,0-.35.16,2.79,2.79,0,0,0-.41.31l-0.18.13L44,90.84l-0.16.08-0.35.18-0.32.15c-0.41.21-.85,0.37-1,0.46a0.55,0.55,0,0,1-.4.07,1.65,1.65,0,0,0-.41.06,6.21,6.21,0,0,1-1.25.22,1.91,1.91,0,0,1-.75,0,0.3,0.3,0,0,0-.35.05,0.1,0.1,0,0,1-.05.07,0.46,0.46,0,0,0-.08.15h0l-0.07,0a0.61,0.61,0,0,0-.49.14,0.29,0.29,0,0,1-.43,0l-0.16,0H37.53a1.54,1.54,0,0,0-.47.07,0.3,0.3,0,0,1-.24,0,0.66,0.66,0,0,0-.28,0,1.45,1.45,0,0,1-.47,0,1,1,0,0,0-.66,0,0.65,0.65,0,0,1-.28.07A1.07,1.07,0,0,1,35,92.56s0,0,0,0h0c-0.24,0-.5.05-0.89,0.08,0,0-.11.05-0.18,0.07a0.48,0.48,0,0,0-.12-0.07l0-.08h0l0,0.13,0,0.07a0.43,0.43,0,0,1-.09.07l-0.15.1a1.25,1.25,0,0,0-.22.21,2,2,0,0,0-.33.71,0.85,0.85,0,0,1-.06.14l-0.08.14-0.08.18a3.14,3.14,0,0,0-.12.37l-0.08.32a4.35,4.35,0,0,0-.12.54,2.52,2.52,0,0,0,0,.35l-0.13.25c0,0.16-.13.33-0.13,0.49v0.09l0.13,0.06L32.34,97c0,0.09.06,0.18,0.07,0.27,0.05,0.31.12,0.6,0.16,0.86,0,0.06,0,.12,0,0.15a1.66,1.66,0,0,0,.06.31,1.18,1.18,0,0,0,.48.66l0,0,0,0,0.18,0.06h0.47c0.27,0,.53,0,0.82,0l0.46,0,0.28,0h0.17a9.11,9.11,0,0,1,1,.11,3.26,3.26,0,0,0,.4,0h0.34c0.21,0,.08-0.07.31-0.09l0.22,0,0.27,0h0.44c0.05,0,.16.07,0.22,0.07l0.39,0c0.23,0,.21.13,0.47,0.13a3,3,0,0,1,.46,0c0.08,0,.23.08,0.31,0.09s0.14,0.07.23,0.08,0.34-.08.51-0.08c0.33,0,.66-0.06,1-0.07l0.49,0c0.19,0,.36-0.35.54-0.37,0.69,0,1.32-.46,1.88-0.46H46l0.46,0.33c0.17,0,.33.16,0.48,0.15,0.63,0,1.15,0,1.66,0,1.06,0,1.92,0,2.32,0l0.79,0H52l0.25,0a7.46,7.46,0,0,1,.86.1c0.61,0.07,1,.11,2.33.17,0.62,0,1.23,0,1.89,0s1.23-.1,1.8-0.15c0.28,0,.56-0.36.83-0.37s0.26-.32.39-0.32h0.41c0.55,0,1.07.32,1.56,0.32,1,0,1.84.18,2.5,0.18a7.19,7.19,0,0,1,1.27.12c0.31,0,.71.09,1.05,0.09h0.64l0.11,0a1.51,1.51,0,0,1,.34-0.06,2.52,2.52,0,0,0,.54-0.15h0l0.35,0c0.42,0,.88,0,1.32,0H71.1c0.24,0,.46,0,0.66-0.05L72.32,99h0.52l0.56,0,0.72,0.08c1,0.06,2.92.07,4.15,0a6.58,6.58,0,0,1,1.19,0c0.22,0,.85,0,1.4,0l1.11,0h1.29c0.51,0,.94.09,1.35,0.11h0.94l0.65,0,0.29,0,0.32,0c0.49,0,1-.06,1.58-0.05l0.42,0a0.37,0.37,0,0,1-.09-0.3,1.52,1.52,0,0,1-.28,0s-0.3.1-.3-0.31h0a2.85,2.85,0,0,0,.43.19,0.56,0.56,0,0,0,.28.08H89a0.9,0.9,0,0,0,.21-0.06,0.41,0.41,0,0,1,0,.09,0.2,0.2,0,0,1,0,0h0l0.14-.1a0.73,0.73,0,0,0,.25-0.5,0.73,0.73,0,0,0,0-.1V97.91c0-.2,0-0.43,0-0.69l0-.41c0-.07-0.26-0.15-0.26-0.22l-0.26-.06v0l0.26-.06,0.13-.11c0-.15.06-0.3,0.06-0.46l-0.22-.12-0.23,0v0h0.25l0.13,0a0.76,0.76,0,0,0,0-.32c0-.14,0-0.31-0.05-0.5a2.2,2.2,0,0,0-.2-0.63,1.58,1.58,0,0,0-.5-0.59,3.14,3.14,0,0,0-.61-0.29l-0.05,0,0,0,0,0-0.21-.18a1.39,1.39,0,0,0-.4-0.24l-0.15-.05-0.12-.05a1.52,1.52,0,0,0-.44-0.13l-0.32,0-0.64-.11-0.39,0L85,92.4l-0.33,0,0-.07,0-.1H84.66a0.91,0.91,0,0,1-.18,0,0.27,0.27,0,0,0-.26,0A0.19,0.19,0,0,1,84,92.14a0.15,0.15,0,0,0-.22,0,0.09,0.09,0,0,1-.12,0,0.12,0.12,0,0,0-.12,0l-0.31,0L83,92H82.83a0.33,0.33,0,0,1-.16-0.12,0.28,0.28,0,0,0-.22-0.12A2,2,0,0,1,82,91.65a0.46,0.46,0,0,0-.33,0,0.56,0.56,0,0,0-.25.13l-0.23,0-0.08,0-0.08,0-0.19,0c-0.78-.23-0.83-0.18-0.87-0.3a0.47,0.47,0,0,0-.41-0.16,0.56,0.56,0,0,0-.38,0,0.22,0.22,0,0,1-.18,0l-0.18-.05-0.06,0,0-.24,0-.24H78.13v0.47a2.32,2.32,0,0,1,.34,0h0.28L78.58,91a3.23,3.23,0,0,0-.52-0.21l-0.12,0h0l-0.1-.06a0.39,0.39,0,0,0-.22-0.09l-0.11,0h0l0,0-0.06-.05a0.89,0.89,0,0,0-.18-0.13s-0.28-.14-0.54-0.28a2.47,2.47,0,0,1-.41-0.19l-0.05,0h0l0,0-0.06-.06A0.3,0.3,0,0,0,76,89.59l-0.22-.08-0.26-.11c-0.11,0-.14-0.07-0.15-0.13a0.16,0.16,0,0,0-.19-0.14h0a2.39,2.39,0,0,0-.32-0.33,4.49,4.49,0,0,1-.48-0.52,2.23,2.23,0,0,0-.53-0.54,2.93,2.93,0,0,1-.66-0.67l-0.35-.41a8.75,8.75,0,0,1-.72-1l-0.12-.2-0.08-.16L71.68,85l-0.13-.28-0.05-.11v0H71.13v0.08h0.32a1.91,1.91,0,0,0-.32.17V84.62l0.18,0s0.08,0,.07-0.06a0.84,0.84,0,0,1-.07-0.42,0.64,0.64,0,0,0-.22-0.52c0-.06-0.16-0.36-0.28-0.69a4,4,0,0,1-.14-0.48,3.17,3.17,0,0,1-.07-0.33c0-.1,0-0.19,0-0.26a0.87,0.87,0,0,0-.05-0.29l-0.06-.09h0l3,0c8.54,0,16.5,0,20.42,0l3.2,0h1.57c0.51,0,1,0,1.52.06a22.77,22.77,0,0,0,3.2.13L105,81.4h0.77l0.82,0c1.4,0,3.13.06,4.9,0.07,0.9,0,1.76,0,2.69,0l0.69,0,0.65-.05,0.61,0c0.19,0,.36-0.4.6-0.42a1.24,1.24,0,0,0,.31-0.36h0s0.06,0.39.09,0.39c0.39,0,.82.2,1.29,0.15,0.23,0,.47,0,0.61,0s0.34,0,.55,0a2.22,2.22,0,0,0,.67-0.21,2.18,2.18,0,0,0,.53-0.39l0.09-.08,0.1-.11,0.18-.21a3.89,3.89,0,0,0,.28-0.43,4.89,4.89,0,0,0,.57-1.63,5.83,5.83,0,0,0,.07-0.82c0-.26,0-0.52,0-0.81l0-4.71C122.14,69.91,122.13,68.34,122.07,67ZM87,93.89h0v0h0l0,0h0Zm-0.88-.1,0.21,0,0.19,0,0.07,0,0.16,0.07L87,94s0,0,0,0h0s0,0,0,0h0a2.58,2.58,0,0,0,.53.41c0.25,0.13.4,0.17,0.49,0.21l0.08,0a0.09,0.09,0,0,1,0,0,0.52,0.52,0,0,1,.07,0h-1v0.16l0,0h0l0-.07H88s0.1,0,.12.07a0.77,0.77,0,0,1,.17.28,3.26,3.26,0,0,1,.1.33l0,0.11-0.13.06-0.14,0h0c-0.09,0,0,0,0,0h0.3v0.16s0,0.15,0,.07v0.08c0,0.08-.17.15-0.17,0.23a3.68,3.68,0,0,1-.16.36h0v0l0.19,0.08c0,0.05.09,0.11,0.09,0.16s0,0.21,0,.32,0,0.16,0,.4c0,0,0,0,0,0H88.37c-0.32,0-.65,0-1,0h-0.9a3.65,3.65,0,0,0-.55.07,4.75,4.75,0,0,1-.78,0l-0.1,0h-0.1c-0.05,0-.11,0-0.16,0s-0.21,0-.31,0a4.28,4.28,0,0,0-.7-0.08H83.37l-0.27,0a2.66,2.66,0,0,1-.73,0,4.1,4.1,0,0,0-.77,0l-2,0c-0.93,0-2,0-2.33,0a10.65,10.65,0,0,1-1.19-.07,9.12,9.12,0,0,0-1.51,0H73.47c-0.3,0-.6,0-1.16,0H71l-0.47,0a4.83,4.83,0,0,0-1.14.22c-0.38,0-.79,0-1.23.06-0.28,0-.63,0-1,0H66c-1.2,0-2.06,0-2.76,0H61.78a4.74,4.74,0,0,1-1.09-.06,7.81,7.81,0,0,0-2.43.05C57.5,98,57.05,98,56.74,98a6,6,0,0,0-.63.05,5.55,5.55,0,0,1-1.06,0c-0.62,0-1.58-.09-3.28-0.19-1.37,0-2.71-.05-3.26,0l-0.54,0-0.41,0H47.47L46.9,98c-0.4,0-.85,0-1.33,0s-1,0-1.61,0l-1.27.05-1.21,0c-0.31,0-.67,0-1,0S39.62,98,39.19,98H37.92l-0.34,0-0.57,0a2.05,2.05,0,0,1-.37,0A5.46,5.46,0,0,0,35.39,98c-0.38,0-.8-0.19-1.13-0.16A2.2,2.2,0,0,0,34,97.61H33.91v0.16c0-.25-0.11-0.45-0.16-0.74s-0.05-.24-0.06-0.35,0-.25,0-0.37V95.87a0.86,0.86,0,0,1,0-.22,2.34,2.34,0,0,1,.14-0.39L33.92,95c0-.08.08-0.18,0.11-0.24a2.12,2.12,0,0,0,.12-0.26c0-.1.06-0.41,0.08-0.49l0-.4H34.05s-0.93.47-.93,0.45h0l0.57-.22,0.58-.23h0a1,1,0,0,0,.3.25L34.13,94V94.1c0,0.21.46,0.07,0.46,0.12h0.77a0.38,0.38,0,0,0,.31-0.06,0.27,0.27,0,0,1,.32,0,0.21,0.21,0,0,0,.27,0,0.13,0.13,0,0,1,.14,0,0.17,0.17,0,0,0,.15,0l0.37-.08h0.66l0.1,0h0.18l0.23,0h2l1.12,0h1.33l1,0,0.46,0,0.23,0h0.3A9.25,9.25,0,0,0,45.71,94h0.17l0.19,0a4,4,0,0,0,.52,0c0.27,0,.53-0.21.78-0.2l0-.21h0l0.12,0.22c0.08,0,.16.11,0.23,0.1s0.28,0,.41,0,0.46,0,.64,0,0.44,0,.64,0l0.58-.06a3,3,0,0,1,.94,0l0.46,0c0.12,0,.3,0,0.66.08l0.06-.18,0.07-.18h0.11c0.07,0,.15.19,0.23,0.19s0.33,0.09.51,0.1c0.36,0,.78,0,1.21.06s1,0.06,1.53.06l0.87,0h0.89l1,0,0.52,0h0.58c0.79,0,1.59-.12,2.32-0.09L63.51,94h0.71l0.65,0,1.22,0,1.07,0.06h1l0.85,0L70.31,94c0.36,0,.68,0,0.92,0l0.68,0,0.79,0.06c0.44,0,.91.08,1.46,0.1H75c0.35,0,.69,0,1.07-0.07,0.18,0,.8,0,1.65-0.09l1.43-.1,1.64-.16c0.94-.1,1.89-0.19,2.74-0.21a0.73,0.73,0,0,0,.55.12,0.6,0.6,0,0,1,.26,0l0.06,0s0,0,0-.15l1,0a3.94,3.94,0,0,1,.44.07Zm2.52,1.75h0Zm-0.16,1v0h0v0Zm-14.4-6.62a3.55,3.55,0,0,0,.54.46c0.21,0.16.49,0.31,0.6,0.39a1.39,1.39,0,0,0,.23.18L75.58,91l0.09,0,0.2,0.09L77,91.71a7,7,0,0,0,.95.36l0.21,0.09,0.06,0s0-.3,0-0.29l-0.21-.3H77.13v0H78l-0.91.66h1.06a1.55,1.55,0,0,0,.24.1l0.31,0.1,0.65,0.12,0.15,0-1.2.09a31.09,31.09,0,0,1-3.87.09l-2.55-.12-0.48,0-0.51,0c-0.34,0-.66,0-1,0l-1.73.09H67.47l-0.71,0H65.66l-1,0c-0.35,0-.68,0-1,0H63.48l-0.25,0-0.48,0-1-.09c-0.67,0-1.52,0-2.27,0l-0.6,0h-0.6c-0.39,0-.75,0-1.06,0l-1,.06a11,11,0,0,1-1.39,0,25.32,25.32,0,0,0-2.61-.06l-0.41,0-0.2,0H51.43l-0.38,0a4.48,4.48,0,0,0-1.1,0,8.47,8.47,0,0,1-1,.12c-0.42,0-.78,0-1.06,0a1.69,1.69,0,0,1-.2-0.06H47.62l-0.12.07c-0.15,0-.3,0-0.44,0H46.41l-0.39,0H45.27a3.69,3.69,0,0,1-.74,0,10,10,0,0,0-1.15-.09,0.52,0.52,0,0,0,.23-0.11,0.41,0.41,0,0,1,.14-0.09l0.16,0a1.15,1.15,0,0,0,.24-0.08l0.21-.11L44.56,92l0.05,0,0.08,0,0.13-.08a5.42,5.42,0,0,1,.43-0.33l0.11-.05,0.08,0a0.3,0.3,0,0,0,.19-0.08l0.2-.15,0.28-.19A0.25,0.25,0,0,1,46.34,91a0.28,0.28,0,0,0,.3-0.15l0,0,0.07,0,0.18-.08,0.31-.18c0.16-.11.5-0.31,0.74-0.45a2.64,2.64,0,0,0,.74-0.55,5.82,5.82,0,0,1,.85-0.74,5.89,5.89,0,0,0,.51-0.48,6.27,6.27,0,0,0,.48-0.56l0.24-.35L51,87A8.93,8.93,0,0,0,52,85.52a2.27,2.27,0,0,1,.24-0.47,0.92,0.92,0,0,0,.19-0.67c0-.07.12-0.48,0.22-0.92s0.16-.84.23-1.08,0.08-.22.1-0.3A1.17,1.17,0,0,0,53,81.73l0-.24a0.26,0.26,0,0,0,0-.08,0.54,0.54,0,0,1,0-.24c2,0.05,4.06,0,6,0,1.08,0,2.15,0,3.17,0s2,0.11,3,.14c1.49,0.06,2.86.06,4.07,0.05V81.5a0.63,0.63,0,0,1,0,.11c0,0.05,0,.11,0,0.17l0.17,0.85,0.05,0.25c0,0.09,0,.19.07,0.28s0.11,0.36.18,0.54c0.17,0.46.33,0.94,0.37,1.09a2.55,2.55,0,0,0,.08.32l0.08,0.18,0.06,0.13a1.56,1.56,0,0,0,.26.37l0.12,0.13,0,0.07,0,0,0,0.07a1.1,1.1,0,0,1,.13.34,1.26,1.26,0,0,0,.47.71,0.77,0.77,0,0,1,.27.35,1.21,1.21,0,0,0,.3.38l0.43,0.36,0.39,0.35,0,0.11a1.45,1.45,0,0,0,.58.55,0.69,0.69,0,0,1,.31.33,0.52,0.52,0,0,0,.29.27Zm14.8,8.2h0ZM117.05,80h0ZM116.48,0.5h0ZM3,80a0.42,0.42,0,0,0-.07.22,1.08,1.08,0,0,0-.06-0.41s-0.06.12,0,0l-0.07,0-0.12-.07a0.49,0.49,0,0,0,.16-0.15,0.3,0.3,0,1,0,.09-0.08H2.84l-0.12-.07a1.08,1.08,0,0,1-.13-0.15,2.3,2.3,0,0,1-.12-0.22,5.79,5.79,0,0,1-.27-2.59v0a0.73,0.73,0,0,0,0-.08V76.12a13.65,13.65,0,0,0-.58-1.74c0-.23-0.51-0.44-0.51-0.62V73.49c0-.09.49-0.17,0.49-0.26a11.11,11.11,0,0,0,.19-1.84l0.1-.14,0-.12c0-.08,0-0.17,0-0.27s0-.42,0-0.67,0-.25,0-0.41l0-.16s0-.08,0-0.12a3.75,3.75,0,0,1,0-.54c0-.38.07-0.82,0.08-1.26a7.88,7.88,0,0,1,.14-1,6.93,6.93,0,0,0,.13-1.19V64.33c0-.78,0-1.54,0-2l-0.07-1,0-.62c0-.22,0-0.47,0-0.76,0-.85,0-2,0-2.48l0-.8c0-.2,0-0.43,0-0.69s0-.54-0.08-0.83A35.26,35.26,0,0,1,2,51c0-.39,0-0.78,0-1.18,0-.2,0-0.41,0-0.61l0-.58c-0.05-.74-0.07-1.47-0.07-2.15,0-1.36,0-2.5,0-3.07l0-3.91c0-1.41,0-2.55,0-4.91l0-3.84c0-.5,0-1,0-1.56,0-.29,0-0.6,0-0.93s0.08-.76.1-1.23,0-1,0-1.48V24.15c0-1,0-1.91,0-2.87-0.06-1.73-.1-2.87-0.17-3.6l0-4.09c0-2.14-.42-4.43-0.33-6.86a10.11,10.11,0,0,1,.15-1.31c0-.19.1-0.43,0.14-0.64A2.68,2.68,0,0,1,2,4.3a2.69,2.69,0,0,1,.67-0.79,6.71,6.71,0,0,1,.82-0.63,4.68,4.68,0,0,1,1.8-.4l0.45,0h0.5c0.32,0,.63-0.07.88-0.09a3.1,3.1,0,0,1,.69,0L8.09,2.41l0.18,0,0.26,0a3.8,3.8,0,0,0,.8,0l0.26,0H9.68l0.11,0A6.76,6.76,0,0,0,11,2.59h0.94c0.59,0,1.06,0,1.44-.08a4,4,0,0,1,.83,0c0.49,0,.82.11,1.28,0.14s0.73,0,1.08,0l1.26,0c0.27,0,.58,0,0.94,0l0.29,0,0.28,0c0.18,0,.36,0,0.57,0,0.41,0,.88,0,1.43,0h1.87c2.44,0,4,0,5.09,0s1.65,0,2.11,0c0.66,0,1.51-.07,3.52-0.12L38,2.42c1.74,0,3.91,0,6.65-.11,1.12,0,2.22-.09,3.28-0.1s2.08,0,3,0c1.87,0,3.42,0,4.31,0l0.89,0,2.09,0h0.29c0.7,0,1.33,0,1.85,0,1.38,0,2.86,0,4.41,0L67.2,2c0.78,0,1.6.06,2.67,0.14,0.77,0.06,1.67.1,2.45,0.08l1.84-.06c0.4,0,1.88-.08,4-0.13C79.15,2,80.33,2,81.6,2s2.63,0,4,0c4.18-.11,6.77-0.19,8.54-0.16s2.74,0,3.62.06c1.38,0,2.74.06,3.9,0.05l4.45,0h2.75c1,0,2.09-.08,2.89-0.12,0.6,0,1.09-.05,1.5-0.05h1.07c0.32,0,.55,0,0.75,0l0.3,0,0.3,0,0.83,0.08h0.11a3.55,3.55,0,0,1,.8,0l0.56,0a1.32,1.32,0,0,1,.36.06,1.53,1.53,0,0,1,.63.51l0.41,0.46L119.5,3l0.1,0.1,0.17,0.18,0.18,0.24a3.63,3.63,0,0,1,.41,1,5.65,5.65,0,0,1,.19,1.22c0,0.42,0,.86,0,1.32l0,1.39c0,0.24,0,.49,0,0.74V9.55l-0.22.37c0,1-.16,1.93-0.16,3v3.81c0,0.28.22,0.57,0.2,0.88,0,0.6,0,1.24,0,1.93,0,0.15.05,0.36,0.07,0.54s0.06,0.36.08,0.53c0,0.35.12,0.67,0.16,1s0.1,0.62.12,0.91v0.21c0,0.07,0,.1,0,0.19l0,0.48c-0.09,1.37,0,2.64.05,3.74L120.58,35l-0.06,3.26v3.58c0,1,0,2,0,2.92s0.06,1.81.08,2.63,0,1.61,0,2.33-0.09,1.49-.11,2.19c-0.08,2.81,0,5.14-.05,7.47,0,0.86,0,2.78.21,6.55,0,0.94.08,2,.1,3.18s0,2.51,0,4q0,1.1,0,2.31,0,0.61,0,1.24a6.21,6.21,0,0,1-.06,1.17,3.53,3.53,0,0,1-.36,1.06,2.64,2.64,0,0,1-.31.46,2.08,2.08,0,0,1-.19.2l-0.06.06,0,0-0.08.06a0.94,0.94,0,0,1-.41.13l-0.36.05-0.21,0-0.18,0c-0.2,0-.4-0.14-0.64-0.14s-0.48-.18-0.74-0.18h0c-0.08,0-1,.32-1,0.31V79.61h0.66V79.7l0-.09h0s0,0.18.05,0.18a0.47,0.47,0,0,1,.07.09s0,0,0,0a0.54,0.54,0,0,1-.12,0s0-.17-0.05-0.17l0-.17h0l-0.14.16a0.81,0.81,0,0,0,0,.11s0,0.06,0,.06v0H116.5l-0.91,0c-0.45,0-.83.08-1.34,0.09h-8.57c-0.93,0-1.77.11-2.55,0.15H102l-1.15-.08-1.16-.09-0.59,0H96.35l-7.43,0L78.8,80H75.62l-2.24,0-2.57,0c-1.45,0-3,0-4.73,0l-1.36,0-1.49-.06c-1,0-2.17,0-3.39,0H54.55c-2.74,0-6.27-.17-10-0.21l-5.56,0-2.71,0H35c-0.46,0-.9,0-1.33.06-0.86.07-1.66,0.18-2.4,0.25s-1.39,0-2.1,0H28.65l-0.51,0-0.68,0-0.9,0c-0.74,0-1.52,0-2.21,0s-1.34,0-1.88,0l-0.82,0-0.86,0L19.15,80c-1,0-1.84,0-2.24,0l-0.79,0h-1c-0.5,0-1.07-.06-1.66-0.09l-0.36,0c-0.43,0-.74,0-1,0H11.77c-0.73,0-1.38,0-2,0H9.47l-0.31,0L8.59,80a7,7,0,0,1-1,.06H6.33c-0.26,0-.61,0-1-0.07L4.89,79.9l-1.44-.22h0a0.23,0.23,0,0,1,.11.1H3.34C3.21,79.89,3.45,79.57,3,80ZM77.48,90.53h0Z"/><path class="cls-5" d="M7.21,57.87l0,5.34c0,3.31.07,6,.15,7.21l0,0.65c0,0.21,0,.43,0,0.64a3.44,3.44,0,0,0,.18.89,0.55,0.55,0,0,0,0,.07l0,0.12a0.82,0.82,0,0,0,.07.18l0.08,0.12a0.8,0.8,0,0,0,.14.13,0.77,0.77,0,0,0,.2.1l0.19,0a0.8,0.8,0,0,0,.36-0.07l0.1,0H9l0.3-.32c0.21,0,.42-0.32.62-0.32H10V73.1a0.45,0.45,0,0,0,.07.1l0.15,0.08,0.11,0,0.08,0a3.87,3.87,0,0,0,.74,0h0.58l1.18,0c0.77,0,1.5,0,2.2,0l1,0,1,0c2.66,0.05,4.78-.07,6.25-0.09,1.87,0,3.66-.07,5.45-0.07h2.7c0.89,0,1.83.06,2.77,0.1l3,0.11,1.69,0,1.72,0.09,1.73,0.09,0.84,0,0.42,0h0.44c1.14,0,2.11-.17,2.91-0.2,0.44,0,.84,0,1.3,0s0.87,0,1.35-.07l1.68-.13a20.33,20.33,0,0,1,2.32,0c3.12,0.06,5.34.06,7.33,0.07l9.21,0.07c2,0.06,4,.07,5.5.06l3,0,1.77,0c1.08,0,3.55,0,6.1,0a63.34,63.34,0,0,0,6.67-.39c1.13-.12,1.84-0.2,2.81-0.28L97,72.78c0.28,0,.59,0,0.91,0a21.37,21.37,0,0,1,2.49.16c1.12,0.12,2,.23,2.67.29s1.23,0.08,1.69.08,0.86,0,1.27-.07l0.55-.05c0.81,0,1.79-.06,3,0,0.59,0,1.26.08,2.06,0.12h0.63a4.53,4.53,0,0,0,.7-0.07l0.26,0h0.23l0.32,0H114a0.16,0.16,0,0,1,.12.08V72.61h0.35v0.55s0,0,0,0l0,0h0l0.08,0h0V72.61h-0.35v0.53c-1,0,0,.19.18,0.05l1,0.16a0.4,0.4,0,0,0,.46-0.3,0.35,0.35,0,0,0-.29-0.41,0.34,0.34,0,0,0-.24.06h0v0a1,1,0,0,0,0-.2,1.23,1.23,0,0,0-.06-0.34c0-.09-0.06-0.17-0.08-0.21l0-.05V71.81l-0.17-1.17-0.11-.73a2.43,2.43,0,0,1,0-.65c0-.41.13-0.9,0.13-1.51a3.47,3.47,0,0,0,0-.48l0-.35c0-.23,0-0.47-0.06-0.71-0.05-1,0-2,0-3a39.41,39.41,0,0,1,.29-4.68l0.07-.52c0-.18,0-0.34.06-0.55,0-.41,0-0.8,0-1.22,0-.83-0.09-1.71-0.15-2.63,0-.46-0.06-0.94-0.06-1.42,0-.24,0-0.49,0-0.74l0-.8c0.07-1.1.19-2.3,0.25-3.63V46.6c0-.13,0-0.32,0-0.48,0-.32,0-0.66-0.08-1-0.08-.68-0.19-1.38-0.21-2.08,0-.18,0-0.35,0-0.52l0-.6,0.06-1.26c0-.86,0-1.75,0-2.67,0-1.83-.09-3.74-0.24-5.62A52.72,52.72,0,0,1,115,27c0-.22,0-0.44,0-0.67l0-.64,0-1.29c0-.86-0.36-1.71-0.39-2.56s-0.39-1.67-.39-2.48V17.08a19.44,19.44,0,0,0,.28-2.19c-0.08-.73-0.07-1.33-0.18-1.88a3.93,3.93,0,0,1,0-.68,4.21,4.21,0,0,1,.06-0.59,4.63,4.63,0,0,0,0-1.25c0-.18-0.06-0.35-0.09-0.51s0-.1,0-0.15V8.61h0V9.44h0V8.61h0V9.34a0.68,0.68,0,0,0-.68-0.69c-2.66,0-3.45,0-5,0l-0.64.06-0.3,0H107.3c-0.36,0-.75,0-1.25,0l-4,0-5.14,0c-1.75,0-3.43,0-5.05.05-0.81,0-1.58-.19-2.39-0.19H87.13c-1.54,0-3,.24-4.39.24-0.7,0-1.34.13-2,.09-0.31,0-.6,0-0.91,0-0.14,0-.34,0-0.49,0H78.91c-0.61,0-1.14,0-1.6,0l-1.46-.11C74,8.7,72.78,8.6,72.31,8.53c-1.74-.19-4.57-0.38-5.16-0.35a8.66,8.66,0,0,1-.89,0c-0.25,0-.91,0-1.46,0H64.73l-1-.09c-1.26-.08-2.61.11-3.86,0.11L58,8.21H56.17a65.5,65.5,0,0,1-6.61-.25C48.21,7.88,46.14,7.81,44,7.86s-4.36,0-6.11.07C36.31,8,35.25,8,34.48,8c-0.62,0-2.4.1-4,.26-0.48,0-.94.09-1.44,0.11s-1,0-1.6,0-1.16,0-1.78,0c-0.31,0-.63,0-1,0.06l-0.48.05-0.44,0c-0.37,0-.73,0-1.08,0s-0.74,0-1.06,0c-0.66,0-1.23.08-1.75,0.11l-2.52.17C16,8.91,15.16,8.93,13.87,9L11.73,9A21,21,0,0,1,9.49,9L9.22,9,8.93,8.9a3.13,3.13,0,0,0-.7,0s0,0,.08,0a0.54,0.54,0,0,1,.2.26,1.65,1.65,0,0,0-.33,0s0,0,0,0a0.26,0.26,0,0,0-.08.09L8,9.37,8,9.43V9.49H7.13S8,9.61,8,9.61H8s-0.87.12-.87,0.11V9.52h0a0.54,0.54,0,0,1,.09.18l0.2,0c0,0.07.1,0.15,0.1,0.22a0.12,0.12,0,0,1-.06-0.11s0,0,0,0l0,0.18,0,0.4c0,0.28,0,.56,0,0.87s0,0.62,0,1v0.13s0,0.06,0,0v0.32l0,0.53L7.53,14.47c0,0.35-.06.79-0.08,1.2,0,0.84-.05,1.73-0.09,2.65s-0.07,1.92-.06,2.95c0,2.05.09,4.27,0.07,6.61,0,0.59,0,1.18,0,1.78L7.25,31.5c0,1.25-.08,2.53-0.1,3.84-0.09,5.24,0,10.93,0,16.83C7.21,54.07,7.22,56,7.21,57.87Zm107,15.32h0ZM72.13,10l4.42,0.3,1,0.06c0.32,0,.62,0,0.9,0h1.15l0.36,0c1,0.08,1.84.07,2.53,0.07h1.76c1.93,0,2.37,0,3.07.06s1.12,0.06,2,.07c0.45,0,1,0,1.78,0s1.71-.09,2.92-0.18,1.91-.13,2.62-0.16,1.27,0,1.73,0c0.92,0,1.42,0,1.81-.05,0.57,0,1.28-.06,3-0.07h2.44l1,0h0.61l0.34,0,0.32,0q0.61-.08,1.3-0.11c0.93,0,2,0,3.14,0h0.51l-0.38.09-0.39,0h0l0.4,0,0.23,0.16c0,0.11.14,0.22,0.16,0.32L113,10.66s0,0.08,0,.12A7.81,7.81,0,0,1,113,12c0,0.11,0,.23,0,0.35s0,0.12,0,.19v0.17c0,0.23.07,0.4,0.11,0.6l0.2,1.05a7.83,7.83,0,0,1,.13,1.72c0,0.51-.67,1-0.66,1.32s-0.65.88-.65,1.31v0.68c0,0.07.67,0.14,0.67,0.21s0.34,0.25.34,0.37,0.17,0.18.18,0.27c0,0.59.12,1.14,0.13,1.58,0,1.19.11,2.47,0.19,3.81,0,0.38.06,0.73,0.08,1.07s0,0.66,0,1c0,0.68-.08,1.39-0.13,2.32a17.85,17.85,0,0,0,0,2.13l0.11,1.58c0,0.34.11,1.61,0.14,3.39,0,0.89,0,1.91,0,3,0,0.54,0,1.11-.07,1.68l0,0.44,0,0.46c0,0.32,0,.64,0,0.95,0.09,0.94.23,1.73,0.27,2.43a15.8,15.8,0,0,1-.06,1.93l-0.23,2.91,0,0.55,0,0.51c0,0.32,0,.6,0,0.85,0,0.51,0,.91.05,1.29,0.06,1.2.14,2.34,0.09,3.26,0,0.18,0,.47-0.06.74s-0.07.64-.1,1c-0.06.7-.11,1.46-0.14,2.1s0,1.52,0,2.4,0,1.77,0,2.5c0,0.27,0,.52.06,0.75s0.06,0.45.08,0.62a2.72,2.72,0,0,1,0,.78c-0.05.47-.13,0.82-0.15,1.25a3.26,3.26,0,0,0,0,.37V70l0,0.17,0.1,0.76c0,0.26.08,0.41,0.12,0.69,0,0,0,0,0,0h0l-0.24.12a2.19,2.19,0,0,0-.29.07c-0.09,0-.25.06-0.43,0.09s-0.3.06-.43,0.06h-0.53c-0.73,0-1.52-.13-2.34-0.14s-1.61,0-2.44,0l-1.27.08c-0.4,0-.81,0-1.23,0-0.68,0-1.53-.07-2.49-0.17s-2-.23-3.2-0.28c-0.29,0-.58,0-0.87,0s-0.61,0-.89,0l-1.7.14c-1.11.1-2.19,0.18-3.16,0.25-1.45.1-2.67,0.16-3.77,0.18s-2.08,0-3,0c-1.89,0-3.62,0-5.88,0-3.54,0-6.3.06-8.68,0s-4.42-.07-6.43-0.13c-1.08,0-4.1-.09-9.19-0.1h-2c-0.74,0-1.49.05-2.26,0.12s-1.55.14-2.35,0.16c-0.4,0-.77,0-1.26,0s-0.92,0-1.38.06l-1.35.09a12,12,0,0,1-1.36,0l-3-.15-0.78,0H38.67L37,72c-1.11,0-2.25-.21-3.42-0.23-0.64,0-1.26-.2-1.86-0.2H30c-1.16,0-2.26.17-3.31,0.17s-2,.08-3,0.08-1.86.06-2.71,0.07c-1.7,0-3.19.05-4.49,0s-2.54,0-3.52,0L11.6,72a4.74,4.74,0,0,1-1,0l-0.23-.06-0.19,0-0.09-.13,0-.12h0c-0.15,0-.29.12-0.42,0.12s-0.25.06-.37,0.06-0.12,0-.18,0H8.82a4.91,4.91,0,0,1-.06-0.61l0-.54,0-.45c0-.56-0.05-1-0.07-1.26,0-.59,0-0.75,0-0.9,0-2.49,0-5.25-.08-9.44,0-1,0-6.84-.12-13.18,0-3.17-.06-6.46,0-9.34,0-2,.07-3.72.13-5.12l0-1c0.07-1.31.09-2.62,0.09-3.6,0-2-.05-4.1-0.06-4.77l0-1.61c0-.49,0-1,0-1.57V18.24c0-.54,0-0.91,0-1.1,0-.63,0-1.17,0-1.67l0.13-1.89,0-.34,0-.33V12.43c0-.26,0-0.56,0-0.9V11.11c0-.2,0-0.44,0-0.69l0.26,0,0.37,0c1,0.07,1.94,0,2.92,0h2.54c0.61,0,1,0,1.53-.08,1.43-.13,3.07-0.26,4.26-0.29,0.56,0,1.27-.06,1.88-0.06a10.23,10.23,0,0,0,1.83-.1c0.28,0,.49-0.09.8-0.12a11.71,11.71,0,0,1,1.18,0c0.74,0,1.73,0,2.15,0l0.69,0,0.6,0,0.71-.06c1-.1,2.26-0.21,3.55-0.28,2.59-.15,5.51-0.09,6.5-0.09l3.38,0c1.19,0,2.19,0,4.21,0,3.2,0.07,3.42.07,6.54,0.21,1.68,0.07,3.28.15,5,.14a17.9,17.9,0,0,0,2.06-.16l1.08-.15c0.31,0,.63,0,1,0l2.5,0.16Zm42.06,63.23h0Z"/><path class="cls-5" d="M114.47,73.25h0C114.41,73.29,114.36,73.33,114.47,73.25Z"/><polygon class="cls-5" points="88.08 94.7 88.08 94.7 88.08 94.7 88.08 94.7"/><path class="cls-5" d="M37.17,99.45h0Z"/><circle class="cls-5" cx="88.08" cy="94.7" transform="translate(-39.85 113.67) rotate(-55.51)"/><path class="cls-5" d="M37.21,99.45h0Z"/><path class="cls-5" d="M88.08,94.7h0Z"/><path class="cls-5" d="M51.8,29.19h0Z"/><path class="cls-5" d="M45.4,36.06h0Z"/><path class="cls-5" d="M57.92,26.36h0Z"/><path class="cls-5" d="M67.87,23.74c-0.7-.14-1-0.19-1.13-0.24a3.74,3.74,0,0,0-1.61-.1,7.15,7.15,0,0,0-.8,0l-0.3,0-0.19,0-0.18,0-0.76.11c-0.91.14-1.86,0.37-2.41,0.48h0a0.29,0.29,0,0,0-.19-0.16,0.24,0.24,0,0,1-.19-0.23,0.19,0.19,0,0,0-.17-0.19,0.12,0.12,0,0,1-.11-0.09,0.16,0.16,0,0,0-.1-0.11L59.42,23a3.59,3.59,0,0,0-.35-0.3,0.5,0.5,0,0,1-.12-0.21,0.38,0.38,0,0,0-.19-0.24A3.17,3.17,0,0,1,58.4,22a0.52,0.52,0,0,0-.31-0.17,0.58,0.58,0,0,0-.29,0l-0.54-.38a2.22,2.22,0,0,1-.85-0.63,0.49,0.49,0,0,0-.35-0.28,0.7,0.7,0,0,0-.4-0.15,1.16,1.16,0,0,1-.73-0.4,3.42,3.42,0,0,0-.55-0.3l-0.13-.05,0,0-0.1-.07a0.48,0.48,0,0,0-.24-0.12,0.41,0.41,0,0,1-.25-0.14,1,1,0,0,0-.19-0.14s-0.3-.16-0.6-0.31a1.88,1.88,0,0,1-.66-0.35A0.4,0.4,0,0,0,52,18.4l-0.31-.06-0.1,0-0.13,0H51.16a1.56,1.56,0,0,0-.33.08l-0.18,0a0.49,0.49,0,0,0-.39.38l0,0.05a1.74,1.74,0,0,0-.34.62c-0.07.21-.19,0.6-0.26,0.88a4,4,0,0,0-.1.43,7.19,7.19,0,0,0-.59-0.44,8,8,0,0,0-.82-0.53L48,19.71l-0.17-.06a1,1,0,0,0-.36-0.05,0.94,0.94,0,0,0-.35.07,0.62,0.62,0,0,0-.24.14l-0.22.2,0,0,0,0.05a0.92,0.92,0,0,0-.11.19c-0.08.19-.11,0.32-0.17,0.45a0.87,0.87,0,0,0,0,.74,0.45,0.45,0,0,1,.06.34,0.74,0.74,0,0,0,.06.36l0.37,0.78a0.34,0.34,0,0,1,0,.09,0.84,0.84,0,0,0,.23.54,0.27,0.27,0,0,1,.07.29,0.47,0.47,0,0,0,0,.11,0.28,0.28,0,0,0,0,.08,0.16,0.16,0,0,0,0,.07,4.67,4.67,0,0,0,.06.53c0,0.17.07,0.37,0.06,0.47a1.14,1.14,0,0,0,.06.51c0,0.18.13,0.58,0.16,0.88a4.53,4.53,0,0,0,.13.74,0.3,0.3,0,0,1,0,.28,0.71,0.71,0,0,0,0,.3,2.77,2.77,0,0,1,0,1.36,0.15,0.15,0,0,0,0,.24,0.09,0.09,0,0,1,.06,0,0.49,0.49,0,0,0,.14.06h0l0,0a0.31,0.31,0,0,0,.09.35c0.12,0.11.13,0.16,0,.3a0.77,0.77,0,0,0,0,.54,0.13,0.13,0,0,1,0,.15,0.28,0.28,0,0,0,0,.18,0.65,0.65,0,0,1,0,.31,0.46,0.46,0,0,0,0,.46,0.48,0.48,0,0,1,0,.17l-0.22.39-0.08,0a0.69,0.69,0,0,0-.28.46,0.3,0.3,0,0,1-.19.24,0.24,0.24,0,0,0-.15.2,2.5,2.5,0,0,0-.31.38,2.06,2.06,0,0,0-.15.22,1,1,0,0,1-.12.16,0.9,0.9,0,0,0-.27.42c-0.09.17-.23,0.52-0.36,0.79a2.8,2.8,0,0,0-.25.67l0,0.08,0,0h0v0l0,0c-0.11.12-.3,0.22-0.49,0.38a6.76,6.76,0,0,1-1.6.92,3.29,3.29,0,0,1-1,.21,3.81,3.81,0,0,0-.61,0l-0.3,0-0.18,0V37.61h0.36v0l0,0h0l-0.19,0a1,1,0,0,1-.72-0.07,1.16,1.16,0,0,0-.48-0.1h-0.2l-0.17,0a0.86,0.86,0,0,0-.2.1l0,0,0,0h-0.6l-0.66.07H39l0.11,0.05a0.72,0.72,0,0,0,0,.12c0,0.05,0,0,0,.07v0a0.89,0.89,0,0,0,0,.29s0,0.09,0,.12v0l0,0.07a0.82,0.82,0,0,0-.08.15L39,39a1.28,1.28,0,0,0,0,.25c0,0.09,0,.39,0,0.67s0,0.54,0,.59a0.68,0.68,0,0,1,0,.12,1.62,1.62,0,0,0,0,.85,0.65,0.65,0,0,1,0,.46,0.51,0.51,0,0,0,0,.38c0,0.14-.06.35-0.11,0.7s-0.07.56-.11,0.7a2.08,2.08,0,0,0-.08.8A5.51,5.51,0,0,0,38.74,46a8,8,0,0,0,.33,1,0.72,0.72,0,0,1,.07.43,1.38,1.38,0,0,0,.11.47,3.69,3.69,0,0,0,.44.76l0,0,0.06,0.06h0l0,0,0.06,0.06a1.91,1.91,0,0,0,.28.21,2.58,2.58,0,0,0,.4.19,3.94,3.94,0,0,1,.8.28,0.3,0.3,0,0,0,.35,0,0.1,0.1,0,0,1,.06-0.05,0.45,0.45,0,0,0,.11-0.13h0l0.06,0a0.51,0.51,0,0,0,.46,0,0.27,0.27,0,0,1,.18-0.06l0.07,0,0.1,0.1a1.51,1.51,0,0,0,.7.23,0.23,0.23,0,0,1,.21.05,0.55,0.55,0,0,0,.24.1,1.35,1.35,0,0,1,.41.17,0.9,0.9,0,0,0,.63.25h0.22l0.21,0.43c0.14,0.31.29,0.69,0.41,1l0.26,0.67A4.4,4.4,0,0,0,46.92,54a2.69,2.69,0,0,1,.62.94,2.36,2.36,0,0,0,.35.6,2.79,2.79,0,0,0,.44.44,1.54,1.54,0,0,1,.42.51l0.12,0.18,0.06,0.08v0l0,0,0,0L49.17,57l0.13,0.11c0.1,0.08.45,0.32,0.7,0.53l0.15,0.14,0,0H49.13V58h0V57.81h0a4.42,4.42,0,0,0,.56.09H50a0.45,0.45,0,0,0,.14.06,0.17,0.17,0,0,1,0,.13,4.4,4.4,0,0,0-.1,1.2,2.47,2.47,0,0,1,0,.35,4,4,0,0,1,0,.43,1.2,1.2,0,0,0,0,.59c0,0.23,0,.56-0.06,1.14a9.43,9.43,0,0,1-.06,1,3.36,3.36,0,0,0,0,1.27,2.78,2.78,0,0,0,.12.53,1.94,1.94,0,0,0,.41.7,2,2,0,0,0,.72.5l0.36,0.12L51.72,66a14.33,14.33,0,0,0,1.63.22,0.86,0.86,0,0,1,.51.18,4,4,0,0,0,.52.25c0.31,0.11.64,0.24,1,.35l0.28,0.07,0.14,0h0.47a1.89,1.89,0,0,0,1.4-.73A3.11,3.11,0,0,1,58,66.07a0.74,0.74,0,0,0,.29-0.54,0.19,0.19,0,0,1,0-.11,0.52,0.52,0,0,0-.07-0.2h0l0.07-.08a1.26,1.26,0,0,0,.19-0.77,0.63,0.63,0,0,1,.2-0.62,3.64,3.64,0,0,0,.22-0.45,3.48,3.48,0,0,0,.2-0.55,0.5,0.5,0,0,1,.12-0.3,1.25,1.25,0,0,0,.18-0.34,3.1,3.1,0,0,1,.32-0.59,1.9,1.9,0,0,0,.45-0.92v0a1.58,1.58,0,0,0,.69.07,0.71,0.71,0,0,1,.6.11,1.08,1.08,0,0,0,.72.15,0.54,0.54,0,0,1,.38.07A1,1,0,0,0,63,61h1l0.1,0a1.22,1.22,0,0,0,.73,0,0.52,0.52,0,0,1,.4,0,0.41,0.41,0,0,0,.34,0,4.63,4.63,0,0,0,.65.09c0.21,0,.48,0,0.6.06a1.66,1.66,0,0,0,.65.05h1.14a5,5,0,0,0,1-.05,0.5,0.5,0,0,1,.36,0,1.06,1.06,0,0,0,.39,0l0.8-.1,0.05,0.13a1.72,1.72,0,0,0,.23.36c0.18,0.23.4,0.46,0.62,0.7a2.38,2.38,0,0,1,.51.67s0,0.15.06,0.26,0,0.21,0,.31,0,0.37,0,.45A2,2,0,0,0,73,65.31a4.72,4.72,0,0,0,.35.46l0.07,0.07,0.1,0.07L73.56,66a3.19,3.19,0,0,0,.34.16,1.29,1.29,0,0,0,1,0A0.82,0.82,0,0,1,75.36,66a1.26,1.26,0,0,0,.48-0.09l0.5-.2,0.5-.15,0.11,0a1.54,1.54,0,0,0,.75-0.14,0.56,0.56,0,0,1,.43,0,0.49,0.49,0,0,0,.37,0c0.14,0,.35,0,0.71,0a2.72,2.72,0,0,0,.92-0.12,1.08,1.08,0,0,0,.61-0.47,1.37,1.37,0,0,0,.19-0.78c0-.17,0-0.39,0-0.6s0-.47,0-0.67a8.56,8.56,0,0,0,0-1A0.54,0.54,0,0,1,81,61.39,1.31,1.31,0,0,0,81,61a5.67,5.67,0,0,1,.21-1.87,0.26,0.26,0,0,0,0-.33,0.1,0.1,0,0,1-.05-0.06,0.44,0.44,0,0,0-.13-0.1h0l0-.06A0.55,0.55,0,0,0,81,58.08a0.29,0.29,0,0,1,0-.42,1.4,1.4,0,0,0,0-.74,0.23,0.23,0,0,1,0-.21,0.52,0.52,0,0,0,0-.25,1.22,1.22,0,0,1,0-.43,0.82,0.82,0,0,0,.05-0.63h0c0.13-.16.26-0.32,0.39-0.52a8.31,8.31,0,0,0,.6-0.95,2.78,2.78,0,0,1,.35-0.45,1.89,1.89,0,0,0,.38-0.59c0.24-.47.22-0.5,0.48-1a2.57,2.57,0,0,0,.3-0.78,1.55,1.55,0,0,0,0-.55c0.15-.39.33-0.89,0.52-1.47a16.77,16.77,0,0,0,.54-1.92,1.13,1.13,0,0,1,.17-0.48,2.4,2.4,0,0,0,.24-1.09,3.42,3.42,0,0,0,0-1,1.71,1.71,0,0,1,0-.5c0-.29,0-0.75,0-1.53,0-.32,0-0.63,0-0.9a3.19,3.19,0,0,0-.07-0.61l0-.19,0-.24c0-.11,0-0.21,0-0.29a2.74,2.74,0,0,0-.1-0.62A2.89,2.89,0,0,1,84.78,39a5,5,0,0,0-.11-0.6c0-.11-0.2-0.83-0.45-1.57a13.68,13.68,0,0,1-.58-1.64,1.71,1.71,0,0,0-.19-0.52l-0.3-.56c-0.1-.18-0.28-0.52-0.4-0.7a1.09,1.09,0,0,1-.24-0.5,1.33,1.33,0,0,0-.39-0.65l-0.05-.06C82,32,81.59,31.86,81.49,31.71s-0.36-.05-0.36-0.08v0s0.34-.07.35-0.11a1.58,1.58,0,0,1,.25-0.11,1.25,1.25,0,0,1,.46-0.15,2.18,2.18,0,0,1,.67,0s0,0.07,0,.1,0,0.22,0,.32,0,0.18,0,.26a2.62,2.62,0,0,0,0,.44,4.2,4.2,0,0,0,.21.81c0.32,0.92.55,1.4,0.72,1.91,0.06,0.13.21,0.5,0.52,1.1,0.07,0.15.17,0.32,0.27,0.5l0.15,0.26L85,37.25a5.15,5.15,0,0,0,.51.69,2.15,2.15,0,0,0,.47.4l0.19,0.1a1,1,0,0,0,.25.08,1,1,0,0,0,.31,0A1.06,1.06,0,0,0,87,38.45a1.31,1.31,0,0,0,.5-0.41,2.19,2.19,0,0,0,.21-0.37l0.05-.12,0-.07v0l0-.08A1.81,1.81,0,0,0,87.93,37a3.53,3.53,0,0,0,0-1,6.66,6.66,0,0,0-.32-1.23c-0.21-.56-0.3-0.76-0.34-0.9A2.1,2.1,0,0,0,87,33.33L87,33.2l-0.11-.14-0.25-.29a9,9,0,0,0-1.12-1.43A6.15,6.15,0,0,0,85,30.86c-0.1-.07-0.18-0.14-0.3-0.22l-0.08-.05,0.06-.05,0,0a0.08,0.08,0,0,0,0,0l0,0,0.09,0a1.59,1.59,0,0,1,.86,0,3,3,0,0,1,.85.43A7,7,0,0,0,86.84,32a3.23,3.23,0,0,0,.74,1.12l0.11,0.09,0.19,0.17,0,0,0.2,0.17a1.65,1.65,0,0,0,.24.17l0.3,0.11c0.15,0,.28.06,0.44,0.11a0.44,0.44,0,0,0,.52-0.21l0-.08a1,1,0,0,0,.11-0.47,1.57,1.57,0,0,0-.16-0.65,7.56,7.56,0,0,0-.77-1.15,8.29,8.29,0,0,1-.9-1.06,1.33,1.33,0,0,0-.16-0.21,3,3,0,0,1,0-.73,0.76,0.76,0,0,1,.29-0.51,0.56,0.56,0,0,1,.55,0c0.09,0.21.18,0.39,0.22,0.47a2.7,2.7,0,0,1,.15.47,1,1,0,0,0,.1.28,1.59,1.59,0,0,0,.29.38l0.14,0.13,0.18,0.12a1.11,1.11,0,0,0,.52.15,1,1,0,0,0,.56-0.15,1.17,1.17,0,0,0,.31-0.28,0.77,0.77,0,0,0,.14-0.76h0l-0.12-.34a1.64,1.64,0,0,0-.38-0.65,1.09,1.09,0,0,0-.43-0.29A3.07,3.07,0,0,0,89.9,28l-0.16-.12c0-.06-0.31-0.12-0.33-0.18l-0.28,0V27.57a1.05,1.05,0,0,1,.28-0.08,0.89,0.89,0,0,1,.22-0.21,0.26,0.26,0,0,1,.18,0h0.1l0.23-.06a0.84,0.84,0,0,1,.42,0l0.11,0.07A1.47,1.47,0,0,1,90.73,27l0,0s0,0.09.14-.29c0.35-1,.11-0.38.18-0.59h0l0,0c0-.05,0-0.05.09-0.19l0.06-.09H91.1l-0.1,0-0.46-.11a1.2,1.2,0,0,0-.76,0,7.26,7.26,0,0,0-.9.38,1,1,0,0,0-.51.73,1.63,1.63,0,0,1-.09.42,1.12,1.12,0,0,0,0,.27,1.84,1.84,0,0,0-.54.13,1.92,1.92,0,0,0-.63.42,3,3,0,0,1-.38.39,0.82,0.82,0,0,0-.21.29,1.72,1.72,0,0,0-.11.32s-0.12.1-.13,0.16l-0.11,0h0l0.1,0s0,0,0,.06,0,0,0,0A0.82,0.82,0,0,1,86,29.21a0.84,0.84,0,0,0-.69-0.11H85.19a1.9,1.9,0,0,0-1.4.41l-0.14.12-0.06.06,0,0h0l0,0h0l0,0L83.32,30a3.19,3.19,0,0,0-.4-0.1,2.1,2.1,0,0,0-.82,0,2.29,2.29,0,0,0-.58.24,0.74,0.74,0,0,0-.25.18,2.36,2.36,0,0,0-.27.26c-0.3-.37-0.7-0.82-1-1.17a8.24,8.24,0,0,0-1.61-1.4c-1-.67-1.56-1-2.11-1.38-0.15-.09-0.58-0.36-1.35-0.73-0.38-.18-0.85-0.39-1.41-0.61-0.28-.11-0.59-0.22-0.92-0.33l-1-.32C69.71,24.14,68.57,23.88,67.87,23.74Zm-2.42,3.54h0Zm-1.73-1.18h0.53a0.12,0.12,0,0,1-.12,0,0.33,0.33,0,0,0-.19,0,0.53,0.53,0,0,1-.24,0S63.72,26.13,63.72,26.09Zm0,0s0,0,0,0h0Zm-0.34.56h0Zm3.25-1.73a4.4,4.4,0,0,1-1.21-.12l-0.09,0A12.1,12.1,0,0,1,66.64,24.9ZM47.16,20.63h0a0,0,0,0,1,0,0h0v0h0l0.05,0.08H47.16Zm2,1.49a0.57,0.57,0,0,0,.19.16l0.1,0c0,0.09,0,.28-0.06.6l0,0.62,0,0.81a11.92,11.92,0,0,1-.15,2,0.82,0.82,0,0,0,0,.64c0,0.13.08,1.4,0,1.88,0,0.1,0,.21-0.05.28a1,1,0,0,0,0,.32l0.06,0.19A0.48,0.48,0,0,0,49,29.58c0-.12,0-0.27,0-0.44,0-.63-0.07-0.64,0-0.71s0.08-.09,0-0.32a0.37,0.37,0,0,0-.1-0.29c-0.07,0-.11-0.13-0.08-0.57a1.92,1.92,0,0,0-.05-0.43,0.4,0.4,0,0,1,0-.1v0a0.25,0.25,0,0,1,0-.09,0.24,0.24,0,0,0,0-.18,0.25,0.25,0,0,1,0-.21,0.54,0.54,0,0,0,0-.18s0-.24-0.08-0.47a0.74,0.74,0,0,1-.06-0.5,0.19,0.19,0,0,0,0-.16,1.1,1.1,0,0,1-.07-0.17,1.66,1.66,0,0,0-.09-0.22c0-.09,0-0.12,0-0.17a0.14,0.14,0,0,0,0-.22l0,0a1.21,1.21,0,0,0,0-.38l-0.14-.62a1.24,1.24,0,0,0-.2-0.56,1.34,1.34,0,0,1-.23-0.64l-0.09-.39c0-.11-0.05-0.23-0.08-0.37v0l0,0a0.27,0.27,0,0,0,.31.14l0.48,0.28A3.4,3.4,0,0,1,49,22Zm2.16-2.66s-0.08.07-.12,0.06h0.06s0,0,0,0a0.06,0.06,0,0,1,0,0h0S51.3,19.45,51.3,19.46Zm0,0.06h0S51.37,19.48,51.32,19.53ZM41.57,48.14A3.39,3.39,0,0,1,40.94,48c-0.08,0-.07,0-0.07-0.1a0,0,0,0,1,0,0l-0.06-.07h0l0,0a0.55,0.55,0,0,0-.21-0.23c-0.08,0-.17-0.1-0.28-0.68a4.14,4.14,0,0,0-.17-0.56,0.71,0.71,0,0,1,0-.12v0a0.48,0.48,0,0,1,0-.12A0.46,0.46,0,0,0,40,45.75a0.33,0.33,0,0,1-.05-0.25,0.84,0.84,0,0,0,0-.2,2.46,2.46,0,0,1,0-.56,1,1,0,0,1,.05-0.64A0.31,0.31,0,0,0,40,43.9a1.72,1.72,0,0,1,0-.25c0-.08,0-0.22,0-0.32A0.21,0.21,0,0,1,40,43.11a0.24,0.24,0,0,0,0-.31v0a2.2,2.2,0,0,0,.06-0.22V42.38c0-.06,0-0.12,0-0.18s0-.56,0-0.82a2.53,2.53,0,0,0,0-.81,1.94,1.94,0,0,1,.05-0.91l0-.17c0-.08.05-0.19,0.08-0.28l0-.11,0-.07,0,0v0L41,39l0.23,0s0.08-.23.11-0.23,0.1-.23.15-0.23h0.08l0,0.23S41.64,39,41.67,39,41.78,39,41.83,39s0.19,0,.27,0a1.88,1.88,0,0,1,.51,0,0.86,0.86,0,0,0,.68-0.19,4.64,4.64,0,0,0,.9-0.39c0.19-.1.37-0.21,0.54-0.32a0.29,0.29,0,0,0,0,.32c0.09,0.13.1,0.18-.05,0.28a0.66,0.66,0,0,0-.09.5c0,0.07,0,.12,0,0.15a0.25,0.25,0,0,0,0,.17,0.62,0.62,0,0,1-.07.28,0.39,0.39,0,0,0-.09.43,0.37,0.37,0,0,1,0,.2l0,0h0.3l0,0,0.31,0,0.61,0h0l0.21,0h0.08v0a0.3,0.3,0,0,1,0-.11,0.12,0.12,0,0,0,0-.16c-0.07-.06,0-0.12,0-0.16S46,40,46,40a0,0,0,0,1,0-.08,0.06,0.06,0,0,0,0-.08s0-.11,0-0.22a2,2,0,0,0,0-.26,0.19,0.19,0,0,1,.09-0.12,0.14,0.14,0,0,0,.08-0.15,0.77,0.77,0,0,1,0-.25,0.2,0.2,0,0,0,0-.2A0.55,0.55,0,0,0,46,38.44a2.81,2.81,0,0,1,.07-0.37c0.16-.5.12-0.53,0.23-0.55s0.1,0,.14-0.23a0.3,0.3,0,0,0,0-.26c0-.06-0.06-0.14.14-0.46a1.61,1.61,0,0,0,.13-0.34,0.27,0.27,0,0,1,0-.08v0l0-.06a0.18,0.18,0,0,0,.06-0.14,0.18,0.18,0,0,1,.09-0.15A0.38,0.38,0,0,0,47,35.66a3,3,0,0,1,.17-0.35A0.48,0.48,0,0,1,47.39,35a0.14,0.14,0,0,0,.1-0.1,0.82,0.82,0,0,1,0-.15l0-.09v0s0,0,0,0h0v0c0-.08,0-0.1.1-0.1a0.1,0.1,0,0,0,.1-0.15,0.09,0.09,0,0,1,0,0A1,1,0,0,0,48,34a3.3,3.3,0,0,1,.31-0.38,1,1,0,0,0,.29-0.42A1.08,1.08,0,0,1,49,32.7c0.06-.06.33-0.36,0.8-0.92L50,31.54l0.11-.13,0.09-.11L50.44,31a0.56,0.56,0,0,1,.21-0.19,0.31,0.31,0,0,0,.21-0.31,4.11,4.11,0,0,1,.67-0.8l0.12,0a0.16,0.16,0,0,0,.11-0.06,2.21,2.21,0,0,1-.31-0.09H51.13s0.34,0,.33,0a0.16,0.16,0,0,1,.12,0h0.06s0,0,0,0a0.07,0.07,0,0,0,0,0h0a0.12,0.12,0,0,1,0,0h0v0h0l0-.08,0-.07h0V28.61h0s0,0.29,0,.28a2.68,2.68,0,0,1,0-.27c0-.22-0.07-1-0.08-1h0V28a0.21,0.21,0,0,0,0,.09s0,0.1,0,.1v0.06l0,0,0,0-0.1,0-0.18,0-0.1,0-0.07,0-0.15.08a3.93,3.93,0,0,0-.62.48c0-.46,0-1,0-1.56a10.37,10.37,0,0,1,.08-1.21,2.56,2.56,0,0,0,0-1.16,0.92,0.92,0,0,1,0-.72,1.23,1.23,0,0,0,.11-0.44,1.29,1.29,0,0,0,0-.43,0.7,0.7,0,0,1,0-.44,1.42,1.42,0,0,0,.06-0.48c0-.15,0-1.07,0-1.16l0.05-.11a1.76,1.76,0,0,0,.08-0.8A0.54,0.54,0,0,1,51,20.08a0.45,0.45,0,0,0,.11-0.32l0-.06,0.07-.11,0.16,0.06a2.5,2.5,0,0,0,.6.3l1.2,0.6c0.4,0.19.81,0.42,1,.46a0.59,0.59,0,0,1,.32.25,1.47,1.47,0,0,0,.34.27c0.39,0.21.81,0.46,1.1,0.65a1.35,1.35,0,0,1,.48.45,0.25,0.25,0,0,0,.26.19,0.1,0.1,0,0,1,.08,0,0.46,0.46,0,0,0,.16-0.05h0l0,0.06a0.57,0.57,0,0,0,.43.24,0.29,0.29,0,0,1,.33.27,1.61,1.61,0,0,0,.55.52,0.23,0.23,0,0,1,.17.14,0.57,0.57,0,0,0,.17.19,1.13,1.13,0,0,1,.26.32l-0.31.16a0.91,0.91,0,0,0-.21.11,4.15,4.15,0,0,1-.59.27,1.45,1.45,0,0,0-.19.1l-0.16.11-0.09.05-0.14.08-0.1,0h0l0.07,0.05h0a0,0,0,0,0,0,0c0.07,0.09-.14-0.17.15,0.22a3.75,3.75,0,0,0,.52.52h0l0,0,0.06,0.09h0v0l0-.05L58,26.21a5.72,5.72,0,0,1,1.34-.56,19.52,19.52,0,0,1,2.14-.54,21.5,21.5,0,0,1,2.59-.37,8.17,8.17,0,0,1,1,0,0.78,0.78,0,0,0-.21.06c-0.05,0-.35,0-0.69,0l-0.56,0a2.14,2.14,0,0,0-.34.06l-0.14,0H63.16l-0.08,0a1.12,1.12,0,0,0-.43.37,1.18,1.18,0,0,0-.17.34,0.77,0.77,0,0,0,0,.19,2.1,2.1,0,0,0,0,.25,0.18,0.18,0,0,0,0,.07,0.35,0.35,0,0,1,0,.24,0.24,0.24,0,0,0,0,.06,0.16,0.16,0,0,0,0,0h0a0.06,0.06,0,0,1,0,0h0.12c0.1,0-.13,0,0.1,0h-0.3v0.05a0.53,0.53,0,0,1,0,.15,0.32,0.32,0,0,1,0,.05l0.72,0.85a0.38,0.38,0,0,0,.3,0,0.33,0.33,0,0,1,.33,0,0.17,0.17,0,0,0,.24,0,0.1,0.1,0,0,1,.12-0.05,0.12,0.12,0,0,0,.12,0l0.29-.12a2.46,2.46,0,0,0,.31-0.13,0.25,0.25,0,0,1,.18,0,0.18,0.18,0,0,0,.2,0l0.11,0a0.59,0.59,0,0,1,.11-0.35l0-.33H65.13v0.67h0V26.61h0.31v0.33s0,0.16.06,0.16,0.08,0.06.11,0A0.45,0.45,0,0,0,65.76,27a3.76,3.76,0,0,1,.46,0c0.65,0,.67,0,0.72.12s0.08,0.1.31,0.1a0.45,0.45,0,0,0,.33,0,0.66,0.66,0,0,1,.62.07,2.46,2.46,0,0,0,.44.08h0.13l0.08,0a0.24,0.24,0,0,0,.18,0,0.23,0.23,0,0,1,.2.07,0.61,0.61,0,0,0,.15.08,1.85,1.85,0,0,1,.41.17,0.93,0.93,0,0,1,.27.13l0,0.1,0,0,0,0a0.13,0.13,0,0,0,.08.11l0.13,0.08h0l0.12,0.09a0.57,0.57,0,0,0,.8-0.1A0.56,0.56,0,0,0,71.33,28a0.33,0.33,0,0,0,.06-0.16,0.32,0.32,0,0,0,0-.09,0.57,0.57,0,0,0,0-.2l-0.1-.21,0-.08,0.09-.05-0.06-.07a0.2,0.2,0,0,0-.07-0.25l0,0a1.17,1.17,0,0,0-.25-0.59l-0.13-.15L70.63,26a3.53,3.53,0,0,0-.35-0.3l-0.13-.09a4.94,4.94,0,0,1,1.17.38,8.89,8.89,0,0,0,.95.38c0.33,0.12.67,0.22,0.93,0.29a3,3,0,0,1,1,.42c0.42,0.24.72,0.41,1,.54s0.73,0.36,1.26.67c0.27,0.16.52,0.32,0.72,0.45L77.51,29l0.19,0.2c0.12,0.12.4,0.38,0.7,0.63s0.61,0.52.79,0.66a2.83,2.83,0,0,1,.72.82,3.65,3.65,0,0,0,.57.74c0.2,0.3.49,0.74,0.92,1.5a16.49,16.49,0,0,1,.73,1.51c0.13,0.4.34,0.9,0.64,1.66a19.34,19.34,0,0,1,.83,3c0.21,1,.29,2.18.35,2.53a2.69,2.69,0,0,1,0,1c0,0.26,0,.45-0.08,1a11.6,11.6,0,0,1-1,4.46,1.48,1.48,0,0,0-.27.75,0.26,0.26,0,0,1,0,.15,0.84,0.84,0,0,0,0,.26h0L82.58,50a3.6,3.6,0,0,0-.4,1.11,1.43,1.43,0,0,1-.47.93,14.71,14.71,0,0,0-.92,1.57,1.07,1.07,0,0,1-.27.43,4.43,4.43,0,0,0-.38.45L80,54.61l-0.16.16a4,4,0,0,1-.42.33,5.37,5.37,0,0,0-1.28.95c-0.16.17-.34,0.35-0.55,0.54l-0.17.12a0.59,0.59,0,0,1,.24.18,0.1,0.1,0,0,0,0,.06s-0.08-.06.19,0.25c0.79,0.76.3,0.26,0.46,0.41h0l0,0,0.13,0.16,0.06,0.09a0,0,0,0,1,0,0v0l0,0,0.06-.07a2.87,2.87,0,0,1,.31-0.27A1.57,1.57,0,0,0,79.39,57a1,1,0,0,1,.3-0.28c0,0.15,0,.3,0,0.35a0.39,0.39,0,0,1-.08.21,0.31,0.31,0,0,0-.06.26,1.94,1.94,0,0,1,0,.41,0.43,0.43,0,0,0,.05.31,0.57,0.57,0,0,0,.19.2c0,0.16,0,.36,0,0.59a1.54,1.54,0,0,1-.13.94,0.44,0.44,0,0,0-.09.42,0.63,0.63,0,0,0,.05.4,1,1,0,0,1,0,.78,4.86,4.86,0,0,1-.27.58s-0.25.09-.25,0.13v0s0.25,0.08.24,0.11a0.67,0.67,0,0,0,.13.24,0.43,0.43,0,0,1,0,.28,0.71,0.71,0,0,0,0,.23s0,0.34,0,.63a1.86,1.86,0,0,1,0,.26v0h0s0,0,0,0l0,0-0.21.07-0.13,0a0.12,0.12,0,0,1-.08,0,0.22,0.22,0,0,0-.29,0l0,0a2.08,2.08,0,0,0-.53,0l-0.8,0a2.13,2.13,0,0,0-.83.13l-0.55.16a2.74,2.74,0,0,1-.44.09l-0.54.12-0.51.1a2.58,2.58,0,0,1-.4,0l0-.16c0-.19-0.08-0.36-0.09-0.49a1.22,1.22,0,0,1,0-.43,0.75,0.75,0,0,0-.14-0.61,2.08,2.08,0,0,0-.09-0.33l-0.07-.19-0.06-.13a2.05,2.05,0,0,0-.27-0.4c-0.29-.33-0.57-0.57-0.71-0.73l-0.14-.22L72.46,61v0h0l0.06,0a0.46,0.46,0,0,0,.42-0.17,0.25,0.25,0,0,1,.37-0.09A1.15,1.15,0,0,0,74,60.54a0.21,0.21,0,0,1,.19-0.09,0.43,0.43,0,0,0,.22-0.06,0.77,0.77,0,0,1,.35-0.09,0.47,0.47,0,0,0,.44-0.06,0.21,0.21,0,0,1,.14-0.07l0,0c0-.06,0,0.09,0-0.3v0a1.09,1.09,0,0,0,0-.31,1.61,1.61,0,1,0,0-.61h0c0-.06,0-0.06,0-0.21a0.74,0.74,0,1,0,0-.1H75.1a0.35,0.35,0,0,0-.31.09,0.25,0.25,0,0,1-.29.07,0.17,0.17,0,0,0-.23.07,0.1,0.1,0,0,1-.11.06A0.12,0.12,0,0,0,74,59l-0.28.14-0.18.08-0.1.05h-0.1l-0.08,0a0.24,0.24,0,0,0-.23,0,1.36,1.36,0,0,1-.34.1,0.34,0.34,0,0,0-.25.11,0.56,0.56,0,0,0-.13.22c-0.13,0-.3.08-0.51,0.11C71.11,59.9,71.1,60,71,59.87a0.34,0.34,0,0,0-.36,0,0.48,0.48,0,0,0-.33.1,0.72,0.72,0,0,1-.66.07,2.9,2.9,0,0,0-.5,0l-0.11,0H68.92a0.32,0.32,0,0,0-.21,0,0.33,0.33,0,0,1-.24,0l-0.2,0a5.4,5.4,0,0,1-.55,0,1,1,0,0,1-.59,0,0.25,0.25,0,0,0-.19,0l-0.22,0-0.27,0c-0.12,0-.15,0-0.19,0a0.17,0.17,0,0,0-.25,0h0a1.78,1.78,0,0,0-.46-0.08,6.25,6.25,0,0,1-.68-0.08,1.83,1.83,0,0,0-.7,0,2,2,0,0,1-.83-0.06l-1.66-.27A6.38,6.38,0,0,1,60,59a0.58,0.58,0,0,0-.53-0.08l-0.25,0-0.45-.06A5.52,5.52,0,0,1,58,58.64l-0.24-.1a0.83,0.83,0,0,0-.3-0.07l-0.22,0H57.14a0.48,0.48,0,0,1-.27,0H56.68a0.21,0.21,0,0,1-.07,0h0s0,0,0,.09h0v0c0,0.11,0-.22,0,0.26,0,0.23,0,.71.06,0.74h0c0,0.07,0,.1,0,0.11h0l0,0a2.8,2.8,0,0,1,.45.08c0.36,0.07.85,0.25,1.45,0.38a0.34,0.34,0,0,0,0,.11,0.4,0.4,0,0,1-.17.36,0.35,0.35,0,0,0-.15.32,0.21,0.21,0,0,1-.06.19,0.32,0.32,0,0,0-.09.19s-0.11.27-.2,0.51-0.21.52-.25,0.61a1,1,0,0,1-.2.28,0.87,0.87,0,0,0-.22.43,6.21,6.21,0,0,1-.19.63,1,1,0,0,0-.09.47,0.81,0.81,0,0,0,.08.34,4,4,0,0,1-.34.77,1.59,1.59,0,0,1-.35.41l-0.1.06h0s0,0,0,0H56.19l-0.06,0h0a0.86,0.86,0,0,0-.51-0.2,1.52,1.52,0,0,0-.57-0.14,0.6,0.6,0,0,1-.31,0c-0.17-.05-0.45-0.18-0.94-0.33a5.36,5.36,0,0,0-.93-0.15H52.76l-0.12,0-0.16,0a1,1,0,0,0-.35-0.06,0.79,0.79,0,0,1-.4-0.1l-0.2-.11-0.06,0-0.09-.07a0.68,0.68,0,0,1-.17-0.29,1.39,1.39,0,0,1-.09-0.56,1,1,0,0,1,.05-0.28A0.7,0.7,0,0,0,51.23,63c0-.09,0-0.25,0-0.39s0-.16,0-0.25V62.12a0.43,0.43,0,0,1,0-.34,0.47,0.47,0,0,0,0-.44v0a5.31,5.31,0,0,0,.06-0.82c0-.14,0-0.35,0-0.57a2.2,2.2,0,0,1,.06-0.54c0.06-.26.11-0.47,0.14-0.66a3,3,0,0,0,0-.68,2.31,2.31,0,0,0-.05-0.4V57.53l0-.05,0-.05h0v0l0-.06-0.05-.1a2.43,2.43,0,0,0-.36-0.43c-0.2-.19-0.36-0.33-0.49-0.48l-0.22-.2L50.07,56l0,0,0,0h0l-0.11-.14-0.59-.7-0.37-.44-0.17-.22-0.19-.26a12.41,12.41,0,0,1-1.09-1.88,2.6,2.6,0,0,1-.23-0.62,1.71,1.71,0,0,0-.39-0.83c0-.05-0.08-0.19-0.19-0.42s-0.26-.51-0.41-0.79a11.52,11.52,0,0,1-.64-1.26L45.51,48a2.46,2.46,0,0,0-.12-0.4l-0.14-.25,0-.08a0.37,0.37,0,0,1,0-.27,0.26,0.26,0,0,0,0-.07s0,0,0-.08v0a0.45,0.45,0,0,1,0-.12H45.09c-0.11,0,.22,0-0.26,0a6.08,6.08,0,0,0-.74,0h0v0H43.95s0,0,0,0v0l0,0a0.47,0.47,0,0,1,0,.09c0,0.11,0,.31,0,0.49a3.17,3.17,0,0,0,.12.59,6.69,6.69,0,0,0,.22.65l-0.21-.05a4,4,0,0,0-.42-0.11,0.45,0.45,0,0,1-.19-0.14,0.36,0.36,0,0,0-.26-0.13l-0.22,0L42.8,48a0.56,0.56,0,0,0-.62.16ZM74.07,65h0ZM50,55.9h0ZM86.61,37.12L86.47,37c-0.14-.18-0.3-0.4-0.44-0.55a1.33,1.33,0,0,1-.19-0.26,3.75,3.75,0,0,1-.21-0.45,6.21,6.21,0,0,0-.38-0.82c-0.07-.12-0.31-0.56-0.5-1a8.19,8.19,0,0,1-.37-1,1,1,0,0,1,0-.21,2,2,0,0,0,0-.29c0-.12,0-0.26-0.06-0.4V31.94a6.31,6.31,0,0,1,.78.89A10.77,10.77,0,0,1,85.76,34a6.31,6.31,0,0,1,.36.78,13.11,13.11,0,0,1,.51,1.88,0.78,0.78,0,0,1,0,.49h0Zm-0.11.15,0.06,0h0l0,0,0,0ZM39.18,38.61h0a0.3,0.3,0,0,1,0,0v0S39.18,38.67,39.18,38.61Zm49.88-4.7,0,0h0l0.47-.23Zm0.06-6.2h0Z"/><path class="cls-5" d="M49.71,38.13a0.6,0.6,0,0,0,.07.58,0.42,0.42,0,0,1,.09.3,0.6,0.6,0,0,0,.13.34,2.63,2.63,0,0,0,.33.34,2.51,2.51,0,0,0,.36.25L50.75,40a0.73,0.73,0,0,0,.61.23,0.44,0.44,0,0,1,.34.09,0.27,0.27,0,0,0,.29,0l0.06,0,0.2,0h0.24l0,0.11v0.11h0l0.05-.12a2.24,2.24,0,0,0,.23-0.1c0.12,0,.23-0.11.3-0.12a1,1,0,0,0,.54-0.36A2.75,2.75,0,0,0,54.2,39a1.82,1.82,0,0,0,.17-0.75A0.33,0.33,0,0,1,54.47,38a0.59,0.59,0,0,0,.07-0.29,11,11,0,0,1-.1-1.36,0.16,0.16,0,0,0-.08-0.24,0.82,0.82,0,0,1-.07-0.26,0.48,0.48,0,0,0-.15-0.25h0s0,0.21,0,.19-0.1-.12-0.24-0.16-0.2,0-.19-0.2a0.66,0.66,0,0,0-.45-0.39A0.21,0.21,0,0,1,53.08,35a0.33,0.33,0,0,0-.2-0.1l-0.38-.12a0.53,0.53,0,0,0-.58,0,0.69,0.69,0,0,1-.21.12H51.63a1.73,1.73,0,0,1,.11.27,0.06,0.06,0,0,0,0,0s0,0,0,0h0l0-.11h0v0l0,0a0.71,0.71,0,0,1-.16,0,1.25,1.25,0,0,0-.26.09,2.3,2.3,0,0,0-1,.91,8,8,0,0,0-.39.71,0.86,0.86,0,0,0-.11.77A0.51,0.51,0,0,1,49.71,38.13ZM52.06,36h0l0.07,0.2,0,0.1H51.66a2.68,2.68,0,0,1,.31,0s0.17,0,.18,0,0.1-.06.11,0,0.05,0.06.06,0,0,0,0,0,0,0,0,0a0.12,0.12,0,0,1,.06,0l0.09,0a0.09,0.09,0,0,1,0,.09s0,0.07,0,.08a0.16,0.16,0,0,1,.09.09,0.09,0.09,0,0,0,.11.06,0.83,0.83,0,0,0,.21,0,0.92,0.92,0,0,1,.12.25c0.08,0.39.13,0.4,0,.45s-0.08.06,0,.2a0.2,0.2,0,0,0,.08.18c0.07,0,.11.1,0,0.37a1,1,0,0,0,0,.27,0.15,0.15,0,0,1,0,.06v0a0.1,0.1,0,0,1,0,0,0.09,0.09,0,0,0,0,.1,0.08,0.08,0,0,1-.06.11,0.2,0.2,0,0,0-.07.07,0.72,0.72,0,0,1-.13.2C52.7,39,52.64,39,52.59,39s-0.07,0-.08,0l0,0.06,0,0-0.07,0-0.08,0h0V38.61H51.13v0.53l1.15-.53H51.13v0.52h0.58c0-.07.2-0.07,0.17,0H52a0.26,0.26,0,0,0-.14-0.05l-0.1,0L51.65,39a0.3,0.3,0,0,0-.22-0.1,0.23,0.23,0,0,1-.22-0.2A2.17,2.17,0,0,1,51,38a1.67,1.67,0,0,1,.06-0.61,0.23,0.23,0,0,1,.1-0.16c0.09,0,.11-0.09.06-0.23s0.06-.16.14-0.29a0.54,0.54,0,0,1,.25-0.25h0.09a0.1,0.1,0,0,0,.1,0s-0.35,0-.34-0.08H51.13a2.94,2.94,0,0,1,.38,0,1.1,1.1,0,0,1,.25,0H52a0.18,0.18,0,0,1,.1,0h0a0.55,0.55,0,0,1-.05-0.08h0v0L52,35.91l-0.12-.38Z"/><path class="cls-5" d="M51.71,35.08h0Z"/><path class="cls-5" d="M62.55,15a6.6,6.6,0,0,0-.84,1.44,2.43,2.43,0,0,0-.22,1.61l0,0.13v0.06l-0.2,0-0.2,0h0v0h0.21a2.39,2.39,0,0,1,.15.22,3.07,3.07,0,0,1,.06.48,1.71,1.71,0,0,0,.12.62,2.44,2.44,0,0,0,.13.3,1.77,1.77,0,0,0,.16.23,0.93,0.93,0,0,1,.14.21,3.51,3.51,0,0,1,.17.34,1.93,1.93,0,0,0,.39.57,7,7,0,0,0,.67.54,4.06,4.06,0,0,0,.43.27L64,22.28l0.12,0.11a2.05,2.05,0,0,0,1.09.41,1.68,1.68,0,0,1,.63.17,1,1,0,0,0,.55.08,4,4,0,0,0,1.07,0l0-.23,0-.23h0l0,0.23,0.06,0.11,0.12,0H68l0.47-.1a2.4,2.4,0,0,0,1-.47,4.33,4.33,0,0,0,.67-0.58A5.18,5.18,0,0,0,70.82,21a4,4,0,0,0,.53-1.46A1.49,1.49,0,0,1,71.51,19a1.84,1.84,0,0,0,.1-0.6,4.4,4.4,0,0,0,0-.48c0-.16,0-0.31,0-0.46l0-.22V17.09l0-.14c0-.13,0-0.22-0.08-0.37l-0.12-.4-0.11-.29a1.76,1.76,0,0,1-.1-0.34,0.52,0.52,0,0,0-.27-0.43,0.86,0.86,0,0,1-.1-0.26,0.52,0.52,0,0,0-.19-0.25h0a0.35,0.35,0,0,1,0,.13,0.8,0.8,0,0,0-.54-0.35,0.54,0.54,0,0,1-.46-0.34,1.74,1.74,0,0,0-.39-0.31,2,2,0,0,0-.52-0.22,0.47,0.47,0,0,1-.29-0.1,0.82,0.82,0,0,0-.34-0.14,5.92,5.92,0,0,1-.6-0.2,1.34,1.34,0,0,0-1-.13A2.67,2.67,0,0,1,66,13l-0.12,0a1,1,0,0,1,.06.29,3.49,3.49,0,0,0-.41,0,0.29,0.29,0,0,0-.36.31h0a0.66,0.66,0,0,1,.33-0.28h0.27a0.15,0.15,0,0,1,0-.11h0l0,0-0.06,0c-0.1,0-.21,0-0.36,0a2.82,2.82,0,0,0-.51.12,5,5,0,0,0-1.16.53A4.58,4.58,0,0,0,62.55,15ZM66,14.25h0c0,0.06,0,.06,0,0.21a1,1,0,1,0,0,.1h0.07a0.83,0.83,0,0,1,.18,0,0.29,0.29,0,0,0,.25,0,0.19,0.19,0,0,1,.27,0,0.18,0.18,0,0,0,.24,0,0.11,0.11,0,0,1,.14,0,0.16,0.16,0,0,0,.14,0l0.36,0.09c0.16,0.08.36,0.13,0.41,0.17a0.41,0.41,0,0,1,.16.17,0.36,0.36,0,0,0,.21.2,1.63,1.63,0,0,1,.35.26,0.57,0.57,0,0,0,.28.19,0.67,0.67,0,0,0,.29,0,3.15,3.15,0,0,1,.4.54,2.6,2.6,0,0,1,.14.28,1.37,1.37,0,0,1,.09.21,2,2,0,0,1,.09.27,1,1,0,0,1-.49.26s-0.51.06-.51,0.08h0v0.27h0V17h0v0.32l0.48,0,0.24,0s0.12,0,.12,0,0.07,0.16.11,0.34a0.79,0.79,0,0,0,.12.45,1,1,0,0,1,0,.89,1.91,1.91,0,0,1-.09.38,1.42,1.42,0,0,0-.06.26,1,1,0,0,1,0,.13l0,0.06a0.43,0.43,0,0,1-.06.11,0.5,0.5,0,0,0-.12.24,0.45,0.45,0,0,1-.17.26c-0.06.07-.15,0.15-0.17,0.18a2.09,2.09,0,0,1-.47.48,0.92,0.92,0,0,1-.62.35,0.37,0.37,0,0,0-.22.06l-0.22.1a3.3,3.3,0,0,1-.35.12,0.32,0.32,0,0,1-.18-0.07V21.61H66.13v0h1.24v0.11s0,0,0,0a0.12,0.12,0,0,1,0,0,0.27,0.27,0,0,0-.32,0l0,0-0.24,0-0.35,0a3,3,0,0,1-.84-0.22c-0.19-.07-0.31-0.15-0.44-0.19s-0.23-.1-0.38-0.15a1.8,1.8,0,0,1-.85-0.61l-0.14-.16-0.25-.33a4.58,4.58,0,0,1-.3-0.54,3.76,3.76,0,0,1-.26-0.76,2.79,2.79,0,0,1-.4-0.31c0-.05-0.36-0.11-0.36-0.16v-0.1a2.75,2.75,0,0,1,.35-0.43,2.2,2.2,0,0,1,.26-0.58A0.81,0.81,0,0,1,63,16.77a1,1,0,0,0,.29-0.58,5.66,5.66,0,0,1,.53-0.72,2.48,2.48,0,0,1,.85-0.62l0.23-.07a1.48,1.48,0,0,0,.3-0.1l0.18-.13,0.06,0a0.3,0.3,0,0,1,.25-0.05H65.8l0.07,0h0a0.33,0.33,0,0,1,.11,0h0l0-.09h0a0,0,0,0,0,0,0c0-.11,0,0.22,0-0.26V14A0.42,0.42,0,1,0,66,14.25Z"/></svg>