<?xml version="1.0" encoding="utf-8"?>
<!-- Generator: Adobe Illustrator 19.2.1, SVG Export Plug-In . SVG Version: 6.00 Build 0)  -->
<svg version="1.1" id="Calque_1" xmlns="http://www.w3.org/2000/svg" xmlns:xlink="http://www.w3.org/1999/xlink" x="0px" y="0px"
	 viewBox="0 0 15.3 9.1" style="enable-background:new 0 0 15.3 9.1;" xml:space="preserve">
<style type="text/css">
	.st0{fill:#01B1EE;stroke:#FFFFFF;stroke-width:0.25;stroke-miterlimit:10;}
	.st1{fill:#01B1EE;}
</style>
<title>20160808_Collecteat</title>
<g>
	<defs>
		<rect id="SVGID_1_" x="-357.5" y="-434.1" width="1519.5" height="170.5"/>
	</defs>
	<clipPath id="SVGID_2_">
		<use xlink:href="#SVGID_1_"  style="overflow:visible;"/>
	</clipPath>
</g>
<path class="st0" d="M15.1,4.2c-0.1-0.2-2.8-4-7.4-4S0.3,4,0.2,4.2c-0.1,0.2-0.1,0.5,0,0.7C0.3,5.1,3,9,7.7,9s7.3-3.9,7.4-4.1
	C15.2,4.7,15.2,4.4,15.1,4.2z M7.7,7.7c-2.4-0.1-4.5-1.3-6-3.1c1.5-1.9,3.6-3,6-3.1c2.4,0.1,4.5,1.3,6,3.1C12.2,6.4,10,7.5,7.7,7.7z
	"/>
<path class="st1" d="M8,1.9C7.3,1.7,6.6,1.9,6,2.4l0,0C4.8,3.3,4.6,5,5.5,6.2c0.4,0.6,1.1,1,1.8,1.1h0.4c0.6,0,1.2-0.2,1.6-0.6
	c1.2-0.9,1.4-2.6,0.5-3.8C9.4,2.3,8.7,1.9,8,1.9z M8.7,5.9C7.9,6.5,6.9,6.4,6.3,5.6c0,0,0,0,0,0C5.7,4.8,5.8,3.7,6.6,3.2
	C7.4,2.6,8.4,2.8,9,3.5C9.6,4.3,9.4,5.3,8.7,5.9z"/>
</svg>
