<?xml version="1.0" encoding="utf-8"?>
<!-- Generator: Adobe Illustrator 19.2.1, SVG Export Plug-In . SVG Version: 6.00 Build 0)  -->
<svg version="1.1" id="Calque_1" xmlns="http://www.w3.org/2000/svg" xmlns:xlink="http://www.w3.org/1999/xlink" x="0px" y="0px"
	 viewBox="0 0 140.4 140.4" style="enable-background:new 0 0 140.4 140.4;" xml:space="preserve">
<style type="text/css">
	.st0{fill:#01B1EE;}
	.st1{fill:#02A3CE;}
	.st2{fill:#0090B2;}
	.st3{fill:#999999;}
	.st4{fill:#CCCCCC;}
	.st5{fill:#58585A;}
	.st6{fill:#5D5D5D;}
	.st7{fill:none;stroke:#01B1EE;stroke-width:2;stroke-miterlimit:10;}
</style>
<title>20160808_Collecteat</title>
<g>
	<defs>
		<rect id="SVGID_1_" x="-2048.4" y="-1157.6" width="1517.2" height="761.5"/>
	</defs>
	<clipPath id="SVGID_2_">
		<use xlink:href="#SVGID_1_"  style="overflow:visible;"/>
	</clipPath>
</g>
<path class="st0" d="M101.7,98.8c0-3.4-0.4-6.9-1-10.2c0-0.4-0.4-0.7-0.8-0.7c-0.1-1-0.2-2-0.4-3c-0.1-0.3-0.2-0.5-0.5-0.6
	c-0.1-1.6-0.4-3.2-0.7-4.7c0-3.9-0.6-7.8-1.7-11.5c-0.3-3.9-0.5-7.8-0.8-11.6c0-0.3-0.2-0.6-0.4-0.8c-0.2-1.4-0.3-2.7-0.6-4
	c0-1.9,0-3.9,0-5.8c0-1.1-1.7-1.4-1.9-0.3c-0.2,0.1-0.5,0.1-0.7,0c-0.5-0.3-1-0.4-1.6-0.4c-1.5-0.3-3-0.4-4.6-0.4
	c-0.6,0-1.4-0.5-1.5,0c-0.3,4.1,0.2,8.2,1.4,12.1c0.1,0.3,0.3,0.6,0.6,0.7c0.1,0.8,0.2,1.5,0.4,2.3c-0.2-0.3-0.6-0.5-1-0.4
	c-1,0.1-2,0.3-2.9,0.5c-0.5,0.1-0.8,0.6-0.7,1.1c0,0.1,0.1,0.2,0.1,0.3c0,0.1-0.1,0.2-0.1,0.3c-0.2-0.1,0.1-2.1-0.1-2.2
	c-0.6-3.2-0.8-4.6-1.4-7.8c0-0.3,0-0.5,0-0.8c0.3-0.2-0.4-0.4-0.4-0.8c0-3.5,0-4-3.1-5h-0.2l-0.2-0.2c-0.4-0.4-1-0.3-1.4,0.1
	c0,0,0,0-0.1,0.1h-0.2l-0.2,0c-3.4-0.7-6.8,0.1-10.2-0.1c-0.7,0-1.1-0.3-1.1,0.2c-0.4-0.1-0.8-0.2-1.2-0.3c-0.5-0.1-1.1,0.2-1.2,0.7
	c0,0.1,0,0.2,0,0.3c-0.1,1.7,0.1,3.5,0.6,5.2c0.1,0.8,0.2,1.5,0.2,2.2c0,2.5,0.2,5,0.8,7.5c0.1,0.5,0.6,0.8,1.1,0.7
	c0.1,0,0.1,0,0.2-0.1c-0.3,0.7-0.9,1.1-2.3,1.6C61,63,60,63,59,63h-0.5v0.3c0,0,0.1,0,0,0s0.1-0.9,0-0.7c-0.2-1.2,0.4-1.3,0.2-2.5
	c0-2.2-0.2-4.3-0.6-6.4c0-0.2-0.1-0.3-0.2-0.5c-0.1-1.5-0.2-2.7-0.2-4.7c-0.2-1.1-0.7-2.2-1.5-3c-1.4-1.7-6.3,0.3-8.3-0.3
	c-0.9-0.3-1.3,1.3-0.6,1.8c-0.3,1.1-0.5,2.1-0.5,3.2c0,0.9,1.3,1.6,1.8,0.8c0,0.1,0,0.3,0,0.4c-0.5-0.1-0.9,0.2-1,0.7c0,0,0,0,0,0
	c-0.7,4.1,0.9,9,2.5,13.5l0.1,0.8c0,0.2,0.2,0.4,0.3,0.5c0.3,0.8,0.6,1.6,0.9,2.4c-0.1,0-0.1,0.1-0.2,0.2c-0.2,0.1-0.4,0.2-0.6,0.4
	l0,0c0,0,0,0.4,0,0.4s0,0.2,0,0.2c0,0.6,0.1,1.3,0.1,1.9c-0.2,3.5,0.5,8.2,0.8,10.3c0,0.3,0.2,0.6,0.5,0.8c0.1,0.6,0.2,1.2,0.2,1.8
	s0.2,1.2,0.3,1.9v0.2c-0.1,3-0.2,6-0.4,9.1c0,0.5,0.3,0.9,0.8,1c0.1,0,0.3,0,0.4-0.1c0,0.2,0,0.4,0,0.6c-0.3,0.1-0.5,0.5-0.5,0.9
	c0.3,2.3,0.3,4.7,0.1,7.1l-0.1,0.2c-0.3,0.2-0.1,1,0.1,1.4c-0.3,0.4-0.3,1,0.1,1.3c0.2,0.1,0.4,0.2,0.6,0.2c1.5-0.2,3.1-0.2,4.6-0.5
	c0.9-0.2,1.9-0.6,2.7-1c1,0,1.9-0.2,2.8-0.5c0.2,0.2,0.4,0.3,0.7,0.3c3.4,0.2,6.7-0.3,9.9-1.4c0.1,0,0.2-0.1,0.3-0.2
	c0.2,0.2,0.4,0.3,0.7,0.4c2.1,0.3,4.3,0.1,6.3-0.7c0.3-0.1,0.5-0.5,0.5-0.9c2.7-0.2,5.4-0.7,8.2-1.1c0.5-0.1,0.8-0.6,0.7-1
	c0,0,0,0,0,0c0.6,0,1.2-0.1,1.8-0.2c1.5,0.1,3.1,0,4.6-0.2c0.3,0,0.5-0.1,0.7-0.3c1.3-0.1,2.5-0.4,3.2-1.8
	C101.4,99.6,101.7,99.2,101.7,98.8z M92.1,49.4l-0.5-0.5c0.1-0.1,0.2-0.1,0.2-0.2C91.9,48.9,92,49.1,92.1,49.4z M73.2,101.3
	L73.2,101.3c0.5-0.1,0.7-0.5,0.8-0.9l0.1,0.1l0.1,0.1h0.1l0,0h0.1c0.5,0.2,1,0.4,1.6,0.6l0,0c-0.2,0.2-0.4,0.4-0.4,0.7L73.2,101.3z
	 M56.5,103.2c0-0.2,0-0.3,0-0.4l0.2,0.3L56.5,103.2z M65.8,54.5v-0.1c0.1,0,0.2-0.1,0.3-0.2c0.2-0.3,0.6-0.3,0.9-0.1
	c0,0,0.1,0.1,0.1,0.1c-0.2,0-0.3-0.1-0.5-0.1C66.3,54.1,66,54.2,65.8,54.5L65.8,54.5z M95.5,89.3c0,0.2,0,0.5,0,0.7l-0.2-0.4l0,0
	C95.4,89.5,95.5,89.4,95.5,89.3z M60.8,70.2c0.2,0.3,0.4,0.7,0.6,1.1l-0.9-1.1C60.6,70.2,60.7,70.2,60.8,70.2z M85,94l-0.2-0.6
	l0.1-0.2l0.1,0.2C85,93.6,85,93.8,85,94z M69,70.3c0.3,1.5,0.6,3,0.8,4.5L69.6,75c-0.2-0.6-0.4-1.3-0.6-1.9c0,0,0,0,0-0.1
	C69.1,72.1,69,71.2,69,70.3z M81.3,95.7l-0.3-0.3l0.2,0.2L81.3,95.7L81.3,95.7z M65.9,95.4c-0.2,0.2-0.3,0.5-0.5,0.8l-0.6-0.7
	c0-0.4,0-0.8-0.1-1.2c0.2,0.2,0.3,0.4,0.5,0.6c0.2,0.2,0.6,0.3,0.9,0.2l0,0C66.1,95.2,66,95.3,65.9,95.4L65.9,95.4z M57,82
	c0-0.4-0.3-0.7-0.7-0.8l-0.1-0.6c0.1,0,0.2,0,0.4,0c0.5,0.9,1,1.7,1.5,2.6c-0.3,0.1-0.6,0.3-0.7,0.6C57.3,83.3,57.2,82.7,57,82
	L57,82z M86.1,76.1l-0.6-0.7c0-0.1,0.1-0.1,0.1-0.2L86.1,76.1z M79.7,71.1c-0.1,0.2-0.1,0.4-0.2,0.6c-0.3-0.1-0.6-0.1-0.8,0.1
	c-0.1-0.3-0.2-0.6-0.3-0.9c0.1,0,0.2,0,0.3,0L79.7,71.1z M66.5,86.4c0,0.1,0.1,0.2,0.1,0.3v0.1c-0.2,0.1-0.4,0.3-0.5,0.5
	c-0.3,0.3-0.4,0.8-0.2,1.2c0.3,0.7,0.7,1.4,1.1,2h0c-0.4-0.7-1-1.3-1.7-1.8c-0.1-0.4-0.2-0.8-0.3-1.2c0.2-0.3,0.5-0.7,0.7-1l0,0
	C66,86.6,66.3,86.5,66.5,86.4z M75,83.6l-0.6,0.8c0.6-1.4,1.2-2.8,1.8-4.2c0,0.3,0,0.5,0,0.8C75.8,81.8,75.4,82.7,75,83.6z
	 M75.6,75.6c0.2,0,0.4-0.1,0.5-0.3l0,0c-0.5,0.7-0.9,1.4-1.3,2.2L75.6,75.6z M77.4,89.4v0.2l-0.1-0.1L77.4,89.4z M70.2,91.8l0.1-0.2
	c0.3,0.2,0.7,0.4,1.1,0.5l-0.3,0.1l-0.5,0.1L70.2,91.8z M81.7,81.1c0-0.1-0.1-0.1-0.1-0.2c0-0.1,0-0.1,0-0.2l0.5,1.1L81.7,81.1z
	 M62.4,85.5c-0.7-1-1.4-2-2.1-3.1c0-0.4-0.1-0.8-0.2-1.2C61,82.6,61.7,84,62.4,85.5z M75.7,93.1l0.3-0.4l0.4-0.1l0.2,0.3
	c-0.2,0.4-0.4,0.9-0.6,1.4l0,0C75.8,93.8,75.8,93.5,75.7,93.1z M87,87.2c-0.1,0.1-0.2,0.2-0.3,0.3c-0.4-1.2-0.8-2.3-1.2-3.4l2.3,2.8
	C87.5,86.9,87.2,87,87,87.2z M83.2,77.2l1,0.8c0.3,0.6,0.6,1.2,0.9,1.8C84.4,79,83.8,78.1,83.2,77.2L83.2,77.2z M74.8,67.6
	c-0.6-1.3-1.1-2.7-1.6-4c-0.1-0.2-0.2-0.4-0.4-0.6c-0.1-0.6-0.3-1.3-0.4-2c0.8,1.8,1.8,4.3,2.6,6.6L74.8,67.6z M57.6,77.2
	c0,0.3,0,0.7,0.1,1c-0.3-0.7-0.5-1.3-0.7-1.9L57.6,77.2z M77.6,95.3l0.3-0.6c0,0.2,0,0.5-0.1,0.8L77.6,95.3z M89.2,89.7
	c-0.2-0.6-0.3-1.1-0.4-1.7l1.2,1.5C89.7,89.6,89.4,89.7,89.2,89.7L89.2,89.7z M72,59L72,59L72,59L72,59z M71.5,64.7
	c0.2,0.6,0.4,1.2,0.7,1.8c-0.4-0.1-0.8-0.2-1.2-0.2C71.2,65.7,71.4,65.2,71.5,64.7z M71.1,68.5c0.3,1.4,0.6,2.8,0.9,4.1h-0.2
	c-0.4-1.3-0.7-2.5-1-3.4C70.9,68.9,70.9,68.7,71.1,68.5L71.1,68.5z M58.7,86.5c-0.4,0.1-0.6,0.5-0.7,0.9l0,0
	c-0.2-0.9-0.3-1.7-0.5-2.5L58.7,86.5z M89.9,86.5L89.5,86l0.3,0.3L89.9,86.5z M88,82.4c0-0.1-0.1-0.2-0.1-0.4l0.3,0.5L88,82.4z
	 M71.4,56.6c-0.2-0.4-0.3-0.9-0.5-1.3l0.6,0.6C71.5,56.1,71.4,56.4,71.4,56.6z M63.8,74.1c0,0,0,0.1,0,0.1V74.1L63.8,74.1z
	 M64.3,78.4l0.2,1.1l-0.2-0.4c-0.4-0.9-1.2-2.1-2-3.4C63,76.6,63.7,77.5,64.3,78.4z M73.9,96.3l0.1-0.2c0,0.1,0,0.2,0,0.4L73.9,96.3
	L73.9,96.3z M92.2,88L92.2,88L92.2,88z M89.1,78c0,0,0-0.1,0-0.1l0.2,0.2L89.1,78z M92.5,75.5c0-0.3,0-0.6,0-1
	c0.1,0.2,0.2,0.4,0.4,0.6c-0.1,0.1-0.1,0.3-0.2,0.4c0,0.3-0.1,0.5-0.1,0.8l-0.1-0.1C92.5,76,92.5,75.7,92.5,75.5z M73.3,58.7
	l0.1,0.1c-0.2-0.1-0.4-0.2-0.6-0.2c0.1-0.1,0.1-0.1,0.2-0.2c0.1-0.2,0.2-0.4,0.2-0.6l0.1,0.1C73.2,58.2,73.2,58.4,73.3,58.7z
	 M73.7,54.7c0,0.3,0.1,0.6,0.1,0.9l-0.4-0.5c0-0.2,0-0.5,0-0.7L73.7,54.7L73.7,54.7z M55.5,69.7c-0.1,0-0.2,0-0.2,0
	c0-0.2,0.1-0.3,0.1-0.5L55.5,69.7z M54.4,70.9c0,0.1-0.1,0.2-0.1,0.4l-0.1-0.4L54.4,70.9L54.4,70.9z M92.4,84.3
	c-0.4-0.6-0.8-1.2-1.2-1.8l1.8,1.6C92.8,84.1,92.6,84.2,92.4,84.3L92.4,84.3z M80.1,69c-0.2,0-0.3,0-0.5,0h-0.1
	c-0.2-0.5-0.3-1-0.5-1.5c0.2,0.3,0.4,0.6,0.5,0.7c0.2,0.3,0.6,0.4,0.9,0.2l0.3,0.7L80.1,69z M74.1,52C74.1,52,74,52,74.1,52L74,52.2
	L73.8,52H74.1z M67.8,77.7l-0.2,0.2c-0.5-1.1-1-2.2-1.4-3.3c0.4-0.1,0.7-0.5,0.7-0.9c0-0.2,0-0.5,0-0.7
	C67.2,74.5,67.5,76.1,67.8,77.7z M64.5,73c-0.1,0-0.2,0.1-0.2,0.1v-0.1L64.5,73L64.5,73z M67.9,97.2c0-0.2,0-0.3,0-0.5l0.1,0.2
	L67.9,97.2z M84.7,95.2c0.1-0.1,0.1-0.1,0.2-0.2c0,0.4,0,0.7-0.1,1.1C84.8,95.8,84.7,95.6,84.7,95.2L84.7,95.2z M92.8,69.2
	c0-0.5-0.1-1-0.1-1.3s0-0.5-0.1-0.8l0,0c0,0.8,0.1,1.5,0.2,2.3L92.8,69.2z M90.4,73.7L90.4,73.7l0.1,0.3c-0.2,0-0.4,0.1-0.6,0.2
	L89.8,74C90,74,90.3,73.9,90.4,73.7L90.4,73.7z M83.1,69c-0.1-0.2-0.2-0.4-0.2-0.6h0.1L83.1,69L83.1,69L83.1,69z M75.9,52.5
	c0.2,0.2,0.4,0.4,0.6,0.7c-0.1-0.1-0.3-0.2-0.4-0.4L75.9,52.5z M71.6,52.9L71.6,52.9L71.6,52.9L71.6,52.9z M53.8,66
	c-0.1-0.5-0.2-1-0.3-1.5c0.1,0,0.3-0.1,0.4-0.1C53.9,64.9,53.9,65.5,53.8,66z M69.3,98.9c0,0.2,0,0.4,0,0.7H69
	C69.1,99.3,69.2,99.1,69.3,98.9z M71.7,99.4l0.1,0.2h-0.2L71.7,99.4z M76.7,99c0-0.2-0.1-0.4-0.3-0.5l-0.2-0.1l0.2-0.4
	c0.8,0.6,1.6,1,2.5,1.4C78.2,99.3,77.4,99.2,76.7,99L76.7,99z M84.9,96.9c0.2,0.3,0.5,0.5,0.9,0.4c0.2,0.5,0.5,0.9,0.8,1.3
	c0,0.1,0,0.1,0,0.2l-1.7-0.6c0.1-0.2,0.2-0.4,0.2-0.6C85,97.4,84.9,97.2,84.9,96.9L84.9,96.9z M89.4,64.1c0,0.6,0.1,1.6,0.1,2.7
	c-0.2-0.5-0.5-0.9-0.8-1.3c0.1-0.4,0.2-0.8,0.2-1.3L89.4,64.1z M87.6,69.8l0.2,0.3l-0.3-0.3L87.6,69.8z M74.6,48.1
	c0,1.7-0.8,0.4-1.9-0.2l-0.2-0.1l0.2-0.1c0.6,0.1,1.3,0.1,1.9,0C74.6,47.9,74.6,48,74.6,48.1L74.6,48.1z M65.1,51.6L65,50.7
	c0.3,0,0.5-0.1,0.8-0.2h0c0,0.1,0,0.2,0,0.3c0.1,0.2,0.1,0.5,0.2,0.7C65.7,51.6,65.4,51.6,65.1,51.6L65.1,51.6z M59.9,69.4v0.1
	c-0.1-0.1-0.2-0.1-0.4-0.1c0-0.1,0.1-0.1,0.1-0.1L59.9,69.4z M82.9,100.2c-0.6-0.2-1.2-0.3-1.8-0.4c0.3,0,0.6-0.2,0.8-0.5h0.1
	c0.7,0.3,3.4,0.9,5,1.5l-3.4,0.5C83.6,100.8,83.3,100.4,82.9,100.2L82.9,100.2z M86.9,64.4L86.9,64.4L86.9,64.4L86.9,64.4L86.9,64.4
	z M57.6,99.2c-0.2,0.1-0.3,0.3-0.3,0.5c0,0.2,0,0.4,0,0.5c-0.4-0.6-0.7-1.3-1-2c0-0.2,0-0.4,0-0.7C56.6,98.2,57.1,98.7,57.6,99.2z
	 M63,100.7c-0.3-0.2-0.5-0.4-0.8-0.6c-0.5-0.6-1-1.2-1.6-1.8c0.8,0.6,1.5,1.2,2.2,1.8C62.9,100.3,63,100.5,63,100.7L63,100.7z
	 M89.3,98.6v-0.2c0.1,0,0.2,0.1,0.3,0.1l0.6,0.1c0,0.1-0.1,0.1-0.1,0.2L89.3,98.6z M97.4,88.9c-0.2-0.5-0.8-0.7-1.3-0.5
	c-0.2,0.1-0.3,0.2-0.4,0.4c0-0.1-0.1-0.3-0.1-0.4c-0.1-0.1-0.1-0.2-0.2-0.3c0.5,0.1,1.1-0.2,1.2-0.7c0-0.2,0-0.4,0-0.5
	c0.3,0,0.6,0,0.8,0C97.4,87.5,97.4,88.2,97.4,88.9L97.4,88.9z M95.2,73c0-0.1,0-0.1,0-0.2c0-0.2-0.1-0.5-0.3-0.6
	c0-0.4,0.1-0.7,0.1-1.1C95.1,71.8,95.1,72.4,95.2,73L95.2,73L95.2,73z M86.8,69.2l-0.5-0.5l0.2-0.1L86.8,69.2z M69,47.6
	c-0.1,0.2-0.1,0.4,0,0.6l-0.5-0.4L69,47.6L69,47.6L69,47.6z M66.9,66c0,0.3,0,0.7,0,1v0.1c-0.2,0.2-0.4,0.3-0.6,0.5l0,0
	c-0.1,0-0.2,0-0.3,0C66.6,66.4,66.8,66,66.9,66z M55.9,94c0.1,0.3,0.2,0.6,0.3,0.9c0,0.1,0,0.2,0,0.2L56,95.2
	C55.9,94.8,55.8,94.4,55.9,94L55.9,94z M69.2,102.8h-0.8v0.1c-1,0.2-0.4,0.7-0.3,1.2c-0.9-0.1-1.7-0.1-2.6-0.2c0-0.1,0-0.1,0-0.2
	c0.2-0.4,0.3-0.8,0.2-1.3l0.5,0.5c0.4,0.3,1.1,0.3,1.4-0.2c0.2-0.2,0.2-0.5,0.2-0.8c1.2,0.3,2.4,0.6,3.6,0.9h-0.2
	C70.6,102.9,69.9,102.9,69.2,102.8L69.2,102.8z M92.1,51.8c0.2,0,0.4-0.1,0.6-0.2c0.1,0.4,0.2,0.8,0.2,1.2L92.1,51.8z M87.4,62.2
	L87.4,62.2L87.4,62.2l-0.3,0.1c0.1-0.1,0.2-0.2,0.3-0.4L87.4,62.2z M84.7,64.6c0.2,0.5,0.5,0.9,0.8,1.3l0.3,0.6
	c-0.4,0.1-0.8,0.2-1.2,0.1l-0.1-0.1c-0.1-0.6-0.1-1.3-0.1-1.9L84.7,64.6L84.7,64.6z M49.7,53.9L49.7,53.9L49.7,53.9L49.7,53.9z
	 M97.8,97.3c0.2-0.1,0.3-0.2,0.5-0.3l0.1,0.2c0,0.1,0,0.1,0.1,0.2v0.1C98.2,97.4,98,97.4,97.8,97.3z M66.3,62.5
	c0.4-1.4,0.5-3,0.2-4.4c0.2,0.5,0.4,0.9,0.6,1.3c-0.3,1.3-0.6,2.6-0.8,3.9c-0.3,0.1-0.5,0.3-0.7,0.5L65.2,64
	C65.7,63.6,66.1,63.1,66.3,62.5z M54.7,48.9c0-0.1,0-0.2,0-0.2V48.9L54.7,48.9z M55.5,106.4c0.1,0,0.3,0,0.4-0.1
	c0,0.1,0.1,0.1,0.1,0.2l-0.6,0.1L55.5,106.4z M87.1,46.3c0.5-0.1,0.9-0.1,1.3,0.2c-0.1,0.3,0,0.6,0.3,0.8l0,0
	c-0.2,0.3-0.3,0.7-0.1,1l0,0c-0.3-0.5-0.8-0.9-1.3-1.1C87.2,47.1,87,47,86.8,47C86.9,46.1,86.1,46.8,87.1,46.3z M53.3,46.9
	c-0.4,0.2-0.7,0.4-0.9,0.8l-0.2-0.2v-0.1c-0.1-0.3-0.4-0.5-0.7-0.5l-0.2-0.1C52,46.7,52.7,46.7,53.3,46.9z M54.2,96
	c-0.1,0-0.2,0-0.2,0c0-0.4,0.1-0.8,0.1-1.2C54.1,95.2,54.1,95.6,54.2,96z"/>
<path class="st1" d="M44.7,46.5c-0.2,1.8-0.4,3.5-0.7,5.2l1.7-0.2c-0.4-0.7,0-3.5,0-4.2C45.6,46.8,45.2,46.4,44.7,46.5
	c-0.4,0-0.7,0.2-0.8,0.5c-0.3,1.4-0.6,2.8-1.1,4.1l1.7,0.2c-0.2-1.7,0.2-3.6,0.3-5.3c0-0.5-0.4-0.9-0.9-0.9c-0.4,0-0.7,0.3-0.9,0.7
	c-0.6,2.5-1.3,7.8,0.7,9.8c0.2,0.3,0.6,0.4,0.9,0.3c1-0.4,1-1.1,0.9-2.2l-1.7,0.5c1,1.6,0.8,4.2,1.3,6c0.1,0.5,0.6,0.8,1.1,0.7
	c0.2,0,0.4-0.1,0.5-0.3l0.2-0.2c0.7-1-0.6-2.5-1.3-1.4l-0.2,0.2l1.5,0.5c-0.5-2-0.4-4.7-1.5-6.5c-0.2-0.4-0.8-0.6-1.3-0.4
	c-0.3,0.2-0.5,0.5-0.5,0.9c0.1,0.7,0.8,0.3,1-0.2c0-0.8-0.1-1.6-0.3-2.5c-0.1-1.6,0.1-3.2,0.4-4.7l-1.8-0.3c0,1.9-0.5,3.9-0.2,5.9
	c0.1,0.5,0.6,0.8,1,0.7c0.3-0.1,0.5-0.2,0.6-0.5c0.7-1.4,0.8-3.1,1.3-4.6l-1.8-0.3c0,1.4-0.5,3.9,0.2,5.2c0.2,0.4,0.8,0.6,1.2,0.4
	c0.2-0.1,0.4-0.3,0.5-0.6c0.4-1.9,0.6-3.8,0.8-5.8C46.7,45.2,44.9,45.2,44.7,46.5L44.7,46.5L44.7,46.5z"/>
<path class="st1" d="M43,50.1c0.7,3.5,0.5,7.2,1.3,10.6c0.3,1.3,2,0.7,1.8-0.5c-0.2-2-0.6-4-1.3-5.9c-0.3-0.8-2.8-0.6-3,0.3
	c-0.5,2.9,1.2,6,1.2,8.9l1.8-0.3c-0.4-2.2-0.9-4.4-1.2-6.7c-0.1-1.1-1.8-0.8-1.8,0.3c0.1,3.3,0.3,6,0.3,10H44
	c-0.1-3-0.4-4.3-0.3-6.5c-0.6,0.1-1.2,0-1.8,0.1c1.3,3.7,0.2,9.4-0.1,13.4h1.8c0-2.4,0.2-4.7,0.7-7h-1.8c0.6,3-0.1,6.8-0.4,9.7
	c-0.2,2.4-0.1,5.6-1.1,7.7c0.6,0.2,1.2,0.4,1.7,0.6c-0.6-4.7-0.3-9.5,0.9-14.2l-1.8-0.5c-0.7,3.7-0.9,7.4-1.3,11.2
	c-0.1,1.1,1.7,1,1.8-0.1c0.9-6.7,1-13.4,2.5-20.4h-1.8c0.4,3-0.6,8.6,1.7,10c0.4,0.3,0.9,0.2,1.2-0.1c0.1-0.2,0.2-0.3,0.2-0.5
	c0.4-4.6-0.2-9.2,0.2-13.8c-0.6,0.1-1.2,0.2-1.8,0.3c0.7,2.9,0.7,6.3,1.8,9.1c0.4,1,1.7,0.4,1.7-0.5c0.1-4.9-1.4-9.8-1.8-14.7
	l-1.8,0.3c1.9,7.5,3.1,15.2,3.7,23c0.3,5.9,0.3,11.7,1.3,17.4c0.1,0.5,0.6,0.8,1.1,0.7c0.4-0.1,0.7-0.5,0.7-0.9
	c0-0.7-0.2-1.4-0.4-2.1c-0.1-0.5-0.6-0.8-1.1-0.7c-0.4,0.1-0.7,0.5-0.7,0.9c0,1.4-5.4,4.2-6.6,5.4c-1.3,1.5-2.4,3.1-3.3,4.7
	c-0.6,0.9,0.8,2.1,1.5,1.2c1.8-2.3,4.1-4.2,6.6-5.7c0.9-0.4,1.6-1.1,2.1-1.9c0.3-0.5,0.2-1.1-0.3-1.4c-0.1-0.1-0.3-0.1-0.5-0.2
	c-2.7-0.1-7.1,2.3-9,4.5l1.6,0.7c-0.3-4.8,0.5-10.2,0.8-15.1c0.3-5.5-0.6-11.3,1.4-16.5l-1.7-0.2c1.3,7.7,1.1,16.8,0.6,24.6
	c0.6-0.1,1.2-0.4,1.8-0.5c-0.7-2.9-1-5.9-1-8.9h-1.8c0.1,3-0.4,8.1,1.2,11c0.2,0.5,0.7,0.7,1.2,0.4c0.2-0.1,0.4-0.3,0.5-0.6
	c0.1-0.2,0.1-0.4,0.2-0.6L43,90.7c1.2,0.9,2.7,1.1,4.2,0.7c0.3-0.1,0.6-0.4,0.7-0.7c0.7-3.1-4.1-3.9-5.8-5.1l-0.7,1.9
	c2,0.8,4,2,6.2,1.8c0.6,0,1-0.5,0.9-1.1c0-0.2-0.1-0.3-0.1-0.5c-1.6-2.9-4-4.9-6.2-7.3L40.9,82c2.4,1.3,5.5,4.6,8.2,4.7
	c0.6,0,1-0.5,1-1c0-0.2-0.1-0.3-0.2-0.5c-1-1.7-2-3.3-3.2-4.8c-0.7-1-2.7-3-2.9-4.4l-1.4,0.9c2,1.1,3.6,2.8,5.5,4.1
	c0.8,0.6,1.7-0.5,1.3-1.4c-1.6-3.3-4-6-5.5-9.3l-0.5,1.5c-0.9,0.2,1.4,1.8,1.8,2.3c0.7,0.8,1.5,1.5,2.3,2.2c0.6,0.4,1.4-0.6,1.4-1.3
	c0-3.1-4.2-8.1-2.2-11.1h-1.6c1.9,5,1,11.9,0.5,17c-0.1,3.1-0.8,6.1-1.8,9c-0.3,0.8-1.3,4.2-1.9,4.7c0.5,0.3,1,0.7,1.5,1
	c0.4-1.4,1-2.7,1.8-3.8c0.6-1.1,2.2-1.7,0.3-0.8c-1,0.4-0.3,2.3,0.7,1.9c1-0.4,1.9-1,2.6-1.9c0.4-0.4,0.4-1,0-1.4
	c-0.2-0.2-0.6-0.3-0.9-0.3c-2.1,0.3-4.3,2.8-6.3,2.9l0.9,1.3c1.4-6,3.7-11.9,4.2-18.1c0-0.5-0.3-1-0.8-1c-0.3,0-0.6,0.1-0.7,0.3
	c-2.3,3-1,11.1,0.5,14.4c0.2,0.4,0.7,0.6,1.2,0.4c0.2-0.1,0.3-0.2,0.4-0.4c1.7-3.6,0.9-8.8,0.9-12.7l-1.7,0.5
	c0.4,1,1.5,10.3,1.7,10.2c-1.1,0.4-0.6,2.4,0.5,2c1.5-0.6,1.3-1.8,1.1-3.4c-0.3-2.9-0.5-7.1-1.7-9.8c-0.2-0.4-0.8-0.6-1.3-0.4
	c-0.3,0.2-0.5,0.5-0.5,0.9c0,3.3,0.7,7.7-0.7,11.7H47c-0.9-3-2.3-9.9-0.7-11.9l-1.6-0.7c-0.5,6.1-2.8,11.8-4.2,17.6
	c-0.2,0.5,0.1,1.1,0.7,1.2c0.1,0,0.1,0,0.2,0c2.4,0,4.4-2.5,6.8-2.9l-0.9-1.7c-0.5,0.6-1.1,1-1.8,1.4l0.7,1.8
	c1.2-0.6,5.8-4.2,2.6-5.7s-6.9,5.5-7.4,8c-0.1,0.5,0.3,1.1,0.8,1.2c0.3,0,0.5,0,0.8-0.2c1.3-1.1,2.1-4.5,2.7-6.2
	c0.8-2.5,1.3-5.1,1.5-7.7c0.6-5.9,1.5-12.9-0.7-18.5c-0.2-0.4-0.7-0.6-1.2-0.4c-0.2,0.1-0.3,0.2-0.4,0.4c-2.5,3.7,2,8,2,11.7
	l1.4-0.9c-1.6-1.2-3-2.6-4.2-4.3c-0.2-0.3-0.6-0.5-1-0.5l-0.4,0.1c-0.5,0.2-0.8,0.8-0.6,1.4c0,0,0,0.1,0.1,0.1
	c1.5,3.3,3.8,6.1,5.5,9.3l1.3-1.4c-1.9-1.3-3.4-3-5.5-4.1c-0.4-0.3-1-0.2-1.3,0.3C42,75.6,42,75.8,42,76c0.4,3.7,4.7,7.1,6.4,10.2
	l0.8-1.5c-2.1-0.1-5.5-3.5-7.3-4.5c-0.5-0.2-1.1,0-1.3,0.6c-0.1,0.3-0.1,0.7,0.2,1c2,2.2,4.4,4.1,5.9,6.8l0.8-1.5
	c-1.7,0.2-4.1-1.1-5.7-1.8c-1-0.4-1.5,1.3-0.7,1.8c0.7,0.4,1.3,0.8,2.1,1.1c0.6,0.3,3.4,2.2,0.8,0.5c-0.4-0.3-1-0.1-1.2,0.3
	c-0.1,0.1-0.1,0.2-0.1,0.3l-0.2,0.7l1.7-0.2c-1.3-2.4-0.9-7.1-1-9.8c0.1-0.5-0.3-1-0.8-1c-0.5-0.1-1,0.3-1,0.8c0,0.1,0,0.1,0,0.2
	c0,3.1,0.3,6.2,1.1,9.3c0.1,0.5,0.6,0.8,1.1,0.7c0.4-0.1,0.7-0.5,0.7-0.9c0.5-8,0.7-17.2-0.7-25.1c-0.1-0.5-0.6-0.8-1-0.7
	c-0.3,0.1-0.5,0.2-0.6,0.5c-1.8,4.5-1.5,9.1-1.6,14c0,3.8-0.3,7.5-0.4,11.3c0,2.4,0.6,5.2-0.5,7.4s0,2.5,1.6,0.7s5.4-3.9,7.7-3.9
	l-0.8-1.5c-0.8,1.4-3.1,1.8-4.2,2.6c-1.6,1.3-3,2.8-4.2,4.5l1.5,1.2c1.4-2,2.5-4.1,4.5-5.6c1.1-0.8,2.7-1,3.8-1.9
	c1.2-0.8,1.9-2.2,2-3.7l-1.8,0.3l0.3,1.6l1.8-0.3c-1.2-6.7-0.9-13.5-1.5-20.3c-0.7-6.8-1.9-13.5-3.5-20.1c-0.1-0.5-0.6-0.8-1.1-0.7
	c-0.4,0.1-0.7,0.5-0.7,0.9c0.4,4.9,1.8,9.8,1.8,14.7l1.7-0.5c-1.1-2.5-1.1-5.9-1.7-8.5c-0.3-1.2-1.7-0.8-1.8,0.3
	c-0.4,4.6,0.2,9.3-0.2,13.9l1.4-0.9c-1-0.6-0.6-7.1-0.8-8.4c-0.1-0.5-0.6-0.8-1.1-0.7c-0.4,0.1-0.6,0.3-0.7,0.7
	c-1.6,6.5-1.6,13.4-2.5,20l1.8,0.3c0.3-3.6,0.6-7.1,1.2-10.6c0.1-0.5-0.1-1-0.6-1.2c-0.5-0.1-1,0.1-1.2,0.6c-1.2,4.8-1.5,9.8-1,14.7
	c0.1,0.9,1.2,1.5,1.7,0.5c1-2.1,1-4.7,1.2-7c0.4-3.7,1.2-8.1,0.5-11.7c-0.1-0.5-0.6-0.8-1.1-0.7c-0.4,0.1-0.6,0.3-0.7,0.7
	c-0.5,2.5-0.8,5-0.8,7.5c-0.1,0.5,0.3,1,0.8,1c0.5,0.1,1-0.3,1-0.8c0-0.1,0-0.1,0-0.2c0.3-4,1.4-10.3,0-14.1
	c-0.1-0.5-0.6-0.8-1.1-0.7c-0.4,0.1-0.7,0.5-0.7,0.9c0,2.2,0.2,4.3,0.3,6.5c-0.1,0.5,0.3,1,0.8,1c0.5,0.1,1-0.3,1-0.8
	c0-0.1,0-0.1,0-0.2c-0.1-3.3-0.3-6.7-0.3-10l-1.8,0.3c0.3,2.2,0.8,4.4,1.2,6.7c0.1,0.5,0.6,0.8,1.1,0.7c0.4-0.1,0.7-0.5,0.7-0.9
	c0-2.7-0.4-5.8,0-8.4l-1.7,0.2c0.6,1.8,1,3.6,1.1,5.5l1.8-0.5c-0.7-3.3-0.6-7.2-1.2-10.6C44.5,48.3,42.8,48.9,43,50.1L43,50.1
	L43,50.1z"/>
<path class="st2" d="M40.2,103.7c1.9,0.9,3.8,1.7,5.7,2.6c1.6,0.7,3,1,4.2,2.4c0.4,0.4,1,0.4,1.4,0c0.2-0.2,0.3-0.4,0.3-0.7
	c0.2-2.4-0.1-5-0.1-7.5c0-2-0.1-4.2,0.1-6.2c0.1-1.5-1.2-2.7-2-1.3c-1.5,2.7-3.6,5-6.1,6.8c-0.5,0.3-3.8,1.9-1.7,2.2
	c1.1,0.2,2.2-1.7,3.2-1.9c-0.4-0.2-0.8-0.6-1.2-0.8c0.1,1.2,0.1,2.5,0,3.7h2c-0.1-1-0.2-3.3-0.3-5.1c-0.7,0.1-1.3,0.2-2,0.3
	c0.4,2,1.3,6.4,3.9,6.8c0.4,0.1,0.9-0.1,1.1-0.4c1.2-1.6-0.6-5.5-0.9-7.1c-0.2-0.5-0.7-0.8-1.2-0.7c-0.3,0.1-0.6,0.4-0.7,0.7
	c-0.3,1.6,0.5,3.5,1,5s1,3.2,2.2,4.2c0.5,0.3,1.1,0.1,1.4-0.4c0-0.1,0.1-0.2,0.1-0.2c0.7-2.5-1-4.8-1-7.3l-1.9,0.5
	c0.7,1.8,0.7,3.6,1.7,5.3c0.3,0.5,0.9,0.6,1.4,0.3c0.1-0.1,0.3-0.2,0.3-0.3c0.7-1.1,0-2.5-0.3-3.6c-0.5-1.7-0.6-3.4-1-5.1
	c0-0.4-0.2-0.9-0.4-1.2c-0.3-0.3-0.8-0.4-1.2-0.2c-2.6,1.2-4.1,4.6-4.1,7.5s3,5,5,6.5c0.4,0.3,1.1,0.2,1.4-0.2
	c0.3-0.3,0.3-0.8,0-1.2c-0.5-0.9-1.5-1.5-2.5-1.5c-0.6,0-1,0.4-1,1c0,0.1,0,0.2,0,0.3c0.4,1.2,2.7,3,3.9,2.1
	c0.8-0.6,0.5-2.1,0.5-2.9c0-1.9,0.5-3.8,0.2-5.6c-0.2-0.5-0.8-0.8-1.3-0.6c-0.1,0-0.2,0.1-0.3,0.2c-0.6,0.6-0.9,1.3-1.5,1.9
	c-1.3,1.4-2.3,0.4-3.7-0.2l-0.5,1.9h0.1c1.3,0.1,1.3-1.9,0-2h-0.1c-0.6,0-1,0.5-1,1c0,0.3,0.2,0.7,0.5,0.8c1.4,0.6,2.4,1.8,4,1.3
	c1.8-0.5,2.3-2.2,3.6-3.3l-1.7-0.4c0.2,1.6-0.3,3.5-0.3,5.1v1c-0.1,0.7,0.1,0.8,0.7,0.1c-0.2-0.4-1.1-0.4-1.2-0.8l-1,1.3l0.8,0.5
	l1.4-1.4c-1.6-1.2-4.1-3.1-4-5.3c0.2-2,1.1-4.4,3.1-5.3L48,95.9c-0.5-0.6-0.2,0.6-0.2,0.9c0.1,0.9,0.2,1.9,0.5,2.8
	c0.1,0.4,1.5,3.2,1.1,4.2h1.8c-0.9-2-0.9-3.8-1.7-5.5c-0.3-0.5-0.9-0.6-1.4-0.4c-0.3,0.2-0.5,0.4-0.5,0.8c0,2.2,1.6,4.7,1.1,6.7
	c0.5-0.2,1-0.9,1.5-1.1c-1.1-0.8-2.5-4.4-2.3-7.4H46c0.2,1,1.7,5.3,1.1,6.1c0.4-0.2,0.8,0,1.1-0.2c-1.6-0.2-2.2-3.9-2.5-5.2
	c-0.1-0.6-0.6-0.9-1.2-0.8s-0.9,0.6-0.8,1.2c0.1,1.7,0.2,3.5,0.3,5.2c0,0.6,0.4,1,1,1s1-0.4,1-1c0.1-1.4,0.1-2.9,0-4.4
	c-0.1-0.5-0.7-0.9-1.2-0.7c0,0,0,0-0.1,0c-1.3,0.2-2.6,1.5-3.7,2.1c-0.7,0.2-1.2,0.8-1.4,1.5c-0.1,0.4,0,0.7,0.3,1
	c1.7,1.4,4.3-0.7,5.7-1.7c2.4-1.6,4.5-3.7,6.1-6.2l-1.9-0.5c0.2,2-0.1,4.2-0.1,6.2c0,2.5,0.3,5,0.1,7.5l1.7-0.7
	c-1.2-1.4-2.2-1.7-3.9-2.4c-2.2-0.8-4.3-1.9-6.5-2.9C40,101.4,39,103.1,40.2,103.7L40.2,103.7L40.2,103.7z"/>
<path class="st3" d="M52.4,43.8L52.4,43.8c-0.3,0.6-0.2,1.2,0.3,1.5c0.2,0.1,0.3,0.1,0.5,0.1c1.1,0,2.1-0.1,3.2-0.3
	c0.4-0.1,0.7-0.5,0.7-1c0-0.5-0.2-1-0.4-1.4c-0.5-1.3-0.8-2.7-0.8-4.1c-0.1-2.3,7.9-9.8,1.6-9.8c-0.6-0.2-2.2,2.7-2.8,2.5
	c-1.8,1.7-2.8,4.2-2,7.7C53,40.3,51,42.9,52.4,43.8c1.2,0.7,2.8-0.6,3.5-1.5c1.4-2.1,0.8-3.7,0.9-6c0-0.6-0.4-1-1-1s-1,0.4-1,1
	c0.1,1,0.2,2,0.2,3l-0.5,1.5c-0.4,0.7-0.4,0.7-0.1,0c0-0.5,0.3-1.3,0.4-1.8c0.4-2.5,1.4-4.8,2-7.3c0.1-0.5-0.3-1.1-0.8-1.2
	c-0.5-0.1-0.9,0.2-1.1,0.6c-0.6,2.2-0.9,4.5-0.8,6.9c0,1.1,0.1,2.1,0.3,3.2c0.2,0.9,0.9,2,1,2.9l0.7-1c-0.9,0.1-1.8,0.2-2.7,0.2
	l0.7,1.5l0.1-0.1C54.8,43.8,53.1,42.8,52.4,43.8L52.4,43.8L52.4,43.8z"/>
<path class="st3" d="M76.9,40.2c-0.3,0.5-0.5,1-0.5,1.6c0.1,0.7-0.2,2.1,0.3,2.7s2.1,0.4,2.7,0.5s1.1-0.6,1.6-1.1
	c0.8-0.8,0-2-0.3-2.8c-0.5-1-0.8-8-2.6-7.8c-1.3,0.1-1.3,2.1,0,2c-0.3,0-0.6-1.2-0.6-0.2c0,0.2,0,0.3,0,0.5c0.1,0.4,1.1,5.8,1.2,6.2
	c0.1,0.2,0.2,0.5,0.3,0.7c0,0.1,0.1,0.2,0.2,0.3c0.3,0.3-0.7,0.2,0.3-0.4l0.8-0.1c-0.3-0.1-0.6-0.1-0.9-0.1c-0.1,0-0.3,0-0.4-0.1
	c-0.2-0.1-0.1,0.6-0.1,0.2c0-0.8-1-6.9-1-6.9C78,33,76.9,37.9,76.9,40.2L76.9,40.2L76.9,40.2z"/>
<path class="st4" d="M57.2,39.5c-0.6,2,0.6,6,0.9,8c0.2,1.5,1,2.6,1.4,4.1c0.6,2,0.4,4.3,1,6.2c0.2,0.6-0.1,0.6,0.5,0.6
	c1,0.1,0.1-2.5,0-3.3c-0.4-1.9-0.5-3.9-0.2-5.8c0.6-2.8-0.9-7.5-0.5-10.3c0.8-5.5-1.3-13.4-3.6-3.7c-0.2,0.8,1.6,3.3,0.9,3.9
	c-1,0.8,0.4,2.2,1.4,1.4c-0.8,0.7-0.3,3.4-0.3,4.6c0,2.5-0.1,5,0,7.4s-0.8,6.9,0.9,9c0.2,0.3,1.9,0,2.2-0.1s0.1-0.9,0.4-1.1
	c0.4-0.2,0.6-0.7,0.5-1.1c-0.5-3.7-1.3-7.2-2-10.8c-0.3-1.5-0.4-3.1-0.8-4.7c-0.2-0.8-1.1-3.2-0.9-4C60.5,35.2,58.6,34.7,57.2,39.5
	L57.2,39.5L57.2,39.5z"/>
<path class="st4" d="M66,34.2c1,0.7,2.8-0.2,3.9-0.3c0.8-0.1,1.7-2.3,2.6-2.6c1.1-0.4,2.3,0,3.3-0.5c0.3-0.2,0.3,0.2,0.4-0.5
	c0.2-1-1.2-0.3-1.7-0.3c-1,0.1-2.1,0.3-3-0.2c-1.3-0.8-3.9,0.3-5.3-0.3c-2.7-1.2-9.1,1.3-4.4,4.3c0.4,0.3,4-2.4,4.2-1.7
	c0.2,1.1,1.2-0.2,0.9-1.3c0.2,0.9,1.7,0.5,2.3,0.6c1.3,0.2,1-0.4,1,0.9c-0.2,3.7,7.4,2.1,8.8,0.4c0.2-0.2-0.6-2.7-0.6-3
	s-0.9-0.2-0.9-0.5s-0.2-0.6-0.5-0.5c-2,0.3-3.9,0.7-5.8,1.1c-0.8,0.2-1.7,0.2-2.5,0.4c-0.4,0.1-1.8,0.8-2.2,0.6
	c-2.2-1.7-4.5,1.3-2.2,3.1L66,34.2z"/>
<path class="st4" d="M83.4,59.3l0.2,0.1c0.4,0.1,0.9-0.1,1.1-0.5c1.4-2.1-0.8-6.4-1-8.5c-0.2-3.9,0.3-7.5-0.5-11.4
	c-0.3-1.8-0.5-5-1.8-6.4c-0.1-0.4-0.3-0.7-0.5-1c-2.9-1.4-0.7,2.1-0.7,2.3c-0.3,4.3,0.4,8.4,1,12.8c0.2,1.3,2.2,1.3,2,0
	c-0.2-2-0.5-4-0.8-6c-0.2-1.3-0.4-2.7-0.5-4c0-1,0.7-2.6,0.6-3.4c-0.3-1.4-1.3-2.5-2.6-3.1c-0.4-0.1-0.9,0.1-1.1,0.5
	c-0.4,0.8-0.1,0.9,0.1,1.7c0.3,1.7,1.7,3.8,2.1,5.7c0.3,1.4,0.5,2.8,0.7,4.2c0.4,3-1.3,14.2,2.1,15.2c-0.5-0.1-1.1,0.3-1.2,0.8
	C82.7,58.7,83,59.1,83.4,59.3L83.4,59.3L83.4,59.3z"/>
<path class="st5" d="M64.6,43.5L64.6,43.5z"/>
<path class="st5" d="M38.4,75.6L38.4,75.6C38.3,75.7,38.3,75.9,38.4,75.6z"/>
<path class="st5" d="M57.5,35.5L57.5,35.5L57.5,35.5z"/>
<path class="st5" d="M74.6,64.5c-5.2-0.1-9.5,4.1-9.6,9.3c0,0.4,0,0.8,0.1,1.2c0.1,0.8,0.2,1.6,0.5,2.3c0.5,1.6,1.3,3.1,2.4,4.5
	l8.7,10.6c0.1,0.2,0.4,0.3,0.6,0.2c0.1,0,0.2-0.1,0.2-0.2l6.9-10.6c0.8-1.4,1.4-2.9,1.6-4.5c0.1-0.8,0.1-1.6,0.1-2.3
	C85.5,69.2,80.6,64.7,74.6,64.5z M76.3,83.8c-4.8-0.2-8.8-3.9-9.2-8.8c-0.5-4.1,2.4-7.9,6.6-8.4c0.4,0,0.8-0.1,1.1-0.1
	c4.8,0.2,8.8,3.9,9.2,8.8c0.5,4.1-2.4,7.8-6.5,8.4C77.1,83.7,76.7,83.8,76.3,83.8z"/>
<path class="st5" d="M76.2,83c-4.4-0.1-8.1-3.4-8.5-7.8c-0.4-3.9,2.4-7.4,6.3-7.8c0.3,0,0.6,0,0.9,0c4.4,0.1,8.1,3.4,8.5,7.8
	c0.4,3.9-2.4,7.4-6.3,7.8C76.8,83,76.5,83,76.2,83z M74.9,67.5c-3.8,0-6.9,3-6.9,6.8c0,0.3,0,0.5,0,0.8c0.4,4.3,4,7.5,8.3,7.6
	c3.8,0.1,6.9-3,7-6.7c0-0.3,0-0.6,0-0.9C82.7,70.9,79.2,67.6,74.9,67.5z"/>
<path class="st5" d="M79.8,78c-0.3-0.2-1.5-0.9-2.1-1.4c-0.4-0.3-1.2-1-1.8-1.5l0.5-0.5c0.1-0.2,0.3-0.3,0.6-0.3
	c0.3,0,0.6-0.1,0.9-0.3c0.6-0.6,1.1-1.3,1.6-2c0.6-0.8,0.5-0.7,0.4-0.6s-1.8,2-1.9,2.1c-0.1,0-0.1,0-0.2,0c0,0,0-0.1,0-0.1
	c0.1-0.1,0.1-0.2,0.5-0.6s1.4-1.7,1.3-1.7s-1.9,2.1-2,2.2c0,0-0.1,0.1-0.1,0c0,0,0,0,0,0l0,0c0,0-0.1-0.1,0-0.1c0,0,0,0,0,0
	c0.1-0.1,2-2.2,2-2.2s-1.2,1.1-1.6,1.5l-0.6,0.5c-0.1,0.1-0.2,0.1-0.2,0c-0.1-0.1-0.1-0.2,0-0.2c0.1-0.1,1.8-2,1.9-2.1
	s0.2-0.3-0.6,0.4c-0.7,0.5-1.3,1.1-1.9,1.8c-0.1,0.3-0.2,0.6-0.2,0.9c0,0.2-0.1,0.4-0.3,0.6l-0.5,0.6l-0.4-0.3
	c-0.4-0.4-1.1-0.8-1-1.3c0.1-0.8-0.3-1.6-1-2c-0.6-0.4-1.3-0.7-2-0.6c-0.3,0-0.5,0.2-0.5,0.5c0,0,0,0,0,0c0,0.7,0.3,1.4,0.8,1.9
	c0.4,0.6,1.2,1,2,0.8c0.5-0.1,0.9,0.5,1.3,0.9l0.3,0.3c-0.5,0.5-1,1.1-1.3,1.4c-0.5,0.5-1.4,1.2-1.8,1.4c-0.4,0.2-0.8,0.6-1,1
	c0,0.2,0.1,0.5,0.2,0.7l0,0c0.2,0.1,0.4,0.2,0.7,0.2c0.4-0.2,0.8-0.5,1-1c0.2-0.4,0.8-1.3,1.3-1.9c0.2-0.3,0.8-0.9,1.2-1.5
	c0.6,0.6,1.4,1.4,1.7,1.7c0.5,0.5,1.3,1.7,1.5,2s0.8,0.8,1.3,0.3l0.1-0.1l0,0l0.1-0.1C80.7,78.8,80.1,78.2,79.8,78z"/>
<path class="st6" d="M48.6,44.9L48.6,44.9C48.6,44.9,48.6,44.9,48.6,44.9z"/>
<path class="st6" d="M48.4,44.9L48.4,44.9C48.4,44.9,48.3,44.9,48.4,44.9z"/>
<path class="st6" d="M47.5,44.9L47.5,44.9z"/>
<path class="st6" d="M64.1,44.1L64.1,44.1z"/>
<path class="st6" d="M39.5,75.5L39.5,75.5C39.4,75.6,39.3,76.2,39.5,75.5z"/>
<path class="st6" d="M102.3,99.1c-1.1-6.1-1.8-12.2-2.7-18.4c-0.2-1.6-0.7-3.2-0.8-4.9s-0.2-3.1-0.4-4.7c-0.3-3.6-0.6-7.1-0.9-10.7
	c-0.3-3.2-1.2-6.2-1.3-9.4c0-1.6-0.2-3.1-0.4-4.7c-0.1-1.2-0.3-2.1-1.7-2c-3.1,0.3-6.2-1-9.4-0.1l-0.3,0.1c-0.2-1.3-0.5-2.7-0.5-4.1
	c-0.1-1.1-0.2-2.2-0.3-3.3s0.2-3-0.3-4c-0.6-0.8-1.4-1.6-2.2-2.2c-0.6-0.7-1.5-2-2.4-2.3s-1.9,0.1-2.7,0.1c-1.1-0.1-2.1-0.1-3.2-0.1
	c-2.4,0-4.7,0.3-7.1,0.2c-1.3,0-2.6,0-3.8,0c-0.2,0-0.5,0-0.8,0h-0.3c0-0.1,0-0.2-0.1-0.2c-0.3-0.1-0.5-0.2-0.8-0.1
	c-0.7,0-1.4-0.1-2-0.1c-0.7-0.2-1.4-0.1-2,0.2c-0.2,0.3-0.4,0.6-0.6,1c-0.2,0.3-0.5,0.6-0.7,0.9c-0.9,1.1-2.2,2.1-2.5,3.7
	c-0.4,1.9-0.2,3.9-0.4,5.8c0,0.5-0.1,1-0.2,1.5c-0.1,0.4-0.2,0.8-0.3,1.2c0,0.5,0,0.9,0,1.4c0,0.2-0.2,0.8-0.3,1.1
	c-0.6,0-1.2,0-1.9,0.1c-0.2,0-0.2-0.2-0.4,0v-0.1c-0.1,0-0.1,0-0.2,0c0,0-0.1,0.1-0.1,0.1l-0.1-0.2c-0.2,0-0.5,0-0.7,0
	c-0.1-0.1-0.1,0.2-0.2,0.2c-0.3,0-0.5,0-0.8,0c-0.2-0.2-0.4-0.4-0.7-0.5c-1.2-0.5-3.7-1-4.3,0.6c-0.1,0.5-0.2,1.1-0.1,1.6
	c0,0.8-0.1,1.5-0.1,2.3s-0.1,1.6-0.1,2.3c0,0.6,0.2,1.2,0.2,1.8c-0.1,1.9-0.6,3.7-0.7,5.6c-0.1,0.9,0.1,1.8,0,2.7s-0.2,2-0.3,3.1
	c-0.1,2.1-0.6,4.1-0.6,6.1c0,1.6-0.1,3.2-0.3,4.7c0,0,0,0.2,0,0.3c-0.2,1.1-0.2,2.3-0.1,3.4c0,1.2-0.2,2.5-0.2,3.8
	c-0.1,2.3,0,4.7-0.2,7c-0.1,2-0.3,4-0.6,6c-0.2,1.1-0.5,2.3-0.6,3.4c0,0.5,0,0.9,0,1.4c0,0.3,0,0.5,0,0.6h0
	c-0.3,0.5,0.9,1.2,1.2,1.4c1.2,0.8,2.4,1.5,3.7,2.2c1.3,0.6,2.5,1.3,3.7,2.1c0.4,0.2,0.8,0.4,1.2,0.6c0.2,0.3,0.6,0.4,0.9,0.5
	c0.4,0.4,0.8,0.7,1.3,0.8c0.9,0.3,2.2,1.3,2.7,1l0,0c0.3,0,0.6-0.1,0.9-0.2c2.7-0.8,5.5-1.4,8.4-1.8c3.8-0.4,7.7-0.6,11.5-0.9
	c2.2-0.2,4.4-0.5,6.5-1c2-0.4,4-0.6,5.9-0.9c3.8-0.7,7.5-2,11.4-2.5c1.6-0.2,3.2-0.2,4.8-0.4c0.6-0.1,1-0.1,1.1-0.8
	C102.7,100.6,102.6,99.8,102.3,99.1z M82,33.4c0.2,0.6,0.2,1.2,0.2,1.8c0,0.7,0,1.3,0,2c0,0.8,0.3,1.7,0.3,2.5
	c0.1,1,0.1,2.1,0.3,3.1c0.4,2.8,0.9,5.7,1.1,8.6c0.1,1.4,0.5,2.8,0.4,4.1c0,1,0.1,2.1,0.3,3.1c-0.5,0.2-1,0.3-1.5,0.5
	c-0.1-0.4-0.2-0.8-0.2-1.1c-0.1-0.6-0.1-1.2-0.2-1.8c-0.2-1.4-0.3-2.9-0.6-4.4s-0.4-2.8-0.6-4.3c-0.3-1.5-0.4-3-0.3-4.5
	c0-0.2,0,0,0,0c0-0.6-0.1-1.2-0.2-1.8c0-0.5,0-1,0-1.5c-0.1-1,0-2.1-0.2-3.1s-0.3-1.9-0.5-2.9c-0.1-0.7-0.1-1.5-0.2-2.2
	C80.8,32.2,81.4,32.7,82,33.4z M82.7,59.3L82.7,59.3L82.7,59.3z M62.9,62.1c0,0,0-0.1-0.1-0.1L62.9,62.1z M59.6,61.6
	c-0.1-0.6-0.1-1.2,0-1.8c0-1-0.1-2.1-0.3-3.1c-0.4-1.8-0.6-3.7-0.7-5.5c-0.2-1.9-0.5-3.9-0.9-5.8c-0.1-0.5,0-1.1,0-1.6
	s-0.2-0.9-0.2-1.5c-0.1-1.1,0-2.1,0.1-3.2l0,0c0-0.5-0.1-1.1-0.2-1.6c0-0.6-0.1-1.1-0.2-1.6c-0.2-0.6-0.2-1.2,0-1.8
	c0.1,0,0.1,0,0.1-0.2c0.5-0.6,1.1-1.1,1.7-1.7c0.2-0.2,0.5-0.5,0.7-0.8c0,0.4,0.1,0.8,0.2,1.2c0.2,0.7,0.1,1.5,0.2,2.2
	c0.3,1.1,0.4,2.2,0.4,3.3c-0.1,1.1-0.3,2.2-0.3,3.3c0.1,1.4,0.3,2.8,0.5,4.2c0.1,1.3,0.1,2.7,0.1,4c0.1,2.4,0.4,4.7,1,7
	c0.3,0.9,0.5,1.9,0.6,2.8c0,0.6,0.1,1.2,0.2,1.8C61.6,61.6,60.6,61.7,59.6,61.6L59.6,61.6z M61.7,40c0.1-1.7,0.1-3.5-0.2-5.2
	c0.6,0,1.2-0.2,1.8-0.1s1.4,0.3,2.1,0.3s1.5,0,2.2-0.1c1.5-0.2,3.1-0.2,4.5-0.3c0.8,0,2.1,0.1,2.7-0.3c-0.1,0.1,0.2,0.1,0.2,0.1
	c0.1,0,0.2-0.1,0.3-0.1c0,0,0.3,0,0.6,0c0,0.2-0.1,0.5-0.1,0.7c0,0.2,0.1,0.5,0.1,0.7c-0.1,0.6-0.2,1.2-0.3,1.8
	c-0.1,1.5-0.6,2.9-0.3,4.1c0.1,0.2-0.2,0.2,0,0.4h-0.1c0,0.1,0,0.1,0,0.2c0,0,0.1,0.1,0.1,0.1l-0.2,0.1c0,0.1,0.2,0.4,0,0.5
	s0.2,0.1,0.2,0.2s-0.1,0.7-0.1,0.8V44c-0.4-0.1-0.9-0.1-1.3-0.2c-1.6-0.1-3.4-0.1-4.9-0.1c-0.6,0-1.3,0.1-1.8,0.1
	c-0.5,0-1,0-1.5,0.2l-0.1-0.2c-0.2,0-0.3,0.1-0.5,0.2c-0.4,0-0.8,0-1.1-0.1c-0.2,0.1-0.5,0.2-0.7,0.2c-0.2,0-0.5,0-0.7,0l-0.9,0.1
	C61.6,42.8,61.6,41.4,61.7,40z M76.6,43.2c0.1-0.5,0.1-1.1,0.1-1.6c0-0.6-0.1-1.3,0-1.8c0.1-0.4,0.2-0.8,0.3-1.1
	c0.1-0.6,0.1-1.2,0.1-1.8c0-0.4,0.1-0.8,0.2-1.2c0-0.3,0-0.6,0-0.9c0.1-0.2,0.1-0.4,0.2-0.6h0.6c0.5,0,0.8,0.2,1.1-0.1
	c0.2,1.2,0.3,2.3,0.4,3.5c0,0.9,0.3,1.7,0.2,2.6c0,1,0,1.9,0.1,2.9c0,0.5,0.1,1.1,0.1,1.7c-0.5-0.1-0.9-0.1-1.4-0.1
	c-0.6-0.1-1.2-0.2-1.8-0.3c0.1-0.2,0-0.7,0.1-0.8S76.6,43.3,76.6,43.2L76.6,43.2z M78.2,29.6L78.2,29.6z M78.2,29.6L78.2,29.6z
	 M61.7,29.9c1.3-0.1,2.5-0.1,3.8-0.1c1.9,0.1,3.8-0.2,5.8-0.1c0.7,0,6.5,0,6.9-0.1l0.2,0.2c0.1,0.7,0.3,1.4,0.5,2.1
	c0,0.3,0.1,0.6,0.1,0.9c-0.3,0-0.6-0.1-0.8-0.1c-0.6,0-1.1,0-1.7,0.1c-2.8,0.2-5.8,0.5-8.7,0.7c-1.1,0.1-2.3,0.1-3.5,0
	c-1-0.1-2-0.2-3-0.2l-0.1-0.6c-0.2-0.8-0.2-1.5-0.1-2.3c0-0.1,0.1-0.3,0.1-0.5L61.7,29.9z M55.3,31.2c0.4-0.3,0.7-0.7,0.9-1.2h0.2
	c0.1-0.2,0.2-0.4,0.2-0.5l0.2-0.2c0,0,0,0.1,0,0.1c0,0,0,0,0,0c0.2-0.1,0.1-0.1,0.2,0c0.3,0,0.5-0.1,0.8,0c0.4,0.1,0.7,0.1,1.1,0.1
	h0.6c-0.4,0.7-0.9,1.4-1.5,2c-0.5,0.5-1.1,0.9-1.6,1.4c0,0-0.1-0.1-0.1-0.1c0,0-0.4,0.3-0.3,0c-0.1,0.2-0.3-0.1-0.4-0.1
	c0.1,0-0.6,0.2-0.5-0.1c0,0.2-0.5,0.1-0.9,0C54.5,32.2,54.9,31.7,55.3,31.2L55.3,31.2z M52.4,42.8c0.1-1.6,0.7-3.3,0.8-4.9
	c0-1,0-1.8,0-2.8c0-0.5,0.1-1.1,0.2-1.6c0-0.1,0.1-0.1,0.1-0.1c0,0.4,0.1,0.7,0.2,0.5c0,0.1,0.1,0.1,0.1,0.2c0-0.1,0.1-0.1,0.1-0.1
	c0.1,0,0.1,0.1,0.1,0.2v-0.1c0.2,0.1,0.4,0.2,0.6,0.3c0.2,0,0.4,0,0.7,0.1c0,0,0-0.1,0-0.1l0.1,0.2c0,0,0.1-0.1,0.1,0
	c0,0,0.1-0.1,0.2-0.1c-0.1,0.4-0.1,0.9,0.1,1.3c0.2,0.9,0.3,1.8,0.3,2.7c0.2,1.1,0.2,2.2,0.2,3.3c-0.1,1.1,0,2.2,0.2,3.3l0,0
	c-0.3,0-0.6,0-0.9,0c-0.9-0.1-1.8-0.1-2.8,0l-0.4,0c0,0,0-0.1,0-0.1C52.4,44,52.3,43.4,52.4,42.8z M39.8,94.5
	c0.3-2.1,0.4-4.3,0.4-6.4c0-1.9,0.2-3.8,0.2-5.7c0.1-2.2,0.1-4.4,0.3-6.6c0.2-2.4,0.2-4.9,0.5-7.4c0.2-1.7,0.5-3.5,0.7-5.2
	c0.1-1,0-1.9,0-2.9c0.1-2.5,0.7-4.8,0.7-7.3c0-1.3-0.1-2.7,0-4c0-0.6,0.2-1.2,0.2-1.9c-0.1-0.4-0.1-0.9-0.1-1.3
	c0.4-0.7,1.7-0.4,2.3-0.2c0.2,0.1,0.3,0.1,0.5,0.1c-0.1,0.2-0.1,0.4-0.1,0.5c0,0.8,0,1.6,0.2,2.3c0.3,1.6,0.8,3.1,1,4.7
	c0.3,3.2,0.7,6.4,1.2,9.6c0.5,3.2,1.4,6,1.5,9.2c0.1,2.9,0.4,5.7,0.6,8.6c0.2,3.5,0.7,7,1.1,10.4c-1,0.5-2,1.1-2.8,1.8
	c-2.1,1.6-4.3,3.2-6.4,4.8c-0.9,0.7-1.6,1.6-2.5,2.4c-0.1,0.1-0.3,0.2-0.4,0.3C39.1,98.5,39.6,96.5,39.8,94.5z M47.4,106.3
	c-1.4-0.7-2.6-1.7-4-2.4c-0.9-0.4-1.8-0.8-2.7-1.4c-0.3-0.3-0.6-0.5-1-0.8l0.2-0.1c0.6-0.5,1.1-1,1.6-1.6c1.7-1.5,3.4-2.9,5.3-4.2
	c0.9-0.7,1.7-1.4,2.6-2c0.7-0.4,1.4-0.9,2-1.5c0.4,3.2,0.6,6.5,0.6,9.8c0,1.7-0.1,3.4-0.1,5.1c0,0.3-0.1,0.8-0.1,1.3l-1.5-0.6
	C49.4,107.4,48.4,106.8,47.4,106.3L47.4,106.3z M91.1,102.5c-3,0.7-6,1.3-9,1.7c-3.7,0.6-7.2,1.5-10.9,1.7c-2.8,0.2-5.5,0.5-8.3,0.7
	c-3.4,0.3-6.7,0.9-9.9,1.9c0.1-3.4,0.2-6.8,0.1-10.3c-0.2-4-1.1-7.9-1.4-11.8c-0.5-7.1-0.3-14.6-2-21.6c-0.7-2.6-0.8-5.2-1.3-7.8
	c-0.2-1.4-0.3-2.9-0.5-4.3S47.3,49.6,47,48c-0.1-0.5-0.1-1-0.1-1.5h0.2c0.1-0.1,0.1-0.2,0.2-0.3c0.2,0,0.7,0.2,0.8,0.1
	c0.2-0.1,0.5-0.1,0.8-0.1c0.7,0,1.3,0,2-0.1c0.4,0,0.7,0,1.1,0c0.5,0,1.1-0.1,1.6-0.2c0.4,0,0.8,0,1.2,0.1c0.3,0,0.7,0,1-0.1
	c0.2,0,0,0.2,0.2,0.2h-0.5c0.8,1.7,1.3,3.6,1.3,5.5c0.1,0.8,0.4,1.6,0.5,2.4c0.1,1.3,0.4,2.7,0.7,4c0.2,1.2,0.3,2.4,0.2,3.6
	c0,0.5,0.3,1,0.8,1.2c0.8,0.3,2.3,0,3.1-0.1c0.6,0,1.6,0.1,1.9-0.6c0.3-0.6-0.2-1.7-0.3-2.3c-0.3-1.1-0.4-2.3-0.7-3.5
	c-0.4-1.5-0.6-3.1-0.8-4.7c-0.2-1.5,0-3-0.2-4.5c0-0.5-0.1-1-0.2-1.5c0.2,0,0.4,0,0.7,0c0.3,0,0.5-0.2,0.8-0.2
	c2.4-0.1,4.8-0.4,7.3-0.4c1.4,0,2.9,0.1,4.4,0.2c0.7,0.1,1.5,0.2,2.2,0.4c0.6,0.1,1.1,0.2,1.7,0.1c0.3,0.1,0.7,0.2,1.1,0.2H80
	c0,0.6,0.1,1.1,0.2,1.6c0.3,1.7,0.6,3.4,0.8,5.2c0.3,2.2,0.7,4.3,0.9,6.5c0.1,1.1,0.6,1.7,1.7,1c0.5-0.3,1-0.5,1.5-0.6
	c0.2,0,0.5,0,0.7-0.2c0.7-0.5,0.3-1.2,0.1-1.8c-0.3-1.4-0.5-2.8-0.5-4.2c-0.2-2.2-0.5-4.4-0.7-6.6c0-0.5-0.1-1.1-0.2-1.6
	c0.3,0,0.6,0,0.8,0c1.5-0.2,2.9-0.2,4.4-0.2c0.8,0.1,1.5,0.3,2.3,0.4c0.8,0.1,1.6,0.1,2.3,0c0.4,2,0.6,4,0.6,6c0.1,2,0.3,4,0.7,5.9
	c0.5,3.2,0.8,6.4,1,9.7c0.2,2.8,0.5,5.6,0.8,8.4c0.2,2.3,0.7,4.4,1.1,6.6s0.6,4.2,0.9,6.3c0.3,2.3,0.8,4.6,1.1,6.9
	c0.2,1.8,0.4,3.5,0.7,5.3c-1.3,0.2-2.6,0.2-3.9,0.4C95.3,101.5,93.2,101.9,91.1,102.5L91.1,102.5z"/>
<path class="st6" d="M57.6,39.2L57.6,39.2C57.6,39.2,57.6,38.9,57.6,39.2z"/>
<path class="st6" d="M75.3,42.2L75.3,42.2C75.3,42.2,75.3,42.2,75.3,42.2z"/>
<path class="st6" d="M75.3,42.9L75.3,42.9z"/>
<path class="st6" d="M75.3,42L75.3,42C75.3,42,75.3,42,75.3,42z"/>
<path class="st6" d="M57,29.5L57,29.5z"/>
<path class="st6" d="M55.3,34.3L55.3,34.3C55.3,34.3,55.4,34.3,55.3,34.3z"/>
<circle class="st7" cx="70.2" cy="70.2" r="69.2"/>
</svg>
