<svg id="Calque_1" data-name="Calque 1" xmlns="http://www.w3.org/2000/svg" xmlns:xlink="http://www.w3.org/1999/xlink" viewBox="0 0 163.96 101.53"><defs><style>.cls-1{fill:none;}.cls-2{clip-path:url(#clip-path);}.cls-3{fill:#01b1ee;}.cls-4{fill:#02a3ce;}.cls-5{fill:#0090b2;}.cls-6{fill:#999;}.cls-7{fill:#ccc;}.cls-8{fill:#58585a;}</style><clipPath id="clip-path"><rect class="cls-1" x="-2120" y="546.27" width="1517.2" height="458.12"/></clipPath></defs><title>20160808_Collecteat</title><path class="cls-3" d="M37.27,99.5c1.57-.19,3.18-0.21,4.74-0.52,1.75-.34,3.34-1.48,5.09-1.68,1.26-.15,1.28-2.15,0-2a22.46,22.46,0,0,0-4.28,1.41,29.67,29.67,0,0,1-5.55.79c-1.26.15-1.28,2.15,0,2h0Z"/><path class="cls-3" d="M37.68,86.92c0.17-2,.27-4,0.35-6,0.06-1.66-.41-4.94.82-6.3a1,1,0,0,0-1.41-1.41c-1.18,1.29-1.26,2.91-1.33,4.6-0.13,3.06-.18,6.11-0.43,9.16-0.11,1.28,1.89,1.28,2,0h0Z"/><path class="cls-3" d="M30.74,36.8a12.54,12.54,0,0,0-.59,3.6,1,1,0,0,0,1.86.5,17.4,17.4,0,0,1,1.41-3.4H31.69c1,1.52-.1,4,0.28,5.76a1,1,0,0,0,1.93,0c0.33-.85.69-4.26,1.52-4.71L33.95,38c0.69,2.3-.79,5.64-1,8a1,1,0,0,0,1.5.86c2.26-1.09,2.07-7.64,3.4-8.07l-1.27-1c0,3.59-1.36,7-1.55,10.56a1,1,0,0,0,2,.27c0.64-1.8.82-6.46,2.33-8L37.58,40c-0.2,4.55-1.9,9.25-1.54,13.8,0.08,1,1.75,1.45,2,.27,0.36-2,.41-4.1.87-6.12H36.93c1,2.89.87,9.06,0.12,12.09l1.83-.24c-2.39-4.36-1.79-10.35-3.71-15-0.32-.77-1.77-1.11-1.93,0-0.53,3.72.1,7.61,0.34,11.34l2-.27a134.1,134.1,0,0,0-2.7-13.52,1,1,0,0,0-1.93,0c-1,6.09,2.93,14,4.8,19.63a1,1,0,0,0,1.93-.53c-0.29-1.58-.78-3-1-4.61l-2,.27c2.54,7.21,3.2,15,5.13,22.33,0.28,1.06,2.11.88,2-.27-0.29-2.25-.49-4.5-0.88-6.73-0.22-1.27-2.14-.73-1.93.53,0.72,4.32,2.35,9.77,1.74,14.2h1.93c-2.38-5.86-2.88-13.24-3.23-19.48h-2c0.66,5.29.66,10.7,0.91,16a1,1,0,0,0,2,0,133.37,133.37,0,0,0-2.56-23.8,1,1,0,0,0-2,.27c-0.21,4.44.48,9,.63,13.46h2C37.82,69,37.28,64.38,37,59.73a1,1,0,0,0-1.86-.5c-1.87,2.85-.42,10.91-0.09,13.89a1,1,0,0,0,2,0c0.21-3.9-.8-8-0.92-12h-2c0.53,4.79,1,9.59,1.69,14.36,0.75,5,3.27,11.08,2,16.08h1.93c-0.32-1.54-.4-3.07-0.75-4.59a1,1,0,0,0-2,.27,42.76,42.76,0,0,0,.7,9.15,1,1,0,0,0,1.93,0,2.25,2.25,0,0,0,.12-1.24c-0.13-1-1.7-1.47-2-.27a2.8,2.8,0,0,1-.79,1.87,1,1,0,0,0-.2,1.57l0.41,0.32a1,1,0,0,0,1.67-.44c0.65-2.8-.05-6.16-0.37-9l-2,.27c0.75,2.25,1.25,4.6,1.91,6.89a1,1,0,0,0,2-.27c0.21-2.38-.53-4.73-0.42-7.12l-1.86.5c1.32,2.35,3.82,8.23,7.37,6.17a1,1,0,0,0,.5-0.86,6.24,6.24,0,0,0-3.34-5.07,1,1,0,0,0-1.47.6c-0.54,3.18,3.68,3.56,5.82,4.37l0.27-2c-2.55.11-5.22,0.15-7.51,1.38a1,1,0,0,0,0,1.73C41.5,97.1,43.84,97,45.92,97l-0.27-2c-1.76.27-3.6,0-5.31,0.59-0.85.29-1,1.75,0,1.93,2.35,0.41,5.14.75,7.43-.12a1,1,0,0,0-.27-2c-1.78,0-3.52.06-5.31-.08l0.27,2C47.86,96,52,96.05,48.85,89.83c-1.43-2.86-6.55-11.53-10-11.28a1,1,0,0,0-.71,1.71c3.7,4.42,8.52,9.54,13.67,12.25a1,1,0,0,0,1.37-1.37c-1.35-2.29-3.45-4.22-5.27-6.15-2.06-2.19-3.83-4.69-6.37-6.33A1,1,0,0,0,40.15,80c2.7,5,6.82,9.15,10.35,13.61l1.41-1.41c-3.36-2.75-6.62-5.6-10.47-7.66a1,1,0,0,0-1.5.86c-0.26,2.82,3.91,5.91,5.67,7.79A1,1,0,0,0,47.18,92a20.47,20.47,0,0,0-6.59-6.13,1,1,0,0,0-1.37,1.37,25.08,25.08,0,0,0,8,7,1,1,0,0,0,1.21-1.57,13.32,13.32,0,0,0-4.49-3.23,1,1,0,0,0-1.13,1.47A10.66,10.66,0,0,0,45,93.28c1.63,1.36,3.26,2.36-.15,2l0.27,2c2.52-.86,5.52-0.57,8.13-0.35v-2a37.33,37.33,0,0,0-6.51.6,1,1,0,0,0,.27,2,33.71,33.71,0,0,0,7.61-.31,1,1,0,0,0-.27-2,35.06,35.06,0,0,0-6.13.68,1,1,0,0,0,.27,2,27,27,0,0,0,10.25-1.4,1,1,0,0,0,.44-1.67c-1.41-1.31-3.78-1.11-5.6-1.19-1.29-.05-1.27,1.91,0,2,3.85,0.27,7.9-.55,11.69.11L65,93.81c-1.61.69-3.83,0.54-5.58,0.84-1.19.2-.77,1.87,0.27,2a13,13,0,0,0,6.52-.73c0.86-.36.49-1.58-0.24-1.83-5.07-1.7-10.44-2.28-15.51-4l-0.27,2c2.54-.12,5.16.73,7.57-0.09a1,1,0,0,0,.7-1.23c-1.09-4.61-8.56-9.23-12.73-10.78-1.16-.43-1.59,1.2-0.77,1.83A69.37,69.37,0,0,0,55,88.48a1,1,0,0,0,1.21-1.57c-3.8-3.78-7.84-7.27-11.91-10.76a1,1,0,0,0-1.57,1.21C44,80,47.18,82.26,49.2,84.3c1.38,1.4,2.79,3.32,4.5,4.32a1,1,0,0,0,1.21-1.57c-4-4.34-7.62-9.12-12-13.06-0.79-.72-2.28.25-1.57,1.21,2.54,3.46,5,7.24,8,10.25A1,1,0,0,0,51,84.24c-3.1-4.81-6.19-9.6-9.06-14.55L40.35,70.9C43,74.19,45,78,48,81a1,1,0,0,0,1.71-.71c-0.61-6.1-6.11-12.6-9-17.83l-1.73,1A126.07,126.07,0,0,0,49,76.2a1,1,0,0,0,1.71-.71c-0.1-2.24-1.23-4-2.24-6s-4.3-6.35-4-8.77l-1.71.71c3.72,4.2,6.52,9.18,10.62,13a1,1,0,0,0,1.41,0L55.44,74a1,1,0,0,0,.26-1c-0.31-1.35-.5-2.72-0.77-4.07a1,1,0,0,0-2,.27c0.13,2,1.39,6.71-2,4.69-1.72-1-3-3.31-4-4.92-1.75-2.82-2.83-6.14-5.16-8.53a1,1,0,0,0-1.67,1c0.35,1.53.74,3,1.22,4.51l1.93-.53a86.91,86.91,0,0,1-3.16-10.09l-1.93.53c0.77,2.22,1.42,4.55,3,6.34a1,1,0,0,0,1.71-.71c-0.47-3.64-1.4-7.14-2.21-10.72l-1.93.53c0.77,1.91.5,4,2.08,5.36a1,1,0,0,0,1.67-1C42,53,41.39,50.46,41,47.83l-2,.27,0.33,2.33a1,1,0,0,0,2,0,33,33,0,0,0-.64-6.68c-0.21-1.14-1.94-.83-2,0.27a18.21,18.21,0,0,0,.09,3.31h2q-0.4-4.3-.62-8.62c0-1,.19-2.22-0.4-3.06-1.52-2.16-6.65-.39-8.61-0.3a1,1,0,0,0-.27,2c8.08,1.87,6.75,13,7.6,19.47l2-.27c0-.06,6.47-1.07,7-1.16,1.16-.19.8-1.9-0.27-2-1.51-.09-3-0.05-4.47,0l0.27,2c2.73-.45,6.1.43,7.36-2.59,1.41-3.39-1.25-9.87-1.65-13.19l-2,.27c0.52,2.36,1,4.8,1.26,7.2l2-.27c-0.63-2.95-1-5.93-1.76-8.86-0.26-1.07-2.11-.87-2,0.27,0.46,3.58,2.13,8.49.77,12h1.93a34.15,34.15,0,0,1-.78-7.87c-0.08-2.87-.08-5.49,3.84-5.22,1.19,0.08,1.27-1.61.27-2L49.28,34l-0.27,2a78.91,78.91,0,0,1,10.17.91V34.91L57.05,35l-0.27,2c1.6,0,3.18,0,4.78.1a1,1,0,0,0,.71-1.71l-0.58-.49a1,1,0,0,0-1.67,1c1.38,5.29,1.46,10.7,2.32,16.07,0.17,1,1.67.87,1.93,0,0.66-2.2.34-4.45,0.75-6.73l-2-.27a59.92,59.92,0,0,1,.34,6.74l1.71-.71C62.79,48,63.25,44,59.6,42.3a1,1,0,0,0-1.5.86,37.67,37.67,0,0,0,.79,6.42l1.83-.77a30.67,30.67,0,0,0-5.87-6.28,1,1,0,0,0-1.37.36c-1,2.25,0,3.58,1,5.92l1.23-1.23c-1.43-.23-2.91-1.75-4-2.49a1,1,0,0,0-1.47,1.13c0.45,2.37,1.75,5.06,3.86,6.35a1,1,0,0,0,1.37-1.37c-1.23-2.15-2.51-4.28-3.74-6.44l-0.86,1.5c0.87,0.1,2,1.37,2.78,1.77A1,1,0,0,0,55,46.91c-0.44-2.59-2.46-4.06-3.1-6.55l-1.47,1.13a30.38,30.38,0,0,0,4.24,3.05,1,1,0,0,0,1.37-1.37c-1-2.1-3.46-3.73-4.3-5.78l-1.47,1.13c2,1.24,3.67,3.14,6,3.49a1,1,0,0,0,1-1.67c-0.58-.7-1.77-1.71-2-2.62L54,38.95c2.29,0.8,3.67,2.63,6.09,2.39a1,1,0,0,0,1-1q0-1,0-2l-1.5.86c1,0.57,1.61,2.93,2.09,3.85a1,1,0,0,0,1.73,0c0.86-1.61-.09-2.15-0.13-4.11l-2,.27c0.74,1.79.63,3.53,1.83,5a1,1,0,0,0,1.71-.71c0-1.76,0-3.45.18-5.2l-2,.27,0.31,1.8c0.19,1.13,2,.84,2-0.27,0-3.52,0-4-3.21-5.1a1,1,0,0,0-1,1.67c1.64,1.51,1.69,5.35,2.05,7.4,0.55,3.15,1.17,6.29,1.78,9.43l1.67-1c-2.74-3.42-1.56-10.06-6.1-12.38a4.54,4.54,0,0,0-4.16,0c-3.57,1.45-2.18.65-3.76-2.58a1,1,0,0,0-.86-0.5c-1.58,0-1.92.79-2.84,2.06h1.73a3.84,3.84,0,0,1-.52-1.65,1,1,0,0,0-1.83-.24,3.13,3.13,0,0,0-.05,3.06,1,1,0,0,0,1.73,0c1.87-3.48,6.45-3.63,9.76-2.55V35.83c-1.06.25-3.78-.14-5.23-0.31-1.16-.14-1.3,1.65-0.27,2a12.61,12.61,0,0,0,2.15.56l0.53-1.93c-3.3-.61-6.92-0.52-10.14-1.36a1,1,0,0,0-1.27,1c-0.32,2.78.7,8,3.79,8.88a1,1,0,0,0,1-.26c1.7-2,4.75,8.38,5,9.5l1.83-.77c-1.07-2-1.43-3.76-3.58-4.38a1,1,0,0,0-1.27,1c0,0.18.8,9,.63,9.12l1.47,0.6c-0.46-1.34-.88-2.68-1.28-4a1,1,0,0,0-2,.27c-0.08,2.61.31,5.19,0.25,7.8l1.86-.5a19.12,19.12,0,0,0-2.11-4.51,1,1,0,0,0-1.83.24A23.55,23.55,0,0,0,49,64.08l1.86-.5c-0.92-1.91-1.21-4-2.34-5.76a1,1,0,0,0-1.86.5c-0.1,1.76-.16,3.52-0.29,5.29l1.86-.5c-1.32-2.41-1.17-5.88-4.3-6.48a1,1,0,0,0-1.13.46c-2.1,3.42-.47.86,0.43,0.75a45.7,45.7,0,0,0,4.82-1.06c2.82-.68,4.58-2.38,7.2-3.32l-1-1.67c-0.88,1-2,2.22-3.36,2.53l1.23,1.23c0.49-2.86,1.22-5.68,1.76-8.53l-2-.27c-0.08,2.59-.28,5.18-0.56,7.76-0.25,2.3-.09,3.81-1.83,5.32-2.74,2.38-.28-0.4-2.65,1.23a12,12,0,0,0-1.52,1.27c-1.33,1.27-1.64,2.84-3.47,1.11a21.63,21.63,0,0,1-1.77-2.94,1,1,0,0,0-1.83.24c-1.06,3.19.11,6.6,1.07,9.73a1,1,0,0,0,2-.27,22.21,22.21,0,0,0-.78-4.4l-1.93.53c0.92,2.79,1.8,5.63,3.94,7.72a1,1,0,0,0,1.71-.71c-0.2-2.13-.77-4.23-0.84-6.37l-1.5.86c3.2,2.47,4.48,6.35,7.62,8.93A1,1,0,0,0,51.28,76c0.3-4.12-1.36-7.61-1.37-11.69l-1.86.5c1.28,2.67,2.35,5.41,3.87,8a1,1,0,0,0,1.83-.24c1.41-4-.85-8.76-1.49-12.8l-1.93.53c1.19,3.27,1.15,8.55,4.66,10.19a1,1,0,0,0,1.5-.86A60.83,60.83,0,0,0,55,59.3l-1.93.53c1.24,3.54,1.68,7.76,4.81,10.1a1,1,0,0,0,1.5-.86c-0.37-3.73-1.37-7.3-2.08-11l-1.83.77c1.11,2.3,1.93,4.65,3.48,6.69,0.54,0.7,1.93.6,1.86-.5-0.25-4-2-7.5-3.25-11.25l-1.93.53a48.65,48.65,0,0,0,4.79,9.85,1,1,0,0,0,1.83-.24c0.93-4.91-2.45-9.89-4.11-14.39l-1.83.77c2,3.54,3.14,7.9,6.33,10.58a1,1,0,0,0,1.67-1,123,123,0,0,0-4.89-12.06l-0.6,1.47c-0.84.16,4.65,8.43,5.23,9.09a1,1,0,0,0,1.71-.71c0-4.26-2.8-7.81-4.31-11.69l-1.83.77c2.16,3.36,4.07,6.88,6.19,10.26a1,1,0,0,0,1.73-1c-1.57-2.68-3.22-5.29-5-7.87-0.5-.74-2-0.57-1.86.5,0.34,2.91,2.42,5.75,3.61,8.4a47.52,47.52,0,0,1,2,5.08c0.17,2.5-2.14,4.78-3.46,6.67-1,1.48-5.89,9.59-7.23,9.18-0.52-.16,4.49-12.15,4.93-13.23S59.36,63.1,58.78,64c-2.61,4.13-5,8.4-7.8,12.4l1.83,0.77c1-4.49,3.37-8.46,4.4-13,0.2-.88-1-1.81-1.67-1a109,109,0,0,0-9.72,14.89,1,1,0,0,0,.6,1.47C48.19,80,48.88,78.28,50,77c2.1-2.48,4.69-7.4,8-8.31l-1.23-1.23c-1.08,5.12-3.74,9.63-4.58,14.8-0.14.87,1,1.82,1.67,1,4-4.74,6.17-11,8.65-16.64,0.41-.94-0.8-2.18-1.57-1.21-2,2.55-3.18,6.57-4.45,9.56-1,2.38-2.81,4.57-1.46,7a1,1,0,0,0,1.73,0,77.16,77.16,0,0,0,7.93-14.13l-1.83-.77a134.78,134.78,0,0,0-6.3,19.05,1,1,0,0,0,1.83.77C61,83,62.69,78.12,64.49,73.72c0.91-2.24,3.58-4.84,2.11-7.2a1,1,0,0,0-1.73,0c-1.65,3.35-3.06,6.93-4.92,10.16-3.46,6-4.78,3.16-7.42-.49l-1.37,1.37c2,1.17,3.75,3.26,5.53,4.76a1,1,0,0,0,1.41-1.41c-2-2.12-5.1-6.09-7.81-3.15A1,1,0,0,0,50.14,79a38.74,38.74,0,0,0,6.27,8.18l1.21-1.57c-2.16-1.22-3.64-3.3-5.88-4.51a1,1,0,0,0-1.21,1.57,104.27,104.27,0,0,0,9,7.91L60.72,89a28.35,28.35,0,0,0-5-2,1,1,0,0,0-1,1.67,17.2,17.2,0,0,0,10.06,4,1,1,0,0,0,.27-2c-1.91-.52-3.83-1-5.77-1.4a1,1,0,0,0-.53,1.93c2.73,0.71,5.57.81,8.27,1.57V90.84c-2.31.34-4.74-.33-6.67,1a1,1,0,0,0,.24,1.83,47.87,47.87,0,0,0,9,.73v-2a48.54,48.54,0,0,0-7.11.79,1,1,0,0,0,.27,2,74.33,74.33,0,0,0,12.28-1.19,1,1,0,0,0-.27-2,53.69,53.69,0,0,1-7.55.24l0.27,2c2.29-.34,4.57-0.67,6.85-1.08a1,1,0,0,0,.7-1.23c-0.66-1.62-1.83-1.64-3.55-2.28-3.84-1.41-7.71-2.76-11.58-4.1a1,1,0,0,0-1,1.67c1.94,1.55,4.11,3.29,6.67,3.26a1,1,0,0,0,.5-1.86,64,64,0,0,0-6.58-4.2,1,1,0,0,0-1,1.73c2.46,1.49,4.79,3,7.64,3.57a1,1,0,0,0,1.13-1.47c-1.11-2.17-5.1-5.72-5.54-8l-1.67,1c2.5,2.1,4.84,4.37,7.53,6.22a1,1,0,0,0,1.5-.86c0.24-4.1-3.36-7.65-5.86-10.59-0.77-.91-2,0.25-1.57,1.21,1.6,3.23,3.62,6.78,6.66,8.83a1,1,0,0,0,1.47-1.13,86.44,86.44,0,0,0-5-11.09L63.51,75.1c0.9,0.47,2.67,3.8,3.43,4.89,1.06,1.52,2.16,3,3.29,4.48a1,1,0,0,0,1.86-.5,6.27,6.27,0,0,0-.9-4c-1.4-2.83-3.15-5.67-4.74-8.41a1,1,0,0,0-1.73,1c1.37,2.8,2.48,7.19,6,7.87A1,1,0,0,0,71.9,79.2a58.8,58.8,0,0,0-2.19-6.06c-0.93-2.15-3.14-5.46-3.35-7.54l-1.86.5c2.1,3.06,4.16,6.26,7,8.74a1,1,0,0,0,1.67-1c-0.67-4.61-3.73-8.67-6.2-12.54l-1.73,1c1.87,2.55,4.56,9.14,8.43,7.11A1,1,0,0,0,74,68.08a70.79,70.79,0,0,0-4.77-8.43L67.84,61c2.78,1.88,5,4.67,7.49,7a1,1,0,0,0,1.41-1.41C75,64.49,70,58.34,66.45,61.42,62.7,64.64,65.13,73.26,64,77.22l2,0.27c-0.46-4.45-.68-8.91-0.9-13.39a1,1,0,0,0-1.86-.5,8.29,8.29,0,0,0-.86,4.18c0,3.67.08,7.14-.27,10.82l1.86-.5c-1.85-3-1.21-11-1.39-14.46l-2,.27c0.86,5.79.85,11.66,1.56,17.47,0.15,1.24,2.05,1.32,2,0L64.59,79l-1.57.2a15.34,15.34,0,0,1,2.78,5.58,12.06,12.06,0,0,0,.57,2.52,4.19,4.19,0,0,0,2,1.84,1,1,0,0,0,1.5-.86C69.55,85.88,68.75,82,70,79.8l-1.57.2c1.64,1.7,2.44,4.18,3.41,6.27A1,1,0,0,0,73.67,86c0.12-.79-0.52-6.79-0.38-6.91l-1.67-.44c0.72,2.52,1.4,5.05,2.06,7.59l1.67-1c-1.23-1.32-1.8-1.93-3.63-1.84a1,1,0,0,0-.86.5c-1.4,2.87-.09,5.28,2.41,7.19L74,89.31l-1.43-.57-0.53,1.93c2,0.66,4.36.83,6.31,1.76l0.5-1.86c-1.48.09-3,.14-4.43,0.19a1,1,0,0,0,0,2,11.25,11.25,0,0,0,3.88-.19c1.18-.23.78-1.87-0.27-2a14,14,0,0,0-3-.12,1,1,0,0,0,0,2,32.4,32.4,0,0,0,7.34.06,1,1,0,0,0,.27-2l-0.8-.27-0.27,2c2.19-.14,4.1.07,5-2.4,1.08-3-.83-7.32-0.58-10.5l-2,.27a53.11,53.11,0,0,1,1,9.82l2-.27c-1.47-4.28-1.51-9.35-2.22-13.81a1,1,0,0,0-1.47-.6l-0.22.1a1,1,0,0,0-.5.86c-0.1,3.18.2,6.36-.07,9.53l2-.27c-0.71-1.82-1.28-3.67-1.86-5.54a1,1,0,0,0-2,.27c0,2.42.71,4.8,0.66,7.2l2-.27a69.19,69.19,0,0,0-3.47-7.75,1,1,0,0,0-1.83.24c-0.56,2.72.53,4.79,1.27,7.43l1.83-.77a32.63,32.63,0,0,0-4.3-7.74,1,1,0,0,0-1.71.71c-0.19,3,1.32,5.24,1.52,8.15l1.71-.71c-1.62-1.43-3-2.44-5.18-2.44a1,1,0,0,0-1,1c0.43,3.37,3.9,4.38,6.91,5l0.53-1.93c-1.62-.28-3.23-0.51-4.86-0.7a1,1,0,0,0-.27,2c2.33,0.37,4.68.63,7,1l-0.24-1.83c-1.16.64-4.07,0.39-5.37,0.47a1,1,0,0,0,0,2c2.31,0.19,4.75.71,7,0a1,1,0,0,0,.24-1.83c-4.47-3-10.65-5.92-13.93-10.34L68,80c2.69,0.77,4.27,2,6.71,3.26A4.52,4.52,0,0,0,76,84a3.54,3.54,0,0,0,2.75-.51,1,1,0,0,0,.2-1.57c-2.63-3.34-5.42-6.54-8.16-9.79l-0.71,1.71c2.2,0.21,5.5,4,7.77,5,0.88,0.36,1.47-.78,1.13-1.47-1.58-3.2-4-5.9-6.1-8.76l-0.86,1.5c1.3,0,6.56,5.17,8.09,6A1,1,0,0,0,81.64,75C80,70.7,76.42,67.53,73.28,64.3l-1.41,1.41c2.51,2.58,5.09,7.18,8.77,8.1a1,1,0,0,0,1.13-1.47c-1.79-2.62-3.64-5.18-5.61-7.67-0.74-.94-2.05.25-1.57,1.21q2.54,5.06,5.29,10a1,1,0,0,0,1.83-.77c-0.71-2.5-2.38-6.12-2-8.69H77.78A56.22,56.22,0,0,1,80,76.36c0.2,1.27,2.12.73,1.93-.53a96.63,96.63,0,0,1-1-11.22l-1.71.71c0.74,0.6,1,4,1.24,5q0.67,2.56,1.43,5.09a1,1,0,0,0,1.93-.53,107.68,107.68,0,0,1-1.72-10.8c-0.14-1.26-2.13-1.29-2,0a56,56,0,0,0,1.42,8.24,1,1,0,0,0,2-.27c0.76-6.23-1.37-13.24-3-19.17a1,1,0,0,0-1.83-.24c-1.74,3.07-.15,7-0.62,10.44l1.47-.6c-1.56-1-2.45-7.26-3.07-8.85a1,1,0,0,0-2,.27c-0.06.64,0.57,7.49,0,7.93l1.67,0.44c-0.6-2.39-1-4.86-2.51-6.83a1,1,0,0,0-1.57-.2,7.58,7.58,0,0,1-1.36,1.51c-1.26.59-4.81-.48-3.73-2,0.64-.89,3.82-1.64,4.91-2.2a1,1,0,0,0,.2-1.57c-1.24-1.08-2.15-.76-3.94-0.86l0.27,2q1.5-.32,3-0.51l-0.77-1.83c-2.39,1.11-3.2.72-3.83,3-0.72,2.52.93,6.58,2,8.85a1,1,0,0,0,1.83-.77c-0.4-1.32-.87-2.6-1.36-3.89l-1.67,1c2.19,2.27,4,4.77,6.78,6.29a1,1,0,0,0,1.47-1.13,19.39,19.39,0,0,0-3-6.31,1,1,0,0,0-1.73,1,30.69,30.69,0,0,0,4.84,7,1,1,0,0,0,1.67-1c-0.78-3.08-2-6-4.65-7.91a1,1,0,0,0-1.5.86,20.52,20.52,0,0,0,.22,2.74l1.93-.53a23.75,23.75,0,0,0-2.52-5.22,1,1,0,0,0-1.73,1c0.7,1.3,1.37,2.48,2.85,2.81a1,1,0,0,0,1.23-.7,27.87,27.87,0,0,1,2.42-8.23H74.2c0.56,0.88.07,4.61,0,4.81l1.83-.24c-1.32-1.79-1.53-4.43-2.32-6.53a1,1,0,0,0-2,.27,49,49,0,0,0,.59,5.57l1.93-.53a48.18,48.18,0,0,1-1.12-8.26l-2,.27c0.38,1.52.75,3,1.17,4.53,0.29,1,2.1.89,2-.27-0.32-2.7-.86-5.35-1.33-8l-1.83.77a9.69,9.69,0,0,1,.81,1.6c0.5,1.12,2,.25,1.83-0.77A11.75,11.75,0,0,0,73,38.22c-0.33-1-2-.91-2,0.27a23.91,23.91,0,0,0,.61,5.27c0.9,2.83.32-.9,0.23-1.8-0.12-1.27-.63-3.25-0.29-4.41C72,36,70.89,37,72,36.33c0.6-.34,1.95.45,2.52,0.61a16.14,16.14,0,0,0,4.26.68,1,1,0,0,0,1-.73A2.22,2.22,0,0,0,80,36l-2-.27c0.16,5.05-.2,10.09.21,15.13l1.71-.71a4.79,4.79,0,0,0-1.79-1.56,1,1,0,0,0-1.5.86,6.15,6.15,0,0,0,.51,3.28L79,52c-1.27-2.15-2.6-4.26-3.86-6.41l-1.57,1.21C74.85,47.87,76,49,77.24,50.14a1,1,0,0,0,1.67-.44c0.7-3.05-2.35-5.68-3.74-8.2L73.8,42.87c1.63,0.76,2.71,2.28,4.2,3.26a1,1,0,0,0,1.37-1.37c-1-1.7-3.22-3.73-3.92-5.53L74,40.36a10.19,10.19,0,0,0,2.86,1.46c1,0.41,1.51-1,1-1.67-0.69-.87-2-1.72-2.49-2.72L74.19,38.9l1.64,0.29a1,1,0,0,0,1-1.67,8.68,8.68,0,0,0-1.71-1.59l-0.2,1.57c3.07-1.86,3.65,10.75,3.77,12.3,0.24,3.13.69,6.25,0.86,9.38l2-.27a44,44,0,0,1-.83-12.45l-1.27,1c-0.81-.16-0.35-2.26.14,3,0.1,1.09.14,2.19,0.19,3.28,0.16,3.47.34,6.91,0.72,10.36,0.24,2.19.56,4.35,1,6.51,0.66,3.64,1.17,4.85-3,4a1,1,0,0,0-1,1.67,17.93,17.93,0,0,0,2.93,2.2l1-1.73a32,32,0,0,0-3.57-1.81c-0.82-.35-2,0.44-1.37,1.37,1.28,1.94,1.52,2.95-1.13,3.7-2.09.6-4.78,0.32-7,.45a63.82,63.82,0,0,0-12.79,2.26c-4.58,1.17-3.47-2.86-6.88-3.91-2.52-.77-4.11,2.62-5.33,3.94l1.57,0.2c-0.93-1.49-.88-3.42-0.93-5.1a1,1,0,0,0-2,0l-0.66,5a1,1,0,0,0,1.93.53c0.09-.27.69-3.51,1-3.62l-1.27-1a56.2,56.2,0,0,0,.31,7.36,1,1,0,0,0,1.67.44c1.29-1.17,1.75-2.61,3-3.91l-1.57-.2c1.13,2.59.37,5.64,1.17,8.34a1,1,0,0,0,1.83.24c1-1.31,1.48-2.79,2.44-4.1L50,86.74a20.69,20.69,0,0,1,.19,4.63,1,1,0,0,0,1.5.86c2.29-1.75,2-4.55,3.75-6.85l-1.86-.5A40.53,40.53,0,0,1,53.48,91a1,1,0,0,0,1.86.5c1.23-2.08,2.41-6.24,4.28-7.56l-1.47-.6a25.33,25.33,0,0,1,.2,6.08,1,1,0,0,0,1.86.5c1.46-2.22,2.25-5.93,4.2-7.54l-1.71-.71c0,2.17-.44,4.29-0.47,6.46a1,1,0,0,0,1.86.5,26.85,26.85,0,0,0,2.12-4.47c0.07-.25.64-2.72,0-1.18a4.52,4.52,0,0,0,0,3.88,1,1,0,0,0,1.83.24c0.94-1.85,1.82-4.26,3.27-5.77l-1.67-.44a24.8,24.8,0,0,1-.1,6.11,1,1,0,0,0,1.86.5A47.78,47.78,0,0,0,74,81.37l-1.83.24c0.5,0.73-.83,4.34-0.94,5.06-0.15,1,1.26,1.87,1.83.77,0.69-1.32,1-3.21,2.69-2.53,1.33,0.53,1.08,1.3,1.41,2.64a1,1,0,0,0,1.83.24c1.2-2.17,1.59-.78,3.29.06a1,1,0,0,0,1.37-.36l0.84-1.15-1.57.2,0.9,1.53,1.83-.77L85.43,87a1,1,0,0,0-1.73,1l0.52,1.24L84.92,88C79,89.28,77.24,76.59,75.45,73.07c-2.29-4.5-6.2-6.53-9.68-9.87l-0.44,1.67c1.23-.35,2.46-0.55,3.66-1a1,1,0,0,0,.73-1c-0.12-2.69-2.6-3.16-5-3.67a1,1,0,0,0-.53,1.93,11.16,11.16,0,0,0,3.4,1.07,1,1,0,0,0,.53-1.93A38,38,0,0,0,58,58.44a1,1,0,0,0-.86,1.5c0.76,1.4,2.29,1.59,3.8,1.71a1,1,0,0,0,.86-1.5c-1.89-3-8.6-5.34-11.35-2.21-2.37,2.7,0,1.58-1.53-.35a2.12,2.12,0,0,0-.7-0.7c-1.64-1-3.27.71-4.25,1.84-0.69.8,0.23,2.27,1.21,1.57,0.3-.21,2.76-2.21,3.23-1.85a1,1,0,0,0,1.57-.2c1.77-3.91.55-1.07,1.88,1a1,1,0,0,0,1.57.2c3-3.12,3-7.54,2.92-11.63l-1.27,1,1,0.31a1,1,0,0,0,1.13-.46c1-2.1.31-3.75,0.66-6L56.28,43l1.85,1.83a1,1,0,0,0,1.67-.44l0.42-1.24H58.5c1.94,3.55,3.71,7.55,7,10.09,3.51,2.73,6.65,1,10.86.91v-2c-1.69.1-3.36,0.26-5,.46-1.26.15-1.28,2.15,0,2,1.68-.19,3.35-0.35,5-0.46a1,1,0,0,0,0-2c-3.26,0-6.74,1.09-9.76-.63s-4.8-6.55-6.35-9.39a1,1,0,0,0-1.73,0,7.28,7.28,0,0,0-.62,1.71l1.67-.44L57.7,41.61A1,1,0,0,0,56,42c-0.08.53-.07,4.88-0.36,4.79a1,1,0,0,0-1.27,1c0.08,3.37.19,7.56-2.33,10.22l1.57,0.2C52.91,57.11,53,55.33,52.7,54a1,1,0,0,0-1-.73c-2.34,0-2.57,2-3.43,3.94l1.57-.2c-1.95-1.51-4,.34-5.65,1.53l1.21,1.57c2.43-2.81,1.56.87,3.36,1.79A1,1,0,0,0,50,61.78c1.13-1.38,2-2.79,4.11-3.12,1.36-.21,5.2,1.23,6,2.49L61,59.65a2.24,2.24,0,0,1-2.07-.71L58,60.44a36.08,36.08,0,0,1,9.57,1.83l0.53-1.93a11.16,11.16,0,0,1-3.4-1.07L64.23,61.2c0.28,0.06,3,.65,3,1,0,0.21-1.91.58-2.45,0.73a1,1,0,0,0-.44,1.67c2.72,2.61,6.11,4.34,8.28,7.54s2.89,7,4.17,10.66c1.44,4.1,3.79,8.17,8.65,7.11a1,1,0,0,0,.7-1.23c-0.23-.62-0.44-1.11-0.72-1.72L83.7,88l0.19,0.32c0.57,0.93,2.25.33,1.83-.77a5.89,5.89,0,0,0-1.41-2.41,1,1,0,0,0-1.57.2L81.9,86.48l1.37-.36c-1.15-.57-1.72-2.2-3.06-2.29-1.76-.12-2.27,1.71-3,3L79.08,87c-0.54-2.21-.58-3.78-2-5.59a1,1,0,0,0-1-.26c-2.61.82-3.55,2.88-4.78,5.26l1.83,0.77c0.36-2.44,2.27-4.36.74-6.6a1,1,0,0,0-1.83.24,43.44,43.44,0,0,1-2.33,5.66L71.59,87a25.63,25.63,0,0,0,0-6.65,1,1,0,0,0-1.67-.44c-1.7,1.77-2.47,4-3.59,6.17l1.83,0.24c-1.1-2.64,2.26-5.32-1.2-6.64a1,1,0,0,0-1.13.46c-1.15,2.5-2.22,5-3.48,7.48l1.86,0.5c0-2.17.43-4.29,0.47-6.46A1,1,0,0,0,63,81c-2.52,2.07-2.76,5.28-4.52,7.94l1.86,0.5a26.6,26.6,0,0,0-.27-6.61,1,1,0,0,0-1.47-.6c-3,2.1-3.2,5.24-5,8.28L55.48,91a40.53,40.53,0,0,0,.06-6.09,1,1,0,0,0-1.86-.5c-1,1.3-1.94,5.29-3,6.13l1.5,0.86a21.79,21.79,0,0,0-.26-5.16A1,1,0,0,0,50.06,86c-1,1.31-1.47,2.79-2.44,4.1l1.83,0.24c-0.93-3.11,0-5.77-1.37-8.82a1,1,0,0,0-1.57-.2c-1.12,1.2-1.76,2.81-3,3.91l1.67,0.44A53.91,53.91,0,0,1,45,78.81a1,1,0,0,0-1.27-1c-2.42.82-1.69,2.87-2.41,5l1.93,0.53c0.25-1.85.49-3.7,0.73-5.54H42C42,80.1,42,82,43.15,84a1,1,0,0,0,1.57.2c0.93-1,2.21-3.33,3.85-2.76,1.1,0.38,1.69,2.84,2.82,3.6,2.15,1.45,4-.22,6.22-1,4.34-1.54,9.13-1.5,13.69-1.72,3.21-.16,6.8.15,9.24-2.17a1,1,0,0,0,.16-1.21,36.32,36.32,0,0,0-2.57-3.61l-1.37,1.37a32,32,0,0,1,3.57,1.81,1,1,0,0,0,1-1.73,16,16,0,0,1-2.53-1.88l-1,1.67c2,0.42,3.72,1,5.78.71a1,1,0,0,0,.73-1c0-4.64-1.67-9.45-2.11-14.1C81.76,57,81.48,51.73,81,46.53a1,1,0,0,0-.73-1l-0.38-.07a1,1,0,0,0-1.27,1,45.93,45.93,0,0,0,.9,13,1,1,0,0,0,2-.27c-0.36-6.49-.43-13.87-2.05-20.17-0.71-2.76-2.64-5-5.59-3.23a1,1,0,0,0-.2,1.57,8.68,8.68,0,0,1,1.71,1.59l1-1.67L74.72,37a1,1,0,0,0-1.13,1.47c0.64,1.27,1.91,2,2.8,3.12l1-1.67L75,38.64a1,1,0,0,0-1.47,1.13c0.91,2.32,2.81,3.85,4.12,6L79,44.41c-1.53-1-2.52-2.48-4.2-3.26a1,1,0,0,0-1.37,1.37C74,43.58,77.32,47.69,77,49.17l1.67-.44c-1.21-1.14-2.38-2.27-3.67-3.33a1,1,0,0,0-1.57,1.21C74.67,48.76,76,50.87,77.27,53a1,1,0,0,0,1.83-.77L78.65,49.5l-1.5.86,1.38,1.24a1,1,0,0,0,1.71-.71c-0.42-5-.06-10.08-0.21-15.13,0-1.07-1.76-1.42-2-.27-0.1.58-6-1.54-7.63-1.67a1,1,0,0,0-1,1,32.91,32.91,0,0,0,1.44,12.29,1,1,0,0,0,1,.73l1.07,0.08a1,1,0,0,0,1-1c-0.05-2.84-.68-5.6-0.88-8.44l-2,.27a11.75,11.75,0,0,1,.83,3.55l1.83-.77a9.69,9.69,0,0,0-.81-1.6,1,1,0,0,0-1.83.77c0.44,2.5,1,5,1.26,7.5l2-.27c-0.42-1.51-.79-3-1.17-4.53a1,1,0,0,0-2,.27,51,51,0,0,0,1.19,8.8c0.24,1.28,2.12.72,1.93-.53a26.78,26.78,0,0,1-.51-5l-2,.27c0.89,2.36,1,5,2.52,7,0.44,0.6,1.69.71,1.83-.24,0.34-2.26,1-4.38-.24-6.35a1,1,0,0,0-1.73,0,26.4,26.4,0,0,0-2.62,8.71l1.23-.7a3,3,0,0,1-1.65-1.89l-1.73,1a21.66,21.66,0,0,1,2.31,4.74,1,1,0,0,0,1.93-.53l-0.15-2.21-1.5.86c1.87,1.36,3.19,4.6,3.73,6.71l1.67-1a28.81,28.81,0,0,1-4.53-6.57l-1.73,1a18.41,18.41,0,0,1,2.78,5.83l1.47-1.13c-2.6-1.41-4.35-3.88-6.38-6a1,1,0,0,0-1.67,1c0.48,1.3,1,2.57,1.36,3.89l1.83-.77C69.07,57.4,68,53.2,71.68,51.51c1.12-.52.25-2-0.77-1.83s-2,.29-3,0.51c-1.16.22-.8,1.9,0.27,2a6.13,6.13,0,0,1,2.52.28l0.2-1.57c-2.46,1.25-7.43,1.72-6,5.33a6.53,6.53,0,0,0,4.52,3.13c2.06,0.12,2.73-1.25,4.06-2.66l-1.57-.2c1.36,1.77,1.78,4.24,2.31,6.35a1,1,0,0,0,1.67.44,2.08,2.08,0,0,0,1-1.8,7.09,7.09,0,0,0-.35-2.28,19.36,19.36,0,0,1-.14-5.27l-2,.27c1.27,3.26.79,8.06,4,10a1,1,0,0,0,1.47-.6,35.28,35.28,0,0,0,.39-4.41c0-1.26-.54-4.54,0-5.55l-1.83-.24c1.6,5.82,3.67,12.58,2.93,18.64l2-.27a52.58,52.58,0,0,1-1.35-7.71h-2a112.91,112.91,0,0,0,1.79,11.33l1.93-.53q-1.09-3.64-2-7.34c-0.27-1.09-.26-2.89-1.18-3.65a1,1,0,0,0-1.71.71A101.2,101.2,0,0,0,80,76.36l1.93-.53a56.22,56.22,0,0,0-2.19-9.92c-0.29-.83-1.77-1.06-1.93,0-0.52,3.42,1.06,6.48,2,9.75l1.83-.77q-2.75-5-5.29-10l-1.57,1.21c1.86,2.36,3.6,4.78,5.3,7.26l1.13-1.47c-2.37-.6-6.28-5.94-7.89-7.59a1,1,0,0,0-1.41,1.41c2.76,2.84,6.4,6.07,7.84,9.8l1.47-1.13a20.19,20.19,0,0,1-4.73-3.6,16,16,0,0,0-1.78-2,3.9,3.9,0,0,0-2.6-.65,1,1,0,0,0-.86,1.5c2.08,2.81,4.55,5.62,6.1,8.76l1.13-1.47c-3.27-1.33-4.7-4.67-8.31-5a1,1,0,0,0-.71,1.71C72.16,76.81,75,80,77.59,83.35l0.2-1.57c-0.9.47-7.87-3.29-9.21-3.67a1,1,0,0,0-1.13,1.47c3.54,4.76,9.82,7.78,14.64,11.06l0.24-1.83c-1.87.61-4.5,0.1-6.44-.06v2c2.26-.14,4.39.36,6.37-0.75A1,1,0,0,0,82,88.17c-2.33-.39-4.68-0.65-7-1l-0.27,2q2.18,0.22,4.33.63c1.25,0.22,1.8-1.69.53-1.93-2.37-.45-6.29-3.36-2.68-0.17a1,1,0,0,0,1.71-.71c-0.2-2.87-1.71-5.21-1.52-8.15l-1.71.71a31.27,31.27,0,0,1,4,7.33c0.45,1.06,2.13.3,1.83-.77-0.49-1.74-1.63-4.64-1.27-6.37l-1.83.24A65.25,65.25,0,0,1,81.4,87.2a1,1,0,0,0,2-.27c0.05-2.44-.67-4.74-0.66-7.2l-2,.27c0.58,1.87,1.15,3.72,1.86,5.54a1,1,0,0,0,2-.27c0-.57-0.26-8.74-0.2-8.76l-1.47-.6c0.72,4.52.73,9.46,2.22,13.81a1,1,0,0,0,2-.27A56.18,56.18,0,0,0,86,79.1c-0.2-1.18-1.88-.79-2,0.27-0.26,3.43,2.81,10.57-2.41,10.9a1,1,0,0,0-.27,2l0.8,0.27,0.27-2a32.4,32.4,0,0,1-7.34-.06v2a14,14,0,0,1,3,.12l-0.27-2a6.69,6.69,0,0,1-3.35.12v2c1.48,0,3-.1,4.43-0.19a1,1,0,0,0,.5-1.86c-2.15-1-4.53-1.24-6.79-2-1.25-.4-1.7,1.46-0.53,1.93l1.43,0.57c1.15,0.46,1.58-1.21.77-1.83l-0.34-2.7a1,1,0,0,0,1.67-1c-0.66-2.54-1.34-5.07-2.06-7.59a1,1,0,0,0-1.67-.44c-2.39,2.19.32,4.85-.13,7.79l1.83-.24c-1.13-2.44-1.85-4.73-3.72-6.68a1,1,0,0,0-1.57.2c-1.64,2.93-.82,6.29-0.46,9.52l1.5-.86c-1.08-.59-1.88-4.69-2.4-5.8a19.54,19.54,0,0,0-2.49-3.83,1,1,0,0,0-1.57.2c-0.84,1.71-.81,1.43-0.73,3.35h2c-0.74-6-.75-12-1.64-18-0.17-1.11-2-.85-2,0.27,0.19,3.68.2,7.4,0.4,11.06a7.94,7.94,0,0,0,1.27,4.41,1,1,0,0,0,1.86-.5c0.22-2.24.4-4.47,0.49-6.72,0.08-1.78-.27-6,0.37-7.28l-1.86-.5c0.22,4.47.44,8.93,0.9,13.39a1,1,0,0,0,2,.27c0.82-2.88.29-5.29,0.42-8.25a15.74,15.74,0,0,1,.53-3.81q0-2.87,2.87-1.24c2.89,0.41,3.76,1.37,5.6,3.53l1.41-1.41c-2.61-2.44-4.93-5.27-7.9-7.27a1,1,0,0,0-1.37,1.37,70.77,70.77,0,0,1,4.77,8.43l0.36-1.37c-0.79.41-5.6-6.26-5.69-6.39-0.74-1-2.43-.1-1.73,1,2.31,3.61,5.38,7.8,6,12.06l1.67-1C70.22,71.1,68.22,68,66.23,65.1c-0.5-.73-2-0.57-1.86.5a11.16,11.16,0,0,0,1.4,4.5A56.17,56.17,0,0,1,70,79.73L71.2,78.5c-1.81-.35-4.05-5.52-4.76-7l-1.73,1C66.14,75,70.38,81,70.09,84l1.86-.5A83.88,83.88,0,0,1,67,76a5.68,5.68,0,0,0-2.53-2.58,1,1,0,0,0-1.37,1.37,83.27,83.27,0,0,1,4.78,10.61l1.47-1.13c-2.64-1.78-4.55-5.29-5.94-8.11l-1.57,1.21c1.58,1.85,5.44,6.44,5.27,9.17l1.5-.86c-2.54-1.75-4.76-3.93-7.12-5.91a1,1,0,0,0-1.67,1C60.55,84.23,64,86,65.61,89.18l1.13-1.47c-2.59-.48-4.92-2-7.16-3.37l-1,1.73a64,64,0,0,1,6.58,4.2l0.5-1.86c-1.41,0-4.29-1.91-5.26-2.68l-1,1.67c2.39,0.82,4.77,1.69,7.16,2.53,1,0.37,6.17,1.43,6.58,2.44l0.7-1.23c-2.28.41-4.56,0.74-6.85,1.08-1.15.17-.81,1.93,0.27,2A53.69,53.69,0,0,0,74.82,94l-0.27-2a71.17,71.17,0,0,1-11.75,1.12l0.27,2a43.92,43.92,0,0,1,6.57-.72,1,1,0,0,0,0-2,44.68,44.68,0,0,1-8.47-.66l0.24,1.83c1.34-.89,4.49-0.52,6.2-0.76,1-.15.88-1.68,0-1.93-2.71-.76-5.54-0.86-8.27-1.57L58.81,91.2c1.94,0.42,3.86.88,5.77,1.4l0.27-2a15.05,15.05,0,0,1-8.65-3.38l-1,1.67a25.7,25.7,0,0,1,4.49,1.79c0.94,0.43,2.17-.81,1.21-1.57a104.27,104.27,0,0,1-9-7.91l-1.21,1.57C53,84,54.41,86.06,56.6,87.3a1,1,0,0,0,1.21-1.57c-1-1.08-5.08-4.81-5-6,0.07-.81-0.29-0.52.88,0a11.54,11.54,0,0,1,3,2.56l1.41-1.41c-2-1.68-3.7-3.77-5.93-5.07A1,1,0,0,0,50.8,77.2c2.1,2.9,3.68,7.08,7.78,4.9a6.27,6.27,0,0,0,2.76-3c1.92-3.69,3.4-7.77,5.25-11.53H64.86c0.41,0.66-3.22,7.82-3.2,7.78-1.49,3.56-2.84,7.39-5,10.57l1.83,0.77a134.79,134.79,0,0,1,6.3-19.05,1,1,0,0,0-1.83-.77A77.14,77.14,0,0,1,55,81h1.73C56.09,79.83,59,74.17,59,74.08c0.92-2.17,1.81-5.41,3.31-7.28l-1.57-1.21c-2.35,5.33-4.56,11.75-8.33,16.24l1.67,1c0.83-5.13,3.51-9.69,4.58-14.8a1,1,0,0,0-1.23-1.23c-2.37.65-3,1.75-4.64,3.67-0.51.62-5.3,7.35-5.84,7.24l0.6,1.47A106.08,106.08,0,0,1,57,64.67l-1.67-1c-1,4.49-3.36,8.46-4.4,13a1,1,0,0,0,1.83.77c2.81-4,5.19-8.27,7.8-12.4l-1.83-.77c-2,4.91-4.34,9.72-5.23,15a1.06,1.06,0,0,0,.46,1.13l1,0.73a1,1,0,0,0,1.21-.16,65.52,65.52,0,0,0,6.57-8.3c1.82-2.55,5.24-5.92,5.77-9,0.92-5.25-5.12-10-5.7-15l-1.86.5c1.74,2.58,3.39,5.19,5,7.87l1.73-1c-2.13-3.38-4-6.9-6.19-10.26-0.58-.9-2.26-0.34-1.83.77,1.38,3.53,4.22,7.41,4.24,11.15L65.5,57a17.61,17.61,0,0,1-4-6.79,5.86,5.86,0,0,0-.61-1.89,2.17,2.17,0,0,0-2.58-.93,1,1,0,0,0-.6,1.47,118.19,118.19,0,0,1,4.69,11.58l1.67-1c-2.57-2.16-4.3-7.22-6-10.17a1,1,0,0,0-1.83.77c1.18,3.2,4.74,10,4.11,13.33l1.83-.24a46.24,46.24,0,0,1-4.59-9.37c-0.46-1.17-2.35-.71-1.93.53,1.16,3.43,3,7.1,3.18,10.72l1.86-.5c-1.51-2-2.41-4.45-3.48-6.69-0.52-1.08-2-.28-1.83.77,0.67,3.49,1.66,6.9,2,10.44l1.5-.86c-2-1.51-3.06-6.52-3.89-8.91a1,1,0,0,0-1.93.53,58,58,0,0,1,1.4,9.8l1.5-.86c-1.86-.87-3.12-7.31-3.74-9a1,1,0,0,0-1.93.53c0.53,3.33,2.6,8.59,1.49,11.74l1.83-.24c-1.52-2.55-2.59-5.29-3.87-8a1,1,0,0,0-1.86.5c0,4,1.67,7.61,1.37,11.69L51,75.33c-3.26-2.69-4.66-6.65-8-9.24a1,1,0,0,0-1.5.86c0.08,2.18.64,4.18,0.84,6.37L44,72.61c-1.75-1.71-2.68-4.59-3.42-6.84a1,1,0,0,0-1.93.53,15.42,15.42,0,0,1,.71,3.87l2-.27c-0.76-2.5-1.92-6.08-1.07-8.66l-1.83.24c1.09,1.6,1.93,5,4.11,5.48s3.94-2.67,5.74-3.5c2.11-1,3.62-1.22,4.38-3.51C54,56,53.85,50.85,54,46.73a1,1,0,0,0-2-.27c-0.54,2.85-1.27,5.68-1.76,8.53a1,1,0,0,0,1.23,1.23c1.84-.42,2.95-1.64,4.25-3a1,1,0,0,0-1-1.67,43.72,43.72,0,0,0-4,2.16,32,32,0,0,1-6.68,1.89c-1.66.4-4.23,1-3.87,3.37,0.21,1.35,1.12,1.66,2.34,1.68,0.5,0,.89-1,1.09-1,1.59,0.19,2.26,3.26,2.92,4.47a1,1,0,0,0,1.86-.5c0.13-1.76.19-3.52,0.29-5.29l-1.86.5c1.1,1.78,1.43,3.89,2.34,5.76a1,1,0,0,0,1.86-.5,22.15,22.15,0,0,1,.14-4.94l-1.83.24a20.53,20.53,0,0,1,2.11,4.51c0.41,1,1.84.4,1.86-.5,0.06-2.61-.33-5.19-0.25-7.8l-2,.27c0.4,1.36.82,2.69,1.28,4a1,1,0,0,0,1.47.6,2.09,2.09,0,0,0,1.46-2A10.36,10.36,0,0,0,54.7,56a27.77,27.77,0,0,1-.48-6.37l-1.27,1c1,0.3,2,2.71,2.38,3.46a1,1,0,0,0,1.83-.77c-0.82-4-2.08-9.52-5.57-11.92a1,1,0,0,0-1,0c-2.57,1.76-3.32-3.75-3.1-5.68l-1.27,1c3.25,0.86,6.83.75,10.14,1.36,1.25,0.23,1.8-1.66.53-1.93a12.61,12.61,0,0,1-2.15-.56l-0.27,2c2.14,0.25,3.67.75,5.76,0.24a1,1,0,0,0,0-1.93c-4.44-1.44-9.68-.89-12,3.47H50l0.05-1L48.17,38a4.58,4.58,0,0,0,.72,2.13,1,1,0,0,0,1.73,0c0.19-.26,1.48,3.15,2.13,3.39,1.43,0.55,1.09,0,2.3-.21,1.51-.3,3.36-2.13,5.25-0.83,1.33,0.91,2.08,3.89,2.55,5.3,0.74,2.2.9,4.36,2.36,6.18,0.68,0.85,1.84-.1,1.67-1-0.79-4-1.47-8.07-2.24-12.1-0.37-2-.58-4.2-2.11-5.61l-1,1.67c1.72,0.58,1.74,1.42,1.74,3.17l2-.27L65,38.06c-0.2-1.19-1.87-.78-2,0.27-0.16,1.75-.19,3.44-0.18,5.2l1.71-.71c-0.73-.91-0.88-3.1-1.32-4.16a1,1,0,0,0-2,.27c0,0.59.61,2.71,0.4,3.1h1.73c-0.93-1.74-1-3.6-2.81-4.56a1,1,0,0,0-1.5.86c0,1.76-.81.37-1.93-0.23A18.21,18.21,0,0,0,54.51,37a1,1,0,0,0-1.23,1.23c0.45,1.48,1.56,2.31,2.56,3.5l1-1.67c-1.84-.28-4-2.34-5.52-3.29a1,1,0,0,0-1.47,1.13c1,2.47,3.32,3.85,4.51,6.26l1.37-1.37a31.89,31.89,0,0,1-4.24-3.05A1,1,0,0,0,50,40.89c0.64,2.49,2.66,4,3.1,6.55l1.47-1.13c-1.46-.79-2.16-1.85-3.79-2a1,1,0,0,0-.86,1.5c1.23,2.16,2.51,4.29,3.74,6.44L55,50.85c-1-.62-2.82-4.56-2.94-5.15l-1.47,1.13c1.55,1,2.68,2.39,4.53,2.69a1,1,0,0,0,1.23-1.23C56,47.37,54.73,45,55.2,43.9l-1.37.36A26.76,26.76,0,0,1,59,49.82a1,1,0,0,0,1.83-.77,33.64,33.64,0,0,1-.72-5.89l-1.5.86c2.68,1.26,3.22,5.91,5.11,8.3a1,1,0,0,0,1.71-.71,59.92,59.92,0,0,0-.34-6.74c-0.11-1-1.74-1.47-2-.27-0.39,2.16-.13,4.67-0.75,6.73h1.93C63.41,46,63.34,40.58,62,35.28l-1.67,1,0.58,0.49L61.57,35c-1.6-.06-3.18-0.12-4.78-0.1-1.08,0-1.42,1.8-.27,2a6.64,6.64,0,0,0,3.19-.06,1,1,0,0,0,0-1.93,82.21,82.21,0,0,0-10.71-1c-1.18-.09-1.27,1.61-0.27,2L51.88,37l0.27-2c-2.62-.18-5.08-0.2-5.93,2.54-0.48,1.56.07,3.88,0.13,5.53a33.4,33.4,0,0,0,.82,7.55,1,1,0,0,0,1.93,0c1.4-3.59-.24-8.86-0.7-12.49l-2,.27c0.71,2.93,1.13,5.91,1.76,8.86,0.23,1.08,2.1.86,2-.27-0.32-2.59-.78-5.19-1.34-7.74-0.24-1.08-2.1-.87-2,0.27,0.33,2.73.88,5.39,1.33,8.1s1.35,4.13-2.1,5.39a27.16,27.16,0,0,1-3.47.37,1,1,0,0,0,.27,2c1.51,0,3-.08,4.47,0l-0.27-2c-2.2.36-9.29-.21-8.42,3.62,0.24,1.08,2.11.86,2-.27-1-7.95.62-19.16-9.07-21.39l-0.27,2c2.31-.1,5.89-1.58,7,0.64s0.43,6.94.66,9.34c0.12,1.26,2.09,1.29,2,0A18.21,18.21,0,0,1,40.81,44l-2,.27a30.76,30.76,0,0,1,.56,6.14h2c-0.13-1-.26-1.91-0.4-2.86a1,1,0,0,0-2,.27c0.37,2.81,1,5.55,1.51,8.33l1.67-1c-0.83-.72-1.19-3.55-1.56-4.47a1,1,0,0,0-1.93.53c0.77,3.39,1.69,6.73,2.14,10.19l1.71-.71c-1.27-1.47-1.84-3.69-2.45-5.46a1,1,0,0,0-1.93.53A86.91,86.91,0,0,0,41.36,65.9c0.42,1.2,2.32.71,1.93-.53-0.48-1.5-.87-3-1.22-4.51l-1.67,1c3.89,4,6,15.34,12.94,15.15a1,1,0,0,0,1-.73c1-2.33.82-4.56,0.66-7.07l-2,.27c0.2,1,.14,2.82.72,2.64-0.8.24-3.28-4.07-3.89-4.94A81.64,81.64,0,0,0,44.15,60a1,1,0,0,0-1.71.71c-0.63,5,6,9.56,6.24,14.74l1.71-.71a122.14,122.14,0,0,1-9.72-12.29,1,1,0,0,0-1.73,1c2.6,4.74,8.16,11.33,8.71,16.82l1.71-.71c-2.94-3-5-6.85-7.61-10.13-0.73-.9-2.13.25-1.57,1.21,2.87,4.95,6,9.74,9.06,14.55L50.82,84c-2.9-2.84-5.33-6.58-7.72-9.85L41.53,75.4c4.34,4,8,8.73,12,13.06l1.21-1.57c-1.53-.9-2.85-2.75-4.09-4-1.88-1.91-5-4.08-6.1-6.53l-1.57,1.21c4.06,3.48,8.11,7,11.91,10.76l1.21-1.57A69.37,69.37,0,0,1,46,80l-0.77,1.83c3.48,1.29,10.42,5.54,11.33,9.38L57.21,90c-2.09.71-4.86-.09-7,0a1,1,0,0,0-.27,2C55,93.7,60.34,94.29,65.42,96l-0.24-1.83a11.79,11.79,0,0,1-5.52.46l0.27,2c2.13-.36,4.07-0.19,6.06-1a1,1,0,0,0-.24-1.83c-4-.7-8.15.11-12.23-0.18v2c0.87,0,3.48-.06,4.18.6l0.44-1.67a26,26,0,0,1-9.72,1.33l0.27,2a32.31,32.31,0,0,1,5.6-.61l-0.27-2a31.73,31.73,0,0,1-7.07.24l0.27,2a35.06,35.06,0,0,1,6-.52,1,1,0,0,0,0-2c-2.83-.24-5.92-0.5-8.66.42a1,1,0,0,0,.27,2,7.57,7.57,0,0,0,4.78-.82A1,1,0,0,0,50,95.3c-0.74-2.63-4-3.21-5.55-5.43l-1.13,1.47A10.43,10.43,0,0,1,47,94l1.21-1.57A24.46,24.46,0,0,1,41,86.24L39.58,87.6A18.63,18.63,0,0,1,45.45,93L47,91.8c-1.15-1.22-5.25-4.64-5.09-6.38l-1.5.86c3.7,2,6.83,4.7,10.06,7.35a1,1,0,0,0,1.41-1.41c-3.43-4.32-7.42-8.31-10-13.21L40.5,80.39c2.23,1.43,4.15,4.1,6,6a34.37,34.37,0,0,1,5,5.74l1.37-1.37c-5-2.61-9.69-7.67-13.27-11.94l-0.71,1.71C40.36,80.43,44,86.1,44.74,87,46,88.78,47.45,90.28,47,92.56q0.62,2.36-1.78,2.13-1.64.31-3.26,0.74a1,1,0,0,0,.27,2c1.79,0.14,3.53,0,5.31.08l-0.27-2c-1.88.71-4.48,0.44-6.37,0.12v1.93c1.7-.57,3.56-0.31,5.31-0.59,1.15-.18.82-1.94-0.27-2-1.5,0-3.93,0-5.19-.85v1.73c2-1.06,4.32-1,6.5-1.11a1,1,0,0,0,.27-2c-0.66-.25-4.6-0.84-4.42-1.91l-1.47.6c2.1,1.11,2.7,4.11.08,0.38-0.73-1-1.26-2.24-1.88-3.35A1,1,0,0,0,38,89c-0.11,2.39.63,4.74,0.42,7.12l2-.27c-0.66-2.29-1.16-4.63-1.91-6.89-0.33-1-2.1-.92-2,0.27,0.29,2.54,1,5.89.44,8.43l1.67-.44-0.41-.32L38,98.51c1.4-.94,1.32-1.3,1.71-3.06l-2-.27,0,0.71h1.93A40.44,40.44,0,0,1,39,87.26l-2,.27c0.34,1.51.43,3.07,0.75,4.59a1,1,0,0,0,1.93,0c1-4-.34-8.21-1.11-12.15-1.21-6.22-1.78-12.53-2.48-18.83-0.14-1.25-2-1.32-2,0,0.12,3.94,1.13,8.05.92,12h2c-0.28-2.55-.37-5.14-0.4-7.71,0-1.17-.44-4.17.22-5.17L35,59.73c0.32,4.66.86,9.24,1.48,13.87,0.16,1.23,2,1.33,2,0-0.14-4.45-.84-9-0.63-13.46l-2,.27a131.46,131.46,0,0,1,2.49,23.27h2c-0.25-5.32-.25-10.73-0.91-16-0.15-1.24-2.07-1.31-2,0,0.36,6.45.86,14,3.3,20,0.32,0.78,1.77,1.1,1.93,0,0.67-4.78-.95-10.54-1.74-15.26L39,72.95c0.18,1,.73,5.63.8,6.2l2-.27c-1.93-7.36-2.59-15.12-5.13-22.33-0.35-1-2.11-.92-2,0.27,0.22,1.76.74,3.41,1.05,5.15l1.93-.53C36,56.34,32,48.27,32.84,42.86H30.91a134,134,0,0,1,2.7,13.52,1,1,0,0,0,2-.27c-0.23-3.49-.9-7.34-0.41-10.81H33.24c2,4.82,1.43,10.92,3.91,15.46A1,1,0,0,0,39,60.54c0.89-3.58,1.09-9.69-.12-13.15a1,1,0,0,0-1.93,0c-0.46,2-.5,4.06-0.87,6.12l2,0.27c-0.36-4.55,1.34-9.22,1.54-13.8a1,1,0,0,0-1.71-.71c-2,1.94-2,6.46-2.84,8.84l2,0.27c0.19-3.56,1.57-7,1.55-10.56a1,1,0,0,0-1.27-1c-2.91.94-1.63,7.19-3.88,8.27L34.9,46c0.29-2.68,1.78-5.89,1-8.58a1,1,0,0,0-1.47-.6c-1.79,1-1.77,4.21-2.44,5.91h1.93c-0.44-2,.69-4.39-0.48-6.24a1,1,0,0,0-1.73,0c-0.81,1.14-.84,2.14-1.41,3.4l1.86,0.5a8.49,8.49,0,0,1,.52-3.06,1,1,0,0,0-1.93-.53h0Z"/><path class="cls-3" d="M62.81,62.87a12.61,12.61,0,0,1-.43,3.67l1.83-.24c-1.14-2-1-4.34-1.58-6.49l-1.93.53c1.08,2.58,1.39,5.92,3.44,8a1,1,0,0,0,1.57-.2c0.94-1.22.37-3.73,0.43-5.15,0-.33.28-1.27-0.15-0.9s-0.12.35,0.16,0.78,0.49,0.84.73,1.26c0.62,1.12,1.25,2.11,2.65,2.08a1,1,0,0,0,0-2c-0.67,0-1.35-1.88-1.65-2.35a4.19,4.19,0,0,0-1.22-1.44,1.47,1.47,0,0,0-2.2.7,7.46,7.46,0,0,0-.33,3.07c0,0.71.32,2.33-.15,2.94l1.57-.2c-1.78-1.81-2-4.89-2.93-7.12a1,1,0,0,0-1.93.53c0.62,2.36.53,4.8,1.79,7a1,1,0,0,0,1.83-.24,14.52,14.52,0,0,0,.5-4.2c0.07-1.29-1.93-1.28-2,0h0Z"/><path class="cls-3" d="M74.83,54.66a55.19,55.19,0,0,0,.89,6.39,1,1,0,0,0,1.47.6c1-.7.73-2.37,0.67-3.42-0.11-1.92-.44-3.82-0.59-5.74l-1.86.5c0.88,1.33,1.14,3.11,2.21,4.29a1,1,0,0,0,1.21.16c1.3-.63.44-2,0.63-3.07l-1.67.44a5.62,5.62,0,0,1,.42,2.34c0.17,1.26,2.17,1.27,2,0s-0.17-2.69-1-3.76a1,1,0,0,0-1.67.44c-0.08.43-.14,2.09,0.29,1.88L79,55.87c-0.91-1-1.14-2.75-1.9-3.89a1,1,0,0,0-1.86.5c0.12,1.59.39,3.16,0.52,4.76,0,0.49.08,1,.1,1.47a6,6,0,0,0,0,1c0.11,0.45-.37.67,0.27,0.23l1.47,0.6a50.6,50.6,0,0,1-.82-5.86c-0.14-1.27-2.14-1.28-2,0h0Z"/><path class="cls-3" d="M77.53,68.71a7.94,7.94,0,0,0,.07-2.83c0-.56,0-1.12,0-1.67,0-.32.2-1.61-0.18-1.36l-1.21-.16c1.1,1,1.22,2.75,2.55,3.48a1,1,0,0,0,1.37-.36c0.58-.79.31-1.75,0.27-2.65a1,1,0,0,0-2,0,3,3,0,0,1,0,1.64l1.37-.36a4.31,4.31,0,0,1-1-1.62,5.24,5.24,0,0,0-1.15-1.55,1,1,0,0,0-1.21-.16c-0.91.61-.81,1.6-0.82,2.59,0,0.72,0,1.44,0,2.17a6.86,6.86,0,0,1,0,2.3,1,1,0,0,0,1.93.53h0Z"/><path class="cls-3" d="M73,39.53a7,7,0,0,1,.4,2.28l1.83-.24c-0.83-1.53-1.26-3.49-3-4.33a1,1,0,0,0-1,0c-1.45,1-.37,3,0.21,4.15,1.12,2.3,1.85,4.82,3.54,6.79,0.84,1,2.25-.44,1.41-1.41-1.38-1.61-1.92-3.71-2.82-5.59-0.17-.37-0.38-0.72-0.55-1.09s-0.22-.64-0.38-0.91c-0.32-.55.24-0.63-0.41-0.2h-1c1.24,0.62,1.61,2.47,2.23,3.61a1,1,0,0,0,1.83-.24,9.23,9.23,0,0,0-.4-3.34c-0.28-1.26-2.2-.72-1.93.53h0Z"/><path class="cls-4" d="M27.7,37.37a45.51,45.51,0,0,1-.77,5.16l1.83-.24c-0.4-.66,0-3.42,0-4.11a1,1,0,0,0-2-.27c-0.42,1.25-.55,2.92-1.21,4.07l1.83,0.24c-0.27-1.65.25-3.54,0.31-5.21a1,1,0,0,0-2-.27c-0.61,2.5-1.41,7.67.76,9.67a1,1,0,0,0,1,.26c1-.39,1.11-1.13,1-2.15l-1.86.5c1.13,1.61.92,4.13,1.43,6a1,1,0,0,0,1.67.44l0.16-.2c0.8-1-.6-2.42-1.41-1.41l-0.16.2L30,50.46c-0.57-2-.39-4.67-1.63-6.44-0.5-.71-2-0.58-1.86.5,0.09,0.73.88,0.26,1.12-.18a14.67,14.67,0,0,0-.3-2.42,18.37,18.37,0,0,1,.4-4.65l-2-.27c-0.07,1.9-.55,3.85-0.24,5.74a1,1,0,0,0,1.83.24c0.77-1.34.91-3.09,1.41-4.55l-2-.27c0,1.36-.52,3.88.22,5.12a1,1,0,0,0,1.83-.24,50.12,50.12,0,0,0,.84-5.69c0.12-1.28-1.88-1.27-2,0h0Z"/><path class="cls-4" d="M25.8,41c0.71,3.41.53,7.09,1.43,10.41a1,1,0,0,0,1.93-.53A20.74,20.74,0,0,0,27.72,45a1,1,0,0,0-1.83.24c-0.52,2.83-.13,6-0.12,8.85l2-.27c-0.43-2.2-1-4.33-1.28-6.56-0.15-1.12-2-.84-2,0.27,0.08,3.3.31,6.58,0.37,9.88h2c-0.12-2.13-.42-4.24-0.36-6.38l-2,.27c1.44,3.64.27,9.56-.07,13.39h2a32.93,32.93,0,0,1,.76-6.9H25.3c0.61,2.83-.14,6.51-0.4,9.4-0.22,2.35-.12,5.4-1.22,7.55l1.86,0.5a36.05,36.05,0,0,1,1-14l-1.93-.53c-0.71,3.66-1,7.33-1.37,11a1,1,0,0,0,2,.27c1-6.56,1-13.29,2.73-19.73H26c0.39,2.23-.62,8.1,1.83,9.46a1,1,0,0,0,1.5-.86c0.44-4.58-.22-9.2.19-13.76l-2,.27c0.71,2.88.75,6.21,2,8.91a1,1,0,0,0,1.86-.5c0.07-4.85-1.53-9.68-1.94-14.51l-2,.27a114.72,114.72,0,0,1,3.95,22.66c0.3,5.78.36,11.51,1.46,17.21a1,1,0,0,0,2-.27,6.54,6.54,0,0,0-.43-2.06,1,1,0,0,0-2,.27c0,1.43-5.83,4.14-7.1,5.33a33.51,33.51,0,0,0-3.63,4.66,1,1,0,0,0,1.57,1.21A25.34,25.34,0,0,1,30.42,85a5.47,5.47,0,0,0,2.31-1.84,1,1,0,0,0-.86-1.5c-2.91-.08-7.68,2.29-9.69,4.4l1.71,0.71c-0.28-4.79.52-10.1,0.81-14.9,0.33-5.42-.63-11.16,1.54-16.27l-1.83-.24c1.39,7.58,1.14,16.58.67,24.26l2-.27a31.87,31.87,0,0,1-1.09-8.61h-2c0.13,3.17-.39,7.8,1.32,10.65a1,1,0,0,0,1.83-.24l0.19-.68-1.47.6a5.31,5.31,0,0,0,4.5.66A1,1,0,0,0,31,81c0.72-3-4.44-3.86-6.29-5.06L24,77.74c2.11,0.8,4.37,2,6.66,1.8a1,1,0,0,0,.86-1.5c-1.69-2.85-4.37-4.86-6.69-7.16l-1.21,1.57c2.58,1.3,6,4.58,8.93,4.68a1,1,0,0,0,.86-1.5,40.82,40.82,0,0,0-3.49-4.71c-0.79-1-3-3-3.14-4.39l-1.5.86c2.17,1.1,3.89,2.77,5.92,4.06a1,1,0,0,0,1.37-1.37c-1.77-3.22-4.27-5.92-5.89-9.23L26,62.32c-1,.17,1.47,1.82,1.92,2.26a17.8,17.8,0,0,0,2.54,2.15,1,1,0,0,0,1.5-.86c0-3.09-4.58-7.67-2.43-10.54H27.85c2.06,4.8,1.09,11.32.58,16.39a25.9,25.9,0,0,1-2,8.62c-0.36.76-1.45,4-2.07,4.48l1.67,1A12.06,12.06,0,0,1,28,82c0.63-1.06,2.33-1.66.31-.78A1,1,0,0,0,29,83a6.73,6.73,0,0,0,2.78-1.86,1,1,0,0,0-1-1.67c-2.24.34-4.63,2.78-6.79,2.82l1,1.27c1.55-5.95,4-11.7,4.59-17.9A1,1,0,0,0,27.9,65c-2.49,3-1.07,10.95.49,14.18a1,1,0,0,0,1.73,0c1.79-3.59,1-8.63,1-12.53l-1.86.5c0.46,0.95,1.61,10.13,1.87,10-1.2.44-.68,2.37,0.53,1.93,1.67-.61,1.36-1.78,1.18-3.35-0.33-2.9-.57-7-1.86-9.63a1,1,0,0,0-1.86.5c-0.05,3.29.76,8.49-.74,11.52h1.73c-1-2-2.46-9.77-.81-11.75l-1.71-.71c-0.58,6-3,11.6-4.52,17.36a1,1,0,0,0,1,1.27c2.55,0,4.78-2.51,7.32-2.89l-1-1.67a5.94,5.94,0,0,1-1.9,1.35l0.77,1.83c1.29-.56,6.33-4.16,2.84-5.62s-7.49,5.49-8,8a1,1,0,0,0,1.67,1c1.42-1.11,2.28-4.44,3-6.09a27.64,27.64,0,0,0,1.57-7.59c0.64-5.82,1.61-12.71-.76-18.23a1,1,0,0,0-1.73,0C25.13,58,30.07,62.26,30,65.87l1.5-.86A20.18,20.18,0,0,1,27,60.79a1.06,1.06,0,0,0-1.13-.46l-0.39.07a1,1,0,0,0-.6,1.47c1.62,3.31,4.13,6,5.89,9.23l1.37-1.37c-2.07-1.31-3.73-2.94-5.92-4.06a1,1,0,0,0-1.5.86c0.46,3.61,5.12,7,6.9,10.1l0.86-1.5c-2.24-.08-6-3.43-7.93-4.41a1,1,0,0,0-1.21,1.57c2.18,2.16,4.8,4.09,6.38,6.76l0.86-1.5c-1.79.17-4.46-1.1-6.12-1.73-1.1-.42-1.68,1.24-0.77,1.83a19.86,19.86,0,0,0,2.23,1.11c0.68,0.33,3.66,2.2.88,0.53a1,1,0,0,0-1.47.6l-0.19.68L27,80.33c-1.44-2.41-.94-7-1-9.64a1,1,0,0,0-2,0,34,34,0,0,0,1.16,9.14,1,1,0,0,0,2-.27c0.49-7.93.7-17-.74-24.79a1,1,0,0,0-1.83-.24c-1.91,4.49-1.65,8.94-1.69,13.8,0,3.7-.32,7.4-0.39,11.11,0,2.39-.68,4.93-0.54,7.28a1,1,0,0,0,1.71.71c1.6-1.67,5.82-3.88,8.28-3.81L31,82.11c-0.86,1.35-3.31,1.75-4.57,2.58a24.24,24.24,0,0,0-4.54,4.44l1.57,1.21c1.51-2,2.66-4.06,4.84-5.48,1.21-.79,2.94-1,4.08-1.92a4.49,4.49,0,0,0,2.08-3.61l-2,.27,0.36,1.53,2-.27c-1.28-6.64-1-13.33-1.62-20A133,133,0,0,0,29.42,41a1,1,0,0,0-2,.27c0.41,4.82,2,9.66,1.94,14.51l1.86-.5c-1.15-2.47-1.15-5.81-1.8-8.43a1,1,0,0,0-2,.27c-0.41,4.56.25,9.18-.19,13.76L28.8,60c-1.12-.63-0.68-7-0.91-8.27a1,1,0,0,0-1.93,0c-1.69,6.45-1.77,13.17-2.73,19.73l2,0.27c0.37-3.53.62-7,1.3-10.5a1,1,0,0,0-1.93-.53,37.69,37.69,0,0,0-1,14.54c0.12,0.88,1.35,1.49,1.86.5,1.05-2,1.1-4.67,1.34-6.92,0.39-3.62,1.27-8,.49-11.57a1,1,0,0,0-1.93,0,35,35,0,0,0-.83,7.43,1,1,0,0,0,2,0c0.35-4,1.49-10.13,0-13.92a1,1,0,0,0-2,.27c-0.06,2.14.25,4.25,0.36,6.38a1,1,0,0,0,2,0c-0.06-3.3-.28-6.58-0.37-9.88l-2,.27c0.31,2.22.85,4.36,1.28,6.56a1,1,0,0,0,2-.27c0-2.64-.43-5.73,0-8.32L26,46a19.79,19.79,0,0,1,1.24,5.38l1.93-.53c-0.89-3.27-.73-7-1.43-10.41-0.26-1.26-2.19-.73-1.93.53h0Z"/><path class="cls-5" d="M23.68,93.82c1.9,0.87,3.81,1.73,5.73,2.56,1.61,0.7,3.05,1,4.24,2.4a1,1,0,0,0,1.71-.71c0.15-2.45-.11-5-0.11-7.5,0-2,.3-4.24.11-6.23a1,1,0,0,0-1.86-.5,20.51,20.51,0,0,1-6.19,6c-0.55.35-3.78,1.89-1.71,2.17,1.13,0.15,2.16-1.68,3.16-1.86l-1.23-.7a18.24,18.24,0,0,1,0,3.87h2c-0.06-1.74-.21-3.47-0.28-5.21l-2,.27c0.42,2,1.29,6.39,3.88,6.76a1.07,1.07,0,0,0,1.13-.46c1.18-1.61-.62-5.54-0.92-7.15a1,1,0,0,0-1.93,0c-0.27,1.61.49,3.49,1,5s1,3.22,2.25,4.19a1,1,0,0,0,1.47-.6c0.68-2.52-1-4.78-1-7.32l-1.86.5C32.08,91,32,92.89,33,94.6a1,1,0,0,0,1.73,0c0.69-1.07,0-2.54-.32-3.63-0.51-1.71-.57-3.39-1-5.08a2.14,2.14,0,0,0-.44-1.2,1,1,0,0,0-1.21-.16C29,85.72,27.48,89.18,27.58,92s3,5,5.06,6.52A1,1,0,0,0,34,97.19,2.81,2.81,0,0,0,31.5,95.7a1,1,0,0,0-1,1.27c0.4,1.15,2.7,3,3.94,2.13,0.84-.61.52-2.06,0.5-2.93,0-1.86.49-3.79,0.2-5.62a1,1,0,0,0-1.67-.44c-0.62.57-.91,1.28-1.48,1.91-1.29,1.41-2.33.43-3.68-.2l-0.5,1.86h0.09c1.28,0.14,1.27-1.86,0-2H27.83a1,1,0,0,0-.5,1.86c1.39,0.64,2.37,1.78,4,1.3,1.81-.53,2.31-2.18,3.57-3.33l-1.67-.44c0.25,1.58-.3,3.47-0.27,5.09v1q-0.14,1.1.72,0.06c-0.21-.36-1.09-0.38-1.25-0.82l-1,1.27,0.78,0.5,1.37-1.37c-1.64-1.18-4.14-3.07-4-5.28,0.16-2,1.11-4.44,3.09-5.29l-1.21-.16c-0.47-.57-0.19.63-0.17,0.91a14.76,14.76,0,0,0,.49,2.59C32,90,33.34,93,33,93.59h1.73c-0.95-1.69-.92-3.61-1.65-5.36-0.41-1-1.85-.4-1.86.5,0,2.16,1.62,4.71,1.06,6.79l1.47-.6c-1.11-.83-2.56-5.47-2.32-6.91H29.48c0.17,0.91,1.75,4.76,1.13,5.61l1.13-.46c-1.6-.23-2.21-4.08-2.48-5.37a1,1,0,0,0-2,.27c0.07,1.74.22,3.47,0.28,5.21a1,1,0,0,0,2,0,20,20,0,0,0-.11-4.4,1,1,0,0,0-1.23-.7c-1.27.24-2.6,1.47-3.73,2.1a2.11,2.11,0,0,0-1.41,1.5,1,1,0,0,0,.26,1c1.7,1.39,4.29-.68,5.72-1.72a22.84,22.84,0,0,0,6.15-6.18l-1.86-.5c0.19,2-.11,4.21-0.11,6.23,0,2.47.26,5.05,0.11,7.5l1.71-.71c-1.22-1.43-2.19-1.73-3.9-2.41-2.18-.86-4.34-1.9-6.47-2.87-1.16-.53-2.18,1.19-1,1.73h0Z"/><path class="cls-6" d="M35.45,33.42l-0.07.09a1,1,0,0,0,.86,1.5,21.31,21.31,0,0,0,3.21-.3,1,1,0,0,0,.73-1,4.5,4.5,0,0,0-.38-1.44A13.42,13.42,0,0,1,39,28.16a22.41,22.41,0,0,1,.76-6.78l-1.93-.53c-0.58,2.64-1.59,5.07-2,7.75C35.55,30,35,32,36.46,32.92c1.19,0.77,1.79,0,2.43-.94,1.43-2.08.85-3.66,0.86-6a1,1,0,0,0-2,0,25.44,25.44,0,0,1,.22,3L37.5,30.46q-0.6,1-.14.05c0-.47.33-1.33,0.41-1.79,0.42-2.54,1.41-4.84,2-7.34a1,1,0,0,0-1.93-.53A25.3,25.3,0,0,0,37,27.72a14.94,14.94,0,0,0,.26,3.17c0.2,0.92.91,2,1,2.87l0.73-1a19.07,19.07,0,0,1-2.68.22l0.86,1.5,0.07-.09c0.78-1-1-2-1.73-1h0Z"/><path class="cls-6" d="M60.45,29.49c0,0.69.07,1.33,0.11,2a2.36,2.36,0,0,0,.61,1.85,3.08,3.08,0,0,0,1.65.62,1.79,1.79,0,0,0,1.76-.22c0.81-.83,0-1.93-0.33-2.74-0.48-1,.07-3-1.69-2.84-1.28.1-1.29,2.1,0,2C62.21,30.18,62,29,62,30a4.47,4.47,0,0,0,0,.51,4.6,4.6,0,0,0,.34,1.2c0.1,0.24.22,0.46,0.34,0.69a1.54,1.54,0,0,0,.16.31c0.27,0.28-.73.21,0.35-0.42l0.77-.1c-0.31-.07-0.61-0.11-0.92-0.17a2.52,2.52,0,0,1-.39-0.09c-0.21-.08-0.11.29-0.14-0.17,0-.75-0.1-1.48-0.1-2.24a1,1,0,0,0-2,0h0Z"/><path class="cls-7" d="M40.77,29.56c-0.59,2.05,1.07,5.72,1.34,7.79A29.56,29.56,0,0,0,43,41.73c0.56,2,.38,4.32,1,6.26,0.21,0.63-.12.56,0.54,0.64,1,0.12.13-2.49,0-3.3a52.37,52.37,0,0,1-.25-5.8c0-2.87.86-7.66-.5-10.31a1,1,0,0,0-.86-0.5,2.5,2.5,0,0,0-1.78.72c-1,.79.41,2.2,1.41,1.41-0.86.67-.28,3.42-0.27,4.65,0,2.48-.1,5,0,7.45s0.06,5.83,1.71,7.94a1,1,0,0,0,1,.26,1.73,1.73,0,0,0,.81-0.34,1.06,1.06,0,0,0,.46-1.13c-0.53-3.7-1.28-7.2-2-10.85-0.32-1.58-.43-3.18-0.75-4.77-0.16-.78-1.1-3.24-0.88-4a1,1,0,0,0-1.93-.53h0Z"/><path class="cls-7" d="M67.94,49.39l0.25,0.07A1,1,0,0,0,69.32,49c1.37-2.07-.86-6.4-1-8.57-0.22-3.94.27-7.52-.5-11.47-0.35-1.81-.55-4.92-1.78-6.38a3.45,3.45,0,0,0-.48-1c-2.89-1.44-.66,2.07-0.68,2.33-0.33,4.31.44,8.46,1,12.78C66,38,68,38,67.87,36.69c-0.24-2-.51-4-0.78-6a29.83,29.83,0,0,1-.46-4c0-1,.71-2.57.57-3.42a4.38,4.38,0,0,0-2.62-3.08,1,1,0,0,0-1.13.46c-0.36.82-.06,0.89,0.08,1.66,0.31,1.78,1.69,3.89,2.11,5.8,0.31,1.38.51,2.82,0.71,4.21,0.43,3-1.26,14.26,2.11,15.22a1,1,0,0,0-.53,1.93h0Z"/><path class="cls-8" d="M48.12,33.48h0Z"/><path class="cls-8" d="M86.95,81.62a51.67,51.67,0,0,0-1.09-7.86c-0.47-2.67-.81-5.36-1.15-8.05-0.32-2.52-.81-5.05-1-7.58-0.24-2.7-.51-5.38-0.9-8.06S82,44.72,81.65,42c-0.26-2.25-.22-4.53-0.46-6.78-0.1-1-.48-1.59-1.53-1.52a13.13,13.13,0,0,1-3.41,0c-2.14-.36-5-0.91-7-0.06-0.4-3.29-.77-6.57-0.86-9.89,0-1.34,0-2-1-2.88s-2-2.21-3.15-3.22a6.58,6.58,0,0,0,2.4-2.26c0.48-1.09.06-2.62-.31-3.69A29.89,29.89,0,0,0,63,4.65a26.56,26.56,0,0,1-2-2.38c-0.61-1.19-.8-1.7-2.24-2-2.9-.65-6,0.19-8.94.34-3.16.16-6.29,0.3-9.44,0.68s-6.13.75-9.21,1c-1.53.11-3,.32-4.56,0.51A29.75,29.75,0,0,0,22,3.21C19.3,4,16.62,5.15,13.9,6,11,6.94,8.51,8.48,5.77,9.75L2,11.48c-0.74.34-2.29,0.45-2,1.4,0.25,0.77.82,0.67,1.49,0.38,1.38-.58,2.64-1.42,4-2,2.68-1.17,5.08-2.73,7.92-3.57,1.4-.41,2.7-1,4.06-1.48s2.68-.68,3.92-1.28a8.52,8.52,0,0,1,3.61-.55c1.57-.08,3.11-0.46,4.67-0.66,3.09-.39,6.21-0.47,9.3-0.84,1.45-.17,2.86-0.48,4.3-0.68s3.19,0,4.78-.08,3.3-.26,4.93-0.44a21,21,0,0,1,4.51-.36,3.44,3.44,0,0,1,1.78.7,6.31,6.31,0,0,1,.73,1.27c0.35,0.53.86,0.93,1.25,1.43a18.16,18.16,0,0,1,1.17,2c0.27,0.47.43,1,.7,1.43a14.18,14.18,0,0,1,1,1.41,22.21,22.21,0,0,1,1,3.73c0.26,1.16.44,1.47-.45,2.28a8.61,8.61,0,0,1-1.7,1.29,4.86,4.86,0,0,0-1.6.91c-0.22-1.32-.47-2.63-0.71-3.95-0.21-1.16-.13-2.26-0.25-3.4a6,6,0,0,0-.42-1.68A1.75,1.75,0,0,0,60,8.23a3.2,3.2,0,0,0-1.13.21c-0.47.45,0.14,1.24,0.22,1.8,0.19,1.25,0,2.54.23,3.79s0.5,2.39.69,3.62a18.1,18.1,0,0,0,.4,1.9,2.73,2.73,0,0,0,.19.84c-0.39,0,0,.33-0.38.4a0.23,0.23,0,0,0,.06.13c-0.15,0-1.33,1-1.63,1.15-0.13-1.62-.21-3.23-0.35-4.85-0.12-1.31.14-2.81,0-3.95-0.09-.72.17-1.82-0.91-1.14a1.23,1.23,0,0,0-.52,1.48c0.17,1.71.27,3.64,0.34,5.21a33,33,0,0,0,.27,4.71,2.83,2.83,0,0,1,.22,1.31,2,2,0,0,1-1.1.23,11.47,11.47,0,0,0-1.63.6,52.54,52.54,0,0,0-.44-5.88c-0.14-.85-0.33-1.71-0.41-2.57,0-.47.21-0.83-0.11-1.1-1.17-1-1.37.6-1.24,1.34a41.13,41.13,0,0,1,.64,5.3,23.64,23.64,0,0,1,.21,4.15C53.41,28,52,28.28,51,28.34s-1.85-.22-2.76-0.26-2,.09-2.92,0-2.64-.83-3.65-0.53c0-.2-0.48-0.7-0.56-1.09A9.42,9.42,0,0,1,41,25.29c-0.14-1.48,0-3-.2-4.47a4.07,4.07,0,0,0,1.55.09c0.1,0,.15-0.26.26-0.29a4.55,4.55,0,0,1,.56,0c0.55-.07,1.46-0.65,1.82-0.43,0.51,0.3.08,1.71,0.08,2.12a1.78,1.78,0,0,1-.06,1c-0.17.19-.65,0.34-0.88,0.57a3.25,3.25,0,0,0-.6.52c-0.2.36-.24,0.21,0,0.61,0.11,0.17.67,0.68,0.89,0.41,0-.28,1.08-0.9,1.37-1.17,0.31,0.51,2.06,1.61,2.6,1.26a4.14,4.14,0,0,0,.45-1.13C48.77,24,48.54,24.1,48.21,24a5.47,5.47,0,0,1-1-.43c-0.77-.4-0.81-0.27-0.76-1,0.09-1.25.72-2.58-.12-3.72s-1.61-.34-2.61.14c-1.93.92-3.6,0-5.58-.08-2.28-.13-4.74.52-7,0.7-1.93.16-3.66,0.3-5.12-1.16-0.63-.63-1.71-2.24-2.5-2.43a2.06,2.06,0,0,0-1.16.33c-0.33.58,1.06,1.34,1.37,1.69-0.4.21-.72,0.61-1.08,0.82a9.06,9.06,0,0,1-1.38.42c-1.42.51-2.82,1.19-4.23,1.73a38.21,38.21,0,0,0-3.62,2.11c-0.88.45-3.2,0.81-3.69,1.77-0.63,1.22,1.52.7,2,.45a27.67,27.67,0,0,0,3.61-1.76,8.36,8.36,0,0,1,1.65-1c0.74-.28,1.49-0.56,2.21-0.89a12.36,12.36,0,0,0,2.38-1.19C22.08,21,23.58,20,24,19.64c0.87-.72.68-0.59,1.56,0.14a6.13,6.13,0,0,0,1.94,1.14c1.62,0.54,3.36,0,5-.07,0.81,0,1.54-.2,2.33-0.28a11.25,11.25,0,0,0,2.12-.18A4.22,4.22,0,0,0,35.64,23c-0.13,1.34-.28,2.68-0.34,4a36.14,36.14,0,0,1-.45,4.1c-0.11.69-.12,1.39-0.23,2.07a3.25,3.25,0,0,1-.17.91,1,1,0,0,1-.89.19,12.49,12.49,0,0,1-2.86-.06,5.32,5.32,0,0,0-2-.34c-2.4.41-4.41,2.31-4.11,4.92,0-.24,0,0.73,0,1s-0.06.76-.1,1.13a16.94,16.94,0,0,0,0,2.1,73.3,73.3,0,0,1-.82,8c-0.25,2.51-.73,5-1.2,7.45-0.43,2.26-.22,4.46-0.52,6.72-0.63,4.74,0,9.89-.21,14.78A75.44,75.44,0,0,1,21,88.17a25.76,25.76,0,0,0-.35,3.33,2.08,2.08,0,0,0,1,2.12C23.57,95.15,26,96,28,97.34c0.92,0.59,1.85,1.12,2.81,1.64a12.74,12.74,0,0,1,1.36,1c0.28,0.19.83,0.36,1,.48a3.54,3.54,0,0,0,1.14,1.09,5.07,5.07,0,0,0,1.89-.32c0.84-.16,1.6-0.44,2.41-0.69,5.19-1.53,10.8-1.8,16.17-2.13a118.11,118.11,0,0,0,16.09-2.23c2.92-.59,5.76-1.48,8.66-2.12a44.6,44.6,0,0,1,4.4-.73c1.06-.12,2.15,0,3.19-0.12s1.32-.79,1.11-1.82c-0.27-1.28-.53-2.51-0.72-3.81a56.94,56.94,0,0,1-.58-6.73l0,1.6,0-.77h0ZM59.44,2l0,0Zm1.43,0.35-0.16.1ZM57.07,17.7h0ZM87,92.55v0S87,92.57,87,92.55ZM80.18,35.08h0Zm-0.52-.48h0ZM67,22.45a122.15,122.15,0,0,0,1.4,15.37c0.3,2.36.49,4.7,0.82,7a12.79,12.79,0,0,1,.32,3.22c-0.09.57-.07,0.41-0.62,0.63a8.6,8.6,0,0,0-1,.41c-0.41-3-.7-6.06-1.1-9.09-0.33-2.55-1.08-5.08-1.16-7.63,0-1.17-.46-2.33-0.57-3.5s-0.29-2.38-.48-3.58-0.27-2.11-.38-3.17a16.93,16.93,0,0,1-.43-2.37A22.94,22.94,0,0,0,67,22.45C66.95,26.59,66.24,21.84,67,22.45ZM61.26,33.58a2.25,2.25,0,0,0-.06-1.16,13.93,13.93,0,0,1,0-1.92,2.61,2.61,0,0,1,.31-1.75c0.24-.2.71-0.25,1-0.45a5.27,5.27,0,0,0,1-.94c0.25,2.22.36,4.47,0.8,6.66a23.15,23.15,0,0,1-3-.44C61.31,33.44,61.93,33.74,61.26,33.58ZM59.76,23a3.66,3.66,0,0,0,2.08-2.83,2.76,2.76,0,0,1,.37,1.51,19.92,19.92,0,0,1,.4,2.12c0.17,1.39.36,2.53-1,3.33-1.11.63-2,.07-2.67-0.94a0.87,0.87,0,0,1-.26-0.58c0-.22.22-0.57,0.23-0.85a6.89,6.89,0,0,1-.11-1.36,4.29,4.29,0,0,1,1-.4h0ZM46.44,29.52a16,16,0,0,1,3.16,0,4.9,4.9,0,0,0,2.85-.11,5,5,0,0,0,1.93-1c0.29-.31.31-1,0.54-1.21a5.23,5.23,0,0,1,1-.3,5.05,5.05,0,0,1,1-.47c0.45,0,.41.09,0.78,0.45a10.63,10.63,0,0,0,1.66,1.42c0.65,0.39.65,0.24,0.58,1-0.05.54,0.09,1,.09,1.54,0,0.25-.23.68,0,0.75-0.31.13-.09,0.64-0.08,0.78s-0.06.57,0,.82a19.78,19.78,0,0,0-3.69-.07c-1.1,0-2.2,0-3.3,0-1.45,0-2.69.2-3.95,0.35-0.44.05-.86,0-1.28,0.07a6,6,0,0,1-2,.13c-0.32-.22-0.21-2-0.19-2.48,0-.3,0-0.6,0-0.9C45.63,29.44,45.58,29.57,46.44,29.52Zm-3.52-.45a3.71,3.71,0,0,1,1.39.22,3.87,3.87,0,0,1-.19,1.35,12.37,12.37,0,0,0,.28,2.93,47.52,47.52,0,0,1,.34,6.12,33.06,33.06,0,0,0,.81,5.8c0.43,2,.78,4,1.18,6a10,10,0,0,1-2.82.09c-0.5-.11-0.44,0-0.55-0.49a3.05,3.05,0,0,1,.08-0.88,7.27,7.27,0,0,0,0-1.77c-0.15-1.21-.5-2.38-0.68-3.58s-0.14-2-.25-2.91-0.07-1.94-.24-2.91c-0.21-1.21-.51-2.39-0.67-3.6s-0.11-2.19-.27-3.29a6.13,6.13,0,0,1,0-1.7c0.07-.64-0.11-1.22-0.07-1.84a4.62,4.62,0,0,0,1.63.43h0Zm-3.33-8.7a5.81,5.81,0,0,0-.08,1.49,6.18,6.18,0,0,1-.82-0.21,7.36,7.36,0,0,1-.9-0.14,8.62,8.62,0,0,1,.77-0.88l0.17-.3a2.47,2.47,0,0,0,.86,0C39.57,20.46,39.31,20.41,39.59,20.36Zm-3.66,13.2c0.24-1.78.34-3.56,0.64-5.34a22.76,22.76,0,0,0,.12-2.72c0-.91.45-1.77,0.44-2.69,0.74,0,1.44.44,2.17,0.43a6.94,6.94,0,0,0,.3,2c0.08,0.93.1,1.85,0.22,2.78a17.09,17.09,0,0,1,.06,3,26.7,26.7,0,0,0,.26,3.27c-0.12-.26-1.24,0-1.53-0.08a10.8,10.8,0,0,0-2.67,0q0-.32,0-0.65h0Zm-7.11,1.35h0Zm0,0h0ZM22.56,87c0.34-4.66.52-9.28,0.6-14a132.52,132.52,0,0,1,.57-14c0.28-2.29.84-4.52,1.06-6.83s0.52-4.44.83-6.67c0.19-1.3,0-2.57.12-3.86,0.06-.51.8-3.19,0-3.44,0.37,0.09.83-1.59,1.05-1.8A4.16,4.16,0,0,1,27.64,36c0.37-.23.73-0.87,1.24-0.8,0.1,1-.1,1.89,0,2.84,0.17,1.21.5,2.41,0.71,3.62,0.42,2.41.78,4.83,1.06,7.26a47.27,47.27,0,0,0,1,6.55,29.65,29.65,0,0,1,1,7.06,71,71,0,0,0,.7,7.37c0.3,2.41.42,4.84,0.7,7.26q0.2,1.73.45,3.46a1.42,1.42,0,0,1,0,1.05,3.41,3.41,0,0,1-.76.4,33,33,0,0,0-3.37,2.38c-1,.76-1.92,1.57-2.91,2.32s-2,1.36-2.93,2.15S23,90.87,22,91.43c0.12-1.48.5-2.92,0.61-4.4h0Zm-0.26,5.34s0,0,0,0h0Zm11.15,8.29s0,0,0,0h0ZM34,99.6c-1.69-1.44-3.72-2.31-5.54-3.62a14.91,14.91,0,0,0-3-1.67A8.62,8.62,0,0,1,24,93.7a14.17,14.17,0,0,0-1.26-1.07c1-.81,1.85-1.85,2.83-2.7,1.14-1,2.35-1.89,3.56-2.79,1-.77,2-1.59,3.08-2.34a17.69,17.69,0,0,0,2.6-2,68.51,68.51,0,0,1,.72,9c0,2.65-.5,5.36-0.39,8A2.73,2.73,0,0,1,34,99.6h0Zm49.08-7.51c-3.91.24-7.75,1.64-11.55,2.46-2,.42-4,0.65-5.93,1s-3.8.79-5.72,1.06c-4,.56-8.11.82-12.15,1.12a54.65,54.65,0,0,0-11.27,2c0-4,.48-8,0.15-12C36.3,83.29,35.48,79,35.08,74.6c-0.39-4.2-.82-8.44-1-12.66s-1.37-8-1.9-12.09c-0.32-2.42-.54-4.85-1-7.26a45.81,45.81,0,0,1-1-6.73q0.33,0.12.37-.27a2.56,2.56,0,0,1,.43.13c0.36,0,.82,0,1.22,0,1-.06,2-0.09,3-0.11s1.87-.21,2.84-0.14c0.49,0,1,0,1.47,0a2.64,2.64,0,0,0,.78.21c0.3,2.7.79,5.36,1.05,8.07a28.73,28.73,0,0,0,.51,4A11.62,11.62,0,0,1,42,51.07c0,0.93,0,1.84,1.1,2a11.61,11.61,0,0,0,2.45-.16,5.33,5.33,0,0,0,2.06-.32A0.71,0.71,0,0,0,48,51.35c0.44-.54-0.14-1.86-0.3-2.42-0.38-1.41-.69-2.84-1-4.27a85.51,85.51,0,0,1-.85-9.42c1.67,0,3.3-.51,5-0.62,1.88-.13,3.77-0.1,5.65,0,1,0,2.05,0,3.07.1s1.84,0.44,2.79.59c0.46,0.07,2-.06,2.31.26s0.51,2.35.6,2.89c0.32,2,.39,4,0.66,6.05,0.14,1.05.35,2.09,0.49,3.14a7.76,7.76,0,0,0,.51,2.78c0.66,1,1.83-.27,2.66-0.48,0.5-.13,1.33.06,1.64-0.4s-0.24-.94.29-0.95c-1,0-1.23-5.2-1.31-6.14-0.22-2.52-.49-5-0.81-7.54,1.73,0.27,3.52-.28,5.27-0.11a22.23,22.23,0,0,0,5,.38c0.1,2.48.49,5,.72,7.49s0.71,4.63,1.12,6.94,0.38,4.4.59,6.59,0.53,4.61.93,6.93,0.5,4.81,1,7.2,0.8,4.71,1.12,7.08c0.64,4.76.81,9.61,1.78,14.32C85.63,91.86,84.37,92,83.11,92.08Zm3.94,0.49h0Z"/><path class="cls-8" d="M21.85,65.72v0C21.84,65.79,21.8,66,21.85,65.72Z"/><path class="cls-8" d="M41.06,25.47h0S41.06,25.47,41.06,25.47Z"/><path class="cls-8" d="M22.57,20.49h0Z"/><path class="cls-8" d="M21.61,20.68h0S21.62,20.68,21.61,20.68Z"/><path class="cls-8" d="M21.4,20.76l0,0S21.35,20.75,21.4,20.76Z"/><path class="cls-8" d="M52,12.07a12.27,12.27,0,0,0-3.59-1c-0.53-.05-1.08.13-1.61,0a9,9,0,0,0-1.36-.51c-0.37,0-.15-0.23-0.37.29a2,2,0,0,0-.06,1c0.34,0.53,2.31.56,2.81,0.56a9.47,9.47,0,0,1,1.93.25,11.09,11.09,0,0,1,1.68.77c0.41,0.15,1.83.26,2.07-.26S52.33,11.7,52,12.07C51.58,11.85,52.08,12,52,12.07Z"/><path class="cls-8" d="M53.82,6.79h0C53.85,6.75,53.85,6.74,53.82,6.79Z"/><path class="cls-8" d="M52.44,6.71c-0.31.43-.2,0.39,0.22,0.78a3.87,3.87,0,0,0,2.1.89,1.63,1.63,0,0,0,1.08.26,1.53,1.53,0,0,0,.05-1.41c-0.31-.08-2-0.56-2.13-0.27,0.1-.4-1-0.73-0.79-1-0.17.27-.35,0.52-0.53,0.78h0Z"/><path class="cls-8" d="M162.48,28.69c-2.17-.2-4.32-0.73-6.46-1.09s-4.11-1.21-6.22-1.62c0.16,0-.52-0.14-0.53-0.14a34.86,34.86,0,0,1-4-.87,11.34,11.34,0,0,1-1.84-1.13,15.42,15.42,0,0,0-6.67-2.27,45,45,0,0,0-4.83-.22c-1.52,0-2.94-.6-4.45-0.47s-2.88-.09-4.35-0.06c-1.2,0-2.45.32-3.64,0.24a3.83,3.83,0,0,0-3.24,1.32,15.67,15.67,0,0,0-1.42,1.53,4.14,4.14,0,0,1-.85,1c-0.16,0-.72-0.19-1-0.18a9.28,9.28,0,0,0-3.84.6,9.19,9.19,0,0,0-3,3.14c-0.79,1.19-1.47,2.44-2.3,3.6a5.43,5.43,0,0,1-1.06,1.29c-0.12.08-.4,0-0.59,0.1a1.85,1.85,0,0,0-.6.71,7,7,0,0,0-.64,1.31c-0.08.24-.09,0.51-0.17,0.74s-0.27.37-.35,0.52a7.38,7.38,0,0,1-.33,1.12,3.15,3.15,0,0,1-.53.22c-0.25.16-.64,0.22-0.87,0.38s-0.27.42-.32,0.44c-0.5.26-1.06,0.38-1.59,0.68s-1.13.55-1.7,0.82c-1.17.54-2.69,1.41-3.1,2.73a2.77,2.77,0,0,0,1.81,3.18,7.85,7.85,0,0,0,2.06.38,2,2,0,0,0,.67,0c0.54-.15.2-0.19,0.5-0.4,0,0.51.9,0.14,1.14,0.13,0.78,0,.62.11,0.85,0.86,0.3,1,.78,2.32,2,2.43,1.39,0.12,2.39-1.17,3-2.24,0.21-.37.92-2.56,0.36-2.58,0.31-.1.4-0.78,0-0.84,0.26,0,.15-0.22.44-0.26a4.64,4.64,0,0,1,.74.14,5.18,5.18,0,0,0,1-.06c0.15,0,1.88-.25,1.7-0.53,0.25,0.52,1.31-1,1.33-1,0.21-.44-0.14-0.25.39-0.55a4.34,4.34,0,0,1,1.4-.29,18.06,18.06,0,0,1,3.13-.21,11.81,11.81,0,0,1,3.34.24,6,6,0,0,0,1.67.43c0.13,0.4,1.08.52,1.43,0.66a8.07,8.07,0,0,1-2.38,1.21,12.42,12.42,0,0,0-3,.88c-0.7.4-1.27,1-2,1.44l-2.22,1.38c-1.16.71-2.78,1.5-2.47,3.13a2.82,2.82,0,0,0,3.32,2.07,14.43,14.43,0,0,0,2.44-1c1-.37,2-0.5,3-0.91a55.85,55.85,0,0,1,6.12-2c2.3-.68,4.57-1.32,6.9-1.88A17.91,17.91,0,0,0,137,44.63a24.41,24.41,0,0,0,2.3-2,9.79,9.79,0,0,1,2.77-2c0.6-.18,1.76.54,2.47,0.68a34.71,34.71,0,0,0,3.51.58c2.24,0.19,4.42.74,6.65,0.94a10.48,10.48,0,0,1,2.36.51c0.42,0.13,1.22.19,1.2-.52,0-1.41-2.76-1.35-3.63-1.44-2.3-.24-4.65-0.92-6.95-0.91a19,19,0,0,1-2.74-.44,5.3,5.3,0,0,1-1.34-.28,4.11,4.11,0,0,0-1.33-.6c-0.86,0-1.82.93-2.47,1.39-0.94.67-1.74,1.47-2.63,2.21a13.75,13.75,0,0,1-6.29,2.71A46.06,46.06,0,0,0,124,47.54c-2.13.81-4.46,0.61-6.49,1.77a16.75,16.75,0,0,1-2.83,1.09c-0.48.17-1,.28-1.48,0.48a6.13,6.13,0,0,1-1,.74,0.29,0.29,0,0,1,.15-0.13c-0.55-.09-1.11-0.1-1.66-0.15,0-.71-0.53-1,0.13-1.72a3.89,3.89,0,0,1,1.84-1.09,6.12,6.12,0,0,0,1.08-1c0.59-.47,1.35-0.74,2-1.17a14.74,14.74,0,0,1,2.89-1.12,12.42,12.42,0,0,0,1.91-.7,6.65,6.65,0,0,0,.9-0.52c0.05,0,.84-0.84.82-0.83a13.92,13.92,0,0,1,1.77.56,15.7,15.7,0,0,0,1.63.11c1.38,0,.71-1.09-0.22-1.43a8.28,8.28,0,0,0-1.51-.1,5.21,5.21,0,0,1-1.24-.52,21.79,21.79,0,0,0-2.29-.93,6.44,6.44,0,0,1-1.23-.56,8.75,8.75,0,0,0-3.36-.43,3.49,3.49,0,0,0,0-1.12c-0.38-.09-0.07-0.81-0.1-1s-0.37-.5-0.47-0.82a3.21,3.21,0,0,1,1-.33c0.25,0.07.56,0.51,0.85,0.63a9.93,9.93,0,0,0,1.84.48c0.4,0.08,4.38,1.64,3.81.07,0.8,0.31,1.2-.84,1.51-1.39a2.81,2.81,0,0,0,.3-2.64,3.41,3.41,0,0,0-2.26-1.48c-0.5-.12-2-0.43-2.37-0.14a4.93,4.93,0,0,0-.1-0.8c-0.23-.72-0.64-0.59-0.2-1.12a14.7,14.7,0,0,0,1.13-1.2c0.24-.36.44-0.77,0.68-1.12a2.38,2.38,0,0,0,.42-2,3.57,3.57,0,0,0-.23-1.34s0,0,0,.06,0-.05,0,0c-0.2-.17,0-0.85-0.59-0.65a6.39,6.39,0,0,0-.69.86c-0.15.09,0.43,0.48,0.13,0.6a0.78,0.78,0,0,1,.23-0.06c-0.4.29-.07,1-0.12,1.38a4.07,4.07,0,0,1-.9,1.62c-0.26.37-.59,1-1,0.81a0.63,0.63,0,0,1-.3-0.73c-0.26.31-.69-0.68-1.12-0.53-0.71.25-.57,1.64-0.07,1.25-0.24.76,1.4,2,1.44,2.84-0.75,0-1.27-.47-1.55.43s0.29,1,1.06,1a1.79,1.79,0,0,1,.45-0.22,8.83,8.83,0,0,1,1.08.18,10.11,10.11,0,0,0,1.54.12,6.29,6.29,0,0,1,1,0c1.85,0.29,1.36,2.46.28,3.32a1.08,1.08,0,0,1-1.32.13,24.51,24.51,0,0,1-2.88-.72c-1.75-.66-2.58-2.36-3.29-3.94C114.26,31.23,114,30,113.46,29c-0.27-.51-0.9-0.91-0.66-1.48a6.18,6.18,0,0,1,1.19-.81,10.58,10.58,0,0,0,1.23-1.13,28.53,28.53,0,0,1,2-2.22,4.66,4.66,0,0,1,1.5-1,2.85,2.85,0,0,1,.46-0.13,1.34,1.34,0,0,0,.8.17,0.47,0.47,0,0,1,0-.21c0,0.47,2.9.16,3.19,0.13a38.47,38.47,0,0,1,5.76.07c2.6,0.18,5.22.3,7.82,0.51a16.59,16.59,0,0,1,6.88,2.49,14.49,14.49,0,0,0,3.08,1.27c2.6,0.71,5.25,1.33,7.88,1.94,2.39,0.55,4.81,1,7.22,1.51,0.51,0.11,2.16.41,2.24-.48,0.05-.56-1.07-0.92-1.47-1h0ZM99.39,39.75h0S99.4,39.74,99.39,39.75ZM96.5,45.33a8.59,8.59,0,0,1-1.94-.24C93,44.63,93.31,43.56,94,42.56c0.48,0.25,2.14-1.33,2.76-1.58a2.54,2.54,0,0,0,.65-0.14l0.93-.47c0.18-.09.12-0.23,0.29-0.3s0.59-.24.88-0.36c-0.44,1-1.36,2-1.53,3.1a2.09,2.09,0,0,0,.05.76c0.06,0.44.6,1.31,0.08,1.38a0.47,0.47,0,0,1,.32.15c-0.64-.27-1.31.26-1.95,0.23h0Zm2.88-2.22,0,0Zm3.51,3.79a2.17,2.17,0,0,1-1.53,1.43,1.28,1.28,0,0,1-1-1.18c-0.2-.63-0.24-1.29-0.43-1.92a5.41,5.41,0,0,1-.51-1.88,3.16,3.16,0,0,1,.58-1.7,9.89,9.89,0,0,0,.59-0.93,2.64,2.64,0,0,0,.27-0.74q-0.16-.44.23-0.44c0.19-.56.15-1.2,0.4-1.73,0.06-.13.27-0.27,0.31-0.37s-0.15-.2-0.13-0.31,0.34-.4.3-0.35a8.75,8.75,0,0,1,.42,2.71,6.93,6.93,0,0,0,.74,2.1,5.29,5.29,0,0,1,0,2.54,7.93,7.93,0,0,1-.29,2.79h0Zm5.27-4.79a3.06,3.06,0,0,1-2,.52c-1.1.05-1.33-.26-1.74-1.19a11.74,11.74,0,0,1-.84-2.54c-0.09-.52,0-1.05-0.11-1.58a9.28,9.28,0,0,0-.58-1.57c-0.06.25,0.2-.36,0.2-0.37S103,35.24,103,35.08l0.21,0.21a13,13,0,0,1,1.24-1.7A29.45,29.45,0,0,0,106.82,30c1.34-2.07,2.87-4,5.56-3.83a1.78,1.78,0,0,0-1.09,1.57q0.24,0.29,0,.45l-0.29.3c0,0.12-.06.25-0.09,0.37s0.08,0.53.06,0.78a5.48,5.48,0,0,0-.13.79,6.9,6.9,0,0,1,0,2.94,2.83,2.83,0,0,1-1.17,1.28c-0.19.11-1.16,0.3-1.14,0.57-0.06-.13-0.14,0-0.24,0a3.63,3.63,0,0,1-.43-0.77,0.92,0.92,0,0,0-1.13-.56c-1,.5.35,1.89,0.61,2.47a13,13,0,0,1,.42,1.24,1.31,1.31,0,0,0-.08.4,5.25,5.25,0,0,1,.46.63c0.21,0.64.45,2.88,0,3.48h0Zm-5-7,0.08,0A0.1,0.1,0,0,1,103.12,35.05ZM114,37.87h0.25l-0.21.29a1.73,1.73,0,0,1,.14,1.35c0.52,0,.06.47-0.06,0.54a3.71,3.71,0,0,0-.88.12c-0.11-.29-1.49-0.14-1.85-0.09a16.73,16.73,0,0,0-1.84.46,4.7,4.7,0,0,0,0-1.15,6.15,6.15,0,0,1-.35-1.58c0.09-.5.32-0.3,0.85-0.38,0.1,0,.84-0.39.78,0,0.07-.47,1.44-0.21,1.69-0.18a4.83,4.83,0,0,0,2.13-.11,2.42,2.42,0,0,0-.7.79C114.12,37.87,114.18,37.7,114,37.87Zm0.87-2.32c-0.77.09-1.61,0.34-2.33,0.35s-1.64.07-2.46,0.14c0.82-.43,2.14-1.61,2.1-2.64a3.64,3.64,0,0,0,1.74.35,6.32,6.32,0,0,0,.94,1.8C114.7,35.57,114.62,35.13,114.91,35.55ZM113,32.05l0.17,0.25s-0.63,0-.54-0.26a0.35,0.35,0,0,1-.35.16,6.92,6.92,0,0,1,.19-1.86c0.14,0.51.25,1,.44,1.5,0,0,.23.46,0.09,0.21h0Z"/><path class="cls-8" d="M146.07,26.55h0Z"/><path class="cls-8" d="M146.07,26.55h0Z"/><path class="cls-8" d="M121.82,25.57h0Z"/><path class="cls-8" d="M121.48,24.56h0Z"/><path class="cls-8" d="M123.44,30.14a0.52,0.52,0,0,0-.11.87c0.15,0.22.67,0.33,0.71,0.48,0.14-.57.09,0,0.4-0.13s0.58-.16.85-0.27,0.88-.51.9-0.2c-0.06-.66,1.64-0.6,2-0.79a8.32,8.32,0,0,0-.8-1.13,0.88,0.88,0,0,0-.7.13c-0.72.32-2.17,0.64-2.75,1a1.26,1.26,0,0,0-.51.08h0Z"/><path class="cls-8" d="M131,31.36c-0.6-.08-2.18-1.7-2.2-0.15,0,0.93,1.1,1.16,1.78,1.34a36.23,36.23,0,0,1,4.2,1.29c1.61,0.64,3.12,1.23,4.85.63,0.38-.13,2.85-1.15,2.76-1.69a1.8,1.8,0,0,0-1.06-.64c-0.64,0-1,.59-1.57.85-1.77.87-3.26-.21-4.9-0.68a18.43,18.43,0,0,0-3-.65C131.83,31.22,131.19,31.39,131,31.36Z"/><path class="cls-8" d="M132.23,31.57v0S132.27,31.61,132.23,31.57Z"/><path class="cls-8" d="M131.27,31.24h0Z"/><path class="cls-8" d="M132,31.53h0S132,31.52,132,31.53Z"/><path class="cls-8" d="M111.57,40h0Z"/><path class="cls-8" d="M112.32,31.76h0Z"/><path class="cls-8" d="M58.21,54.6a9.51,9.51,0,0,0-9.6,10.55,12,12,0,0,0,.47,2.36A14.42,14.42,0,0,0,51.48,72l8.69,10.58a0.46,0.46,0,0,0,.85,0L68,72a13.2,13.2,0,0,0,1.62-4.47,11.29,11.29,0,0,0,.05-2.36A11.74,11.74,0,0,0,58.21,54.6Zm1.69,19.26a9.56,9.56,0,0,1-9.21-8.73,7.54,7.54,0,0,1,7.71-8.45,9.56,9.56,0,0,1,9.2,8.74A7.51,7.51,0,0,1,59.89,73.87Z"/><path class="cls-8" d="M59.82,73.09a8.76,8.76,0,0,1-8.55-7.86,7.09,7.09,0,0,1,7.17-7.86A8.76,8.76,0,0,1,67,65.23,7.09,7.09,0,0,1,59.82,73.09ZM58.47,57.61a6.88,6.88,0,0,0-7,7.62,8.49,8.49,0,0,0,8.28,7.62,6.88,6.88,0,0,0,7-7.62A8.49,8.49,0,0,0,58.47,57.61Z"/><path class="cls-8" d="M63.4,68.12c-0.3-.24-1.51-0.94-2.09-1.37-0.38-.29-1.22-1-1.85-1.54L60,64.66a0.86,0.86,0,0,1,.55-0.33A1.9,1.9,0,0,0,61.43,64,16,16,0,0,0,63,62c0.63-.84.49-0.7,0.39-0.59s-1.81,2-1.92,2.09a0.13,0.13,0,0,1-.19-0.17c0.06-.09.11-0.16,0.46-0.6s1.37-1.7,1.34-1.72-1.9,2.06-2,2.16a0.09,0.09,0,0,1-.15,0h0a0.09,0.09,0,0,1,0-.15c0.09-.1,2-2.15,2-2.18S61.75,62,61.35,62.36l-0.55.51a0.13,0.13,0,0,1-.19-0.17c0.08-.12,1.81-2,1.91-2.11s0.22-.26-0.55.44a16,16,0,0,0-1.86,1.78,1.92,1.92,0,0,0-.2.94,0.87,0.87,0,0,1-.28.58l-0.51.57-0.37-.33c-0.44-.38-1.08-0.78-1-1.26a2,2,0,0,0-1-2,3,3,0,0,0-2-.64,0.5,0.5,0,0,0-.5.54,3.05,3.05,0,0,0,.81,1.92,1.93,1.93,0,0,0,2,.8c0.47-.12.92,0.49,1.34,0.9l0.36,0.34c-0.48.52-1,1.11-1.35,1.39-0.54.49-1.37,1.16-1.75,1.44a2,2,0,0,0-1,1,1.1,1.1,0,0,0,.24.67h0a1.09,1.09,0,0,0,.69.18,2,2,0,0,0,.93-1.05c0.24-.4.84-1.29,1.27-1.88,0.25-.33.78-0.94,1.25-1.46,0.6,0.59,1.38,1.36,1.7,1.72,0.47,0.53,1.28,1.69,1.54,2s0.81,0.78,1.27.27l0.05-.06,0,0,0.05-.06C64.24,68.86,63.7,68.36,63.4,68.12Z"/></svg>