<?xml version="1.0" encoding="utf-8"?>
<!-- Generator: Adobe Illustrator 19.2.1, SVG Export Plug-In . SVG Version: 6.00 Build 0)  -->
<svg version="1.1" id="Calque_1" xmlns="http://www.w3.org/2000/svg" xmlns:xlink="http://www.w3.org/1999/xlink" x="0px" y="0px"
	 viewBox="0 0 23 30.9" style="enable-background:new 0 0 23 30.9;" xml:space="preserve">
<style type="text/css">
	.st0{fill:#B3B3B3;}
	.st1{fill:#58585A;}
</style>
<title>20160808_Collecteat</title>
<path class="st0" d="M11.5,0C5.2,0,0,5.2,0,11.6c0,0.9,0.1,1.7,0.3,2.6c0.4,1.7,1.2,3.4,2.2,4.9L11,30.6c0.1,0.3,0.4,0.4,0.6,0.3
	c0.1-0.1,0.2-0.2,0.3-0.3L20.5,19c1-1.5,1.8-3.1,2.2-4.9c0.2-0.8,0.3-1.7,0.2-2.6C23,5.2,17.9,0,11.5,0z M11.5,21.1
	c-5.2-0.1-9.3-4.4-9.3-9.5c0,0,0,0,0,0c-0.1-5,4-9.2,9-9.2c0.1,0,0.1,0,0.2,0c5.2,0.1,9.3,4.4,9.2,9.6c0.1,5-4,9.2-9,9.2
	C11.7,21.1,11.6,21.1,11.5,21.1z"/>
<path class="st1" d="M11.5,20.2c-4.7,0-8.6-3.9-8.6-8.6S6.8,3,11.5,3s8.6,3.9,8.6,8.6l0,0C20.1,16.4,16.3,20.2,11.5,20.2z M11.5,3.3
	c-4.6,0-8.3,3.7-8.3,8.3S6.9,20,11.5,20s8.3-3.7,8.3-8.3l0,0C19.9,7,16.1,3.3,11.5,3.3L11.5,3.3z"/>
<path class="st1" d="M15.9,14.8c-0.3-0.3-1.6-1-2.1-1.5c-0.4-0.3-1.2-1.1-1.9-1.7l0.6-0.6c0.2-0.2,0.4-0.3,0.6-0.4
	c0.4,0,0.7-0.1,1-0.3c0.7-0.7,1.4-1.4,2-2.2c0.8-0.9,0.6-0.8,0.5-0.7s-2.2,2.2-2.3,2.3c-0.1,0-0.2,0-0.2-0.1c0,0,0-0.1,0-0.1
	c0.1-0.1,0.1-0.2,0.6-0.6s1.7-1.9,1.6-1.9S14,9.3,13.9,9.4s-0.1,0-0.2,0l0,0c0,0-0.1-0.1,0-0.2s2.4-2.4,2.4-2.4s-1.4,1.2-1.9,1.6
	L13.6,9c-0.1,0-0.2,0-0.2-0.1c0,0,0-0.1,0-0.1c0.1-0.1,2.2-2.2,2.3-2.3S15.9,6.3,15,7c-0.8,0.6-1.5,1.3-2.2,2
	c-0.2,0.3-0.3,0.6-0.3,1c0,0.2-0.2,0.5-0.4,0.6l-0.6,0.6l-0.4-0.4c-0.4-0.4-1.1-0.9-1-1.4c0.2-0.8-0.2-1.7-0.9-2.1
	C8.7,6.9,7.9,6.7,7.2,6.7C6.8,6.7,6.6,7,6.6,7.3c0,0.8,0.2,1.5,0.7,2.1c0.5,0.7,1.3,1.1,2.1,0.9c0.5-0.1,1,0.5,1.4,1l0.4,0.4
	c-0.6,0.6-1.2,1.2-1.6,1.5c-0.6,0.5-1.6,1.3-2.1,1.6C7,15,6.6,15.4,6.3,15.9c0,0.3,0.1,0.5,0.2,0.7l0,0c0.2,0.1,0.5,0.2,0.7,0.2
	c0.5-0.2,0.9-0.7,1.1-1.2c0.3-0.4,1-1.4,1.6-2.1c0.3-0.4,0.9-1,1.5-1.6c0.6,0.6,1.4,1.5,1.7,1.9c0.5,0.6,1.2,1.9,1.5,2.1
	c0.2,0.4,0.8,0.6,1.2,0.4c0.1,0,0.1-0.1,0.2-0.1l0.1-0.1l0,0l0.1-0.1c0.3-0.4,0.3-0.9,0-1.3C16.1,14.9,16,14.8,15.9,14.8z"/>
</svg>
