<?xml version="1.0" encoding="utf-8"?>
<!-- Generator: Adobe Illustrator 19.2.1, SVG Export Plug-In . SVG Version: 6.00 Build 0)  -->
<svg version="1.1" id="Calque_1" xmlns="http://www.w3.org/2000/svg" xmlns:xlink="http://www.w3.org/1999/xlink" x="0px" y="0px"
	 viewBox="0 0 21.1 12.2" style="enable-background:new 0 0 21.1 12.2;" xml:space="preserve">
<style type="text/css">
	.st0{fill:#01B1EE;}
	.st1{fill:none;stroke:#01B1EE;stroke-width:0.5;stroke-miterlimit:10;}
</style>
<title>20160808_Collecteat</title>
<g>
	<defs>
		<rect id="SVGID_1_" x="-1260.3" y="-427.8" width="1519.5" height="402.1"/>
	</defs>
	<clipPath id="SVGID_2_">
		<use xlink:href="#SVGID_1_"  style="overflow:visible;"/>
	</clipPath>
</g>
<path class="st0" d="M4.6,6.7C3,6.7,1.8,5.4,1.8,3.8S3,1,4.6,1s2.9,1.3,2.9,2.9l0,0C7.5,5.4,6.2,6.7,4.6,6.7z M4.6,1.5
	c-1.3,0-2.4,1.1-2.3,2.4c0,1.3,1.1,2.4,2.4,2.3C6,6.2,7,5.1,7,3.8C7,2.5,5.9,1.5,4.6,1.5C4.6,1.5,4.6,1.5,4.6,1.5z"/>
<path class="st0" d="M4.6,12.2c-1,0-2.1-0.1-3.1-0.5C0.3,11.2,0,10.6,0,10.1c0-1.6,0.8-3.1,2.2-3.9c0.1-0.1,0.2-0.1,0.3,0
	c1.2,1.1,3.1,1.1,4.3,0c0.1-0.1,0.2-0.1,0.3,0c1.3,0.8,2.2,2.3,2.2,3.9C9.2,11.5,6.9,12.2,4.6,12.2z M2.3,6.8
	c-1.1,0.8-1.8,2-1.8,3.4c0,0.9,1.8,1.6,4.1,1.6s4.1-0.7,4.1-1.6c0-1.3-0.6-2.6-1.7-3.4C5.6,7.9,3.6,7.9,2.3,6.8z"/>
<path class="st0" d="M7.2,5.1C7.1,5.1,7,5,7,4.9c0-0.1,0.1-0.3,0.3-0.3c0,0,0,0,0,0c1.1,0,2-1,1.9-2.1c0-1.1-1-2-2.1-1.9
	c-0.6,0-1.2,0.3-1.6,0.9C5.4,1.6,5.3,1.6,5.2,1.5C5,1.5,5,1.3,5.1,1.2l0,0C5.8,0,7.4-0.3,8.6,0.4s1.5,2.3,0.8,3.5
	C8.9,4.7,8.1,5.1,7.2,5.1z"/>
<path class="st0" d="M8.9,9.7c-0.1,0-0.2-0.2-0.2-0.3c0-0.1,0.1-0.2,0.2-0.2c1.1-0.2,1.9-0.7,1.9-1.2c0-1.2-0.6-2.2-1.5-2.9
	C8.5,5.8,7.5,6,6.5,5.8c-0.1,0-0.3-0.1-0.2-0.3c0-0.1,0.1-0.3,0.3-0.2c0,0,0.1,0,0.1,0c0.9,0.2,1.8-0.1,2.5-0.7
	c0.1-0.1,0.2-0.1,0.3,0c1.2,0.7,1.9,2,1.9,3.5C11.3,8.9,10.5,9.5,8.9,9.7L8.9,9.7L8.9,9.7z"/>
<line class="st1" x1="15.6" y1="6.2" x2="21.1" y2="6.2"/>
<line class="st1" x1="18.4" y1="3.4" x2="18.4" y2="9"/>
</svg>
