<svg id="Calque_1" data-name="Calque 1" xmlns="http://www.w3.org/2000/svg" viewBox="0 0 28.81 23.05"><defs><style>.cls-1{fill:#fff;}</style></defs><title>20160808_Collecteat_element</title><path id="_Tracé_" data-name="&lt;Tracé&gt;" class="cls-1" d="M28.81,2.73a11.92,11.92,0,0,1-3.39.92A5.85,5.85,0,0,0,28,.42a11.93,11.93,0,0,1-3.76,1.41A5.94,5.94,0,0,0,19.95,0a5.83,5.83,0,0,0-5.76,7.14A16.87,16.87,0,0,1,2,1.06,5.73,5.73,0,0,0,1.21,4,5.8,5.8,0,0,0,3.84,8.83,6,6,0,0,1,1.16,8.1V8.18a5.71,5.71,0,0,0,.4,2.11,5.9,5.9,0,0,0,4.34,3.6,6.1,6.1,0,0,1-1.56.2A5.92,5.92,0,0,1,3.23,14a5.91,5.91,0,0,0,5.52,4,12,12,0,0,1-7.34,2.49A12.23,12.23,0,0,1,0,20.43,16.94,16.94,0,0,0,9.06,23,16.45,16.45,0,0,0,25.48,10a16,16,0,0,0,.4-3.51c0-.25,0-0.5,0-0.75A11.88,11.88,0,0,0,28.81,2.73Z"/></svg>