<svg id="Calque_1" data-name="Calque 1" xmlns="http://www.w3.org/2000/svg" viewBox="0 0 384.12 100.58"><defs><style>.cls-1{fill:#58585a;}.cls-2{fill:#5d5d5d;}.cls-3{fill:#01b1ee;}</style></defs><title>Logo</title><path class="cls-1" d="M86.34,53.73a16.68,16.68,0,0,1,1-5.6,15.55,15.55,0,0,1,2.88-5,14.77,14.77,0,0,1,4.66-3.58,13.86,13.86,0,0,1,6.28-1.38,13,13,0,0,1,7.14,1.89A11.49,11.49,0,0,1,112.65,45l-2.42,1.49a9.25,9.25,0,0,0-1.82-2.59,10.11,10.11,0,0,0-2.31-1.71,9.74,9.74,0,0,0-2.55-.94A12.21,12.21,0,0,0,101,41a10.42,10.42,0,0,0-5,1.14,11.43,11.43,0,0,0-3.62,3,13,13,0,0,0-2.22,4.15,15.08,15.08,0,0,0-.75,4.68,13.86,13.86,0,0,0,.9,5,14.05,14.05,0,0,0,2.46,4.2A11.82,11.82,0,0,0,96.46,66,10.11,10.11,0,0,0,101.1,67a11.64,11.64,0,0,0,2.7-.33,10.45,10.45,0,0,0,2.68-1.05,11.3,11.3,0,0,0,2.39-1.8,9.31,9.31,0,0,0,1.84-2.61l2.55,1.32a9.56,9.56,0,0,1-2.11,3.1,13.88,13.88,0,0,1-3,2.26,15.07,15.07,0,0,1-3.54,1.41,14.6,14.6,0,0,1-3.67.48A12.47,12.47,0,0,1,95,68.41a15.43,15.43,0,0,1-4.61-3.67,17,17,0,0,1-3-5.14A16.6,16.6,0,0,1,86.34,53.73Z"/><path class="cls-1" d="M130.79,69.77a13.2,13.2,0,0,1-6-1.34,14.79,14.79,0,0,1-4.63-3.56,16.17,16.17,0,0,1-3-5.07A16.75,16.75,0,0,1,116.16,54a16.22,16.22,0,0,1,1.12-6,16.48,16.48,0,0,1,3.1-5.05A15,15,0,0,1,125,39.44a13.15,13.15,0,0,1,5.8-1.3,12.87,12.87,0,0,1,6,1.38,15,15,0,0,1,4.61,3.62,16.77,16.77,0,0,1,3,5.07A16.46,16.46,0,0,1,145.42,54a16.22,16.22,0,0,1-1.12,6,16.42,16.42,0,0,1-3.07,5,14.88,14.88,0,0,1-4.63,3.47A13.14,13.14,0,0,1,130.79,69.77ZM119.24,54a14.52,14.52,0,0,0,.83,4.9A13.3,13.3,0,0,0,122.45,63a11.65,11.65,0,0,0,3.65,2.9,10.17,10.17,0,0,0,4.7,1.08,10,10,0,0,0,4.79-1.14,11.67,11.67,0,0,0,3.65-3,13.79,13.79,0,0,0,2.31-4.17,14.34,14.34,0,0,0,0-9.64,13.41,13.41,0,0,0-2.39-4.15A11.82,11.82,0,0,0,135.45,42,10.1,10.1,0,0,0,130.79,41,10.22,10.22,0,0,0,126,42.07a11.41,11.41,0,0,0-3.65,3,13.8,13.8,0,0,0-2.31,4.17A14.29,14.29,0,0,0,119.24,54Z"/><path class="cls-1" d="M151.22,69.55V38.36h3.08V66.82h18v2.72H151.22Z"/><path class="cls-1" d="M176.82,69.55V38.36h3.08V66.82h18v2.72H176.82Z"/><path class="cls-1" d="M223.39,66.82v2.72h-21V38.36H223v2.72H205.51V52.33h15.24v2.59H205.51v11.9h17.88Z"/><path class="cls-1" d="M226.46,53.73a16.7,16.7,0,0,1,1-5.6,15.56,15.56,0,0,1,2.88-5A14.77,14.77,0,0,1,235,39.57a13.86,13.86,0,0,1,6.28-1.38,13,13,0,0,1,7.14,1.89A11.49,11.49,0,0,1,252.77,45l-2.42,1.49a9.24,9.24,0,0,0-1.82-2.59,10.13,10.13,0,0,0-2.31-1.71,9.74,9.74,0,0,0-2.55-.94,12.2,12.2,0,0,0-2.59-.29,10.43,10.43,0,0,0-5,1.14,11.42,11.42,0,0,0-3.62,3,13,13,0,0,0-2.22,4.15,15.09,15.09,0,0,0-.75,4.68,13.86,13.86,0,0,0,.9,5,14.05,14.05,0,0,0,2.46,4.2,11.81,11.81,0,0,0,3.69,2.9A10.11,10.11,0,0,0,241.22,67a11.64,11.64,0,0,0,2.7-.33,10.46,10.46,0,0,0,2.68-1.05,11.3,11.3,0,0,0,2.39-1.8,9.31,9.31,0,0,0,1.84-2.61l2.55,1.32a9.55,9.55,0,0,1-2.11,3.1,13.86,13.86,0,0,1-3,2.26,15.06,15.06,0,0,1-3.54,1.41,14.59,14.59,0,0,1-3.67.48,12.47,12.47,0,0,1-5.89-1.41,15.43,15.43,0,0,1-4.61-3.67,17,17,0,0,1-3-5.14A16.6,16.6,0,0,1,226.46,53.73Z"/><path class="cls-1" d="M280.49,41.08H269.38V69.55H266.3V41.08H255.19V38.36h25.3v2.72Z"/><path class="cls-1" d="M284.36,46.66L285.1,42H284V37.48H287V42l-1.1,4.66h-1.54Z"/><path class="cls-2" d="M314.49,64.23v5.31H292.83V38.36h21.26v5.32h-15.2v7.51H312v4.92H298.89v8.13h15.59Z"/><path class="cls-2" d="M328.11,38.36h5.36l11.86,31.19h-6.24l-2.9-7.77H325.29l-2.86,7.77H316.2Zm7,19.15-4.3-12.26L326.3,57.51h8.79Z"/><path class="cls-2" d="M369,43.68H359V69.55h-6V43.68H343V38.36h26v5.32Z"/><path class="cls-3" d="M44,11.58A28.91,28.91,0,0,0,15.12,40.5,31.51,31.51,0,0,0,15.84,47a35.65,35.65,0,0,0,5.53,12.26l21.29,29a1.26,1.26,0,0,0,2.33,0l21.59-29c1.3-1.74,4.62-7.73,5.53-12.26a31.5,31.5,0,0,0,.71-6.46A28.91,28.91,0,0,0,44,11.58ZM44,64.4c-13,0-23.16-10.92-23.16-23.93A22.9,22.9,0,0,1,44,17.3c13,0,23.12,11,23.12,24A22.82,22.82,0,0,1,44,64.4Z"/><path class="cls-1" d="M44,62.26A21.55,21.55,0,1,1,65.51,40.71,21.57,21.57,0,0,1,44,62.26Zm0-42.44A20.89,20.89,0,1,0,64.85,40.71,20.91,20.91,0,0,0,44,19.82Z"/><path class="cls-1" d="M55,48.64C54.2,48,51,46.06,49.57,44.89c-1-.79-3.09-2.73-4.71-4.24,0.69-.68,1.25-1.23,1.53-1.5A2.63,2.63,0,0,1,48,38.25c0.64-.23,1.49,0,2.56-0.78a50,50,0,0,0,4.89-5.54c1.92-2.3,1.51-1.92,1.22-1.63S51.2,35.81,50.88,36a0.34,0.34,0,0,1-.47-0.47c0.19-.25.35-0.44,1.41-1.64s4.16-4.66,4.09-4.7-5.7,5.66-6,5.92-0.37,0-.41,0h0s-0.24-.17,0-0.42,6-5.91,5.92-6-3.5,3-4.7,4.09-1.39,1.22-1.64,1.41a0.34,0.34,0,0,1-.47-0.47c0.24-.32,5.45-5.48,5.74-5.77s0.67-.7-1.63,1.22a50.09,50.09,0,0,0-5.54,4.89c-0.81,1.07-.54,1.92-0.78,2.56a2.63,2.63,0,0,1-.91,1.58c-0.27.29-.83,0.86-1.52,1.56L43,38.94c-1.11-1.05-2.78-2.14-2.46-3.46a4.92,4.92,0,0,0-2.2-5.36,7.76,7.76,0,0,0-5.27-1.75,1.54,1.54,0,0,0-1.49,1.49,7.76,7.76,0,0,0,1.75,5.28,4.92,4.92,0,0,0,5.36,2.2c1.32-.32,2.4,1.35,3.46,2.46l0.89,0.95c-1.44,1.43-3.12,3.06-4,3.82-1.6,1.33-4,3.19-5.14,3.94s-2.78,1.79-2.89,2.8a2.8,2.8,0,0,0,.5,1.84l0,0a2.8,2.8,0,0,0,1.84.5c1-.1,2.05-1.79,2.8-2.89s2.61-3.55,3.94-5.14c0.75-.9,2.36-2.57,3.79-4,1.51,1.62,3.45,3.73,4.24,4.71,1.17,1.46,3.11,4.63,3.75,5.39s2,2.14,3.43.73l0.16-.16,0.07-.07,0.16-.16C57.11,50.66,55.73,49.28,55,48.64Z"/></svg>