<svg id="Calque_1" data-name="Calque 1" xmlns="http://www.w3.org/2000/svg" viewBox="0 0 136.92 183.76"><defs><style>.cls-1{fill:#01b1ee;}.cls-2{fill:#58585a;}</style></defs><title>Logo</title><path class="cls-1" d="M68.46,16.11A56.59,56.59,0,0,0,12,72.72a61.68,61.68,0,0,0,1.4,12.65,69.79,69.79,0,0,0,10.82,24l41.67,56.8a2.47,2.47,0,0,0,4.57,0l42.26-56.76c2.54-3.41,9.05-15.13,10.82-24a61.66,61.66,0,0,0,1.4-12.65A56.59,56.59,0,0,0,68.46,16.11Zm0,103.39C43,119.5,23.14,98.11,23.14,72.66A44.82,44.82,0,0,1,68.48,27.32c25.46,0,45.25,21.48,45.25,46.93S93.94,119.5,68.48,119.5Z"/><path class="cls-2" d="M68.45,115.31a42.18,42.18,0,1,1,42.18-42.18A42.23,42.23,0,0,1,68.45,115.31Zm0-83.07a40.89,40.89,0,1,0,40.89,40.89A40.93,40.93,0,0,0,68.45,32.24Z"/><path class="cls-2" d="M90,88.65c-1.49-1.26-7.69-5-10.56-7.34C77.5,79.77,73.37,76,70.21,73c1.34-1.33,2.45-2.41,3-2.93a5.14,5.14,0,0,1,3.1-1.78c1.26-.46,2.92.06,5-1.52s5.82-6.34,9.58-10.84,3-3.76,2.38-3.18S82.62,63.55,82,64a0.66,0.66,0,0,1-.92-0.92c0.37-.48.69-0.86,2.75-3.21s8.15-9.12,8-9.21S80.67,61.74,80.13,62.26s-0.73.09-.81,0h0c-0.08-.08-0.46-0.33,0-0.82S91,49.88,90.89,49.73s-6.86,5.94-9.21,8S79,60.12,78.48,60.49a0.67,0.67,0,0,1-.92-0.92C78,58.94,88.23,48.84,88.8,48.27s1.32-1.38-3.19,2.38-9.26,7.49-10.84,9.58-1.06,3.76-1.52,5a5.14,5.14,0,0,1-1.78,3.1c-0.53.56-1.63,1.69-3,3.06l-1.85-1.74c-2.18-2.06-5.45-4.19-4.82-6.77s0.63-6.83-4.3-10.5S48.61,48.92,47.19,49a3,3,0,0,0-2.91,2.91c-0.06,1.42-.25,5.39,3.42,10.33s7.92,4.93,10.5,4.3,4.7,2.64,6.77,4.82l1.74,1.85c-2.82,2.81-6.11,6-7.89,7.47-3.13,2.61-7.92,6.25-10.07,7.72s-5.45,3.5-5.65,5.48a5.49,5.49,0,0,0,1,3.59l0,0a5.48,5.48,0,0,0,3.59,1c2-.2,4-3.5,5.48-5.65s5.11-6.94,7.72-10.07c1.47-1.77,4.62-5,7.41-7.83,3,3.16,6.75,7.29,8.29,9.22C78.91,87,82.69,93.19,84,94.68s4,4.19,6.71,1.44L91,95.81l0.13-.13,0.31-.31C94.18,92.61,91.48,89.91,90,88.65Z"/></svg>