<svg id="Calque_1" data-name="Calque 1" xmlns="http://www.w3.org/2000/svg" viewBox="0 0 22.18 22.18"><defs><style>.cls-1{fill:#fff;}</style></defs><title>20160808_Collecteat_element</title><path class="cls-1" d="M17.89,0H4.29A4.29,4.29,0,0,0,0,4.29V17.89a4.29,4.29,0,0,0,4.29,4.29H17.89a4.29,4.29,0,0,0,4.29-4.29V4.29A4.29,4.29,0,0,0,17.89,0Zm1.23,2.56h0.49V6.31H15.87V2.57h3.27ZM7.92,8.81a3.89,3.89,0,0,1,6.33,0,4,4,0,0,1,.23.37,3.86,3.86,0,0,1,.5,1.9,3.9,3.9,0,0,1-7.81,0,3.86,3.86,0,0,1,.5-1.9A4.08,4.08,0,0,1,7.92,8.81ZM20,17.89A2.13,2.13,0,0,1,17.89,20H4.29a2.13,2.13,0,0,1-2.13-2.13V8.81H5.47A6.14,6.14,0,0,0,5,11.09a6.06,6.06,0,1,0,12.13,0,6,6,0,0,0-.23-1.65,6.14,6.14,0,0,0-.21-0.63H20v9.08Z"/></svg>