<svg id="Calque_1" data-name="Calque 1" xmlns="http://www.w3.org/2000/svg" viewBox="0 0 20.2 27.11"><defs><style>.cls-1{fill:#fff;}</style></defs><title>20160808_Collecteat</title><path class="cls-1" d="M10.1,0A10.12,10.12,0,0,0,0,10.13a11,11,0,0,0,.25,2.26,12.48,12.48,0,0,0,1.94,4.29L9.64,26.84a0.44,0.44,0,0,0,.82,0L18,16.68a13.89,13.89,0,0,0,1.94-4.29,11,11,0,0,0,.25-2.26A10.12,10.12,0,0,0,10.1,0Zm0,18.49A8.25,8.25,0,0,1,2,10.11,8,8,0,0,1,10.1,2a8.25,8.25,0,0,1,8.09,8.39A8,8,0,0,1,10.1,18.49Z"/><path class="cls-1" d="M10.1,17.74a7.54,7.54,0,1,1,7.54-7.54A7.55,7.55,0,0,1,10.1,17.74Zm0-14.86a7.31,7.31,0,1,0,7.31,7.31A7.32,7.32,0,0,0,10.1,2.89Z"/><path class="cls-1" d="M13.95,13c-0.27-.23-1.38-0.9-1.89-1.31-0.34-.28-1.08-1-1.65-1.48l0.54-.52a0.92,0.92,0,0,1,.55-0.32,2,2,0,0,0,.9-0.27,17.5,17.5,0,0,0,1.71-1.94c0.67-.81.53-0.67,0.43-0.57s-1.91,1.93-2,2a0.12,0.12,0,0,1-.16-0.16c0.07-.09.12-0.15,0.49-0.57S14.3,6.2,14.28,6.18s-2,2-2.09,2.07-0.13,0-.14,0h0S12,8.2,12,8.11,14.13,6,14.11,6s-1.23,1.06-1.65,1.43l-0.57.49a0.12,0.12,0,0,1-.16-0.16c0.08-.11,1.91-1.92,2-2s0.24-.25-0.57.43a17.53,17.53,0,0,0-1.94,1.71,2,2,0,0,0-.27.9,0.92,0.92,0,0,1-.32.55l-0.53.55L9.77,9.58c-0.39-.37-1-0.75-0.86-1.21a1.72,1.72,0,0,0-.77-1.88,2.72,2.72,0,0,0-1.85-.61,0.54,0.54,0,0,0-.52.52,2.72,2.72,0,0,0,.61,1.85A1.72,1.72,0,0,0,8.26,9c0.46-.11.84,0.47,1.21,0.86l0.31,0.33c-0.51.5-1.09,1.07-1.41,1.34C7.82,12,7,12.66,6.57,12.92a2.17,2.17,0,0,0-1,1,1,1,0,0,0,.17.64h0a1,1,0,0,0,.64.17,2.17,2.17,0,0,0,1-1c0.26-.38.91-1.24,1.38-1.8,0.26-.32.83-0.9,1.33-1.4,0.53,0.57,1.21,1.3,1.48,1.65,0.41,0.51,1.09,1.62,1.31,1.89a0.78,0.78,0,0,0,1.2.26l0.06-.06,0,0,0.06-.06A0.78,0.78,0,0,0,13.95,13Z"/></svg>